G04 #@! TF.GenerationSoftware,KiCad,Pcbnew,(5.1.5)-2*
G04 #@! TF.CreationDate,2020-09-18T11:59:30-06:00*
G04 #@! TF.ProjectId,Pi-A3-Game-Console,50692d41-332d-4476-916d-652d436f6e73,rev?*
G04 #@! TF.SameCoordinates,Original*
G04 #@! TF.FileFunction,Copper,L1,Top*
G04 #@! TF.FilePolarity,Positive*
%FSLAX46Y46*%
G04 Gerber Fmt 4.6, Leading zero omitted, Abs format (unit mm)*
G04 Created by KiCad (PCBNEW (5.1.5)-2) date 2020-09-18 11:59:30*
%MOMM*%
%LPD*%
G04 APERTURE LIST*
%ADD10R,3.100000X2.300000*%
%ADD11R,1.100000X0.300000*%
%ADD12R,2.300000X3.100000*%
%ADD13R,0.300000X1.100000*%
%ADD14O,1.700000X1.700000*%
%ADD15R,1.700000X1.700000*%
%ADD16C,5.000000*%
%ADD17C,6.000000*%
%ADD18R,2.000000X1.700000*%
%ADD19R,0.500000X2.000000*%
%ADD20C,1.400000*%
%ADD21R,1.400000X1.400000*%
%ADD22C,2.100000*%
%ADD23C,1.750000*%
%ADD24C,0.100000*%
%ADD25C,2.000000*%
%ADD26C,1.500000*%
%ADD27C,0.800000*%
%ADD28C,0.250000*%
%ADD29C,0.254000*%
G04 APERTURE END LIST*
D10*
X185350000Y-82330000D03*
X185350000Y-87670000D03*
D11*
X183650000Y-84000000D03*
X183650000Y-84500000D03*
X183650000Y-85000000D03*
X183650000Y-85500000D03*
X183650000Y-86000000D03*
D12*
X50330000Y-93650000D03*
X55670000Y-93650000D03*
D13*
X52000000Y-95350000D03*
X52500000Y-95350000D03*
X53000000Y-95350000D03*
X53500000Y-95350000D03*
X54000000Y-95350000D03*
D14*
X78105000Y-57150000D03*
X78105000Y-54610000D03*
X75565000Y-57150000D03*
X75565000Y-54610000D03*
X73025000Y-57150000D03*
D15*
X73025000Y-54610000D03*
D16*
X83500000Y-113000000D03*
X186520000Y-113000000D03*
X186520000Y-58000000D03*
X83500000Y-58000000D03*
D14*
X83000000Y-102020000D03*
X83000000Y-99480000D03*
X83000000Y-96940000D03*
X83000000Y-94400000D03*
X83000000Y-91860000D03*
X83000000Y-89320000D03*
X83000000Y-86780000D03*
X83000000Y-84240000D03*
X83000000Y-81700000D03*
X83000000Y-79160000D03*
X83000000Y-76620000D03*
X83000000Y-74080000D03*
X83000000Y-71540000D03*
D15*
X83000000Y-69000000D03*
D17*
X51500000Y-56500000D03*
X51500000Y-114500000D03*
D18*
X195575000Y-56205000D03*
X195575000Y-61655000D03*
X204475000Y-56205000D03*
X204475000Y-61655000D03*
D19*
X198425000Y-61755000D03*
X199225000Y-61755000D03*
X200025000Y-61755000D03*
X200825000Y-61755000D03*
X201625000Y-61755000D03*
D20*
X95170000Y-54485000D03*
X92670000Y-54485000D03*
X90170000Y-54485000D03*
X95170000Y-57785000D03*
X92670000Y-57785000D03*
D21*
X90170000Y-57785000D03*
D22*
X219055000Y-58370000D03*
D23*
X217805000Y-55880000D03*
X213305000Y-55880000D03*
D22*
X212045000Y-58370000D03*
X64115000Y-58370000D03*
D23*
X62865000Y-55880000D03*
X58365000Y-55880000D03*
D22*
X57105000Y-58370000D03*
D16*
X224499900Y-56500001D03*
G04 #@! TA.AperFunction,ComponentPad*
D24*
G36*
X224133074Y-116972942D02*
G01*
X223892450Y-116925079D01*
X223657675Y-116853861D01*
X223431012Y-116759974D01*
X223214643Y-116644323D01*
X223010652Y-116508020D01*
X222821003Y-116352379D01*
X222647522Y-116178898D01*
X222491881Y-115989249D01*
X222355578Y-115785258D01*
X222239927Y-115568889D01*
X222146040Y-115342226D01*
X222074822Y-115107451D01*
X222026959Y-114866827D01*
X222002911Y-114622670D01*
X222002911Y-114377332D01*
X222026959Y-114133175D01*
X222074822Y-113892551D01*
X222146040Y-113657776D01*
X222239927Y-113431113D01*
X222355578Y-113214744D01*
X222491881Y-113010753D01*
X222647522Y-112821104D01*
X222821003Y-112647623D01*
X223010652Y-112491982D01*
X223214643Y-112355679D01*
X223431012Y-112240028D01*
X223657675Y-112146141D01*
X223892450Y-112074923D01*
X224133074Y-112027060D01*
X224377231Y-112003012D01*
X224622569Y-112003012D01*
X224866726Y-112027060D01*
X225107350Y-112074923D01*
X225342125Y-112146141D01*
X225568788Y-112240028D01*
X225785157Y-112355679D01*
X225989148Y-112491982D01*
X226178797Y-112647623D01*
X226352278Y-112821104D01*
X226507919Y-113010753D01*
X226644222Y-113214744D01*
X226759873Y-113431113D01*
X226853760Y-113657776D01*
X226924978Y-113892551D01*
X226972841Y-114133175D01*
X226996889Y-114377332D01*
X226996889Y-114622670D01*
X226972841Y-114866827D01*
X226924978Y-115107451D01*
X226853760Y-115342226D01*
X226759873Y-115568889D01*
X226644222Y-115785258D01*
X226507919Y-115989249D01*
X226352278Y-116178898D01*
X226178797Y-116352379D01*
X225989148Y-116508020D01*
X225785157Y-116644323D01*
X225568788Y-116759974D01*
X225342125Y-116853861D01*
X225107350Y-116925079D01*
X224866726Y-116972942D01*
X224622569Y-116996990D01*
X224377231Y-116996990D01*
X224133074Y-116972942D01*
G37*
G04 #@! TD.AperFunction*
D16*
X175499900Y-56500001D03*
X175499900Y-114500001D03*
D15*
X176769900Y-109630001D03*
D14*
X174229900Y-109630001D03*
X176769900Y-107090001D03*
X174229900Y-107090001D03*
X176769900Y-104550001D03*
X174229900Y-104550001D03*
X176769900Y-102010001D03*
X174229900Y-102010001D03*
X176769900Y-99470001D03*
X174229900Y-99470001D03*
X176769900Y-96930001D03*
X174229900Y-96930001D03*
X176769900Y-94390001D03*
X174229900Y-94390001D03*
X176769900Y-91850001D03*
X174229900Y-91850001D03*
X176769900Y-89310001D03*
X174229900Y-89310001D03*
X176769900Y-86770001D03*
X174229900Y-86770001D03*
X176769900Y-84230001D03*
X174229900Y-84230001D03*
X176769900Y-81690001D03*
X174229900Y-81690001D03*
X176769900Y-79150001D03*
X174229900Y-79150001D03*
X176769900Y-76610001D03*
X174229900Y-76610001D03*
X176769900Y-74070001D03*
X174229900Y-74070001D03*
X176769900Y-71530001D03*
X174229900Y-71530001D03*
X176769900Y-68990001D03*
X174229900Y-68990001D03*
X176769900Y-66450001D03*
X174229900Y-66450001D03*
X176769900Y-63910001D03*
X174229900Y-63910001D03*
X176769900Y-61370001D03*
X174229900Y-61370001D03*
D25*
X58000000Y-116500000D03*
X58000000Y-112000000D03*
X64500000Y-116500000D03*
X64500000Y-112000000D03*
D14*
X50165000Y-108585000D03*
X52705000Y-108585000D03*
X55245000Y-108585000D03*
X57785000Y-108585000D03*
X60325000Y-108585000D03*
X62865000Y-108585000D03*
D15*
X65405000Y-108585000D03*
X99695000Y-63000000D03*
D14*
X102235000Y-63000000D03*
X104775000Y-63000000D03*
X107315000Y-63000000D03*
X109855000Y-63000000D03*
D25*
X207920000Y-111680000D03*
X207920000Y-116180000D03*
X201420000Y-111680000D03*
X201420000Y-116180000D03*
D26*
X54285000Y-76670000D03*
X54285000Y-71790000D03*
D14*
X68000000Y-54610000D03*
D15*
X68000000Y-57150000D03*
D25*
X75500000Y-112000000D03*
X75500000Y-116500000D03*
X69000000Y-112000000D03*
X69000000Y-116500000D03*
X219350000Y-111680000D03*
X219350000Y-116180000D03*
X212850000Y-111680000D03*
X212850000Y-116180000D03*
X201420000Y-70050000D03*
X205920000Y-70050000D03*
X201420000Y-76550000D03*
X205920000Y-76550000D03*
X209040000Y-63700000D03*
X213540000Y-63700000D03*
X209040000Y-70200000D03*
X213540000Y-70200000D03*
X209040000Y-76400000D03*
X213540000Y-76400000D03*
X209040000Y-82900000D03*
X213540000Y-82900000D03*
X216660000Y-70050000D03*
X221160000Y-70050000D03*
X216660000Y-76550000D03*
X221160000Y-76550000D03*
X67055000Y-99260000D03*
X71555000Y-99260000D03*
X67055000Y-105760000D03*
X71555000Y-105760000D03*
X74675000Y-92910000D03*
X79175000Y-92910000D03*
X74675000Y-99410000D03*
X79175000Y-99410000D03*
X59435000Y-92910000D03*
X63935000Y-92910000D03*
X59435000Y-99410000D03*
X63935000Y-99410000D03*
X67055000Y-86560000D03*
X71555000Y-86560000D03*
X67055000Y-93060000D03*
X71555000Y-93060000D03*
D27*
X52252500Y-94146000D03*
X186967700Y-85051100D03*
X65372400Y-79319700D03*
X168514000Y-84371400D03*
X90595700Y-86371800D03*
X170253700Y-85044500D03*
X56828000Y-71264200D03*
X61699100Y-72392800D03*
X69973100Y-70626200D03*
X69976100Y-71667500D03*
X70117900Y-91189200D03*
X80356100Y-71420800D03*
X68869700Y-75676000D03*
X84124900Y-82855400D03*
X62067200Y-74357100D03*
X63681600Y-75077000D03*
X56400000Y-76800000D03*
X57700000Y-67900000D03*
X59734900Y-76669300D03*
X70697200Y-77389800D03*
X61776900Y-70165900D03*
X111654400Y-65745800D03*
X61723400Y-68802200D03*
X186967700Y-66323400D03*
X66280200Y-67450300D03*
X94366600Y-66142500D03*
X66549000Y-72847000D03*
X75587800Y-86403000D03*
X67438200Y-64357000D03*
X97917900Y-65013300D03*
X139401500Y-98675100D03*
X142178400Y-94409500D03*
X141331400Y-97615700D03*
X58293900Y-75157200D03*
X59692500Y-78681000D03*
X67286100Y-78853000D03*
X73173000Y-75188100D03*
D28*
X171083900Y-109060700D02*
X173054600Y-107090000D01*
X67056000Y-109060700D02*
X171083900Y-109060700D01*
X66580300Y-108585000D02*
X67056000Y-109060700D01*
X65405000Y-108585000D02*
X66580300Y-108585000D01*
X174229900Y-107090000D02*
X173054600Y-107090000D01*
X73025000Y-57150000D02*
X68000000Y-57150000D01*
X52000000Y-94398500D02*
X52252500Y-94146000D01*
X52000000Y-95350000D02*
X52000000Y-94398500D01*
X185916600Y-84000000D02*
X183650000Y-84000000D01*
X186967700Y-85051100D02*
X185916600Y-84000000D01*
X188213400Y-83805400D02*
X186967700Y-85051100D01*
X188213400Y-81146600D02*
X188213400Y-83805400D01*
X201625000Y-67735000D02*
X188213400Y-81146600D01*
X201625000Y-61755000D02*
X201625000Y-67735000D01*
X219350000Y-116180000D02*
X212850000Y-116180000D01*
X174229900Y-86770000D02*
X175405200Y-86770000D01*
X183650000Y-85500000D02*
X182774700Y-85500000D01*
X53500000Y-95350000D02*
X53500000Y-96225300D01*
X176376300Y-85500000D02*
X182774700Y-85500000D01*
X175405200Y-86471100D02*
X176376300Y-85500000D01*
X175405200Y-86770000D02*
X175405200Y-86471100D01*
X174229900Y-68990000D02*
X173054600Y-68990000D01*
X204475000Y-61655000D02*
X204475000Y-60479700D01*
X109855000Y-63000000D02*
X111030300Y-63000000D01*
X198425000Y-61755000D02*
X198425000Y-60429700D01*
X195575000Y-61655000D02*
X195575000Y-60479700D01*
X195625000Y-57430300D02*
X195575000Y-57380300D01*
X195625000Y-60429700D02*
X195625000Y-57430300D01*
X195575000Y-60479700D02*
X195625000Y-60429700D01*
X195625000Y-60429700D02*
X198425000Y-60429700D01*
X195575000Y-56205000D02*
X195575000Y-57380300D01*
X69000000Y-116500000D02*
X75500000Y-116500000D01*
X193964700Y-61370000D02*
X194249700Y-61655000D01*
X176769900Y-61370000D02*
X193964700Y-61370000D01*
X195575000Y-61655000D02*
X194249700Y-61655000D01*
X204062700Y-57792600D02*
X204475000Y-57380300D01*
X204062700Y-60067400D02*
X204062700Y-57792600D01*
X204475000Y-60479700D02*
X204062700Y-60067400D01*
X198787300Y-60067400D02*
X198425000Y-60429700D01*
X204062700Y-60067400D02*
X198787300Y-60067400D01*
X204475000Y-56205000D02*
X204475000Y-57380300D01*
X206125300Y-55880000D02*
X205800300Y-56205000D01*
X213305000Y-55880000D02*
X206125300Y-55880000D01*
X204475000Y-56205000D02*
X205800300Y-56205000D01*
X69000000Y-116500000D02*
X64500000Y-116500000D01*
X79175000Y-95602400D02*
X79175000Y-99410000D01*
X77828800Y-94256200D02*
X79175000Y-95602400D01*
X79175000Y-92910000D02*
X77828800Y-94256200D01*
X184710000Y-99470000D02*
X201420000Y-116180000D01*
X176769900Y-99470000D02*
X184710000Y-99470000D01*
X212850000Y-116180000D02*
X207920000Y-116180000D01*
X207920000Y-116180000D02*
X201420000Y-116180000D01*
X59635000Y-54610000D02*
X58365000Y-55880000D01*
X68000000Y-54610000D02*
X59635000Y-54610000D01*
X70350600Y-55785300D02*
X69175300Y-54610000D01*
X75932400Y-55785300D02*
X70350600Y-55785300D01*
X76929700Y-56782600D02*
X75932400Y-55785300D01*
X76929700Y-57150000D02*
X76929700Y-56782600D01*
X68000000Y-54610000D02*
X69175300Y-54610000D01*
X72751200Y-98063800D02*
X71555000Y-99260000D01*
X72751200Y-94256200D02*
X72751200Y-98063800D01*
X77828800Y-94256200D02*
X72751200Y-94256200D01*
X72751200Y-94256200D02*
X71555000Y-93060000D01*
X117020300Y-68990000D02*
X111030300Y-63000000D01*
X173054600Y-68990000D02*
X117020300Y-68990000D01*
X77517400Y-57150000D02*
X76929700Y-57150000D01*
X77517400Y-57150000D02*
X78105000Y-57150000D01*
X86516400Y-55156700D02*
X89144700Y-57785000D01*
X81273600Y-55156700D02*
X86516400Y-55156700D01*
X79280300Y-57150000D02*
X81273600Y-55156700D01*
X78105000Y-57150000D02*
X79280300Y-57150000D01*
X90170000Y-57785000D02*
X89144700Y-57785000D01*
X61257900Y-96732900D02*
X63935000Y-99410000D01*
X61257900Y-96225300D02*
X61257900Y-96732900D01*
X53500000Y-96225300D02*
X61257900Y-96225300D01*
X63935000Y-93548200D02*
X63935000Y-92910000D01*
X61257900Y-96225300D02*
X63935000Y-93548200D01*
X69584800Y-91951300D02*
X71555000Y-91951300D01*
X69352000Y-91718500D02*
X69584800Y-91951300D01*
X65126500Y-91718500D02*
X69352000Y-91718500D01*
X63935000Y-92910000D02*
X65126500Y-91718500D01*
X71555000Y-86560000D02*
X71555000Y-91951300D01*
X71555000Y-91951300D02*
X71555000Y-93060000D01*
X64040300Y-107776900D02*
X64040300Y-108585000D01*
X64407500Y-107409700D02*
X64040300Y-107776900D01*
X69905300Y-107409700D02*
X64407500Y-107409700D01*
X71555000Y-105760000D02*
X69905300Y-107409700D01*
X62865000Y-108585000D02*
X64040300Y-108585000D01*
X83000000Y-86780000D02*
X81824700Y-86780000D01*
X67757300Y-81704600D02*
X65372400Y-79319700D01*
X69902700Y-81704600D02*
X67757300Y-81704600D01*
X74659000Y-86460900D02*
X69902700Y-81704600D01*
X74659000Y-86573500D02*
X74659000Y-86460900D01*
X75213800Y-87128300D02*
X74659000Y-86573500D01*
X81476400Y-87128300D02*
X75213800Y-87128300D01*
X81824700Y-86780000D02*
X81476400Y-87128300D01*
X163302600Y-79160000D02*
X83000000Y-79160000D01*
X168514000Y-84371400D02*
X163302600Y-79160000D01*
X175591000Y-87948900D02*
X176769900Y-86770000D01*
X91147100Y-87948900D02*
X175591000Y-87948900D01*
X84898200Y-81700000D02*
X91147100Y-87948900D01*
X83000000Y-81700000D02*
X84898200Y-81700000D01*
X176769900Y-84230000D02*
X175594600Y-84230000D01*
X171684400Y-86371800D02*
X90595700Y-86371800D01*
X172650900Y-85405300D02*
X171684400Y-86371800D01*
X174786700Y-85405300D02*
X172650900Y-85405300D01*
X175594600Y-84597400D02*
X174786700Y-85405300D01*
X175594600Y-84230000D02*
X175594600Y-84597400D01*
X174229900Y-84230000D02*
X173054600Y-84230000D01*
X165444600Y-76620000D02*
X173054600Y-84230000D01*
X83000000Y-76620000D02*
X165444600Y-76620000D01*
X83000000Y-84240000D02*
X83000000Y-83064700D01*
X82632600Y-83064700D02*
X83000000Y-83064700D01*
X81824700Y-82256800D02*
X82632600Y-83064700D01*
X81824700Y-81184600D02*
X81824700Y-82256800D01*
X82489400Y-80519900D02*
X81824700Y-81184600D01*
X156795200Y-80519900D02*
X82489400Y-80519900D01*
X161376400Y-85101100D02*
X156795200Y-80519900D01*
X170197100Y-85101100D02*
X161376400Y-85101100D01*
X170253700Y-85044500D02*
X170197100Y-85101100D01*
X174229900Y-81690000D02*
X173054600Y-81690000D01*
X83000000Y-74080000D02*
X84175300Y-74080000D01*
X165444600Y-74080000D02*
X173054600Y-81690000D01*
X84175300Y-74080000D02*
X165444600Y-74080000D01*
X175594600Y-107457400D02*
X175594600Y-107090000D01*
X174786700Y-108265300D02*
X175594600Y-107457400D01*
X172759800Y-108265300D02*
X174786700Y-108265300D01*
X171264700Y-109760400D02*
X172759800Y-108265300D01*
X49663200Y-109760400D02*
X171264700Y-109760400D01*
X48383800Y-108481000D02*
X49663200Y-109760400D01*
X48383800Y-79708400D02*
X48383800Y-108481000D01*
X56828000Y-71264200D02*
X48383800Y-79708400D01*
X176769900Y-107090000D02*
X175594600Y-107090000D01*
X176769900Y-104550000D02*
X176769900Y-103374700D01*
X62110800Y-72392800D02*
X61699100Y-72392800D01*
X64552300Y-74834300D02*
X62110800Y-72392800D01*
X64552300Y-79541300D02*
X64552300Y-74834300D01*
X67616300Y-82605300D02*
X64552300Y-79541300D01*
X70152900Y-82605300D02*
X67616300Y-82605300D01*
X74208700Y-86661100D02*
X70152900Y-82605300D01*
X74208700Y-86822900D02*
X74208700Y-86661100D01*
X75435800Y-88050000D02*
X74208700Y-86822900D01*
X83434200Y-88050000D02*
X75435800Y-88050000D01*
X88999000Y-93614800D02*
X83434200Y-88050000D01*
X142472400Y-93614800D02*
X88999000Y-93614800D01*
X144423000Y-95565400D02*
X142472400Y-93614800D01*
X174530500Y-95565400D02*
X144423000Y-95565400D01*
X175405300Y-96440200D02*
X174530500Y-95565400D01*
X175405300Y-99819900D02*
X175405300Y-96440200D01*
X176230800Y-100645400D02*
X175405300Y-99819900D01*
X177079000Y-100645400D02*
X176230800Y-100645400D01*
X177952400Y-101518800D02*
X177079000Y-100645400D01*
X177952400Y-102557500D02*
X177952400Y-101518800D01*
X177135200Y-103374700D02*
X177952400Y-102557500D01*
X176769900Y-103374700D02*
X177135200Y-103374700D01*
X52500000Y-95350000D02*
X52500000Y-96225300D01*
X49703300Y-96225300D02*
X52500000Y-96225300D01*
X48854600Y-95376600D02*
X49703300Y-96225300D01*
X48854600Y-90549700D02*
X48854600Y-95376600D01*
X60460400Y-78943900D02*
X48854600Y-90549700D01*
X60460400Y-71968900D02*
X60460400Y-78943900D01*
X61212100Y-71217200D02*
X60460400Y-71968900D01*
X69382100Y-71217200D02*
X61212100Y-71217200D01*
X69973100Y-70626200D02*
X69382100Y-71217200D01*
X61398700Y-71667500D02*
X69976100Y-71667500D01*
X60973800Y-72092400D02*
X61398700Y-71667500D01*
X60973800Y-80286600D02*
X60973800Y-72092400D01*
X53000000Y-88260400D02*
X60973800Y-80286600D01*
X53000000Y-95350000D02*
X53000000Y-88260400D01*
X70117900Y-91189300D02*
X70117900Y-91189200D01*
X63139000Y-91189300D02*
X70117900Y-91189300D01*
X58802900Y-95525400D02*
X63139000Y-91189300D01*
X54175400Y-95525400D02*
X58802900Y-95525400D01*
X54000000Y-95350000D02*
X54175400Y-95525400D01*
X183650000Y-84500000D02*
X182774700Y-84500000D01*
X182774700Y-80878600D02*
X182774700Y-84500000D01*
X177236100Y-75340000D02*
X182774700Y-80878600D01*
X167341500Y-75340000D02*
X177236100Y-75340000D01*
X164733100Y-72731600D02*
X167341500Y-75340000D01*
X81666900Y-72731600D02*
X164733100Y-72731600D01*
X80356100Y-71420800D02*
X81666900Y-72731600D01*
X181712100Y-85000000D02*
X183650000Y-85000000D01*
X179672100Y-82960000D02*
X181712100Y-85000000D01*
X172904300Y-82960000D02*
X179672100Y-82960000D01*
X165361700Y-75417400D02*
X172904300Y-82960000D01*
X74532500Y-75417400D02*
X165361700Y-75417400D01*
X74036500Y-75913400D02*
X74532500Y-75417400D01*
X69107100Y-75913400D02*
X74036500Y-75913400D01*
X68869700Y-75676000D02*
X69107100Y-75913400D01*
X183650000Y-86000000D02*
X182774700Y-86000000D01*
X180734700Y-88040000D02*
X182774700Y-86000000D01*
X176373500Y-88040000D02*
X180734700Y-88040000D01*
X175499900Y-88913600D02*
X176373500Y-88040000D01*
X175499900Y-89741000D02*
X175499900Y-88913600D01*
X174755500Y-90485400D02*
X175499900Y-89741000D01*
X107676100Y-90485400D02*
X174755500Y-90485400D01*
X106023800Y-88833100D02*
X107676100Y-90485400D01*
X91204700Y-88833100D02*
X106023800Y-88833100D01*
X85227000Y-82855400D02*
X91204700Y-88833100D01*
X84124900Y-82855400D02*
X85227000Y-82855400D01*
X62067200Y-81572200D02*
X62067200Y-74357100D01*
X67055000Y-86560000D02*
X62067200Y-81572200D01*
X63681600Y-79310000D02*
X63681600Y-75077000D01*
X67652200Y-83280600D02*
X63681600Y-79310000D01*
X70191300Y-83280600D02*
X67652200Y-83280600D01*
X73758300Y-86847600D02*
X70191300Y-83280600D01*
X73758300Y-91993300D02*
X73758300Y-86847600D01*
X74675000Y-92910000D02*
X73758300Y-91993300D01*
X57553001Y-68046999D02*
X57700000Y-67900000D01*
X56400000Y-76800000D02*
X57553001Y-75646999D01*
X57553001Y-75646999D02*
X57553001Y-68046999D01*
X216660000Y-57514000D02*
X216660000Y-70050000D01*
X213825600Y-54679600D02*
X216660000Y-57514000D01*
X181403900Y-54679600D02*
X213825600Y-54679600D01*
X176679600Y-59403900D02*
X181403900Y-54679600D01*
X169237500Y-59403900D02*
X176679600Y-59403900D01*
X167307200Y-61334200D02*
X169237500Y-59403900D01*
X68161200Y-61334200D02*
X167307200Y-61334200D01*
X59734900Y-69760500D02*
X68161200Y-61334200D01*
X59734900Y-76669300D02*
X59734900Y-69760500D01*
X198844900Y-93095100D02*
X209040000Y-82900000D01*
X94750300Y-93095100D02*
X198844900Y-93095100D01*
X87110200Y-85455000D02*
X94750300Y-93095100D01*
X78762400Y-85455000D02*
X87110200Y-85455000D01*
X70697200Y-77389800D02*
X78762400Y-85455000D01*
X64693700Y-70165900D02*
X61776900Y-70165900D01*
X67513000Y-67346600D02*
X64693700Y-70165900D01*
X96548900Y-67346600D02*
X67513000Y-67346600D01*
X98149700Y-65745800D02*
X96548900Y-67346600D01*
X111654400Y-65745800D02*
X98149700Y-65745800D01*
X201420000Y-70050000D02*
X201420000Y-76550000D01*
X185824300Y-65180000D02*
X186967700Y-66323400D01*
X163435400Y-65180000D02*
X185824300Y-65180000D01*
X160039900Y-61784500D02*
X163435400Y-65180000D01*
X68741100Y-61784500D02*
X160039900Y-61784500D01*
X61723400Y-68802200D02*
X68741100Y-61784500D01*
X212850000Y-111680000D02*
X219350000Y-111680000D01*
X67588000Y-66142500D02*
X66280200Y-67450300D01*
X94366600Y-66142500D02*
X67588000Y-66142500D01*
X69000000Y-112000000D02*
X75500000Y-112000000D01*
X66549000Y-79148800D02*
X66549000Y-72847000D01*
X68654500Y-81254300D02*
X66549000Y-79148800D01*
X70439100Y-81254300D02*
X68654500Y-81254300D01*
X75587800Y-86403000D02*
X70439100Y-81254300D01*
X201420000Y-111680000D02*
X207920000Y-111680000D01*
X97261600Y-64357000D02*
X97917900Y-65013300D01*
X67438200Y-64357000D02*
X97261600Y-64357000D01*
X174229900Y-102010000D02*
X173054600Y-102010000D01*
X169719700Y-98675100D02*
X139401500Y-98675100D01*
X173054600Y-102010000D02*
X169719700Y-98675100D01*
X52705000Y-108585000D02*
X53880300Y-108585000D01*
X53880300Y-108217700D02*
X53880300Y-108585000D01*
X58338800Y-103759200D02*
X53880300Y-108217700D01*
X132590600Y-103759200D02*
X58338800Y-103759200D01*
X139459400Y-96890400D02*
X132590600Y-103759200D01*
X173015000Y-96890400D02*
X139459400Y-96890400D01*
X173054600Y-96930000D02*
X173015000Y-96890400D01*
X174229900Y-96930000D02*
X173054600Y-96930000D01*
X50165000Y-108585000D02*
X51340300Y-108585000D01*
X105051500Y-94409500D02*
X142178400Y-94409500D01*
X96244700Y-103216300D02*
X105051500Y-94409500D01*
X56341700Y-103216300D02*
X96244700Y-103216300D01*
X51340300Y-108217700D02*
X56341700Y-103216300D01*
X51340300Y-108585000D02*
X51340300Y-108217700D01*
X139371000Y-97615700D02*
X141331400Y-97615700D01*
X132552100Y-104434600D02*
X139371000Y-97615700D01*
X60203400Y-104434600D02*
X132552100Y-104434600D01*
X56420300Y-108217700D02*
X60203400Y-104434600D01*
X56420300Y-108585000D02*
X56420300Y-108217700D01*
X55245000Y-108585000D02*
X56420300Y-108585000D01*
X76929700Y-54242600D02*
X76929700Y-54610000D01*
X76121800Y-53434700D02*
X76929700Y-54242600D01*
X59052500Y-53434700D02*
X76121800Y-53434700D01*
X57142000Y-55345200D02*
X59052500Y-53434700D01*
X57142000Y-56354600D02*
X57142000Y-55345200D01*
X58480400Y-57693000D02*
X57142000Y-56354600D01*
X58480400Y-74970700D02*
X58480400Y-57693000D01*
X58293900Y-75157200D02*
X58480400Y-74970700D01*
X78105000Y-54610000D02*
X76929700Y-54610000D01*
X75565000Y-57150000D02*
X74389700Y-57150000D01*
X58966100Y-77954600D02*
X59692500Y-78681000D01*
X58966100Y-75510800D02*
X58966100Y-77954600D01*
X59019200Y-75457700D02*
X58966100Y-75510800D01*
X59019200Y-69839300D02*
X59019200Y-75457700D01*
X70533200Y-58325300D02*
X59019200Y-69839300D01*
X73581800Y-58325300D02*
X70533200Y-58325300D01*
X74389700Y-57517400D02*
X73581800Y-58325300D01*
X74389700Y-57150000D02*
X74389700Y-57517400D01*
X64500000Y-112000000D02*
X58000000Y-112000000D01*
X200025000Y-61755000D02*
X200025000Y-63080300D01*
X192939900Y-70165400D02*
X200025000Y-63080300D01*
X107249600Y-70165400D02*
X192939900Y-70165400D01*
X103280400Y-66196200D02*
X107249600Y-70165400D01*
X98586200Y-66196200D02*
X103280400Y-66196200D01*
X96957700Y-67824700D02*
X98586200Y-66196200D01*
X75690400Y-67824700D02*
X96957700Y-67824700D01*
X67286100Y-76229000D02*
X75690400Y-67824700D01*
X67286100Y-78853000D02*
X67286100Y-76229000D01*
X191173600Y-72731700D02*
X200825000Y-63080300D01*
X165370100Y-72731700D02*
X191173600Y-72731700D01*
X163254200Y-70615800D02*
X165370100Y-72731700D01*
X84175400Y-70615800D02*
X163254200Y-70615800D01*
X83900000Y-70340400D02*
X84175400Y-70615800D01*
X78020700Y-70340400D02*
X83900000Y-70340400D01*
X73173000Y-75188100D02*
X78020700Y-70340400D01*
X200825000Y-61755000D02*
X200825000Y-63080300D01*
D29*
G36*
X199853823Y-115688625D02*
G01*
X199847832Y-115703088D01*
X199785000Y-116018967D01*
X199785000Y-116341033D01*
X199847832Y-116656912D01*
X199971082Y-116954463D01*
X200150013Y-117222252D01*
X200232763Y-117305002D01*
X176920180Y-117305001D01*
X176984879Y-117278202D01*
X177498346Y-116935115D01*
X177935014Y-116498447D01*
X178278101Y-115984980D01*
X178514424Y-115414447D01*
X178634900Y-114808772D01*
X178634900Y-114191230D01*
X178514424Y-113585555D01*
X178278101Y-113015022D01*
X178061750Y-112691229D01*
X183385000Y-112691229D01*
X183385000Y-113308771D01*
X183505476Y-113914446D01*
X183741799Y-114484979D01*
X184084886Y-114998446D01*
X184521554Y-115435114D01*
X185035021Y-115778201D01*
X185605554Y-116014524D01*
X186211229Y-116135000D01*
X186828771Y-116135000D01*
X187434446Y-116014524D01*
X188004979Y-115778201D01*
X188518446Y-115435114D01*
X188955114Y-114998446D01*
X189298201Y-114484979D01*
X189534524Y-113914446D01*
X189655000Y-113308771D01*
X189655000Y-112691229D01*
X189534524Y-112085554D01*
X189298201Y-111515021D01*
X188955114Y-111001554D01*
X188518446Y-110564886D01*
X188004979Y-110221799D01*
X187434446Y-109985476D01*
X186828771Y-109865000D01*
X186211229Y-109865000D01*
X185605554Y-109985476D01*
X185035021Y-110221799D01*
X184521554Y-110564886D01*
X184084886Y-111001554D01*
X183741799Y-111515021D01*
X183505476Y-112085554D01*
X183385000Y-112691229D01*
X178061750Y-112691229D01*
X177935014Y-112501555D01*
X177498346Y-112064887D01*
X176984879Y-111721800D01*
X176414346Y-111485477D01*
X175808671Y-111365001D01*
X175191129Y-111365001D01*
X174585454Y-111485477D01*
X174014921Y-111721800D01*
X173501454Y-112064887D01*
X173064786Y-112501555D01*
X172721699Y-113015022D01*
X172485376Y-113585555D01*
X172364900Y-114191230D01*
X172364900Y-114808772D01*
X172485376Y-115414447D01*
X172721699Y-115984980D01*
X173064786Y-116498447D01*
X173501454Y-116935115D01*
X174014921Y-117278202D01*
X174079620Y-117305001D01*
X76928514Y-117305000D01*
X76948918Y-117274463D01*
X77072168Y-116976912D01*
X77135000Y-116661033D01*
X77135000Y-116338967D01*
X77072168Y-116023088D01*
X76948918Y-115725537D01*
X76769987Y-115457748D01*
X76542252Y-115230013D01*
X76274463Y-115051082D01*
X75976912Y-114927832D01*
X75661033Y-114865000D01*
X75338967Y-114865000D01*
X75023088Y-114927832D01*
X74725537Y-115051082D01*
X74457748Y-115230013D01*
X74230013Y-115457748D01*
X74051082Y-115725537D01*
X74045091Y-115740000D01*
X70454909Y-115740000D01*
X70448918Y-115725537D01*
X70269987Y-115457748D01*
X70042252Y-115230013D01*
X69774463Y-115051082D01*
X69476912Y-114927832D01*
X69161033Y-114865000D01*
X68838967Y-114865000D01*
X68523088Y-114927832D01*
X68225537Y-115051082D01*
X67957748Y-115230013D01*
X67730013Y-115457748D01*
X67551082Y-115725537D01*
X67545091Y-115740000D01*
X65954909Y-115740000D01*
X65948918Y-115725537D01*
X65769987Y-115457748D01*
X65542252Y-115230013D01*
X65274463Y-115051082D01*
X64976912Y-114927832D01*
X64661033Y-114865000D01*
X64338967Y-114865000D01*
X64023088Y-114927832D01*
X63725537Y-115051082D01*
X63457748Y-115230013D01*
X63230013Y-115457748D01*
X63051082Y-115725537D01*
X62927832Y-116023088D01*
X62865000Y-116338967D01*
X62865000Y-116661033D01*
X62927832Y-116976912D01*
X63051082Y-117274463D01*
X63071486Y-117305000D01*
X59428514Y-117305000D01*
X59448918Y-117274463D01*
X59572168Y-116976912D01*
X59635000Y-116661033D01*
X59635000Y-116338967D01*
X59572168Y-116023088D01*
X59448918Y-115725537D01*
X59269987Y-115457748D01*
X59042252Y-115230013D01*
X58774463Y-115051082D01*
X58476912Y-114927832D01*
X58161033Y-114865000D01*
X57838967Y-114865000D01*
X57523088Y-114927832D01*
X57225537Y-115051082D01*
X56957748Y-115230013D01*
X56730013Y-115457748D01*
X56551082Y-115725537D01*
X56427832Y-116023088D01*
X56365000Y-116338967D01*
X56365000Y-116661033D01*
X56427832Y-116976912D01*
X56551082Y-117274463D01*
X56571486Y-117305000D01*
X53835666Y-117305000D01*
X54323489Y-116817177D01*
X54721295Y-116221818D01*
X54995309Y-115560290D01*
X55135000Y-114858016D01*
X55135000Y-114141984D01*
X54995309Y-113439710D01*
X54721295Y-112778182D01*
X54323489Y-112182823D01*
X53817177Y-111676511D01*
X53221818Y-111278705D01*
X52560290Y-111004691D01*
X51858016Y-110865000D01*
X51141984Y-110865000D01*
X50439710Y-111004691D01*
X49778182Y-111278705D01*
X49182823Y-111676511D01*
X48695000Y-112164334D01*
X48695000Y-109867002D01*
X49099401Y-110271403D01*
X49123199Y-110300401D01*
X49238924Y-110395374D01*
X49370953Y-110465946D01*
X49514214Y-110509403D01*
X49625867Y-110520400D01*
X49625877Y-110520400D01*
X49663200Y-110524076D01*
X49700523Y-110520400D01*
X57299610Y-110520400D01*
X57225537Y-110551082D01*
X56957748Y-110730013D01*
X56730013Y-110957748D01*
X56551082Y-111225537D01*
X56427832Y-111523088D01*
X56365000Y-111838967D01*
X56365000Y-112161033D01*
X56427832Y-112476912D01*
X56551082Y-112774463D01*
X56730013Y-113042252D01*
X56957748Y-113269987D01*
X57225537Y-113448918D01*
X57523088Y-113572168D01*
X57838967Y-113635000D01*
X58161033Y-113635000D01*
X58476912Y-113572168D01*
X58774463Y-113448918D01*
X59042252Y-113269987D01*
X59269987Y-113042252D01*
X59448918Y-112774463D01*
X59454909Y-112760000D01*
X63045091Y-112760000D01*
X63051082Y-112774463D01*
X63230013Y-113042252D01*
X63457748Y-113269987D01*
X63725537Y-113448918D01*
X64023088Y-113572168D01*
X64338967Y-113635000D01*
X64661033Y-113635000D01*
X64976912Y-113572168D01*
X65274463Y-113448918D01*
X65542252Y-113269987D01*
X65769987Y-113042252D01*
X65948918Y-112774463D01*
X66072168Y-112476912D01*
X66135000Y-112161033D01*
X66135000Y-111838967D01*
X66072168Y-111523088D01*
X65948918Y-111225537D01*
X65769987Y-110957748D01*
X65542252Y-110730013D01*
X65274463Y-110551082D01*
X65200390Y-110520400D01*
X68299610Y-110520400D01*
X68225537Y-110551082D01*
X67957748Y-110730013D01*
X67730013Y-110957748D01*
X67551082Y-111225537D01*
X67427832Y-111523088D01*
X67365000Y-111838967D01*
X67365000Y-112161033D01*
X67427832Y-112476912D01*
X67551082Y-112774463D01*
X67730013Y-113042252D01*
X67957748Y-113269987D01*
X68225537Y-113448918D01*
X68523088Y-113572168D01*
X68838967Y-113635000D01*
X69161033Y-113635000D01*
X69476912Y-113572168D01*
X69774463Y-113448918D01*
X70042252Y-113269987D01*
X70269987Y-113042252D01*
X70448918Y-112774463D01*
X70454909Y-112760000D01*
X74045091Y-112760000D01*
X74051082Y-112774463D01*
X74230013Y-113042252D01*
X74457748Y-113269987D01*
X74725537Y-113448918D01*
X75023088Y-113572168D01*
X75338967Y-113635000D01*
X75661033Y-113635000D01*
X75976912Y-113572168D01*
X76274463Y-113448918D01*
X76542252Y-113269987D01*
X76769987Y-113042252D01*
X76948918Y-112774463D01*
X77072168Y-112476912D01*
X77135000Y-112161033D01*
X77135000Y-111838967D01*
X77072168Y-111523088D01*
X76948918Y-111225537D01*
X76769987Y-110957748D01*
X76542252Y-110730013D01*
X76274463Y-110551082D01*
X76200390Y-110520400D01*
X81568132Y-110520400D01*
X81501554Y-110564886D01*
X81064886Y-111001554D01*
X80721799Y-111515021D01*
X80485476Y-112085554D01*
X80365000Y-112691229D01*
X80365000Y-113308771D01*
X80485476Y-113914446D01*
X80721799Y-114484979D01*
X81064886Y-114998446D01*
X81501554Y-115435114D01*
X82015021Y-115778201D01*
X82585554Y-116014524D01*
X83191229Y-116135000D01*
X83808771Y-116135000D01*
X84414446Y-116014524D01*
X84984979Y-115778201D01*
X85498446Y-115435114D01*
X85935114Y-114998446D01*
X86278201Y-114484979D01*
X86514524Y-113914446D01*
X86635000Y-113308771D01*
X86635000Y-112691229D01*
X86514524Y-112085554D01*
X86278201Y-111515021D01*
X85935114Y-111001554D01*
X85498446Y-110564886D01*
X85431868Y-110520400D01*
X171227378Y-110520400D01*
X171264700Y-110524076D01*
X171302022Y-110520400D01*
X171302033Y-110520400D01*
X171413686Y-110509403D01*
X171556947Y-110465946D01*
X171688976Y-110395374D01*
X171804701Y-110300401D01*
X171828504Y-110271397D01*
X172113010Y-109986891D01*
X172788424Y-109986891D01*
X172833075Y-110134100D01*
X172958259Y-110396921D01*
X173132312Y-110630270D01*
X173348545Y-110825179D01*
X173598648Y-110974158D01*
X173873009Y-111071482D01*
X174102900Y-110950815D01*
X174102900Y-109757001D01*
X172909745Y-109757001D01*
X172788424Y-109986891D01*
X172113010Y-109986891D01*
X172801677Y-109298224D01*
X172909745Y-109503001D01*
X174102900Y-109503001D01*
X174102900Y-109483001D01*
X174356900Y-109483001D01*
X174356900Y-109503001D01*
X174376900Y-109503001D01*
X174376900Y-109757001D01*
X174356900Y-109757001D01*
X174356900Y-110950815D01*
X174586791Y-111071482D01*
X174861152Y-110974158D01*
X175111255Y-110825179D01*
X175307402Y-110648375D01*
X175330398Y-110724181D01*
X175389363Y-110834495D01*
X175468715Y-110931186D01*
X175565406Y-111010538D01*
X175675720Y-111069503D01*
X175795418Y-111105813D01*
X175919900Y-111118073D01*
X177619900Y-111118073D01*
X177744382Y-111105813D01*
X177864080Y-111069503D01*
X177974394Y-111010538D01*
X178071085Y-110931186D01*
X178150437Y-110834495D01*
X178209402Y-110724181D01*
X178245712Y-110604483D01*
X178257972Y-110480001D01*
X178257972Y-108780001D01*
X178245712Y-108655519D01*
X178209402Y-108535821D01*
X178150437Y-108425507D01*
X178071085Y-108328816D01*
X177974394Y-108249464D01*
X177864080Y-108190499D01*
X177791520Y-108168488D01*
X177923375Y-108036633D01*
X178085890Y-107793412D01*
X178197832Y-107523159D01*
X178254900Y-107236261D01*
X178254900Y-106943741D01*
X178197832Y-106656843D01*
X178085890Y-106386590D01*
X177923375Y-106143369D01*
X177716532Y-105936526D01*
X177542140Y-105820001D01*
X177716532Y-105703476D01*
X177923375Y-105496633D01*
X178085890Y-105253412D01*
X178197832Y-104983159D01*
X178254900Y-104696261D01*
X178254900Y-104403741D01*
X178197832Y-104116843D01*
X178085890Y-103846590D01*
X177946589Y-103638112D01*
X178463404Y-103121298D01*
X178492401Y-103097501D01*
X178587374Y-102981776D01*
X178657946Y-102849747D01*
X178701403Y-102706486D01*
X178712400Y-102594833D01*
X178712400Y-102594824D01*
X178716076Y-102557501D01*
X178712400Y-102520178D01*
X178712400Y-101556122D01*
X178716076Y-101518799D01*
X178712400Y-101481476D01*
X178712400Y-101481467D01*
X178701403Y-101369814D01*
X178657946Y-101226553D01*
X178648670Y-101209199D01*
X178587374Y-101094523D01*
X178516199Y-101007797D01*
X178492401Y-100978799D01*
X178463403Y-100955001D01*
X177924040Y-100415638D01*
X178048079Y-100230000D01*
X184395199Y-100230000D01*
X199853823Y-115688625D01*
G37*
X199853823Y-115688625D02*
X199847832Y-115703088D01*
X199785000Y-116018967D01*
X199785000Y-116341033D01*
X199847832Y-116656912D01*
X199971082Y-116954463D01*
X200150013Y-117222252D01*
X200232763Y-117305002D01*
X176920180Y-117305001D01*
X176984879Y-117278202D01*
X177498346Y-116935115D01*
X177935014Y-116498447D01*
X178278101Y-115984980D01*
X178514424Y-115414447D01*
X178634900Y-114808772D01*
X178634900Y-114191230D01*
X178514424Y-113585555D01*
X178278101Y-113015022D01*
X178061750Y-112691229D01*
X183385000Y-112691229D01*
X183385000Y-113308771D01*
X183505476Y-113914446D01*
X183741799Y-114484979D01*
X184084886Y-114998446D01*
X184521554Y-115435114D01*
X185035021Y-115778201D01*
X185605554Y-116014524D01*
X186211229Y-116135000D01*
X186828771Y-116135000D01*
X187434446Y-116014524D01*
X188004979Y-115778201D01*
X188518446Y-115435114D01*
X188955114Y-114998446D01*
X189298201Y-114484979D01*
X189534524Y-113914446D01*
X189655000Y-113308771D01*
X189655000Y-112691229D01*
X189534524Y-112085554D01*
X189298201Y-111515021D01*
X188955114Y-111001554D01*
X188518446Y-110564886D01*
X188004979Y-110221799D01*
X187434446Y-109985476D01*
X186828771Y-109865000D01*
X186211229Y-109865000D01*
X185605554Y-109985476D01*
X185035021Y-110221799D01*
X184521554Y-110564886D01*
X184084886Y-111001554D01*
X183741799Y-111515021D01*
X183505476Y-112085554D01*
X183385000Y-112691229D01*
X178061750Y-112691229D01*
X177935014Y-112501555D01*
X177498346Y-112064887D01*
X176984879Y-111721800D01*
X176414346Y-111485477D01*
X175808671Y-111365001D01*
X175191129Y-111365001D01*
X174585454Y-111485477D01*
X174014921Y-111721800D01*
X173501454Y-112064887D01*
X173064786Y-112501555D01*
X172721699Y-113015022D01*
X172485376Y-113585555D01*
X172364900Y-114191230D01*
X172364900Y-114808772D01*
X172485376Y-115414447D01*
X172721699Y-115984980D01*
X173064786Y-116498447D01*
X173501454Y-116935115D01*
X174014921Y-117278202D01*
X174079620Y-117305001D01*
X76928514Y-117305000D01*
X76948918Y-117274463D01*
X77072168Y-116976912D01*
X77135000Y-116661033D01*
X77135000Y-116338967D01*
X77072168Y-116023088D01*
X76948918Y-115725537D01*
X76769987Y-115457748D01*
X76542252Y-115230013D01*
X76274463Y-115051082D01*
X75976912Y-114927832D01*
X75661033Y-114865000D01*
X75338967Y-114865000D01*
X75023088Y-114927832D01*
X74725537Y-115051082D01*
X74457748Y-115230013D01*
X74230013Y-115457748D01*
X74051082Y-115725537D01*
X74045091Y-115740000D01*
X70454909Y-115740000D01*
X70448918Y-115725537D01*
X70269987Y-115457748D01*
X70042252Y-115230013D01*
X69774463Y-115051082D01*
X69476912Y-114927832D01*
X69161033Y-114865000D01*
X68838967Y-114865000D01*
X68523088Y-114927832D01*
X68225537Y-115051082D01*
X67957748Y-115230013D01*
X67730013Y-115457748D01*
X67551082Y-115725537D01*
X67545091Y-115740000D01*
X65954909Y-115740000D01*
X65948918Y-115725537D01*
X65769987Y-115457748D01*
X65542252Y-115230013D01*
X65274463Y-115051082D01*
X64976912Y-114927832D01*
X64661033Y-114865000D01*
X64338967Y-114865000D01*
X64023088Y-114927832D01*
X63725537Y-115051082D01*
X63457748Y-115230013D01*
X63230013Y-115457748D01*
X63051082Y-115725537D01*
X62927832Y-116023088D01*
X62865000Y-116338967D01*
X62865000Y-116661033D01*
X62927832Y-116976912D01*
X63051082Y-117274463D01*
X63071486Y-117305000D01*
X59428514Y-117305000D01*
X59448918Y-117274463D01*
X59572168Y-116976912D01*
X59635000Y-116661033D01*
X59635000Y-116338967D01*
X59572168Y-116023088D01*
X59448918Y-115725537D01*
X59269987Y-115457748D01*
X59042252Y-115230013D01*
X58774463Y-115051082D01*
X58476912Y-114927832D01*
X58161033Y-114865000D01*
X57838967Y-114865000D01*
X57523088Y-114927832D01*
X57225537Y-115051082D01*
X56957748Y-115230013D01*
X56730013Y-115457748D01*
X56551082Y-115725537D01*
X56427832Y-116023088D01*
X56365000Y-116338967D01*
X56365000Y-116661033D01*
X56427832Y-116976912D01*
X56551082Y-117274463D01*
X56571486Y-117305000D01*
X53835666Y-117305000D01*
X54323489Y-116817177D01*
X54721295Y-116221818D01*
X54995309Y-115560290D01*
X55135000Y-114858016D01*
X55135000Y-114141984D01*
X54995309Y-113439710D01*
X54721295Y-112778182D01*
X54323489Y-112182823D01*
X53817177Y-111676511D01*
X53221818Y-111278705D01*
X52560290Y-111004691D01*
X51858016Y-110865000D01*
X51141984Y-110865000D01*
X50439710Y-111004691D01*
X49778182Y-111278705D01*
X49182823Y-111676511D01*
X48695000Y-112164334D01*
X48695000Y-109867002D01*
X49099401Y-110271403D01*
X49123199Y-110300401D01*
X49238924Y-110395374D01*
X49370953Y-110465946D01*
X49514214Y-110509403D01*
X49625867Y-110520400D01*
X49625877Y-110520400D01*
X49663200Y-110524076D01*
X49700523Y-110520400D01*
X57299610Y-110520400D01*
X57225537Y-110551082D01*
X56957748Y-110730013D01*
X56730013Y-110957748D01*
X56551082Y-111225537D01*
X56427832Y-111523088D01*
X56365000Y-111838967D01*
X56365000Y-112161033D01*
X56427832Y-112476912D01*
X56551082Y-112774463D01*
X56730013Y-113042252D01*
X56957748Y-113269987D01*
X57225537Y-113448918D01*
X57523088Y-113572168D01*
X57838967Y-113635000D01*
X58161033Y-113635000D01*
X58476912Y-113572168D01*
X58774463Y-113448918D01*
X59042252Y-113269987D01*
X59269987Y-113042252D01*
X59448918Y-112774463D01*
X59454909Y-112760000D01*
X63045091Y-112760000D01*
X63051082Y-112774463D01*
X63230013Y-113042252D01*
X63457748Y-113269987D01*
X63725537Y-113448918D01*
X64023088Y-113572168D01*
X64338967Y-113635000D01*
X64661033Y-113635000D01*
X64976912Y-113572168D01*
X65274463Y-113448918D01*
X65542252Y-113269987D01*
X65769987Y-113042252D01*
X65948918Y-112774463D01*
X66072168Y-112476912D01*
X66135000Y-112161033D01*
X66135000Y-111838967D01*
X66072168Y-111523088D01*
X65948918Y-111225537D01*
X65769987Y-110957748D01*
X65542252Y-110730013D01*
X65274463Y-110551082D01*
X65200390Y-110520400D01*
X68299610Y-110520400D01*
X68225537Y-110551082D01*
X67957748Y-110730013D01*
X67730013Y-110957748D01*
X67551082Y-111225537D01*
X67427832Y-111523088D01*
X67365000Y-111838967D01*
X67365000Y-112161033D01*
X67427832Y-112476912D01*
X67551082Y-112774463D01*
X67730013Y-113042252D01*
X67957748Y-113269987D01*
X68225537Y-113448918D01*
X68523088Y-113572168D01*
X68838967Y-113635000D01*
X69161033Y-113635000D01*
X69476912Y-113572168D01*
X69774463Y-113448918D01*
X70042252Y-113269987D01*
X70269987Y-113042252D01*
X70448918Y-112774463D01*
X70454909Y-112760000D01*
X74045091Y-112760000D01*
X74051082Y-112774463D01*
X74230013Y-113042252D01*
X74457748Y-113269987D01*
X74725537Y-113448918D01*
X75023088Y-113572168D01*
X75338967Y-113635000D01*
X75661033Y-113635000D01*
X75976912Y-113572168D01*
X76274463Y-113448918D01*
X76542252Y-113269987D01*
X76769987Y-113042252D01*
X76948918Y-112774463D01*
X77072168Y-112476912D01*
X77135000Y-112161033D01*
X77135000Y-111838967D01*
X77072168Y-111523088D01*
X76948918Y-111225537D01*
X76769987Y-110957748D01*
X76542252Y-110730013D01*
X76274463Y-110551082D01*
X76200390Y-110520400D01*
X81568132Y-110520400D01*
X81501554Y-110564886D01*
X81064886Y-111001554D01*
X80721799Y-111515021D01*
X80485476Y-112085554D01*
X80365000Y-112691229D01*
X80365000Y-113308771D01*
X80485476Y-113914446D01*
X80721799Y-114484979D01*
X81064886Y-114998446D01*
X81501554Y-115435114D01*
X82015021Y-115778201D01*
X82585554Y-116014524D01*
X83191229Y-116135000D01*
X83808771Y-116135000D01*
X84414446Y-116014524D01*
X84984979Y-115778201D01*
X85498446Y-115435114D01*
X85935114Y-114998446D01*
X86278201Y-114484979D01*
X86514524Y-113914446D01*
X86635000Y-113308771D01*
X86635000Y-112691229D01*
X86514524Y-112085554D01*
X86278201Y-111515021D01*
X85935114Y-111001554D01*
X85498446Y-110564886D01*
X85431868Y-110520400D01*
X171227378Y-110520400D01*
X171264700Y-110524076D01*
X171302022Y-110520400D01*
X171302033Y-110520400D01*
X171413686Y-110509403D01*
X171556947Y-110465946D01*
X171688976Y-110395374D01*
X171804701Y-110300401D01*
X171828504Y-110271397D01*
X172113010Y-109986891D01*
X172788424Y-109986891D01*
X172833075Y-110134100D01*
X172958259Y-110396921D01*
X173132312Y-110630270D01*
X173348545Y-110825179D01*
X173598648Y-110974158D01*
X173873009Y-111071482D01*
X174102900Y-110950815D01*
X174102900Y-109757001D01*
X172909745Y-109757001D01*
X172788424Y-109986891D01*
X172113010Y-109986891D01*
X172801677Y-109298224D01*
X172909745Y-109503001D01*
X174102900Y-109503001D01*
X174102900Y-109483001D01*
X174356900Y-109483001D01*
X174356900Y-109503001D01*
X174376900Y-109503001D01*
X174376900Y-109757001D01*
X174356900Y-109757001D01*
X174356900Y-110950815D01*
X174586791Y-111071482D01*
X174861152Y-110974158D01*
X175111255Y-110825179D01*
X175307402Y-110648375D01*
X175330398Y-110724181D01*
X175389363Y-110834495D01*
X175468715Y-110931186D01*
X175565406Y-111010538D01*
X175675720Y-111069503D01*
X175795418Y-111105813D01*
X175919900Y-111118073D01*
X177619900Y-111118073D01*
X177744382Y-111105813D01*
X177864080Y-111069503D01*
X177974394Y-111010538D01*
X178071085Y-110931186D01*
X178150437Y-110834495D01*
X178209402Y-110724181D01*
X178245712Y-110604483D01*
X178257972Y-110480001D01*
X178257972Y-108780001D01*
X178245712Y-108655519D01*
X178209402Y-108535821D01*
X178150437Y-108425507D01*
X178071085Y-108328816D01*
X177974394Y-108249464D01*
X177864080Y-108190499D01*
X177791520Y-108168488D01*
X177923375Y-108036633D01*
X178085890Y-107793412D01*
X178197832Y-107523159D01*
X178254900Y-107236261D01*
X178254900Y-106943741D01*
X178197832Y-106656843D01*
X178085890Y-106386590D01*
X177923375Y-106143369D01*
X177716532Y-105936526D01*
X177542140Y-105820001D01*
X177716532Y-105703476D01*
X177923375Y-105496633D01*
X178085890Y-105253412D01*
X178197832Y-104983159D01*
X178254900Y-104696261D01*
X178254900Y-104403741D01*
X178197832Y-104116843D01*
X178085890Y-103846590D01*
X177946589Y-103638112D01*
X178463404Y-103121298D01*
X178492401Y-103097501D01*
X178587374Y-102981776D01*
X178657946Y-102849747D01*
X178701403Y-102706486D01*
X178712400Y-102594833D01*
X178712400Y-102594824D01*
X178716076Y-102557501D01*
X178712400Y-102520178D01*
X178712400Y-101556122D01*
X178716076Y-101518799D01*
X178712400Y-101481476D01*
X178712400Y-101481467D01*
X178701403Y-101369814D01*
X178657946Y-101226553D01*
X178648670Y-101209199D01*
X178587374Y-101094523D01*
X178516199Y-101007797D01*
X178492401Y-100978799D01*
X178463403Y-100955001D01*
X177924040Y-100415638D01*
X178048079Y-100230000D01*
X184395199Y-100230000D01*
X199853823Y-115688625D01*
G36*
X223079619Y-53695001D02*
G01*
X223014921Y-53721800D01*
X222501454Y-54064887D01*
X222064786Y-54501555D01*
X221721699Y-55015022D01*
X221485376Y-55585555D01*
X221364900Y-56191230D01*
X221364900Y-56808772D01*
X221485376Y-57414447D01*
X221721699Y-57984980D01*
X222064786Y-58498447D01*
X222501454Y-58935115D01*
X223014921Y-59278202D01*
X223585454Y-59514525D01*
X224191129Y-59635001D01*
X224808671Y-59635001D01*
X225414346Y-59514525D01*
X225984879Y-59278202D01*
X226498346Y-58935115D01*
X226935014Y-58498447D01*
X227278101Y-57984980D01*
X227304901Y-57920279D01*
X227304900Y-113103151D01*
X227294204Y-113077329D01*
X227235240Y-112967015D01*
X226962963Y-112559524D01*
X226883611Y-112462833D01*
X226537068Y-112116290D01*
X226440377Y-112036938D01*
X226032886Y-111764661D01*
X225922572Y-111705697D01*
X225469792Y-111518149D01*
X225350094Y-111481838D01*
X224869425Y-111386227D01*
X224744943Y-111373967D01*
X224254857Y-111373967D01*
X224130375Y-111386227D01*
X223649706Y-111481838D01*
X223530008Y-111518149D01*
X223077228Y-111705697D01*
X222966914Y-111764661D01*
X222559423Y-112036938D01*
X222462732Y-112116290D01*
X222116189Y-112462833D01*
X222036837Y-112559524D01*
X221764560Y-112967015D01*
X221705596Y-113077329D01*
X221518048Y-113530109D01*
X221481737Y-113649807D01*
X221386126Y-114130476D01*
X221373866Y-114254958D01*
X221373866Y-114745044D01*
X221386126Y-114869526D01*
X221481737Y-115350195D01*
X221518048Y-115469893D01*
X221705596Y-115922673D01*
X221764560Y-116032987D01*
X222036837Y-116440478D01*
X222116189Y-116537169D01*
X222462732Y-116883712D01*
X222559423Y-116963064D01*
X222966914Y-117235341D01*
X223077228Y-117294305D01*
X223103053Y-117305002D01*
X220537237Y-117305002D01*
X220619987Y-117222252D01*
X220798918Y-116954463D01*
X220922168Y-116656912D01*
X220985000Y-116341033D01*
X220985000Y-116018967D01*
X220922168Y-115703088D01*
X220798918Y-115405537D01*
X220619987Y-115137748D01*
X220392252Y-114910013D01*
X220124463Y-114731082D01*
X219826912Y-114607832D01*
X219511033Y-114545000D01*
X219188967Y-114545000D01*
X218873088Y-114607832D01*
X218575537Y-114731082D01*
X218307748Y-114910013D01*
X218080013Y-115137748D01*
X217901082Y-115405537D01*
X217895091Y-115420000D01*
X214304909Y-115420000D01*
X214298918Y-115405537D01*
X214119987Y-115137748D01*
X213892252Y-114910013D01*
X213624463Y-114731082D01*
X213326912Y-114607832D01*
X213011033Y-114545000D01*
X212688967Y-114545000D01*
X212373088Y-114607832D01*
X212075537Y-114731082D01*
X211807748Y-114910013D01*
X211580013Y-115137748D01*
X211401082Y-115405537D01*
X211395091Y-115420000D01*
X209374909Y-115420000D01*
X209368918Y-115405537D01*
X209189987Y-115137748D01*
X208962252Y-114910013D01*
X208694463Y-114731082D01*
X208396912Y-114607832D01*
X208081033Y-114545000D01*
X207758967Y-114545000D01*
X207443088Y-114607832D01*
X207145537Y-114731082D01*
X206877748Y-114910013D01*
X206650013Y-115137748D01*
X206471082Y-115405537D01*
X206465091Y-115420000D01*
X202874909Y-115420000D01*
X202868918Y-115405537D01*
X202689987Y-115137748D01*
X202462252Y-114910013D01*
X202194463Y-114731082D01*
X201896912Y-114607832D01*
X201581033Y-114545000D01*
X201258967Y-114545000D01*
X200943088Y-114607832D01*
X200928625Y-114613823D01*
X197833769Y-111518967D01*
X199785000Y-111518967D01*
X199785000Y-111841033D01*
X199847832Y-112156912D01*
X199971082Y-112454463D01*
X200150013Y-112722252D01*
X200377748Y-112949987D01*
X200645537Y-113128918D01*
X200943088Y-113252168D01*
X201258967Y-113315000D01*
X201581033Y-113315000D01*
X201896912Y-113252168D01*
X202194463Y-113128918D01*
X202462252Y-112949987D01*
X202689987Y-112722252D01*
X202868918Y-112454463D01*
X202874909Y-112440000D01*
X206465091Y-112440000D01*
X206471082Y-112454463D01*
X206650013Y-112722252D01*
X206877748Y-112949987D01*
X207145537Y-113128918D01*
X207443088Y-113252168D01*
X207758967Y-113315000D01*
X208081033Y-113315000D01*
X208396912Y-113252168D01*
X208694463Y-113128918D01*
X208962252Y-112949987D01*
X209189987Y-112722252D01*
X209368918Y-112454463D01*
X209492168Y-112156912D01*
X209555000Y-111841033D01*
X209555000Y-111518967D01*
X211215000Y-111518967D01*
X211215000Y-111841033D01*
X211277832Y-112156912D01*
X211401082Y-112454463D01*
X211580013Y-112722252D01*
X211807748Y-112949987D01*
X212075537Y-113128918D01*
X212373088Y-113252168D01*
X212688967Y-113315000D01*
X213011033Y-113315000D01*
X213326912Y-113252168D01*
X213624463Y-113128918D01*
X213892252Y-112949987D01*
X214119987Y-112722252D01*
X214298918Y-112454463D01*
X214304909Y-112440000D01*
X217895091Y-112440000D01*
X217901082Y-112454463D01*
X218080013Y-112722252D01*
X218307748Y-112949987D01*
X218575537Y-113128918D01*
X218873088Y-113252168D01*
X219188967Y-113315000D01*
X219511033Y-113315000D01*
X219826912Y-113252168D01*
X220124463Y-113128918D01*
X220392252Y-112949987D01*
X220619987Y-112722252D01*
X220798918Y-112454463D01*
X220922168Y-112156912D01*
X220985000Y-111841033D01*
X220985000Y-111518967D01*
X220922168Y-111203088D01*
X220798918Y-110905537D01*
X220619987Y-110637748D01*
X220392252Y-110410013D01*
X220124463Y-110231082D01*
X219826912Y-110107832D01*
X219511033Y-110045000D01*
X219188967Y-110045000D01*
X218873088Y-110107832D01*
X218575537Y-110231082D01*
X218307748Y-110410013D01*
X218080013Y-110637748D01*
X217901082Y-110905537D01*
X217895091Y-110920000D01*
X214304909Y-110920000D01*
X214298918Y-110905537D01*
X214119987Y-110637748D01*
X213892252Y-110410013D01*
X213624463Y-110231082D01*
X213326912Y-110107832D01*
X213011033Y-110045000D01*
X212688967Y-110045000D01*
X212373088Y-110107832D01*
X212075537Y-110231082D01*
X211807748Y-110410013D01*
X211580013Y-110637748D01*
X211401082Y-110905537D01*
X211277832Y-111203088D01*
X211215000Y-111518967D01*
X209555000Y-111518967D01*
X209492168Y-111203088D01*
X209368918Y-110905537D01*
X209189987Y-110637748D01*
X208962252Y-110410013D01*
X208694463Y-110231082D01*
X208396912Y-110107832D01*
X208081033Y-110045000D01*
X207758967Y-110045000D01*
X207443088Y-110107832D01*
X207145537Y-110231082D01*
X206877748Y-110410013D01*
X206650013Y-110637748D01*
X206471082Y-110905537D01*
X206465091Y-110920000D01*
X202874909Y-110920000D01*
X202868918Y-110905537D01*
X202689987Y-110637748D01*
X202462252Y-110410013D01*
X202194463Y-110231082D01*
X201896912Y-110107832D01*
X201581033Y-110045000D01*
X201258967Y-110045000D01*
X200943088Y-110107832D01*
X200645537Y-110231082D01*
X200377748Y-110410013D01*
X200150013Y-110637748D01*
X199971082Y-110905537D01*
X199847832Y-111203088D01*
X199785000Y-111518967D01*
X197833769Y-111518967D01*
X185273804Y-98959003D01*
X185250001Y-98929999D01*
X185134276Y-98835026D01*
X185002247Y-98764454D01*
X184858986Y-98720997D01*
X184747333Y-98710000D01*
X184747322Y-98710000D01*
X184710000Y-98706324D01*
X184672678Y-98710000D01*
X178048078Y-98710000D01*
X177923375Y-98523369D01*
X177716532Y-98316526D01*
X177542140Y-98200001D01*
X177716532Y-98083476D01*
X177923375Y-97876633D01*
X178085890Y-97633412D01*
X178197832Y-97363159D01*
X178254900Y-97076261D01*
X178254900Y-96783741D01*
X178197832Y-96496843D01*
X178085890Y-96226590D01*
X177923375Y-95983369D01*
X177716532Y-95776526D01*
X177542140Y-95660001D01*
X177716532Y-95543476D01*
X177923375Y-95336633D01*
X178085890Y-95093412D01*
X178197832Y-94823159D01*
X178254900Y-94536261D01*
X178254900Y-94243741D01*
X178197832Y-93956843D01*
X178155689Y-93855100D01*
X198807578Y-93855100D01*
X198844900Y-93858776D01*
X198882222Y-93855100D01*
X198882233Y-93855100D01*
X198993886Y-93844103D01*
X199137147Y-93800646D01*
X199269176Y-93730074D01*
X199384901Y-93635101D01*
X199408704Y-93606097D01*
X208548625Y-84466177D01*
X208563088Y-84472168D01*
X208878967Y-84535000D01*
X209201033Y-84535000D01*
X209516912Y-84472168D01*
X209814463Y-84348918D01*
X210082252Y-84169987D01*
X210309987Y-83942252D01*
X210488918Y-83674463D01*
X210612168Y-83376912D01*
X210675000Y-83061033D01*
X210675000Y-82738967D01*
X211905000Y-82738967D01*
X211905000Y-83061033D01*
X211967832Y-83376912D01*
X212091082Y-83674463D01*
X212270013Y-83942252D01*
X212497748Y-84169987D01*
X212765537Y-84348918D01*
X213063088Y-84472168D01*
X213378967Y-84535000D01*
X213701033Y-84535000D01*
X214016912Y-84472168D01*
X214314463Y-84348918D01*
X214582252Y-84169987D01*
X214809987Y-83942252D01*
X214988918Y-83674463D01*
X215112168Y-83376912D01*
X215175000Y-83061033D01*
X215175000Y-82738967D01*
X215112168Y-82423088D01*
X214988918Y-82125537D01*
X214809987Y-81857748D01*
X214582252Y-81630013D01*
X214314463Y-81451082D01*
X214016912Y-81327832D01*
X213701033Y-81265000D01*
X213378967Y-81265000D01*
X213063088Y-81327832D01*
X212765537Y-81451082D01*
X212497748Y-81630013D01*
X212270013Y-81857748D01*
X212091082Y-82125537D01*
X211967832Y-82423088D01*
X211905000Y-82738967D01*
X210675000Y-82738967D01*
X210612168Y-82423088D01*
X210488918Y-82125537D01*
X210309987Y-81857748D01*
X210082252Y-81630013D01*
X209814463Y-81451082D01*
X209516912Y-81327832D01*
X209201033Y-81265000D01*
X208878967Y-81265000D01*
X208563088Y-81327832D01*
X208265537Y-81451082D01*
X207997748Y-81630013D01*
X207770013Y-81857748D01*
X207591082Y-82125537D01*
X207467832Y-82423088D01*
X207405000Y-82738967D01*
X207405000Y-83061033D01*
X207467832Y-83376912D01*
X207473823Y-83391375D01*
X198530099Y-92335100D01*
X178176317Y-92335100D01*
X178197832Y-92283159D01*
X178254900Y-91996261D01*
X178254900Y-91703741D01*
X178197832Y-91416843D01*
X178085890Y-91146590D01*
X177923375Y-90903369D01*
X177716532Y-90696526D01*
X177542140Y-90580001D01*
X177716532Y-90463476D01*
X177923375Y-90256633D01*
X178085890Y-90013412D01*
X178197832Y-89743159D01*
X178254900Y-89456261D01*
X178254900Y-89163741D01*
X178197832Y-88876843D01*
X178166003Y-88800000D01*
X180697378Y-88800000D01*
X180734700Y-88803676D01*
X180772022Y-88800000D01*
X180772033Y-88800000D01*
X180883686Y-88789003D01*
X181026947Y-88745546D01*
X181158976Y-88674974D01*
X181274701Y-88580001D01*
X181298504Y-88550997D01*
X183064888Y-86784614D01*
X183100000Y-86788072D01*
X183161928Y-86788072D01*
X183161928Y-88820000D01*
X183174188Y-88944482D01*
X183210498Y-89064180D01*
X183269463Y-89174494D01*
X183348815Y-89271185D01*
X183445506Y-89350537D01*
X183555820Y-89409502D01*
X183675518Y-89445812D01*
X183800000Y-89458072D01*
X186900000Y-89458072D01*
X187024482Y-89445812D01*
X187144180Y-89409502D01*
X187254494Y-89350537D01*
X187351185Y-89271185D01*
X187430537Y-89174494D01*
X187489502Y-89064180D01*
X187525812Y-88944482D01*
X187538072Y-88820000D01*
X187538072Y-86520000D01*
X187525812Y-86395518D01*
X187489502Y-86275820D01*
X187430537Y-86165506D01*
X187351185Y-86068815D01*
X187254494Y-85989463D01*
X187144180Y-85930498D01*
X187024482Y-85894188D01*
X186900000Y-85881928D01*
X184838072Y-85881928D01*
X184838072Y-85850000D01*
X184828223Y-85750000D01*
X184838072Y-85650000D01*
X184838072Y-85350000D01*
X184828223Y-85250000D01*
X184838072Y-85150000D01*
X184838072Y-84850000D01*
X184828223Y-84750000D01*
X184838072Y-84650000D01*
X184838072Y-84350000D01*
X184827845Y-84246159D01*
X184835000Y-84181750D01*
X184802753Y-84149503D01*
X184795928Y-84127002D01*
X184835000Y-84127002D01*
X184835000Y-84118072D01*
X186900000Y-84118072D01*
X187024482Y-84105812D01*
X187144180Y-84069502D01*
X187254494Y-84010537D01*
X187351185Y-83931185D01*
X187430537Y-83834494D01*
X187489502Y-83724180D01*
X187525812Y-83604482D01*
X187538072Y-83480000D01*
X187538072Y-81180000D01*
X187525812Y-81055518D01*
X187489502Y-80935820D01*
X187430537Y-80825506D01*
X187351185Y-80728815D01*
X187254494Y-80649463D01*
X187144180Y-80590498D01*
X187024482Y-80554188D01*
X186900000Y-80541928D01*
X183800000Y-80541928D01*
X183675518Y-80554188D01*
X183555820Y-80590498D01*
X183491872Y-80624679D01*
X183480246Y-80586353D01*
X183409674Y-80454324D01*
X183314701Y-80338599D01*
X183285704Y-80314802D01*
X177949073Y-74978172D01*
X178085890Y-74773412D01*
X178197832Y-74503159D01*
X178254900Y-74216261D01*
X178254900Y-73923741D01*
X178197832Y-73636843D01*
X178137712Y-73491700D01*
X191136278Y-73491700D01*
X191173600Y-73495376D01*
X191210922Y-73491700D01*
X191210933Y-73491700D01*
X191322586Y-73480703D01*
X191465847Y-73437246D01*
X191597876Y-73366674D01*
X191713601Y-73271701D01*
X191737404Y-73242697D01*
X195091134Y-69888967D01*
X199785000Y-69888967D01*
X199785000Y-70211033D01*
X199847832Y-70526912D01*
X199971082Y-70824463D01*
X200150013Y-71092252D01*
X200377748Y-71319987D01*
X200645537Y-71498918D01*
X200660000Y-71504909D01*
X200660001Y-75095091D01*
X200645537Y-75101082D01*
X200377748Y-75280013D01*
X200150013Y-75507748D01*
X199971082Y-75775537D01*
X199847832Y-76073088D01*
X199785000Y-76388967D01*
X199785000Y-76711033D01*
X199847832Y-77026912D01*
X199971082Y-77324463D01*
X200150013Y-77592252D01*
X200377748Y-77819987D01*
X200645537Y-77998918D01*
X200943088Y-78122168D01*
X201258967Y-78185000D01*
X201581033Y-78185000D01*
X201896912Y-78122168D01*
X202194463Y-77998918D01*
X202462252Y-77819987D01*
X202689987Y-77592252D01*
X202868918Y-77324463D01*
X202992168Y-77026912D01*
X203055000Y-76711033D01*
X203055000Y-76388967D01*
X204285000Y-76388967D01*
X204285000Y-76711033D01*
X204347832Y-77026912D01*
X204471082Y-77324463D01*
X204650013Y-77592252D01*
X204877748Y-77819987D01*
X205145537Y-77998918D01*
X205443088Y-78122168D01*
X205758967Y-78185000D01*
X206081033Y-78185000D01*
X206396912Y-78122168D01*
X206694463Y-77998918D01*
X206962252Y-77819987D01*
X207189987Y-77592252D01*
X207368918Y-77324463D01*
X207492168Y-77026912D01*
X207504430Y-76965267D01*
X207591082Y-77174463D01*
X207770013Y-77442252D01*
X207997748Y-77669987D01*
X208265537Y-77848918D01*
X208563088Y-77972168D01*
X208878967Y-78035000D01*
X209201033Y-78035000D01*
X209516912Y-77972168D01*
X209814463Y-77848918D01*
X210082252Y-77669987D01*
X210309987Y-77442252D01*
X210488918Y-77174463D01*
X210612168Y-76876912D01*
X210675000Y-76561033D01*
X210675000Y-76238967D01*
X211905000Y-76238967D01*
X211905000Y-76561033D01*
X211967832Y-76876912D01*
X212091082Y-77174463D01*
X212270013Y-77442252D01*
X212497748Y-77669987D01*
X212765537Y-77848918D01*
X213063088Y-77972168D01*
X213378967Y-78035000D01*
X213701033Y-78035000D01*
X214016912Y-77972168D01*
X214314463Y-77848918D01*
X214582252Y-77669987D01*
X214809987Y-77442252D01*
X214988918Y-77174463D01*
X215075570Y-76965267D01*
X215087832Y-77026912D01*
X215211082Y-77324463D01*
X215390013Y-77592252D01*
X215617748Y-77819987D01*
X215885537Y-77998918D01*
X216183088Y-78122168D01*
X216498967Y-78185000D01*
X216821033Y-78185000D01*
X217136912Y-78122168D01*
X217434463Y-77998918D01*
X217702252Y-77819987D01*
X217929987Y-77592252D01*
X218108918Y-77324463D01*
X218232168Y-77026912D01*
X218295000Y-76711033D01*
X218295000Y-76388967D01*
X219525000Y-76388967D01*
X219525000Y-76711033D01*
X219587832Y-77026912D01*
X219711082Y-77324463D01*
X219890013Y-77592252D01*
X220117748Y-77819987D01*
X220385537Y-77998918D01*
X220683088Y-78122168D01*
X220998967Y-78185000D01*
X221321033Y-78185000D01*
X221636912Y-78122168D01*
X221934463Y-77998918D01*
X222202252Y-77819987D01*
X222429987Y-77592252D01*
X222608918Y-77324463D01*
X222732168Y-77026912D01*
X222795000Y-76711033D01*
X222795000Y-76388967D01*
X222732168Y-76073088D01*
X222608918Y-75775537D01*
X222429987Y-75507748D01*
X222202252Y-75280013D01*
X221934463Y-75101082D01*
X221636912Y-74977832D01*
X221321033Y-74915000D01*
X220998967Y-74915000D01*
X220683088Y-74977832D01*
X220385537Y-75101082D01*
X220117748Y-75280013D01*
X219890013Y-75507748D01*
X219711082Y-75775537D01*
X219587832Y-76073088D01*
X219525000Y-76388967D01*
X218295000Y-76388967D01*
X218232168Y-76073088D01*
X218108918Y-75775537D01*
X217929987Y-75507748D01*
X217702252Y-75280013D01*
X217434463Y-75101082D01*
X217136912Y-74977832D01*
X216821033Y-74915000D01*
X216498967Y-74915000D01*
X216183088Y-74977832D01*
X215885537Y-75101082D01*
X215617748Y-75280013D01*
X215390013Y-75507748D01*
X215211082Y-75775537D01*
X215124430Y-75984733D01*
X215112168Y-75923088D01*
X214988918Y-75625537D01*
X214809987Y-75357748D01*
X214582252Y-75130013D01*
X214314463Y-74951082D01*
X214016912Y-74827832D01*
X213701033Y-74765000D01*
X213378967Y-74765000D01*
X213063088Y-74827832D01*
X212765537Y-74951082D01*
X212497748Y-75130013D01*
X212270013Y-75357748D01*
X212091082Y-75625537D01*
X211967832Y-75923088D01*
X211905000Y-76238967D01*
X210675000Y-76238967D01*
X210612168Y-75923088D01*
X210488918Y-75625537D01*
X210309987Y-75357748D01*
X210082252Y-75130013D01*
X209814463Y-74951082D01*
X209516912Y-74827832D01*
X209201033Y-74765000D01*
X208878967Y-74765000D01*
X208563088Y-74827832D01*
X208265537Y-74951082D01*
X207997748Y-75130013D01*
X207770013Y-75357748D01*
X207591082Y-75625537D01*
X207467832Y-75923088D01*
X207455570Y-75984733D01*
X207368918Y-75775537D01*
X207189987Y-75507748D01*
X206962252Y-75280013D01*
X206694463Y-75101082D01*
X206396912Y-74977832D01*
X206081033Y-74915000D01*
X205758967Y-74915000D01*
X205443088Y-74977832D01*
X205145537Y-75101082D01*
X204877748Y-75280013D01*
X204650013Y-75507748D01*
X204471082Y-75775537D01*
X204347832Y-76073088D01*
X204285000Y-76388967D01*
X203055000Y-76388967D01*
X202992168Y-76073088D01*
X202868918Y-75775537D01*
X202689987Y-75507748D01*
X202462252Y-75280013D01*
X202194463Y-75101082D01*
X202180000Y-75095091D01*
X202180000Y-71504909D01*
X202194463Y-71498918D01*
X202462252Y-71319987D01*
X202689987Y-71092252D01*
X202868918Y-70824463D01*
X202992168Y-70526912D01*
X203055000Y-70211033D01*
X203055000Y-69888967D01*
X204285000Y-69888967D01*
X204285000Y-70211033D01*
X204347832Y-70526912D01*
X204471082Y-70824463D01*
X204650013Y-71092252D01*
X204877748Y-71319987D01*
X205145537Y-71498918D01*
X205443088Y-71622168D01*
X205758967Y-71685000D01*
X206081033Y-71685000D01*
X206396912Y-71622168D01*
X206694463Y-71498918D01*
X206962252Y-71319987D01*
X207189987Y-71092252D01*
X207368918Y-70824463D01*
X207455570Y-70615267D01*
X207467832Y-70676912D01*
X207591082Y-70974463D01*
X207770013Y-71242252D01*
X207997748Y-71469987D01*
X208265537Y-71648918D01*
X208563088Y-71772168D01*
X208878967Y-71835000D01*
X209201033Y-71835000D01*
X209516912Y-71772168D01*
X209814463Y-71648918D01*
X210082252Y-71469987D01*
X210309987Y-71242252D01*
X210488918Y-70974463D01*
X210612168Y-70676912D01*
X210675000Y-70361033D01*
X210675000Y-70038967D01*
X210612168Y-69723088D01*
X210488918Y-69425537D01*
X210309987Y-69157748D01*
X210082252Y-68930013D01*
X209814463Y-68751082D01*
X209516912Y-68627832D01*
X209201033Y-68565000D01*
X208878967Y-68565000D01*
X208563088Y-68627832D01*
X208265537Y-68751082D01*
X207997748Y-68930013D01*
X207770013Y-69157748D01*
X207591082Y-69425537D01*
X207504430Y-69634733D01*
X207492168Y-69573088D01*
X207368918Y-69275537D01*
X207189987Y-69007748D01*
X206962252Y-68780013D01*
X206694463Y-68601082D01*
X206396912Y-68477832D01*
X206081033Y-68415000D01*
X205758967Y-68415000D01*
X205443088Y-68477832D01*
X205145537Y-68601082D01*
X204877748Y-68780013D01*
X204650013Y-69007748D01*
X204471082Y-69275537D01*
X204347832Y-69573088D01*
X204285000Y-69888967D01*
X203055000Y-69888967D01*
X202992168Y-69573088D01*
X202868918Y-69275537D01*
X202689987Y-69007748D01*
X202462252Y-68780013D01*
X202194463Y-68601082D01*
X201896912Y-68477832D01*
X201581033Y-68415000D01*
X201258967Y-68415000D01*
X200943088Y-68477832D01*
X200645537Y-68601082D01*
X200377748Y-68780013D01*
X200150013Y-69007748D01*
X199971082Y-69275537D01*
X199847832Y-69573088D01*
X199785000Y-69888967D01*
X195091134Y-69888967D01*
X201336003Y-63644099D01*
X201365001Y-63620301D01*
X201431750Y-63538967D01*
X207405000Y-63538967D01*
X207405000Y-63861033D01*
X207467832Y-64176912D01*
X207591082Y-64474463D01*
X207770013Y-64742252D01*
X207997748Y-64969987D01*
X208265537Y-65148918D01*
X208563088Y-65272168D01*
X208878967Y-65335000D01*
X209201033Y-65335000D01*
X209516912Y-65272168D01*
X209814463Y-65148918D01*
X210082252Y-64969987D01*
X210309987Y-64742252D01*
X210488918Y-64474463D01*
X210612168Y-64176912D01*
X210675000Y-63861033D01*
X210675000Y-63538967D01*
X211905000Y-63538967D01*
X211905000Y-63861033D01*
X211967832Y-64176912D01*
X212091082Y-64474463D01*
X212270013Y-64742252D01*
X212497748Y-64969987D01*
X212765537Y-65148918D01*
X213063088Y-65272168D01*
X213378967Y-65335000D01*
X213701033Y-65335000D01*
X214016912Y-65272168D01*
X214314463Y-65148918D01*
X214582252Y-64969987D01*
X214809987Y-64742252D01*
X214988918Y-64474463D01*
X215112168Y-64176912D01*
X215175000Y-63861033D01*
X215175000Y-63538967D01*
X215112168Y-63223088D01*
X214988918Y-62925537D01*
X214809987Y-62657748D01*
X214582252Y-62430013D01*
X214314463Y-62251082D01*
X214016912Y-62127832D01*
X213701033Y-62065000D01*
X213378967Y-62065000D01*
X213063088Y-62127832D01*
X212765537Y-62251082D01*
X212497748Y-62430013D01*
X212270013Y-62657748D01*
X212091082Y-62925537D01*
X211967832Y-63223088D01*
X211905000Y-63538967D01*
X210675000Y-63538967D01*
X210612168Y-63223088D01*
X210488918Y-62925537D01*
X210309987Y-62657748D01*
X210082252Y-62430013D01*
X209814463Y-62251082D01*
X209516912Y-62127832D01*
X209201033Y-62065000D01*
X208878967Y-62065000D01*
X208563088Y-62127832D01*
X208265537Y-62251082D01*
X207997748Y-62430013D01*
X207770013Y-62657748D01*
X207591082Y-62925537D01*
X207467832Y-63223088D01*
X207405000Y-63538967D01*
X201431750Y-63538967D01*
X201459974Y-63504576D01*
X201530546Y-63372547D01*
X201574003Y-63229286D01*
X201583110Y-63136821D01*
X201605537Y-63109494D01*
X201664502Y-62999180D01*
X201700812Y-62879482D01*
X201713072Y-62755000D01*
X201713072Y-61882000D01*
X201748000Y-61882000D01*
X201748000Y-63231250D01*
X201906750Y-63390000D01*
X202007013Y-63379266D01*
X202126264Y-63341517D01*
X202235860Y-63281228D01*
X202331588Y-63200716D01*
X202409770Y-63103076D01*
X202467401Y-62992059D01*
X202502266Y-62871933D01*
X202513026Y-62747312D01*
X202510000Y-62040750D01*
X202351250Y-61882000D01*
X201748000Y-61882000D01*
X201713072Y-61882000D01*
X201713072Y-61608000D01*
X201748000Y-61608000D01*
X201748000Y-61628000D01*
X202351250Y-61628000D01*
X202510000Y-61469250D01*
X202512749Y-60827400D01*
X202836928Y-60827400D01*
X202836928Y-62505000D01*
X202849188Y-62629482D01*
X202885498Y-62749180D01*
X202944463Y-62859494D01*
X203023815Y-62956185D01*
X203120506Y-63035537D01*
X203230820Y-63094502D01*
X203350518Y-63130812D01*
X203475000Y-63143072D01*
X205475000Y-63143072D01*
X205599482Y-63130812D01*
X205719180Y-63094502D01*
X205829494Y-63035537D01*
X205926185Y-62956185D01*
X206005537Y-62859494D01*
X206064502Y-62749180D01*
X206100812Y-62629482D01*
X206113072Y-62505000D01*
X206113072Y-60805000D01*
X206100812Y-60680518D01*
X206064502Y-60560820D01*
X206005537Y-60450506D01*
X205926185Y-60353815D01*
X205829494Y-60274463D01*
X205719180Y-60215498D01*
X205599482Y-60179188D01*
X205475000Y-60166928D01*
X205169575Y-60166928D01*
X205109974Y-60055424D01*
X205015001Y-59939699D01*
X204985997Y-59915896D01*
X204822700Y-59752599D01*
X204822700Y-58107401D01*
X204985997Y-57944104D01*
X205015001Y-57920301D01*
X205109974Y-57804576D01*
X205169575Y-57693072D01*
X205475000Y-57693072D01*
X205599482Y-57680812D01*
X205719180Y-57644502D01*
X205829494Y-57585537D01*
X205926185Y-57506185D01*
X206005537Y-57409494D01*
X206064502Y-57299180D01*
X206100812Y-57179482D01*
X206113072Y-57055000D01*
X206113072Y-56899575D01*
X206224576Y-56839974D01*
X206340301Y-56745001D01*
X206364103Y-56715998D01*
X206440101Y-56640000D01*
X211996755Y-56640000D01*
X212026823Y-56685000D01*
X211879042Y-56685000D01*
X211553504Y-56749754D01*
X211246853Y-56876772D01*
X210970875Y-57061175D01*
X210736175Y-57295875D01*
X210551772Y-57571853D01*
X210424754Y-57878504D01*
X210360000Y-58204042D01*
X210360000Y-58535958D01*
X210424754Y-58861496D01*
X210551772Y-59168147D01*
X210736175Y-59444125D01*
X210970875Y-59678825D01*
X211246853Y-59863228D01*
X211553504Y-59990246D01*
X211879042Y-60055000D01*
X212210958Y-60055000D01*
X212536496Y-59990246D01*
X212843147Y-59863228D01*
X213119125Y-59678825D01*
X213353825Y-59444125D01*
X213538228Y-59168147D01*
X213665246Y-58861496D01*
X213730000Y-58535958D01*
X213730000Y-58204042D01*
X213665246Y-57878504D01*
X213538228Y-57571853D01*
X213416717Y-57390000D01*
X213453722Y-57390000D01*
X213745451Y-57331971D01*
X214020253Y-57218144D01*
X214267569Y-57052893D01*
X214477893Y-56842569D01*
X214643144Y-56595253D01*
X214649971Y-56578772D01*
X215900000Y-57828802D01*
X215900001Y-68595091D01*
X215885537Y-68601082D01*
X215617748Y-68780013D01*
X215390013Y-69007748D01*
X215211082Y-69275537D01*
X215087832Y-69573088D01*
X215075570Y-69634733D01*
X214988918Y-69425537D01*
X214809987Y-69157748D01*
X214582252Y-68930013D01*
X214314463Y-68751082D01*
X214016912Y-68627832D01*
X213701033Y-68565000D01*
X213378967Y-68565000D01*
X213063088Y-68627832D01*
X212765537Y-68751082D01*
X212497748Y-68930013D01*
X212270013Y-69157748D01*
X212091082Y-69425537D01*
X211967832Y-69723088D01*
X211905000Y-70038967D01*
X211905000Y-70361033D01*
X211967832Y-70676912D01*
X212091082Y-70974463D01*
X212270013Y-71242252D01*
X212497748Y-71469987D01*
X212765537Y-71648918D01*
X213063088Y-71772168D01*
X213378967Y-71835000D01*
X213701033Y-71835000D01*
X214016912Y-71772168D01*
X214314463Y-71648918D01*
X214582252Y-71469987D01*
X214809987Y-71242252D01*
X214988918Y-70974463D01*
X215112168Y-70676912D01*
X215124430Y-70615267D01*
X215211082Y-70824463D01*
X215390013Y-71092252D01*
X215617748Y-71319987D01*
X215885537Y-71498918D01*
X216183088Y-71622168D01*
X216498967Y-71685000D01*
X216821033Y-71685000D01*
X217136912Y-71622168D01*
X217434463Y-71498918D01*
X217702252Y-71319987D01*
X217929987Y-71092252D01*
X218108918Y-70824463D01*
X218232168Y-70526912D01*
X218295000Y-70211033D01*
X218295000Y-69888967D01*
X219525000Y-69888967D01*
X219525000Y-70211033D01*
X219587832Y-70526912D01*
X219711082Y-70824463D01*
X219890013Y-71092252D01*
X220117748Y-71319987D01*
X220385537Y-71498918D01*
X220683088Y-71622168D01*
X220998967Y-71685000D01*
X221321033Y-71685000D01*
X221636912Y-71622168D01*
X221934463Y-71498918D01*
X222202252Y-71319987D01*
X222429987Y-71092252D01*
X222608918Y-70824463D01*
X222732168Y-70526912D01*
X222795000Y-70211033D01*
X222795000Y-69888967D01*
X222732168Y-69573088D01*
X222608918Y-69275537D01*
X222429987Y-69007748D01*
X222202252Y-68780013D01*
X221934463Y-68601082D01*
X221636912Y-68477832D01*
X221321033Y-68415000D01*
X220998967Y-68415000D01*
X220683088Y-68477832D01*
X220385537Y-68601082D01*
X220117748Y-68780013D01*
X219890013Y-69007748D01*
X219711082Y-69275537D01*
X219587832Y-69573088D01*
X219525000Y-69888967D01*
X218295000Y-69888967D01*
X218232168Y-69573088D01*
X218108918Y-69275537D01*
X217929987Y-69007748D01*
X217702252Y-68780013D01*
X217434463Y-68601082D01*
X217420000Y-68595091D01*
X217420000Y-58787323D01*
X217434754Y-58861496D01*
X217561772Y-59168147D01*
X217746175Y-59444125D01*
X217980875Y-59678825D01*
X218256853Y-59863228D01*
X218563504Y-59990246D01*
X218889042Y-60055000D01*
X219220958Y-60055000D01*
X219546496Y-59990246D01*
X219853147Y-59863228D01*
X220129125Y-59678825D01*
X220363825Y-59444125D01*
X220548228Y-59168147D01*
X220675246Y-58861496D01*
X220740000Y-58535958D01*
X220740000Y-58204042D01*
X220675246Y-57878504D01*
X220548228Y-57571853D01*
X220363825Y-57295875D01*
X220129125Y-57061175D01*
X219853147Y-56876772D01*
X219546496Y-56749754D01*
X219220958Y-56685000D01*
X219083177Y-56685000D01*
X219143144Y-56595253D01*
X219256971Y-56320451D01*
X219315000Y-56028722D01*
X219315000Y-55731278D01*
X219256971Y-55439549D01*
X219143144Y-55164747D01*
X218977893Y-54917431D01*
X218767569Y-54707107D01*
X218520253Y-54541856D01*
X218245451Y-54428029D01*
X217953722Y-54370000D01*
X217656278Y-54370000D01*
X217364549Y-54428029D01*
X217089747Y-54541856D01*
X216842431Y-54707107D01*
X216632107Y-54917431D01*
X216466856Y-55164747D01*
X216353029Y-55439549D01*
X216295000Y-55731278D01*
X216295000Y-56028722D01*
X216306292Y-56085490D01*
X214389404Y-54168603D01*
X214365601Y-54139599D01*
X214249876Y-54044626D01*
X214117847Y-53974054D01*
X213974586Y-53930597D01*
X213862933Y-53919600D01*
X213862922Y-53919600D01*
X213825600Y-53915924D01*
X213788278Y-53919600D01*
X181441222Y-53919600D01*
X181403899Y-53915924D01*
X181366576Y-53919600D01*
X181366567Y-53919600D01*
X181254914Y-53930597D01*
X181111653Y-53974054D01*
X180979623Y-54044626D01*
X180917518Y-54095595D01*
X180863899Y-54139599D01*
X180840101Y-54168597D01*
X178634900Y-56373798D01*
X178634900Y-56191230D01*
X178514424Y-55585555D01*
X178278101Y-55015022D01*
X177935014Y-54501555D01*
X177498346Y-54064887D01*
X176984879Y-53721800D01*
X176920179Y-53695000D01*
X223079619Y-53695001D01*
G37*
X223079619Y-53695001D02*
X223014921Y-53721800D01*
X222501454Y-54064887D01*
X222064786Y-54501555D01*
X221721699Y-55015022D01*
X221485376Y-55585555D01*
X221364900Y-56191230D01*
X221364900Y-56808772D01*
X221485376Y-57414447D01*
X221721699Y-57984980D01*
X222064786Y-58498447D01*
X222501454Y-58935115D01*
X223014921Y-59278202D01*
X223585454Y-59514525D01*
X224191129Y-59635001D01*
X224808671Y-59635001D01*
X225414346Y-59514525D01*
X225984879Y-59278202D01*
X226498346Y-58935115D01*
X226935014Y-58498447D01*
X227278101Y-57984980D01*
X227304901Y-57920279D01*
X227304900Y-113103151D01*
X227294204Y-113077329D01*
X227235240Y-112967015D01*
X226962963Y-112559524D01*
X226883611Y-112462833D01*
X226537068Y-112116290D01*
X226440377Y-112036938D01*
X226032886Y-111764661D01*
X225922572Y-111705697D01*
X225469792Y-111518149D01*
X225350094Y-111481838D01*
X224869425Y-111386227D01*
X224744943Y-111373967D01*
X224254857Y-111373967D01*
X224130375Y-111386227D01*
X223649706Y-111481838D01*
X223530008Y-111518149D01*
X223077228Y-111705697D01*
X222966914Y-111764661D01*
X222559423Y-112036938D01*
X222462732Y-112116290D01*
X222116189Y-112462833D01*
X222036837Y-112559524D01*
X221764560Y-112967015D01*
X221705596Y-113077329D01*
X221518048Y-113530109D01*
X221481737Y-113649807D01*
X221386126Y-114130476D01*
X221373866Y-114254958D01*
X221373866Y-114745044D01*
X221386126Y-114869526D01*
X221481737Y-115350195D01*
X221518048Y-115469893D01*
X221705596Y-115922673D01*
X221764560Y-116032987D01*
X222036837Y-116440478D01*
X222116189Y-116537169D01*
X222462732Y-116883712D01*
X222559423Y-116963064D01*
X222966914Y-117235341D01*
X223077228Y-117294305D01*
X223103053Y-117305002D01*
X220537237Y-117305002D01*
X220619987Y-117222252D01*
X220798918Y-116954463D01*
X220922168Y-116656912D01*
X220985000Y-116341033D01*
X220985000Y-116018967D01*
X220922168Y-115703088D01*
X220798918Y-115405537D01*
X220619987Y-115137748D01*
X220392252Y-114910013D01*
X220124463Y-114731082D01*
X219826912Y-114607832D01*
X219511033Y-114545000D01*
X219188967Y-114545000D01*
X218873088Y-114607832D01*
X218575537Y-114731082D01*
X218307748Y-114910013D01*
X218080013Y-115137748D01*
X217901082Y-115405537D01*
X217895091Y-115420000D01*
X214304909Y-115420000D01*
X214298918Y-115405537D01*
X214119987Y-115137748D01*
X213892252Y-114910013D01*
X213624463Y-114731082D01*
X213326912Y-114607832D01*
X213011033Y-114545000D01*
X212688967Y-114545000D01*
X212373088Y-114607832D01*
X212075537Y-114731082D01*
X211807748Y-114910013D01*
X211580013Y-115137748D01*
X211401082Y-115405537D01*
X211395091Y-115420000D01*
X209374909Y-115420000D01*
X209368918Y-115405537D01*
X209189987Y-115137748D01*
X208962252Y-114910013D01*
X208694463Y-114731082D01*
X208396912Y-114607832D01*
X208081033Y-114545000D01*
X207758967Y-114545000D01*
X207443088Y-114607832D01*
X207145537Y-114731082D01*
X206877748Y-114910013D01*
X206650013Y-115137748D01*
X206471082Y-115405537D01*
X206465091Y-115420000D01*
X202874909Y-115420000D01*
X202868918Y-115405537D01*
X202689987Y-115137748D01*
X202462252Y-114910013D01*
X202194463Y-114731082D01*
X201896912Y-114607832D01*
X201581033Y-114545000D01*
X201258967Y-114545000D01*
X200943088Y-114607832D01*
X200928625Y-114613823D01*
X197833769Y-111518967D01*
X199785000Y-111518967D01*
X199785000Y-111841033D01*
X199847832Y-112156912D01*
X199971082Y-112454463D01*
X200150013Y-112722252D01*
X200377748Y-112949987D01*
X200645537Y-113128918D01*
X200943088Y-113252168D01*
X201258967Y-113315000D01*
X201581033Y-113315000D01*
X201896912Y-113252168D01*
X202194463Y-113128918D01*
X202462252Y-112949987D01*
X202689987Y-112722252D01*
X202868918Y-112454463D01*
X202874909Y-112440000D01*
X206465091Y-112440000D01*
X206471082Y-112454463D01*
X206650013Y-112722252D01*
X206877748Y-112949987D01*
X207145537Y-113128918D01*
X207443088Y-113252168D01*
X207758967Y-113315000D01*
X208081033Y-113315000D01*
X208396912Y-113252168D01*
X208694463Y-113128918D01*
X208962252Y-112949987D01*
X209189987Y-112722252D01*
X209368918Y-112454463D01*
X209492168Y-112156912D01*
X209555000Y-111841033D01*
X209555000Y-111518967D01*
X211215000Y-111518967D01*
X211215000Y-111841033D01*
X211277832Y-112156912D01*
X211401082Y-112454463D01*
X211580013Y-112722252D01*
X211807748Y-112949987D01*
X212075537Y-113128918D01*
X212373088Y-113252168D01*
X212688967Y-113315000D01*
X213011033Y-113315000D01*
X213326912Y-113252168D01*
X213624463Y-113128918D01*
X213892252Y-112949987D01*
X214119987Y-112722252D01*
X214298918Y-112454463D01*
X214304909Y-112440000D01*
X217895091Y-112440000D01*
X217901082Y-112454463D01*
X218080013Y-112722252D01*
X218307748Y-112949987D01*
X218575537Y-113128918D01*
X218873088Y-113252168D01*
X219188967Y-113315000D01*
X219511033Y-113315000D01*
X219826912Y-113252168D01*
X220124463Y-113128918D01*
X220392252Y-112949987D01*
X220619987Y-112722252D01*
X220798918Y-112454463D01*
X220922168Y-112156912D01*
X220985000Y-111841033D01*
X220985000Y-111518967D01*
X220922168Y-111203088D01*
X220798918Y-110905537D01*
X220619987Y-110637748D01*
X220392252Y-110410013D01*
X220124463Y-110231082D01*
X219826912Y-110107832D01*
X219511033Y-110045000D01*
X219188967Y-110045000D01*
X218873088Y-110107832D01*
X218575537Y-110231082D01*
X218307748Y-110410013D01*
X218080013Y-110637748D01*
X217901082Y-110905537D01*
X217895091Y-110920000D01*
X214304909Y-110920000D01*
X214298918Y-110905537D01*
X214119987Y-110637748D01*
X213892252Y-110410013D01*
X213624463Y-110231082D01*
X213326912Y-110107832D01*
X213011033Y-110045000D01*
X212688967Y-110045000D01*
X212373088Y-110107832D01*
X212075537Y-110231082D01*
X211807748Y-110410013D01*
X211580013Y-110637748D01*
X211401082Y-110905537D01*
X211277832Y-111203088D01*
X211215000Y-111518967D01*
X209555000Y-111518967D01*
X209492168Y-111203088D01*
X209368918Y-110905537D01*
X209189987Y-110637748D01*
X208962252Y-110410013D01*
X208694463Y-110231082D01*
X208396912Y-110107832D01*
X208081033Y-110045000D01*
X207758967Y-110045000D01*
X207443088Y-110107832D01*
X207145537Y-110231082D01*
X206877748Y-110410013D01*
X206650013Y-110637748D01*
X206471082Y-110905537D01*
X206465091Y-110920000D01*
X202874909Y-110920000D01*
X202868918Y-110905537D01*
X202689987Y-110637748D01*
X202462252Y-110410013D01*
X202194463Y-110231082D01*
X201896912Y-110107832D01*
X201581033Y-110045000D01*
X201258967Y-110045000D01*
X200943088Y-110107832D01*
X200645537Y-110231082D01*
X200377748Y-110410013D01*
X200150013Y-110637748D01*
X199971082Y-110905537D01*
X199847832Y-111203088D01*
X199785000Y-111518967D01*
X197833769Y-111518967D01*
X185273804Y-98959003D01*
X185250001Y-98929999D01*
X185134276Y-98835026D01*
X185002247Y-98764454D01*
X184858986Y-98720997D01*
X184747333Y-98710000D01*
X184747322Y-98710000D01*
X184710000Y-98706324D01*
X184672678Y-98710000D01*
X178048078Y-98710000D01*
X177923375Y-98523369D01*
X177716532Y-98316526D01*
X177542140Y-98200001D01*
X177716532Y-98083476D01*
X177923375Y-97876633D01*
X178085890Y-97633412D01*
X178197832Y-97363159D01*
X178254900Y-97076261D01*
X178254900Y-96783741D01*
X178197832Y-96496843D01*
X178085890Y-96226590D01*
X177923375Y-95983369D01*
X177716532Y-95776526D01*
X177542140Y-95660001D01*
X177716532Y-95543476D01*
X177923375Y-95336633D01*
X178085890Y-95093412D01*
X178197832Y-94823159D01*
X178254900Y-94536261D01*
X178254900Y-94243741D01*
X178197832Y-93956843D01*
X178155689Y-93855100D01*
X198807578Y-93855100D01*
X198844900Y-93858776D01*
X198882222Y-93855100D01*
X198882233Y-93855100D01*
X198993886Y-93844103D01*
X199137147Y-93800646D01*
X199269176Y-93730074D01*
X199384901Y-93635101D01*
X199408704Y-93606097D01*
X208548625Y-84466177D01*
X208563088Y-84472168D01*
X208878967Y-84535000D01*
X209201033Y-84535000D01*
X209516912Y-84472168D01*
X209814463Y-84348918D01*
X210082252Y-84169987D01*
X210309987Y-83942252D01*
X210488918Y-83674463D01*
X210612168Y-83376912D01*
X210675000Y-83061033D01*
X210675000Y-82738967D01*
X211905000Y-82738967D01*
X211905000Y-83061033D01*
X211967832Y-83376912D01*
X212091082Y-83674463D01*
X212270013Y-83942252D01*
X212497748Y-84169987D01*
X212765537Y-84348918D01*
X213063088Y-84472168D01*
X213378967Y-84535000D01*
X213701033Y-84535000D01*
X214016912Y-84472168D01*
X214314463Y-84348918D01*
X214582252Y-84169987D01*
X214809987Y-83942252D01*
X214988918Y-83674463D01*
X215112168Y-83376912D01*
X215175000Y-83061033D01*
X215175000Y-82738967D01*
X215112168Y-82423088D01*
X214988918Y-82125537D01*
X214809987Y-81857748D01*
X214582252Y-81630013D01*
X214314463Y-81451082D01*
X214016912Y-81327832D01*
X213701033Y-81265000D01*
X213378967Y-81265000D01*
X213063088Y-81327832D01*
X212765537Y-81451082D01*
X212497748Y-81630013D01*
X212270013Y-81857748D01*
X212091082Y-82125537D01*
X211967832Y-82423088D01*
X211905000Y-82738967D01*
X210675000Y-82738967D01*
X210612168Y-82423088D01*
X210488918Y-82125537D01*
X210309987Y-81857748D01*
X210082252Y-81630013D01*
X209814463Y-81451082D01*
X209516912Y-81327832D01*
X209201033Y-81265000D01*
X208878967Y-81265000D01*
X208563088Y-81327832D01*
X208265537Y-81451082D01*
X207997748Y-81630013D01*
X207770013Y-81857748D01*
X207591082Y-82125537D01*
X207467832Y-82423088D01*
X207405000Y-82738967D01*
X207405000Y-83061033D01*
X207467832Y-83376912D01*
X207473823Y-83391375D01*
X198530099Y-92335100D01*
X178176317Y-92335100D01*
X178197832Y-92283159D01*
X178254900Y-91996261D01*
X178254900Y-91703741D01*
X178197832Y-91416843D01*
X178085890Y-91146590D01*
X177923375Y-90903369D01*
X177716532Y-90696526D01*
X177542140Y-90580001D01*
X177716532Y-90463476D01*
X177923375Y-90256633D01*
X178085890Y-90013412D01*
X178197832Y-89743159D01*
X178254900Y-89456261D01*
X178254900Y-89163741D01*
X178197832Y-88876843D01*
X178166003Y-88800000D01*
X180697378Y-88800000D01*
X180734700Y-88803676D01*
X180772022Y-88800000D01*
X180772033Y-88800000D01*
X180883686Y-88789003D01*
X181026947Y-88745546D01*
X181158976Y-88674974D01*
X181274701Y-88580001D01*
X181298504Y-88550997D01*
X183064888Y-86784614D01*
X183100000Y-86788072D01*
X183161928Y-86788072D01*
X183161928Y-88820000D01*
X183174188Y-88944482D01*
X183210498Y-89064180D01*
X183269463Y-89174494D01*
X183348815Y-89271185D01*
X183445506Y-89350537D01*
X183555820Y-89409502D01*
X183675518Y-89445812D01*
X183800000Y-89458072D01*
X186900000Y-89458072D01*
X187024482Y-89445812D01*
X187144180Y-89409502D01*
X187254494Y-89350537D01*
X187351185Y-89271185D01*
X187430537Y-89174494D01*
X187489502Y-89064180D01*
X187525812Y-88944482D01*
X187538072Y-88820000D01*
X187538072Y-86520000D01*
X187525812Y-86395518D01*
X187489502Y-86275820D01*
X187430537Y-86165506D01*
X187351185Y-86068815D01*
X187254494Y-85989463D01*
X187144180Y-85930498D01*
X187024482Y-85894188D01*
X186900000Y-85881928D01*
X184838072Y-85881928D01*
X184838072Y-85850000D01*
X184828223Y-85750000D01*
X184838072Y-85650000D01*
X184838072Y-85350000D01*
X184828223Y-85250000D01*
X184838072Y-85150000D01*
X184838072Y-84850000D01*
X184828223Y-84750000D01*
X184838072Y-84650000D01*
X184838072Y-84350000D01*
X184827845Y-84246159D01*
X184835000Y-84181750D01*
X184802753Y-84149503D01*
X184795928Y-84127002D01*
X184835000Y-84127002D01*
X184835000Y-84118072D01*
X186900000Y-84118072D01*
X187024482Y-84105812D01*
X187144180Y-84069502D01*
X187254494Y-84010537D01*
X187351185Y-83931185D01*
X187430537Y-83834494D01*
X187489502Y-83724180D01*
X187525812Y-83604482D01*
X187538072Y-83480000D01*
X187538072Y-81180000D01*
X187525812Y-81055518D01*
X187489502Y-80935820D01*
X187430537Y-80825506D01*
X187351185Y-80728815D01*
X187254494Y-80649463D01*
X187144180Y-80590498D01*
X187024482Y-80554188D01*
X186900000Y-80541928D01*
X183800000Y-80541928D01*
X183675518Y-80554188D01*
X183555820Y-80590498D01*
X183491872Y-80624679D01*
X183480246Y-80586353D01*
X183409674Y-80454324D01*
X183314701Y-80338599D01*
X183285704Y-80314802D01*
X177949073Y-74978172D01*
X178085890Y-74773412D01*
X178197832Y-74503159D01*
X178254900Y-74216261D01*
X178254900Y-73923741D01*
X178197832Y-73636843D01*
X178137712Y-73491700D01*
X191136278Y-73491700D01*
X191173600Y-73495376D01*
X191210922Y-73491700D01*
X191210933Y-73491700D01*
X191322586Y-73480703D01*
X191465847Y-73437246D01*
X191597876Y-73366674D01*
X191713601Y-73271701D01*
X191737404Y-73242697D01*
X195091134Y-69888967D01*
X199785000Y-69888967D01*
X199785000Y-70211033D01*
X199847832Y-70526912D01*
X199971082Y-70824463D01*
X200150013Y-71092252D01*
X200377748Y-71319987D01*
X200645537Y-71498918D01*
X200660000Y-71504909D01*
X200660001Y-75095091D01*
X200645537Y-75101082D01*
X200377748Y-75280013D01*
X200150013Y-75507748D01*
X199971082Y-75775537D01*
X199847832Y-76073088D01*
X199785000Y-76388967D01*
X199785000Y-76711033D01*
X199847832Y-77026912D01*
X199971082Y-77324463D01*
X200150013Y-77592252D01*
X200377748Y-77819987D01*
X200645537Y-77998918D01*
X200943088Y-78122168D01*
X201258967Y-78185000D01*
X201581033Y-78185000D01*
X201896912Y-78122168D01*
X202194463Y-77998918D01*
X202462252Y-77819987D01*
X202689987Y-77592252D01*
X202868918Y-77324463D01*
X202992168Y-77026912D01*
X203055000Y-76711033D01*
X203055000Y-76388967D01*
X204285000Y-76388967D01*
X204285000Y-76711033D01*
X204347832Y-77026912D01*
X204471082Y-77324463D01*
X204650013Y-77592252D01*
X204877748Y-77819987D01*
X205145537Y-77998918D01*
X205443088Y-78122168D01*
X205758967Y-78185000D01*
X206081033Y-78185000D01*
X206396912Y-78122168D01*
X206694463Y-77998918D01*
X206962252Y-77819987D01*
X207189987Y-77592252D01*
X207368918Y-77324463D01*
X207492168Y-77026912D01*
X207504430Y-76965267D01*
X207591082Y-77174463D01*
X207770013Y-77442252D01*
X207997748Y-77669987D01*
X208265537Y-77848918D01*
X208563088Y-77972168D01*
X208878967Y-78035000D01*
X209201033Y-78035000D01*
X209516912Y-77972168D01*
X209814463Y-77848918D01*
X210082252Y-77669987D01*
X210309987Y-77442252D01*
X210488918Y-77174463D01*
X210612168Y-76876912D01*
X210675000Y-76561033D01*
X210675000Y-76238967D01*
X211905000Y-76238967D01*
X211905000Y-76561033D01*
X211967832Y-76876912D01*
X212091082Y-77174463D01*
X212270013Y-77442252D01*
X212497748Y-77669987D01*
X212765537Y-77848918D01*
X213063088Y-77972168D01*
X213378967Y-78035000D01*
X213701033Y-78035000D01*
X214016912Y-77972168D01*
X214314463Y-77848918D01*
X214582252Y-77669987D01*
X214809987Y-77442252D01*
X214988918Y-77174463D01*
X215075570Y-76965267D01*
X215087832Y-77026912D01*
X215211082Y-77324463D01*
X215390013Y-77592252D01*
X215617748Y-77819987D01*
X215885537Y-77998918D01*
X216183088Y-78122168D01*
X216498967Y-78185000D01*
X216821033Y-78185000D01*
X217136912Y-78122168D01*
X217434463Y-77998918D01*
X217702252Y-77819987D01*
X217929987Y-77592252D01*
X218108918Y-77324463D01*
X218232168Y-77026912D01*
X218295000Y-76711033D01*
X218295000Y-76388967D01*
X219525000Y-76388967D01*
X219525000Y-76711033D01*
X219587832Y-77026912D01*
X219711082Y-77324463D01*
X219890013Y-77592252D01*
X220117748Y-77819987D01*
X220385537Y-77998918D01*
X220683088Y-78122168D01*
X220998967Y-78185000D01*
X221321033Y-78185000D01*
X221636912Y-78122168D01*
X221934463Y-77998918D01*
X222202252Y-77819987D01*
X222429987Y-77592252D01*
X222608918Y-77324463D01*
X222732168Y-77026912D01*
X222795000Y-76711033D01*
X222795000Y-76388967D01*
X222732168Y-76073088D01*
X222608918Y-75775537D01*
X222429987Y-75507748D01*
X222202252Y-75280013D01*
X221934463Y-75101082D01*
X221636912Y-74977832D01*
X221321033Y-74915000D01*
X220998967Y-74915000D01*
X220683088Y-74977832D01*
X220385537Y-75101082D01*
X220117748Y-75280013D01*
X219890013Y-75507748D01*
X219711082Y-75775537D01*
X219587832Y-76073088D01*
X219525000Y-76388967D01*
X218295000Y-76388967D01*
X218232168Y-76073088D01*
X218108918Y-75775537D01*
X217929987Y-75507748D01*
X217702252Y-75280013D01*
X217434463Y-75101082D01*
X217136912Y-74977832D01*
X216821033Y-74915000D01*
X216498967Y-74915000D01*
X216183088Y-74977832D01*
X215885537Y-75101082D01*
X215617748Y-75280013D01*
X215390013Y-75507748D01*
X215211082Y-75775537D01*
X215124430Y-75984733D01*
X215112168Y-75923088D01*
X214988918Y-75625537D01*
X214809987Y-75357748D01*
X214582252Y-75130013D01*
X214314463Y-74951082D01*
X214016912Y-74827832D01*
X213701033Y-74765000D01*
X213378967Y-74765000D01*
X213063088Y-74827832D01*
X212765537Y-74951082D01*
X212497748Y-75130013D01*
X212270013Y-75357748D01*
X212091082Y-75625537D01*
X211967832Y-75923088D01*
X211905000Y-76238967D01*
X210675000Y-76238967D01*
X210612168Y-75923088D01*
X210488918Y-75625537D01*
X210309987Y-75357748D01*
X210082252Y-75130013D01*
X209814463Y-74951082D01*
X209516912Y-74827832D01*
X209201033Y-74765000D01*
X208878967Y-74765000D01*
X208563088Y-74827832D01*
X208265537Y-74951082D01*
X207997748Y-75130013D01*
X207770013Y-75357748D01*
X207591082Y-75625537D01*
X207467832Y-75923088D01*
X207455570Y-75984733D01*
X207368918Y-75775537D01*
X207189987Y-75507748D01*
X206962252Y-75280013D01*
X206694463Y-75101082D01*
X206396912Y-74977832D01*
X206081033Y-74915000D01*
X205758967Y-74915000D01*
X205443088Y-74977832D01*
X205145537Y-75101082D01*
X204877748Y-75280013D01*
X204650013Y-75507748D01*
X204471082Y-75775537D01*
X204347832Y-76073088D01*
X204285000Y-76388967D01*
X203055000Y-76388967D01*
X202992168Y-76073088D01*
X202868918Y-75775537D01*
X202689987Y-75507748D01*
X202462252Y-75280013D01*
X202194463Y-75101082D01*
X202180000Y-75095091D01*
X202180000Y-71504909D01*
X202194463Y-71498918D01*
X202462252Y-71319987D01*
X202689987Y-71092252D01*
X202868918Y-70824463D01*
X202992168Y-70526912D01*
X203055000Y-70211033D01*
X203055000Y-69888967D01*
X204285000Y-69888967D01*
X204285000Y-70211033D01*
X204347832Y-70526912D01*
X204471082Y-70824463D01*
X204650013Y-71092252D01*
X204877748Y-71319987D01*
X205145537Y-71498918D01*
X205443088Y-71622168D01*
X205758967Y-71685000D01*
X206081033Y-71685000D01*
X206396912Y-71622168D01*
X206694463Y-71498918D01*
X206962252Y-71319987D01*
X207189987Y-71092252D01*
X207368918Y-70824463D01*
X207455570Y-70615267D01*
X207467832Y-70676912D01*
X207591082Y-70974463D01*
X207770013Y-71242252D01*
X207997748Y-71469987D01*
X208265537Y-71648918D01*
X208563088Y-71772168D01*
X208878967Y-71835000D01*
X209201033Y-71835000D01*
X209516912Y-71772168D01*
X209814463Y-71648918D01*
X210082252Y-71469987D01*
X210309987Y-71242252D01*
X210488918Y-70974463D01*
X210612168Y-70676912D01*
X210675000Y-70361033D01*
X210675000Y-70038967D01*
X210612168Y-69723088D01*
X210488918Y-69425537D01*
X210309987Y-69157748D01*
X210082252Y-68930013D01*
X209814463Y-68751082D01*
X209516912Y-68627832D01*
X209201033Y-68565000D01*
X208878967Y-68565000D01*
X208563088Y-68627832D01*
X208265537Y-68751082D01*
X207997748Y-68930013D01*
X207770013Y-69157748D01*
X207591082Y-69425537D01*
X207504430Y-69634733D01*
X207492168Y-69573088D01*
X207368918Y-69275537D01*
X207189987Y-69007748D01*
X206962252Y-68780013D01*
X206694463Y-68601082D01*
X206396912Y-68477832D01*
X206081033Y-68415000D01*
X205758967Y-68415000D01*
X205443088Y-68477832D01*
X205145537Y-68601082D01*
X204877748Y-68780013D01*
X204650013Y-69007748D01*
X204471082Y-69275537D01*
X204347832Y-69573088D01*
X204285000Y-69888967D01*
X203055000Y-69888967D01*
X202992168Y-69573088D01*
X202868918Y-69275537D01*
X202689987Y-69007748D01*
X202462252Y-68780013D01*
X202194463Y-68601082D01*
X201896912Y-68477832D01*
X201581033Y-68415000D01*
X201258967Y-68415000D01*
X200943088Y-68477832D01*
X200645537Y-68601082D01*
X200377748Y-68780013D01*
X200150013Y-69007748D01*
X199971082Y-69275537D01*
X199847832Y-69573088D01*
X199785000Y-69888967D01*
X195091134Y-69888967D01*
X201336003Y-63644099D01*
X201365001Y-63620301D01*
X201431750Y-63538967D01*
X207405000Y-63538967D01*
X207405000Y-63861033D01*
X207467832Y-64176912D01*
X207591082Y-64474463D01*
X207770013Y-64742252D01*
X207997748Y-64969987D01*
X208265537Y-65148918D01*
X208563088Y-65272168D01*
X208878967Y-65335000D01*
X209201033Y-65335000D01*
X209516912Y-65272168D01*
X209814463Y-65148918D01*
X210082252Y-64969987D01*
X210309987Y-64742252D01*
X210488918Y-64474463D01*
X210612168Y-64176912D01*
X210675000Y-63861033D01*
X210675000Y-63538967D01*
X211905000Y-63538967D01*
X211905000Y-63861033D01*
X211967832Y-64176912D01*
X212091082Y-64474463D01*
X212270013Y-64742252D01*
X212497748Y-64969987D01*
X212765537Y-65148918D01*
X213063088Y-65272168D01*
X213378967Y-65335000D01*
X213701033Y-65335000D01*
X214016912Y-65272168D01*
X214314463Y-65148918D01*
X214582252Y-64969987D01*
X214809987Y-64742252D01*
X214988918Y-64474463D01*
X215112168Y-64176912D01*
X215175000Y-63861033D01*
X215175000Y-63538967D01*
X215112168Y-63223088D01*
X214988918Y-62925537D01*
X214809987Y-62657748D01*
X214582252Y-62430013D01*
X214314463Y-62251082D01*
X214016912Y-62127832D01*
X213701033Y-62065000D01*
X213378967Y-62065000D01*
X213063088Y-62127832D01*
X212765537Y-62251082D01*
X212497748Y-62430013D01*
X212270013Y-62657748D01*
X212091082Y-62925537D01*
X211967832Y-63223088D01*
X211905000Y-63538967D01*
X210675000Y-63538967D01*
X210612168Y-63223088D01*
X210488918Y-62925537D01*
X210309987Y-62657748D01*
X210082252Y-62430013D01*
X209814463Y-62251082D01*
X209516912Y-62127832D01*
X209201033Y-62065000D01*
X208878967Y-62065000D01*
X208563088Y-62127832D01*
X208265537Y-62251082D01*
X207997748Y-62430013D01*
X207770013Y-62657748D01*
X207591082Y-62925537D01*
X207467832Y-63223088D01*
X207405000Y-63538967D01*
X201431750Y-63538967D01*
X201459974Y-63504576D01*
X201530546Y-63372547D01*
X201574003Y-63229286D01*
X201583110Y-63136821D01*
X201605537Y-63109494D01*
X201664502Y-62999180D01*
X201700812Y-62879482D01*
X201713072Y-62755000D01*
X201713072Y-61882000D01*
X201748000Y-61882000D01*
X201748000Y-63231250D01*
X201906750Y-63390000D01*
X202007013Y-63379266D01*
X202126264Y-63341517D01*
X202235860Y-63281228D01*
X202331588Y-63200716D01*
X202409770Y-63103076D01*
X202467401Y-62992059D01*
X202502266Y-62871933D01*
X202513026Y-62747312D01*
X202510000Y-62040750D01*
X202351250Y-61882000D01*
X201748000Y-61882000D01*
X201713072Y-61882000D01*
X201713072Y-61608000D01*
X201748000Y-61608000D01*
X201748000Y-61628000D01*
X202351250Y-61628000D01*
X202510000Y-61469250D01*
X202512749Y-60827400D01*
X202836928Y-60827400D01*
X202836928Y-62505000D01*
X202849188Y-62629482D01*
X202885498Y-62749180D01*
X202944463Y-62859494D01*
X203023815Y-62956185D01*
X203120506Y-63035537D01*
X203230820Y-63094502D01*
X203350518Y-63130812D01*
X203475000Y-63143072D01*
X205475000Y-63143072D01*
X205599482Y-63130812D01*
X205719180Y-63094502D01*
X205829494Y-63035537D01*
X205926185Y-62956185D01*
X206005537Y-62859494D01*
X206064502Y-62749180D01*
X206100812Y-62629482D01*
X206113072Y-62505000D01*
X206113072Y-60805000D01*
X206100812Y-60680518D01*
X206064502Y-60560820D01*
X206005537Y-60450506D01*
X205926185Y-60353815D01*
X205829494Y-60274463D01*
X205719180Y-60215498D01*
X205599482Y-60179188D01*
X205475000Y-60166928D01*
X205169575Y-60166928D01*
X205109974Y-60055424D01*
X205015001Y-59939699D01*
X204985997Y-59915896D01*
X204822700Y-59752599D01*
X204822700Y-58107401D01*
X204985997Y-57944104D01*
X205015001Y-57920301D01*
X205109974Y-57804576D01*
X205169575Y-57693072D01*
X205475000Y-57693072D01*
X205599482Y-57680812D01*
X205719180Y-57644502D01*
X205829494Y-57585537D01*
X205926185Y-57506185D01*
X206005537Y-57409494D01*
X206064502Y-57299180D01*
X206100812Y-57179482D01*
X206113072Y-57055000D01*
X206113072Y-56899575D01*
X206224576Y-56839974D01*
X206340301Y-56745001D01*
X206364103Y-56715998D01*
X206440101Y-56640000D01*
X211996755Y-56640000D01*
X212026823Y-56685000D01*
X211879042Y-56685000D01*
X211553504Y-56749754D01*
X211246853Y-56876772D01*
X210970875Y-57061175D01*
X210736175Y-57295875D01*
X210551772Y-57571853D01*
X210424754Y-57878504D01*
X210360000Y-58204042D01*
X210360000Y-58535958D01*
X210424754Y-58861496D01*
X210551772Y-59168147D01*
X210736175Y-59444125D01*
X210970875Y-59678825D01*
X211246853Y-59863228D01*
X211553504Y-59990246D01*
X211879042Y-60055000D01*
X212210958Y-60055000D01*
X212536496Y-59990246D01*
X212843147Y-59863228D01*
X213119125Y-59678825D01*
X213353825Y-59444125D01*
X213538228Y-59168147D01*
X213665246Y-58861496D01*
X213730000Y-58535958D01*
X213730000Y-58204042D01*
X213665246Y-57878504D01*
X213538228Y-57571853D01*
X213416717Y-57390000D01*
X213453722Y-57390000D01*
X213745451Y-57331971D01*
X214020253Y-57218144D01*
X214267569Y-57052893D01*
X214477893Y-56842569D01*
X214643144Y-56595253D01*
X214649971Y-56578772D01*
X215900000Y-57828802D01*
X215900001Y-68595091D01*
X215885537Y-68601082D01*
X215617748Y-68780013D01*
X215390013Y-69007748D01*
X215211082Y-69275537D01*
X215087832Y-69573088D01*
X215075570Y-69634733D01*
X214988918Y-69425537D01*
X214809987Y-69157748D01*
X214582252Y-68930013D01*
X214314463Y-68751082D01*
X214016912Y-68627832D01*
X213701033Y-68565000D01*
X213378967Y-68565000D01*
X213063088Y-68627832D01*
X212765537Y-68751082D01*
X212497748Y-68930013D01*
X212270013Y-69157748D01*
X212091082Y-69425537D01*
X211967832Y-69723088D01*
X211905000Y-70038967D01*
X211905000Y-70361033D01*
X211967832Y-70676912D01*
X212091082Y-70974463D01*
X212270013Y-71242252D01*
X212497748Y-71469987D01*
X212765537Y-71648918D01*
X213063088Y-71772168D01*
X213378967Y-71835000D01*
X213701033Y-71835000D01*
X214016912Y-71772168D01*
X214314463Y-71648918D01*
X214582252Y-71469987D01*
X214809987Y-71242252D01*
X214988918Y-70974463D01*
X215112168Y-70676912D01*
X215124430Y-70615267D01*
X215211082Y-70824463D01*
X215390013Y-71092252D01*
X215617748Y-71319987D01*
X215885537Y-71498918D01*
X216183088Y-71622168D01*
X216498967Y-71685000D01*
X216821033Y-71685000D01*
X217136912Y-71622168D01*
X217434463Y-71498918D01*
X217702252Y-71319987D01*
X217929987Y-71092252D01*
X218108918Y-70824463D01*
X218232168Y-70526912D01*
X218295000Y-70211033D01*
X218295000Y-69888967D01*
X219525000Y-69888967D01*
X219525000Y-70211033D01*
X219587832Y-70526912D01*
X219711082Y-70824463D01*
X219890013Y-71092252D01*
X220117748Y-71319987D01*
X220385537Y-71498918D01*
X220683088Y-71622168D01*
X220998967Y-71685000D01*
X221321033Y-71685000D01*
X221636912Y-71622168D01*
X221934463Y-71498918D01*
X222202252Y-71319987D01*
X222429987Y-71092252D01*
X222608918Y-70824463D01*
X222732168Y-70526912D01*
X222795000Y-70211033D01*
X222795000Y-69888967D01*
X222732168Y-69573088D01*
X222608918Y-69275537D01*
X222429987Y-69007748D01*
X222202252Y-68780013D01*
X221934463Y-68601082D01*
X221636912Y-68477832D01*
X221321033Y-68415000D01*
X220998967Y-68415000D01*
X220683088Y-68477832D01*
X220385537Y-68601082D01*
X220117748Y-68780013D01*
X219890013Y-69007748D01*
X219711082Y-69275537D01*
X219587832Y-69573088D01*
X219525000Y-69888967D01*
X218295000Y-69888967D01*
X218232168Y-69573088D01*
X218108918Y-69275537D01*
X217929987Y-69007748D01*
X217702252Y-68780013D01*
X217434463Y-68601082D01*
X217420000Y-68595091D01*
X217420000Y-58787323D01*
X217434754Y-58861496D01*
X217561772Y-59168147D01*
X217746175Y-59444125D01*
X217980875Y-59678825D01*
X218256853Y-59863228D01*
X218563504Y-59990246D01*
X218889042Y-60055000D01*
X219220958Y-60055000D01*
X219546496Y-59990246D01*
X219853147Y-59863228D01*
X220129125Y-59678825D01*
X220363825Y-59444125D01*
X220548228Y-59168147D01*
X220675246Y-58861496D01*
X220740000Y-58535958D01*
X220740000Y-58204042D01*
X220675246Y-57878504D01*
X220548228Y-57571853D01*
X220363825Y-57295875D01*
X220129125Y-57061175D01*
X219853147Y-56876772D01*
X219546496Y-56749754D01*
X219220958Y-56685000D01*
X219083177Y-56685000D01*
X219143144Y-56595253D01*
X219256971Y-56320451D01*
X219315000Y-56028722D01*
X219315000Y-55731278D01*
X219256971Y-55439549D01*
X219143144Y-55164747D01*
X218977893Y-54917431D01*
X218767569Y-54707107D01*
X218520253Y-54541856D01*
X218245451Y-54428029D01*
X217953722Y-54370000D01*
X217656278Y-54370000D01*
X217364549Y-54428029D01*
X217089747Y-54541856D01*
X216842431Y-54707107D01*
X216632107Y-54917431D01*
X216466856Y-55164747D01*
X216353029Y-55439549D01*
X216295000Y-55731278D01*
X216295000Y-56028722D01*
X216306292Y-56085490D01*
X214389404Y-54168603D01*
X214365601Y-54139599D01*
X214249876Y-54044626D01*
X214117847Y-53974054D01*
X213974586Y-53930597D01*
X213862933Y-53919600D01*
X213862922Y-53919600D01*
X213825600Y-53915924D01*
X213788278Y-53919600D01*
X181441222Y-53919600D01*
X181403899Y-53915924D01*
X181366576Y-53919600D01*
X181366567Y-53919600D01*
X181254914Y-53930597D01*
X181111653Y-53974054D01*
X180979623Y-54044626D01*
X180917518Y-54095595D01*
X180863899Y-54139599D01*
X180840101Y-54168597D01*
X178634900Y-56373798D01*
X178634900Y-56191230D01*
X178514424Y-55585555D01*
X178278101Y-55015022D01*
X177935014Y-54501555D01*
X177498346Y-54064887D01*
X176984879Y-53721800D01*
X176920179Y-53695000D01*
X223079619Y-53695001D01*
G36*
X138741726Y-99479037D02*
G01*
X138911244Y-99592305D01*
X139099602Y-99670326D01*
X139299561Y-99710100D01*
X139503439Y-99710100D01*
X139703398Y-99670326D01*
X139891756Y-99592305D01*
X140061274Y-99479037D01*
X140105211Y-99435100D01*
X169404899Y-99435100D01*
X172490801Y-102521003D01*
X172514599Y-102550001D01*
X172630324Y-102644974D01*
X172762353Y-102715546D01*
X172905614Y-102759003D01*
X172947103Y-102763089D01*
X173076425Y-102956633D01*
X173283268Y-103163476D01*
X173457660Y-103280001D01*
X173283268Y-103396526D01*
X173076425Y-103603369D01*
X172913910Y-103846590D01*
X172801968Y-104116843D01*
X172744900Y-104403741D01*
X172744900Y-104696261D01*
X172801968Y-104983159D01*
X172913910Y-105253412D01*
X173076425Y-105496633D01*
X173283268Y-105703476D01*
X173465434Y-105825196D01*
X173348545Y-105894823D01*
X173132312Y-106089732D01*
X172958259Y-106323081D01*
X172833075Y-106585902D01*
X172788424Y-106733111D01*
X172909745Y-106963001D01*
X174102900Y-106963001D01*
X174102900Y-106943001D01*
X174356900Y-106943001D01*
X174356900Y-106963001D01*
X174376900Y-106963001D01*
X174376900Y-107217001D01*
X174356900Y-107217001D01*
X174356900Y-107237001D01*
X174102900Y-107237001D01*
X174102900Y-107217001D01*
X172909745Y-107217001D01*
X172788424Y-107446891D01*
X172806140Y-107505300D01*
X172797125Y-107505300D01*
X172759800Y-107501624D01*
X172722475Y-107505300D01*
X172722467Y-107505300D01*
X172610814Y-107516297D01*
X172467553Y-107559754D01*
X172335524Y-107630326D01*
X172219799Y-107725299D01*
X172196001Y-107754297D01*
X170949899Y-109000400D01*
X157684078Y-109000400D01*
X157934412Y-108833132D01*
X158263132Y-108504412D01*
X158521405Y-108117879D01*
X158699306Y-107688387D01*
X158790000Y-107232440D01*
X158790000Y-106767560D01*
X158699306Y-106311613D01*
X158521405Y-105882121D01*
X158263132Y-105495588D01*
X157934412Y-105166868D01*
X157547879Y-104908595D01*
X157118387Y-104730694D01*
X156662440Y-104640000D01*
X156197560Y-104640000D01*
X155741613Y-104730694D01*
X155312121Y-104908595D01*
X154925588Y-105166868D01*
X154596868Y-105495588D01*
X154338595Y-105882121D01*
X154160694Y-106311613D01*
X154070000Y-106767560D01*
X154070000Y-107232440D01*
X154160694Y-107688387D01*
X154338595Y-108117879D01*
X154596868Y-108504412D01*
X154925588Y-108833132D01*
X155175922Y-109000400D01*
X66890706Y-109000400D01*
X66890000Y-108870750D01*
X66731250Y-108712000D01*
X65532000Y-108712000D01*
X65532000Y-108732000D01*
X65278000Y-108732000D01*
X65278000Y-108712000D01*
X65258000Y-108712000D01*
X65258000Y-108458000D01*
X65278000Y-108458000D01*
X65278000Y-108438000D01*
X65532000Y-108438000D01*
X65532000Y-108458000D01*
X66731250Y-108458000D01*
X66890000Y-108299250D01*
X66890705Y-108169700D01*
X69867978Y-108169700D01*
X69905300Y-108173376D01*
X69942622Y-108169700D01*
X69942633Y-108169700D01*
X70054286Y-108158703D01*
X70197547Y-108115246D01*
X70329576Y-108044674D01*
X70445301Y-107949701D01*
X70469104Y-107920697D01*
X71063624Y-107326177D01*
X71078088Y-107332168D01*
X71393967Y-107395000D01*
X71716033Y-107395000D01*
X72031912Y-107332168D01*
X72329463Y-107208918D01*
X72597252Y-107029987D01*
X72824987Y-106802252D01*
X73003918Y-106534463D01*
X73127168Y-106236912D01*
X73190000Y-105921033D01*
X73190000Y-105598967D01*
X73127168Y-105283088D01*
X73090515Y-105194600D01*
X92596087Y-105194600D01*
X92366209Y-105240325D01*
X92033170Y-105378275D01*
X91733443Y-105578546D01*
X91478546Y-105833443D01*
X91278275Y-106133170D01*
X91140325Y-106466209D01*
X91070000Y-106819761D01*
X91070000Y-107180239D01*
X91140325Y-107533791D01*
X91278275Y-107866830D01*
X91478546Y-108166557D01*
X91733443Y-108421454D01*
X92033170Y-108621725D01*
X92366209Y-108759675D01*
X92719761Y-108830000D01*
X93080239Y-108830000D01*
X93433791Y-108759675D01*
X93766830Y-108621725D01*
X94066557Y-108421454D01*
X94321454Y-108166557D01*
X94521725Y-107866830D01*
X94659675Y-107533791D01*
X94730000Y-107180239D01*
X94730000Y-106819761D01*
X94659675Y-106466209D01*
X94521725Y-106133170D01*
X94321454Y-105833443D01*
X94066557Y-105578546D01*
X93766830Y-105378275D01*
X93433791Y-105240325D01*
X93203913Y-105194600D01*
X132514778Y-105194600D01*
X132552100Y-105198276D01*
X132589422Y-105194600D01*
X132589433Y-105194600D01*
X132701086Y-105183603D01*
X132844347Y-105140146D01*
X132976376Y-105069574D01*
X133092101Y-104974601D01*
X133115904Y-104945597D01*
X138662095Y-99399406D01*
X138741726Y-99479037D01*
G37*
X138741726Y-99479037D02*
X138911244Y-99592305D01*
X139099602Y-99670326D01*
X139299561Y-99710100D01*
X139503439Y-99710100D01*
X139703398Y-99670326D01*
X139891756Y-99592305D01*
X140061274Y-99479037D01*
X140105211Y-99435100D01*
X169404899Y-99435100D01*
X172490801Y-102521003D01*
X172514599Y-102550001D01*
X172630324Y-102644974D01*
X172762353Y-102715546D01*
X172905614Y-102759003D01*
X172947103Y-102763089D01*
X173076425Y-102956633D01*
X173283268Y-103163476D01*
X173457660Y-103280001D01*
X173283268Y-103396526D01*
X173076425Y-103603369D01*
X172913910Y-103846590D01*
X172801968Y-104116843D01*
X172744900Y-104403741D01*
X172744900Y-104696261D01*
X172801968Y-104983159D01*
X172913910Y-105253412D01*
X173076425Y-105496633D01*
X173283268Y-105703476D01*
X173465434Y-105825196D01*
X173348545Y-105894823D01*
X173132312Y-106089732D01*
X172958259Y-106323081D01*
X172833075Y-106585902D01*
X172788424Y-106733111D01*
X172909745Y-106963001D01*
X174102900Y-106963001D01*
X174102900Y-106943001D01*
X174356900Y-106943001D01*
X174356900Y-106963001D01*
X174376900Y-106963001D01*
X174376900Y-107217001D01*
X174356900Y-107217001D01*
X174356900Y-107237001D01*
X174102900Y-107237001D01*
X174102900Y-107217001D01*
X172909745Y-107217001D01*
X172788424Y-107446891D01*
X172806140Y-107505300D01*
X172797125Y-107505300D01*
X172759800Y-107501624D01*
X172722475Y-107505300D01*
X172722467Y-107505300D01*
X172610814Y-107516297D01*
X172467553Y-107559754D01*
X172335524Y-107630326D01*
X172219799Y-107725299D01*
X172196001Y-107754297D01*
X170949899Y-109000400D01*
X157684078Y-109000400D01*
X157934412Y-108833132D01*
X158263132Y-108504412D01*
X158521405Y-108117879D01*
X158699306Y-107688387D01*
X158790000Y-107232440D01*
X158790000Y-106767560D01*
X158699306Y-106311613D01*
X158521405Y-105882121D01*
X158263132Y-105495588D01*
X157934412Y-105166868D01*
X157547879Y-104908595D01*
X157118387Y-104730694D01*
X156662440Y-104640000D01*
X156197560Y-104640000D01*
X155741613Y-104730694D01*
X155312121Y-104908595D01*
X154925588Y-105166868D01*
X154596868Y-105495588D01*
X154338595Y-105882121D01*
X154160694Y-106311613D01*
X154070000Y-106767560D01*
X154070000Y-107232440D01*
X154160694Y-107688387D01*
X154338595Y-108117879D01*
X154596868Y-108504412D01*
X154925588Y-108833132D01*
X155175922Y-109000400D01*
X66890706Y-109000400D01*
X66890000Y-108870750D01*
X66731250Y-108712000D01*
X65532000Y-108712000D01*
X65532000Y-108732000D01*
X65278000Y-108732000D01*
X65278000Y-108712000D01*
X65258000Y-108712000D01*
X65258000Y-108458000D01*
X65278000Y-108458000D01*
X65278000Y-108438000D01*
X65532000Y-108438000D01*
X65532000Y-108458000D01*
X66731250Y-108458000D01*
X66890000Y-108299250D01*
X66890705Y-108169700D01*
X69867978Y-108169700D01*
X69905300Y-108173376D01*
X69942622Y-108169700D01*
X69942633Y-108169700D01*
X70054286Y-108158703D01*
X70197547Y-108115246D01*
X70329576Y-108044674D01*
X70445301Y-107949701D01*
X70469104Y-107920697D01*
X71063624Y-107326177D01*
X71078088Y-107332168D01*
X71393967Y-107395000D01*
X71716033Y-107395000D01*
X72031912Y-107332168D01*
X72329463Y-107208918D01*
X72597252Y-107029987D01*
X72824987Y-106802252D01*
X73003918Y-106534463D01*
X73127168Y-106236912D01*
X73190000Y-105921033D01*
X73190000Y-105598967D01*
X73127168Y-105283088D01*
X73090515Y-105194600D01*
X92596087Y-105194600D01*
X92366209Y-105240325D01*
X92033170Y-105378275D01*
X91733443Y-105578546D01*
X91478546Y-105833443D01*
X91278275Y-106133170D01*
X91140325Y-106466209D01*
X91070000Y-106819761D01*
X91070000Y-107180239D01*
X91140325Y-107533791D01*
X91278275Y-107866830D01*
X91478546Y-108166557D01*
X91733443Y-108421454D01*
X92033170Y-108621725D01*
X92366209Y-108759675D01*
X92719761Y-108830000D01*
X93080239Y-108830000D01*
X93433791Y-108759675D01*
X93766830Y-108621725D01*
X94066557Y-108421454D01*
X94321454Y-108166557D01*
X94521725Y-107866830D01*
X94659675Y-107533791D01*
X94730000Y-107180239D01*
X94730000Y-106819761D01*
X94659675Y-106466209D01*
X94521725Y-106133170D01*
X94321454Y-105833443D01*
X94066557Y-105578546D01*
X93766830Y-105378275D01*
X93433791Y-105240325D01*
X93203913Y-105194600D01*
X132514778Y-105194600D01*
X132552100Y-105198276D01*
X132589422Y-105194600D01*
X132589433Y-105194600D01*
X132701086Y-105183603D01*
X132844347Y-105140146D01*
X132976376Y-105069574D01*
X133092101Y-104974601D01*
X133115904Y-104945597D01*
X138662095Y-99399406D01*
X138741726Y-99479037D01*
G36*
X52236324Y-88260400D02*
G01*
X52240001Y-88297732D01*
X52240000Y-94171471D01*
X52181750Y-94165000D01*
X52149503Y-94197247D01*
X52127002Y-94204072D01*
X52127002Y-94165000D01*
X52118072Y-94165000D01*
X52118072Y-92100000D01*
X52105812Y-91975518D01*
X52069502Y-91855820D01*
X52010537Y-91745506D01*
X51931185Y-91648815D01*
X51834494Y-91569463D01*
X51724180Y-91510498D01*
X51604482Y-91474188D01*
X51480000Y-91461928D01*
X49614600Y-91461928D01*
X49614600Y-90864501D01*
X52238249Y-88240852D01*
X52236324Y-88260400D01*
G37*
X52236324Y-88260400D02*
X52240001Y-88297732D01*
X52240000Y-94171471D01*
X52181750Y-94165000D01*
X52149503Y-94197247D01*
X52127002Y-94204072D01*
X52127002Y-94165000D01*
X52118072Y-94165000D01*
X52118072Y-92100000D01*
X52105812Y-91975518D01*
X52069502Y-91855820D01*
X52010537Y-91745506D01*
X51931185Y-91648815D01*
X51834494Y-91569463D01*
X51724180Y-91510498D01*
X51604482Y-91474188D01*
X51480000Y-91461928D01*
X49614600Y-91461928D01*
X49614600Y-90864501D01*
X52238249Y-88240852D01*
X52236324Y-88260400D01*
G36*
X99138595Y-67172121D02*
G01*
X98960694Y-67601613D01*
X98870000Y-68057560D01*
X98870000Y-68522440D01*
X98960694Y-68978387D01*
X99138595Y-69407879D01*
X99396868Y-69794412D01*
X99458256Y-69855800D01*
X84490201Y-69855800D01*
X84487743Y-69853342D01*
X84488072Y-69850000D01*
X84485000Y-69285750D01*
X84326250Y-69127000D01*
X83127000Y-69127000D01*
X83127000Y-69147000D01*
X82873000Y-69147000D01*
X82873000Y-69127000D01*
X81673750Y-69127000D01*
X81515000Y-69285750D01*
X81513396Y-69580400D01*
X78058022Y-69580400D01*
X78020699Y-69576724D01*
X77983376Y-69580400D01*
X77983367Y-69580400D01*
X77871714Y-69591397D01*
X77741244Y-69630974D01*
X77728453Y-69634854D01*
X77596423Y-69705426D01*
X77542110Y-69750000D01*
X77480699Y-69800399D01*
X77456901Y-69829397D01*
X73133199Y-74153100D01*
X73071061Y-74153100D01*
X72871102Y-74192874D01*
X72682744Y-74270895D01*
X72513226Y-74384163D01*
X72369063Y-74528326D01*
X72255795Y-74697844D01*
X72177774Y-74886202D01*
X72138000Y-75086161D01*
X72138000Y-75153400D01*
X69765293Y-75153400D01*
X69673637Y-75016226D01*
X69623656Y-74966245D01*
X76005202Y-68584700D01*
X81514295Y-68584700D01*
X81515000Y-68714250D01*
X81673750Y-68873000D01*
X82873000Y-68873000D01*
X82873000Y-68853000D01*
X83127000Y-68853000D01*
X83127000Y-68873000D01*
X84326250Y-68873000D01*
X84485000Y-68714250D01*
X84485705Y-68584700D01*
X96920378Y-68584700D01*
X96957700Y-68588376D01*
X96995022Y-68584700D01*
X96995033Y-68584700D01*
X97106686Y-68573703D01*
X97249947Y-68530246D01*
X97381976Y-68459674D01*
X97497701Y-68364701D01*
X97521504Y-68335697D01*
X98901002Y-66956200D01*
X99282869Y-66956200D01*
X99138595Y-67172121D01*
G37*
X99138595Y-67172121D02*
X98960694Y-67601613D01*
X98870000Y-68057560D01*
X98870000Y-68522440D01*
X98960694Y-68978387D01*
X99138595Y-69407879D01*
X99396868Y-69794412D01*
X99458256Y-69855800D01*
X84490201Y-69855800D01*
X84487743Y-69853342D01*
X84488072Y-69850000D01*
X84485000Y-69285750D01*
X84326250Y-69127000D01*
X83127000Y-69127000D01*
X83127000Y-69147000D01*
X82873000Y-69147000D01*
X82873000Y-69127000D01*
X81673750Y-69127000D01*
X81515000Y-69285750D01*
X81513396Y-69580400D01*
X78058022Y-69580400D01*
X78020699Y-69576724D01*
X77983376Y-69580400D01*
X77983367Y-69580400D01*
X77871714Y-69591397D01*
X77741244Y-69630974D01*
X77728453Y-69634854D01*
X77596423Y-69705426D01*
X77542110Y-69750000D01*
X77480699Y-69800399D01*
X77456901Y-69829397D01*
X73133199Y-74153100D01*
X73071061Y-74153100D01*
X72871102Y-74192874D01*
X72682744Y-74270895D01*
X72513226Y-74384163D01*
X72369063Y-74528326D01*
X72255795Y-74697844D01*
X72177774Y-74886202D01*
X72138000Y-75086161D01*
X72138000Y-75153400D01*
X69765293Y-75153400D01*
X69673637Y-75016226D01*
X69623656Y-74966245D01*
X76005202Y-68584700D01*
X81514295Y-68584700D01*
X81515000Y-68714250D01*
X81673750Y-68873000D01*
X82873000Y-68873000D01*
X82873000Y-68853000D01*
X83127000Y-68853000D01*
X83127000Y-68873000D01*
X84326250Y-68873000D01*
X84485000Y-68714250D01*
X84485705Y-68584700D01*
X96920378Y-68584700D01*
X96957700Y-68588376D01*
X96995022Y-68584700D01*
X96995033Y-68584700D01*
X97106686Y-68573703D01*
X97249947Y-68530246D01*
X97381976Y-68459674D01*
X97497701Y-68364701D01*
X97521504Y-68335697D01*
X98901002Y-66956200D01*
X99282869Y-66956200D01*
X99138595Y-67172121D01*
G36*
X61413029Y-55439549D02*
G01*
X61355000Y-55731278D01*
X61355000Y-56028722D01*
X61413029Y-56320451D01*
X61526856Y-56595253D01*
X61692107Y-56842569D01*
X61902431Y-57052893D01*
X62149747Y-57218144D01*
X62424549Y-57331971D01*
X62716278Y-57390000D01*
X62743283Y-57390000D01*
X62621772Y-57571853D01*
X62494754Y-57878504D01*
X62430000Y-58204042D01*
X62430000Y-58535958D01*
X62494754Y-58861496D01*
X62621772Y-59168147D01*
X62806175Y-59444125D01*
X63040875Y-59678825D01*
X63316853Y-59863228D01*
X63623504Y-59990246D01*
X63949042Y-60055000D01*
X64280958Y-60055000D01*
X64606496Y-59990246D01*
X64913147Y-59863228D01*
X65189125Y-59678825D01*
X65423825Y-59444125D01*
X65608228Y-59168147D01*
X65735246Y-58861496D01*
X65800000Y-58535958D01*
X65800000Y-58204042D01*
X65759414Y-58000000D01*
X66511928Y-58000000D01*
X66524188Y-58124482D01*
X66560498Y-58244180D01*
X66619463Y-58354494D01*
X66698815Y-58451185D01*
X66795506Y-58530537D01*
X66905820Y-58589502D01*
X67025518Y-58625812D01*
X67150000Y-58638072D01*
X67714250Y-58635000D01*
X67873000Y-58476250D01*
X67873000Y-57277000D01*
X68127000Y-57277000D01*
X68127000Y-58476250D01*
X68285750Y-58635000D01*
X68850000Y-58638072D01*
X68974482Y-58625812D01*
X69094180Y-58589502D01*
X69204494Y-58530537D01*
X69301185Y-58451185D01*
X69380537Y-58354494D01*
X69439502Y-58244180D01*
X69475812Y-58124482D01*
X69488072Y-58000000D01*
X69485000Y-57435750D01*
X69326250Y-57277000D01*
X68127000Y-57277000D01*
X67873000Y-57277000D01*
X66673750Y-57277000D01*
X66515000Y-57435750D01*
X66511928Y-58000000D01*
X65759414Y-58000000D01*
X65735246Y-57878504D01*
X65608228Y-57571853D01*
X65423825Y-57295875D01*
X65189125Y-57061175D01*
X64913147Y-56876772D01*
X64606496Y-56749754D01*
X64280958Y-56685000D01*
X64143177Y-56685000D01*
X64203144Y-56595253D01*
X64316971Y-56320451D01*
X64375000Y-56028722D01*
X64375000Y-55731278D01*
X64316971Y-55439549D01*
X64288163Y-55370000D01*
X66721822Y-55370000D01*
X66846525Y-55556632D01*
X66978380Y-55688487D01*
X66905820Y-55710498D01*
X66795506Y-55769463D01*
X66698815Y-55848815D01*
X66619463Y-55945506D01*
X66560498Y-56055820D01*
X66524188Y-56175518D01*
X66511928Y-56300000D01*
X66515000Y-56864250D01*
X66673750Y-57023000D01*
X67873000Y-57023000D01*
X67873000Y-57003000D01*
X68127000Y-57003000D01*
X68127000Y-57023000D01*
X69326250Y-57023000D01*
X69485000Y-56864250D01*
X69488072Y-56300000D01*
X69475812Y-56175518D01*
X69439502Y-56055820D01*
X69380537Y-55945506D01*
X69301185Y-55848815D01*
X69204494Y-55769463D01*
X69094180Y-55710498D01*
X69021620Y-55688487D01*
X69100303Y-55609804D01*
X69786800Y-56296302D01*
X69810599Y-56325301D01*
X69926324Y-56420274D01*
X70058353Y-56490846D01*
X70201614Y-56534303D01*
X70313267Y-56545300D01*
X70313276Y-56545300D01*
X70350599Y-56548976D01*
X70387922Y-56545300D01*
X71671424Y-56545300D01*
X71583519Y-56793109D01*
X71704186Y-57023000D01*
X72898000Y-57023000D01*
X72898000Y-57003000D01*
X73152000Y-57003000D01*
X73152000Y-57023000D01*
X73172000Y-57023000D01*
X73172000Y-57277000D01*
X73152000Y-57277000D01*
X73152000Y-57297000D01*
X72898000Y-57297000D01*
X72898000Y-57277000D01*
X71704186Y-57277000D01*
X71583519Y-57506891D01*
X71604238Y-57565300D01*
X70570523Y-57565300D01*
X70533200Y-57561624D01*
X70495877Y-57565300D01*
X70495867Y-57565300D01*
X70384214Y-57576297D01*
X70240953Y-57619754D01*
X70108923Y-57690326D01*
X70029793Y-57755267D01*
X69993199Y-57785299D01*
X69969401Y-57814297D01*
X59240400Y-68543299D01*
X59240400Y-57730322D01*
X59244076Y-57692999D01*
X59240400Y-57655676D01*
X59240400Y-57655667D01*
X59229403Y-57544014D01*
X59185946Y-57400753D01*
X59115374Y-57268724D01*
X59075485Y-57220119D01*
X59080253Y-57218144D01*
X59327569Y-57052893D01*
X59537893Y-56842569D01*
X59703144Y-56595253D01*
X59816971Y-56320451D01*
X59875000Y-56028722D01*
X59875000Y-55731278D01*
X59827470Y-55492332D01*
X59949802Y-55370000D01*
X61441837Y-55370000D01*
X61413029Y-55439549D01*
G37*
X61413029Y-55439549D02*
X61355000Y-55731278D01*
X61355000Y-56028722D01*
X61413029Y-56320451D01*
X61526856Y-56595253D01*
X61692107Y-56842569D01*
X61902431Y-57052893D01*
X62149747Y-57218144D01*
X62424549Y-57331971D01*
X62716278Y-57390000D01*
X62743283Y-57390000D01*
X62621772Y-57571853D01*
X62494754Y-57878504D01*
X62430000Y-58204042D01*
X62430000Y-58535958D01*
X62494754Y-58861496D01*
X62621772Y-59168147D01*
X62806175Y-59444125D01*
X63040875Y-59678825D01*
X63316853Y-59863228D01*
X63623504Y-59990246D01*
X63949042Y-60055000D01*
X64280958Y-60055000D01*
X64606496Y-59990246D01*
X64913147Y-59863228D01*
X65189125Y-59678825D01*
X65423825Y-59444125D01*
X65608228Y-59168147D01*
X65735246Y-58861496D01*
X65800000Y-58535958D01*
X65800000Y-58204042D01*
X65759414Y-58000000D01*
X66511928Y-58000000D01*
X66524188Y-58124482D01*
X66560498Y-58244180D01*
X66619463Y-58354494D01*
X66698815Y-58451185D01*
X66795506Y-58530537D01*
X66905820Y-58589502D01*
X67025518Y-58625812D01*
X67150000Y-58638072D01*
X67714250Y-58635000D01*
X67873000Y-58476250D01*
X67873000Y-57277000D01*
X68127000Y-57277000D01*
X68127000Y-58476250D01*
X68285750Y-58635000D01*
X68850000Y-58638072D01*
X68974482Y-58625812D01*
X69094180Y-58589502D01*
X69204494Y-58530537D01*
X69301185Y-58451185D01*
X69380537Y-58354494D01*
X69439502Y-58244180D01*
X69475812Y-58124482D01*
X69488072Y-58000000D01*
X69485000Y-57435750D01*
X69326250Y-57277000D01*
X68127000Y-57277000D01*
X67873000Y-57277000D01*
X66673750Y-57277000D01*
X66515000Y-57435750D01*
X66511928Y-58000000D01*
X65759414Y-58000000D01*
X65735246Y-57878504D01*
X65608228Y-57571853D01*
X65423825Y-57295875D01*
X65189125Y-57061175D01*
X64913147Y-56876772D01*
X64606496Y-56749754D01*
X64280958Y-56685000D01*
X64143177Y-56685000D01*
X64203144Y-56595253D01*
X64316971Y-56320451D01*
X64375000Y-56028722D01*
X64375000Y-55731278D01*
X64316971Y-55439549D01*
X64288163Y-55370000D01*
X66721822Y-55370000D01*
X66846525Y-55556632D01*
X66978380Y-55688487D01*
X66905820Y-55710498D01*
X66795506Y-55769463D01*
X66698815Y-55848815D01*
X66619463Y-55945506D01*
X66560498Y-56055820D01*
X66524188Y-56175518D01*
X66511928Y-56300000D01*
X66515000Y-56864250D01*
X66673750Y-57023000D01*
X67873000Y-57023000D01*
X67873000Y-57003000D01*
X68127000Y-57003000D01*
X68127000Y-57023000D01*
X69326250Y-57023000D01*
X69485000Y-56864250D01*
X69488072Y-56300000D01*
X69475812Y-56175518D01*
X69439502Y-56055820D01*
X69380537Y-55945506D01*
X69301185Y-55848815D01*
X69204494Y-55769463D01*
X69094180Y-55710498D01*
X69021620Y-55688487D01*
X69100303Y-55609804D01*
X69786800Y-56296302D01*
X69810599Y-56325301D01*
X69926324Y-56420274D01*
X70058353Y-56490846D01*
X70201614Y-56534303D01*
X70313267Y-56545300D01*
X70313276Y-56545300D01*
X70350599Y-56548976D01*
X70387922Y-56545300D01*
X71671424Y-56545300D01*
X71583519Y-56793109D01*
X71704186Y-57023000D01*
X72898000Y-57023000D01*
X72898000Y-57003000D01*
X73152000Y-57003000D01*
X73152000Y-57023000D01*
X73172000Y-57023000D01*
X73172000Y-57277000D01*
X73152000Y-57277000D01*
X73152000Y-57297000D01*
X72898000Y-57297000D01*
X72898000Y-57277000D01*
X71704186Y-57277000D01*
X71583519Y-57506891D01*
X71604238Y-57565300D01*
X70570523Y-57565300D01*
X70533200Y-57561624D01*
X70495877Y-57565300D01*
X70495867Y-57565300D01*
X70384214Y-57576297D01*
X70240953Y-57619754D01*
X70108923Y-57690326D01*
X70029793Y-57755267D01*
X69993199Y-57785299D01*
X69969401Y-57814297D01*
X59240400Y-68543299D01*
X59240400Y-57730322D01*
X59244076Y-57692999D01*
X59240400Y-57655676D01*
X59240400Y-57655667D01*
X59229403Y-57544014D01*
X59185946Y-57400753D01*
X59115374Y-57268724D01*
X59075485Y-57220119D01*
X59080253Y-57218144D01*
X59327569Y-57052893D01*
X59537893Y-56842569D01*
X59703144Y-56595253D01*
X59816971Y-56320451D01*
X59875000Y-56028722D01*
X59875000Y-55731278D01*
X59827470Y-55492332D01*
X59949802Y-55370000D01*
X61441837Y-55370000D01*
X61413029Y-55439549D01*
M02*
