G04 #@! TF.GenerationSoftware,KiCad,Pcbnew,(5.1.5)-2*
G04 #@! TF.CreationDate,2020-10-20T15:30:22-06:00*
G04 #@! TF.ProjectId,Pi-A3-Game-Console,50692d41-332d-4476-916d-652d436f6e73,rev?*
G04 #@! TF.SameCoordinates,Original*
G04 #@! TF.FileFunction,Paste,Bot*
G04 #@! TF.FilePolarity,Positive*
%FSLAX46Y46*%
G04 Gerber Fmt 4.6, Leading zero omitted, Abs format (unit mm)*
G04 Created by KiCad (PCBNEW (5.1.5)-2) date 2020-10-20 15:30:22*
%MOMM*%
%LPD*%
G04 APERTURE LIST*
%ADD10C,0.100000*%
%ADD11R,0.800000X0.900000*%
%ADD12R,0.500000X2.000000*%
%ADD13R,2.000000X1.700000*%
%ADD14R,1.500000X0.550000*%
%ADD15R,0.550000X1.500000*%
G04 APERTURE END LIST*
D10*
G36*
X188011504Y-102126204D02*
G01*
X188035773Y-102129804D01*
X188059571Y-102135765D01*
X188082671Y-102144030D01*
X188104849Y-102154520D01*
X188125893Y-102167133D01*
X188145598Y-102181747D01*
X188163777Y-102198223D01*
X188180253Y-102216402D01*
X188194867Y-102236107D01*
X188207480Y-102257151D01*
X188217970Y-102279329D01*
X188226235Y-102302429D01*
X188232196Y-102326227D01*
X188235796Y-102350496D01*
X188237000Y-102375000D01*
X188237000Y-103625000D01*
X188235796Y-103649504D01*
X188232196Y-103673773D01*
X188226235Y-103697571D01*
X188217970Y-103720671D01*
X188207480Y-103742849D01*
X188194867Y-103763893D01*
X188180253Y-103783598D01*
X188163777Y-103801777D01*
X188145598Y-103818253D01*
X188125893Y-103832867D01*
X188104849Y-103845480D01*
X188082671Y-103855970D01*
X188059571Y-103864235D01*
X188035773Y-103870196D01*
X188011504Y-103873796D01*
X187987000Y-103875000D01*
X187062000Y-103875000D01*
X187037496Y-103873796D01*
X187013227Y-103870196D01*
X186989429Y-103864235D01*
X186966329Y-103855970D01*
X186944151Y-103845480D01*
X186923107Y-103832867D01*
X186903402Y-103818253D01*
X186885223Y-103801777D01*
X186868747Y-103783598D01*
X186854133Y-103763893D01*
X186841520Y-103742849D01*
X186831030Y-103720671D01*
X186822765Y-103697571D01*
X186816804Y-103673773D01*
X186813204Y-103649504D01*
X186812000Y-103625000D01*
X186812000Y-102375000D01*
X186813204Y-102350496D01*
X186816804Y-102326227D01*
X186822765Y-102302429D01*
X186831030Y-102279329D01*
X186841520Y-102257151D01*
X186854133Y-102236107D01*
X186868747Y-102216402D01*
X186885223Y-102198223D01*
X186903402Y-102181747D01*
X186923107Y-102167133D01*
X186944151Y-102154520D01*
X186966329Y-102144030D01*
X186989429Y-102135765D01*
X187013227Y-102129804D01*
X187037496Y-102126204D01*
X187062000Y-102125000D01*
X187987000Y-102125000D01*
X188011504Y-102126204D01*
G37*
G36*
X190986504Y-102126204D02*
G01*
X191010773Y-102129804D01*
X191034571Y-102135765D01*
X191057671Y-102144030D01*
X191079849Y-102154520D01*
X191100893Y-102167133D01*
X191120598Y-102181747D01*
X191138777Y-102198223D01*
X191155253Y-102216402D01*
X191169867Y-102236107D01*
X191182480Y-102257151D01*
X191192970Y-102279329D01*
X191201235Y-102302429D01*
X191207196Y-102326227D01*
X191210796Y-102350496D01*
X191212000Y-102375000D01*
X191212000Y-103625000D01*
X191210796Y-103649504D01*
X191207196Y-103673773D01*
X191201235Y-103697571D01*
X191192970Y-103720671D01*
X191182480Y-103742849D01*
X191169867Y-103763893D01*
X191155253Y-103783598D01*
X191138777Y-103801777D01*
X191120598Y-103818253D01*
X191100893Y-103832867D01*
X191079849Y-103845480D01*
X191057671Y-103855970D01*
X191034571Y-103864235D01*
X191010773Y-103870196D01*
X190986504Y-103873796D01*
X190962000Y-103875000D01*
X190037000Y-103875000D01*
X190012496Y-103873796D01*
X189988227Y-103870196D01*
X189964429Y-103864235D01*
X189941329Y-103855970D01*
X189919151Y-103845480D01*
X189898107Y-103832867D01*
X189878402Y-103818253D01*
X189860223Y-103801777D01*
X189843747Y-103783598D01*
X189829133Y-103763893D01*
X189816520Y-103742849D01*
X189806030Y-103720671D01*
X189797765Y-103697571D01*
X189791804Y-103673773D01*
X189788204Y-103649504D01*
X189787000Y-103625000D01*
X189787000Y-102375000D01*
X189788204Y-102350496D01*
X189791804Y-102326227D01*
X189797765Y-102302429D01*
X189806030Y-102279329D01*
X189816520Y-102257151D01*
X189829133Y-102236107D01*
X189843747Y-102216402D01*
X189860223Y-102198223D01*
X189878402Y-102181747D01*
X189898107Y-102167133D01*
X189919151Y-102154520D01*
X189941329Y-102144030D01*
X189964429Y-102135765D01*
X189988227Y-102129804D01*
X190012496Y-102126204D01*
X190037000Y-102125000D01*
X190962000Y-102125000D01*
X190986504Y-102126204D01*
G37*
G36*
X187999504Y-94126204D02*
G01*
X188023773Y-94129804D01*
X188047571Y-94135765D01*
X188070671Y-94144030D01*
X188092849Y-94154520D01*
X188113893Y-94167133D01*
X188133598Y-94181747D01*
X188151777Y-94198223D01*
X188168253Y-94216402D01*
X188182867Y-94236107D01*
X188195480Y-94257151D01*
X188205970Y-94279329D01*
X188214235Y-94302429D01*
X188220196Y-94326227D01*
X188223796Y-94350496D01*
X188225000Y-94375000D01*
X188225000Y-95625000D01*
X188223796Y-95649504D01*
X188220196Y-95673773D01*
X188214235Y-95697571D01*
X188205970Y-95720671D01*
X188195480Y-95742849D01*
X188182867Y-95763893D01*
X188168253Y-95783598D01*
X188151777Y-95801777D01*
X188133598Y-95818253D01*
X188113893Y-95832867D01*
X188092849Y-95845480D01*
X188070671Y-95855970D01*
X188047571Y-95864235D01*
X188023773Y-95870196D01*
X187999504Y-95873796D01*
X187975000Y-95875000D01*
X187050000Y-95875000D01*
X187025496Y-95873796D01*
X187001227Y-95870196D01*
X186977429Y-95864235D01*
X186954329Y-95855970D01*
X186932151Y-95845480D01*
X186911107Y-95832867D01*
X186891402Y-95818253D01*
X186873223Y-95801777D01*
X186856747Y-95783598D01*
X186842133Y-95763893D01*
X186829520Y-95742849D01*
X186819030Y-95720671D01*
X186810765Y-95697571D01*
X186804804Y-95673773D01*
X186801204Y-95649504D01*
X186800000Y-95625000D01*
X186800000Y-94375000D01*
X186801204Y-94350496D01*
X186804804Y-94326227D01*
X186810765Y-94302429D01*
X186819030Y-94279329D01*
X186829520Y-94257151D01*
X186842133Y-94236107D01*
X186856747Y-94216402D01*
X186873223Y-94198223D01*
X186891402Y-94181747D01*
X186911107Y-94167133D01*
X186932151Y-94154520D01*
X186954329Y-94144030D01*
X186977429Y-94135765D01*
X187001227Y-94129804D01*
X187025496Y-94126204D01*
X187050000Y-94125000D01*
X187975000Y-94125000D01*
X187999504Y-94126204D01*
G37*
G36*
X190974504Y-94126204D02*
G01*
X190998773Y-94129804D01*
X191022571Y-94135765D01*
X191045671Y-94144030D01*
X191067849Y-94154520D01*
X191088893Y-94167133D01*
X191108598Y-94181747D01*
X191126777Y-94198223D01*
X191143253Y-94216402D01*
X191157867Y-94236107D01*
X191170480Y-94257151D01*
X191180970Y-94279329D01*
X191189235Y-94302429D01*
X191195196Y-94326227D01*
X191198796Y-94350496D01*
X191200000Y-94375000D01*
X191200000Y-95625000D01*
X191198796Y-95649504D01*
X191195196Y-95673773D01*
X191189235Y-95697571D01*
X191180970Y-95720671D01*
X191170480Y-95742849D01*
X191157867Y-95763893D01*
X191143253Y-95783598D01*
X191126777Y-95801777D01*
X191108598Y-95818253D01*
X191088893Y-95832867D01*
X191067849Y-95845480D01*
X191045671Y-95855970D01*
X191022571Y-95864235D01*
X190998773Y-95870196D01*
X190974504Y-95873796D01*
X190950000Y-95875000D01*
X190025000Y-95875000D01*
X190000496Y-95873796D01*
X189976227Y-95870196D01*
X189952429Y-95864235D01*
X189929329Y-95855970D01*
X189907151Y-95845480D01*
X189886107Y-95832867D01*
X189866402Y-95818253D01*
X189848223Y-95801777D01*
X189831747Y-95783598D01*
X189817133Y-95763893D01*
X189804520Y-95742849D01*
X189794030Y-95720671D01*
X189785765Y-95697571D01*
X189779804Y-95673773D01*
X189776204Y-95649504D01*
X189775000Y-95625000D01*
X189775000Y-94375000D01*
X189776204Y-94350496D01*
X189779804Y-94326227D01*
X189785765Y-94302429D01*
X189794030Y-94279329D01*
X189804520Y-94257151D01*
X189817133Y-94236107D01*
X189831747Y-94216402D01*
X189848223Y-94198223D01*
X189866402Y-94181747D01*
X189886107Y-94167133D01*
X189907151Y-94154520D01*
X189929329Y-94144030D01*
X189952429Y-94135765D01*
X189976227Y-94129804D01*
X190000496Y-94126204D01*
X190025000Y-94125000D01*
X190950000Y-94125000D01*
X190974504Y-94126204D01*
G37*
G36*
X185149504Y-106788204D02*
G01*
X185173773Y-106791804D01*
X185197571Y-106797765D01*
X185220671Y-106806030D01*
X185242849Y-106816520D01*
X185263893Y-106829133D01*
X185283598Y-106843747D01*
X185301777Y-106860223D01*
X185318253Y-106878402D01*
X185332867Y-106898107D01*
X185345480Y-106919151D01*
X185355970Y-106941329D01*
X185364235Y-106964429D01*
X185370196Y-106988227D01*
X185373796Y-107012496D01*
X185375000Y-107037000D01*
X185375000Y-107962000D01*
X185373796Y-107986504D01*
X185370196Y-108010773D01*
X185364235Y-108034571D01*
X185355970Y-108057671D01*
X185345480Y-108079849D01*
X185332867Y-108100893D01*
X185318253Y-108120598D01*
X185301777Y-108138777D01*
X185283598Y-108155253D01*
X185263893Y-108169867D01*
X185242849Y-108182480D01*
X185220671Y-108192970D01*
X185197571Y-108201235D01*
X185173773Y-108207196D01*
X185149504Y-108210796D01*
X185125000Y-108212000D01*
X183875000Y-108212000D01*
X183850496Y-108210796D01*
X183826227Y-108207196D01*
X183802429Y-108201235D01*
X183779329Y-108192970D01*
X183757151Y-108182480D01*
X183736107Y-108169867D01*
X183716402Y-108155253D01*
X183698223Y-108138777D01*
X183681747Y-108120598D01*
X183667133Y-108100893D01*
X183654520Y-108079849D01*
X183644030Y-108057671D01*
X183635765Y-108034571D01*
X183629804Y-108010773D01*
X183626204Y-107986504D01*
X183625000Y-107962000D01*
X183625000Y-107037000D01*
X183626204Y-107012496D01*
X183629804Y-106988227D01*
X183635765Y-106964429D01*
X183644030Y-106941329D01*
X183654520Y-106919151D01*
X183667133Y-106898107D01*
X183681747Y-106878402D01*
X183698223Y-106860223D01*
X183716402Y-106843747D01*
X183736107Y-106829133D01*
X183757151Y-106816520D01*
X183779329Y-106806030D01*
X183802429Y-106797765D01*
X183826227Y-106791804D01*
X183850496Y-106788204D01*
X183875000Y-106787000D01*
X185125000Y-106787000D01*
X185149504Y-106788204D01*
G37*
G36*
X185149504Y-103813204D02*
G01*
X185173773Y-103816804D01*
X185197571Y-103822765D01*
X185220671Y-103831030D01*
X185242849Y-103841520D01*
X185263893Y-103854133D01*
X185283598Y-103868747D01*
X185301777Y-103885223D01*
X185318253Y-103903402D01*
X185332867Y-103923107D01*
X185345480Y-103944151D01*
X185355970Y-103966329D01*
X185364235Y-103989429D01*
X185370196Y-104013227D01*
X185373796Y-104037496D01*
X185375000Y-104062000D01*
X185375000Y-104987000D01*
X185373796Y-105011504D01*
X185370196Y-105035773D01*
X185364235Y-105059571D01*
X185355970Y-105082671D01*
X185345480Y-105104849D01*
X185332867Y-105125893D01*
X185318253Y-105145598D01*
X185301777Y-105163777D01*
X185283598Y-105180253D01*
X185263893Y-105194867D01*
X185242849Y-105207480D01*
X185220671Y-105217970D01*
X185197571Y-105226235D01*
X185173773Y-105232196D01*
X185149504Y-105235796D01*
X185125000Y-105237000D01*
X183875000Y-105237000D01*
X183850496Y-105235796D01*
X183826227Y-105232196D01*
X183802429Y-105226235D01*
X183779329Y-105217970D01*
X183757151Y-105207480D01*
X183736107Y-105194867D01*
X183716402Y-105180253D01*
X183698223Y-105163777D01*
X183681747Y-105145598D01*
X183667133Y-105125893D01*
X183654520Y-105104849D01*
X183644030Y-105082671D01*
X183635765Y-105059571D01*
X183629804Y-105035773D01*
X183626204Y-105011504D01*
X183625000Y-104987000D01*
X183625000Y-104062000D01*
X183626204Y-104037496D01*
X183629804Y-104013227D01*
X183635765Y-103989429D01*
X183644030Y-103966329D01*
X183654520Y-103944151D01*
X183667133Y-103923107D01*
X183681747Y-103903402D01*
X183698223Y-103885223D01*
X183716402Y-103868747D01*
X183736107Y-103854133D01*
X183757151Y-103841520D01*
X183779329Y-103831030D01*
X183802429Y-103822765D01*
X183826227Y-103816804D01*
X183850496Y-103813204D01*
X183875000Y-103812000D01*
X185125000Y-103812000D01*
X185149504Y-103813204D01*
G37*
G36*
X185149504Y-98788704D02*
G01*
X185173773Y-98792304D01*
X185197571Y-98798265D01*
X185220671Y-98806530D01*
X185242849Y-98817020D01*
X185263893Y-98829633D01*
X185283598Y-98844247D01*
X185301777Y-98860723D01*
X185318253Y-98878902D01*
X185332867Y-98898607D01*
X185345480Y-98919651D01*
X185355970Y-98941829D01*
X185364235Y-98964929D01*
X185370196Y-98988727D01*
X185373796Y-99012996D01*
X185375000Y-99037500D01*
X185375000Y-99962500D01*
X185373796Y-99987004D01*
X185370196Y-100011273D01*
X185364235Y-100035071D01*
X185355970Y-100058171D01*
X185345480Y-100080349D01*
X185332867Y-100101393D01*
X185318253Y-100121098D01*
X185301777Y-100139277D01*
X185283598Y-100155753D01*
X185263893Y-100170367D01*
X185242849Y-100182980D01*
X185220671Y-100193470D01*
X185197571Y-100201735D01*
X185173773Y-100207696D01*
X185149504Y-100211296D01*
X185125000Y-100212500D01*
X183875000Y-100212500D01*
X183850496Y-100211296D01*
X183826227Y-100207696D01*
X183802429Y-100201735D01*
X183779329Y-100193470D01*
X183757151Y-100182980D01*
X183736107Y-100170367D01*
X183716402Y-100155753D01*
X183698223Y-100139277D01*
X183681747Y-100121098D01*
X183667133Y-100101393D01*
X183654520Y-100080349D01*
X183644030Y-100058171D01*
X183635765Y-100035071D01*
X183629804Y-100011273D01*
X183626204Y-99987004D01*
X183625000Y-99962500D01*
X183625000Y-99037500D01*
X183626204Y-99012996D01*
X183629804Y-98988727D01*
X183635765Y-98964929D01*
X183644030Y-98941829D01*
X183654520Y-98919651D01*
X183667133Y-98898607D01*
X183681747Y-98878902D01*
X183698223Y-98860723D01*
X183716402Y-98844247D01*
X183736107Y-98829633D01*
X183757151Y-98817020D01*
X183779329Y-98806530D01*
X183802429Y-98798265D01*
X183826227Y-98792304D01*
X183850496Y-98788704D01*
X183875000Y-98787500D01*
X185125000Y-98787500D01*
X185149504Y-98788704D01*
G37*
G36*
X185149504Y-95813704D02*
G01*
X185173773Y-95817304D01*
X185197571Y-95823265D01*
X185220671Y-95831530D01*
X185242849Y-95842020D01*
X185263893Y-95854633D01*
X185283598Y-95869247D01*
X185301777Y-95885723D01*
X185318253Y-95903902D01*
X185332867Y-95923607D01*
X185345480Y-95944651D01*
X185355970Y-95966829D01*
X185364235Y-95989929D01*
X185370196Y-96013727D01*
X185373796Y-96037996D01*
X185375000Y-96062500D01*
X185375000Y-96987500D01*
X185373796Y-97012004D01*
X185370196Y-97036273D01*
X185364235Y-97060071D01*
X185355970Y-97083171D01*
X185345480Y-97105349D01*
X185332867Y-97126393D01*
X185318253Y-97146098D01*
X185301777Y-97164277D01*
X185283598Y-97180753D01*
X185263893Y-97195367D01*
X185242849Y-97207980D01*
X185220671Y-97218470D01*
X185197571Y-97226735D01*
X185173773Y-97232696D01*
X185149504Y-97236296D01*
X185125000Y-97237500D01*
X183875000Y-97237500D01*
X183850496Y-97236296D01*
X183826227Y-97232696D01*
X183802429Y-97226735D01*
X183779329Y-97218470D01*
X183757151Y-97207980D01*
X183736107Y-97195367D01*
X183716402Y-97180753D01*
X183698223Y-97164277D01*
X183681747Y-97146098D01*
X183667133Y-97126393D01*
X183654520Y-97105349D01*
X183644030Y-97083171D01*
X183635765Y-97060071D01*
X183629804Y-97036273D01*
X183626204Y-97012004D01*
X183625000Y-96987500D01*
X183625000Y-96062500D01*
X183626204Y-96037996D01*
X183629804Y-96013727D01*
X183635765Y-95989929D01*
X183644030Y-95966829D01*
X183654520Y-95944651D01*
X183667133Y-95923607D01*
X183681747Y-95903902D01*
X183698223Y-95885723D01*
X183716402Y-95869247D01*
X183736107Y-95854633D01*
X183757151Y-95842020D01*
X183779329Y-95831530D01*
X183802429Y-95823265D01*
X183826227Y-95817304D01*
X183850496Y-95813704D01*
X183875000Y-95812500D01*
X185125000Y-95812500D01*
X185149504Y-95813704D01*
G37*
D11*
X187790000Y-105550000D03*
X186840000Y-107550000D03*
X188740000Y-107550000D03*
X188000000Y-97500000D03*
X187050000Y-99500000D03*
X188950000Y-99500000D03*
D12*
X105840000Y-109050000D03*
X105040000Y-109050000D03*
X104240000Y-109050000D03*
X103440000Y-109050000D03*
X102640000Y-109050000D03*
D13*
X108690000Y-109150000D03*
X108690000Y-114600000D03*
X99790000Y-109150000D03*
X99790000Y-114600000D03*
D10*
G36*
X61229504Y-104536204D02*
G01*
X61253773Y-104539804D01*
X61277571Y-104545765D01*
X61300671Y-104554030D01*
X61322849Y-104564520D01*
X61343893Y-104577133D01*
X61363598Y-104591747D01*
X61381777Y-104608223D01*
X61398253Y-104626402D01*
X61412867Y-104646107D01*
X61425480Y-104667151D01*
X61435970Y-104689329D01*
X61444235Y-104712429D01*
X61450196Y-104736227D01*
X61453796Y-104760496D01*
X61455000Y-104785000D01*
X61455000Y-106035000D01*
X61453796Y-106059504D01*
X61450196Y-106083773D01*
X61444235Y-106107571D01*
X61435970Y-106130671D01*
X61425480Y-106152849D01*
X61412867Y-106173893D01*
X61398253Y-106193598D01*
X61381777Y-106211777D01*
X61363598Y-106228253D01*
X61343893Y-106242867D01*
X61322849Y-106255480D01*
X61300671Y-106265970D01*
X61277571Y-106274235D01*
X61253773Y-106280196D01*
X61229504Y-106283796D01*
X61205000Y-106285000D01*
X60280000Y-106285000D01*
X60255496Y-106283796D01*
X60231227Y-106280196D01*
X60207429Y-106274235D01*
X60184329Y-106265970D01*
X60162151Y-106255480D01*
X60141107Y-106242867D01*
X60121402Y-106228253D01*
X60103223Y-106211777D01*
X60086747Y-106193598D01*
X60072133Y-106173893D01*
X60059520Y-106152849D01*
X60049030Y-106130671D01*
X60040765Y-106107571D01*
X60034804Y-106083773D01*
X60031204Y-106059504D01*
X60030000Y-106035000D01*
X60030000Y-104785000D01*
X60031204Y-104760496D01*
X60034804Y-104736227D01*
X60040765Y-104712429D01*
X60049030Y-104689329D01*
X60059520Y-104667151D01*
X60072133Y-104646107D01*
X60086747Y-104626402D01*
X60103223Y-104608223D01*
X60121402Y-104591747D01*
X60141107Y-104577133D01*
X60162151Y-104564520D01*
X60184329Y-104554030D01*
X60207429Y-104545765D01*
X60231227Y-104539804D01*
X60255496Y-104536204D01*
X60280000Y-104535000D01*
X61205000Y-104535000D01*
X61229504Y-104536204D01*
G37*
G36*
X64204504Y-104536204D02*
G01*
X64228773Y-104539804D01*
X64252571Y-104545765D01*
X64275671Y-104554030D01*
X64297849Y-104564520D01*
X64318893Y-104577133D01*
X64338598Y-104591747D01*
X64356777Y-104608223D01*
X64373253Y-104626402D01*
X64387867Y-104646107D01*
X64400480Y-104667151D01*
X64410970Y-104689329D01*
X64419235Y-104712429D01*
X64425196Y-104736227D01*
X64428796Y-104760496D01*
X64430000Y-104785000D01*
X64430000Y-106035000D01*
X64428796Y-106059504D01*
X64425196Y-106083773D01*
X64419235Y-106107571D01*
X64410970Y-106130671D01*
X64400480Y-106152849D01*
X64387867Y-106173893D01*
X64373253Y-106193598D01*
X64356777Y-106211777D01*
X64338598Y-106228253D01*
X64318893Y-106242867D01*
X64297849Y-106255480D01*
X64275671Y-106265970D01*
X64252571Y-106274235D01*
X64228773Y-106280196D01*
X64204504Y-106283796D01*
X64180000Y-106285000D01*
X63255000Y-106285000D01*
X63230496Y-106283796D01*
X63206227Y-106280196D01*
X63182429Y-106274235D01*
X63159329Y-106265970D01*
X63137151Y-106255480D01*
X63116107Y-106242867D01*
X63096402Y-106228253D01*
X63078223Y-106211777D01*
X63061747Y-106193598D01*
X63047133Y-106173893D01*
X63034520Y-106152849D01*
X63024030Y-106130671D01*
X63015765Y-106107571D01*
X63009804Y-106083773D01*
X63006204Y-106059504D01*
X63005000Y-106035000D01*
X63005000Y-104785000D01*
X63006204Y-104760496D01*
X63009804Y-104736227D01*
X63015765Y-104712429D01*
X63024030Y-104689329D01*
X63034520Y-104667151D01*
X63047133Y-104646107D01*
X63061747Y-104626402D01*
X63078223Y-104608223D01*
X63096402Y-104591747D01*
X63116107Y-104577133D01*
X63137151Y-104564520D01*
X63159329Y-104554030D01*
X63182429Y-104545765D01*
X63206227Y-104539804D01*
X63230496Y-104536204D01*
X63255000Y-104535000D01*
X64180000Y-104535000D01*
X64204504Y-104536204D01*
G37*
G36*
X54649504Y-80788704D02*
G01*
X54673773Y-80792304D01*
X54697571Y-80798265D01*
X54720671Y-80806530D01*
X54742849Y-80817020D01*
X54763893Y-80829633D01*
X54783598Y-80844247D01*
X54801777Y-80860723D01*
X54818253Y-80878902D01*
X54832867Y-80898607D01*
X54845480Y-80919651D01*
X54855970Y-80941829D01*
X54864235Y-80964929D01*
X54870196Y-80988727D01*
X54873796Y-81012996D01*
X54875000Y-81037500D01*
X54875000Y-81962500D01*
X54873796Y-81987004D01*
X54870196Y-82011273D01*
X54864235Y-82035071D01*
X54855970Y-82058171D01*
X54845480Y-82080349D01*
X54832867Y-82101393D01*
X54818253Y-82121098D01*
X54801777Y-82139277D01*
X54783598Y-82155753D01*
X54763893Y-82170367D01*
X54742849Y-82182980D01*
X54720671Y-82193470D01*
X54697571Y-82201735D01*
X54673773Y-82207696D01*
X54649504Y-82211296D01*
X54625000Y-82212500D01*
X53375000Y-82212500D01*
X53350496Y-82211296D01*
X53326227Y-82207696D01*
X53302429Y-82201735D01*
X53279329Y-82193470D01*
X53257151Y-82182980D01*
X53236107Y-82170367D01*
X53216402Y-82155753D01*
X53198223Y-82139277D01*
X53181747Y-82121098D01*
X53167133Y-82101393D01*
X53154520Y-82080349D01*
X53144030Y-82058171D01*
X53135765Y-82035071D01*
X53129804Y-82011273D01*
X53126204Y-81987004D01*
X53125000Y-81962500D01*
X53125000Y-81037500D01*
X53126204Y-81012996D01*
X53129804Y-80988727D01*
X53135765Y-80964929D01*
X53144030Y-80941829D01*
X53154520Y-80919651D01*
X53167133Y-80898607D01*
X53181747Y-80878902D01*
X53198223Y-80860723D01*
X53216402Y-80844247D01*
X53236107Y-80829633D01*
X53257151Y-80817020D01*
X53279329Y-80806530D01*
X53302429Y-80798265D01*
X53326227Y-80792304D01*
X53350496Y-80788704D01*
X53375000Y-80787500D01*
X54625000Y-80787500D01*
X54649504Y-80788704D01*
G37*
G36*
X54649504Y-83763704D02*
G01*
X54673773Y-83767304D01*
X54697571Y-83773265D01*
X54720671Y-83781530D01*
X54742849Y-83792020D01*
X54763893Y-83804633D01*
X54783598Y-83819247D01*
X54801777Y-83835723D01*
X54818253Y-83853902D01*
X54832867Y-83873607D01*
X54845480Y-83894651D01*
X54855970Y-83916829D01*
X54864235Y-83939929D01*
X54870196Y-83963727D01*
X54873796Y-83987996D01*
X54875000Y-84012500D01*
X54875000Y-84937500D01*
X54873796Y-84962004D01*
X54870196Y-84986273D01*
X54864235Y-85010071D01*
X54855970Y-85033171D01*
X54845480Y-85055349D01*
X54832867Y-85076393D01*
X54818253Y-85096098D01*
X54801777Y-85114277D01*
X54783598Y-85130753D01*
X54763893Y-85145367D01*
X54742849Y-85157980D01*
X54720671Y-85168470D01*
X54697571Y-85176735D01*
X54673773Y-85182696D01*
X54649504Y-85186296D01*
X54625000Y-85187500D01*
X53375000Y-85187500D01*
X53350496Y-85186296D01*
X53326227Y-85182696D01*
X53302429Y-85176735D01*
X53279329Y-85168470D01*
X53257151Y-85157980D01*
X53236107Y-85145367D01*
X53216402Y-85130753D01*
X53198223Y-85114277D01*
X53181747Y-85096098D01*
X53167133Y-85076393D01*
X53154520Y-85055349D01*
X53144030Y-85033171D01*
X53135765Y-85010071D01*
X53129804Y-84986273D01*
X53126204Y-84962004D01*
X53125000Y-84937500D01*
X53125000Y-84012500D01*
X53126204Y-83987996D01*
X53129804Y-83963727D01*
X53135765Y-83939929D01*
X53144030Y-83916829D01*
X53154520Y-83894651D01*
X53167133Y-83873607D01*
X53181747Y-83853902D01*
X53198223Y-83835723D01*
X53216402Y-83819247D01*
X53236107Y-83804633D01*
X53257151Y-83792020D01*
X53279329Y-83781530D01*
X53302429Y-83773265D01*
X53326227Y-83767304D01*
X53350496Y-83763704D01*
X53375000Y-83762500D01*
X54625000Y-83762500D01*
X54649504Y-83763704D01*
G37*
G36*
X56529504Y-64693704D02*
G01*
X56553773Y-64697304D01*
X56577571Y-64703265D01*
X56600671Y-64711530D01*
X56622849Y-64722020D01*
X56643893Y-64734633D01*
X56663598Y-64749247D01*
X56681777Y-64765723D01*
X56698253Y-64783902D01*
X56712867Y-64803607D01*
X56725480Y-64824651D01*
X56735970Y-64846829D01*
X56744235Y-64869929D01*
X56750196Y-64893727D01*
X56753796Y-64917996D01*
X56755000Y-64942500D01*
X56755000Y-65867500D01*
X56753796Y-65892004D01*
X56750196Y-65916273D01*
X56744235Y-65940071D01*
X56735970Y-65963171D01*
X56725480Y-65985349D01*
X56712867Y-66006393D01*
X56698253Y-66026098D01*
X56681777Y-66044277D01*
X56663598Y-66060753D01*
X56643893Y-66075367D01*
X56622849Y-66087980D01*
X56600671Y-66098470D01*
X56577571Y-66106735D01*
X56553773Y-66112696D01*
X56529504Y-66116296D01*
X56505000Y-66117500D01*
X55255000Y-66117500D01*
X55230496Y-66116296D01*
X55206227Y-66112696D01*
X55182429Y-66106735D01*
X55159329Y-66098470D01*
X55137151Y-66087980D01*
X55116107Y-66075367D01*
X55096402Y-66060753D01*
X55078223Y-66044277D01*
X55061747Y-66026098D01*
X55047133Y-66006393D01*
X55034520Y-65985349D01*
X55024030Y-65963171D01*
X55015765Y-65940071D01*
X55009804Y-65916273D01*
X55006204Y-65892004D01*
X55005000Y-65867500D01*
X55005000Y-64942500D01*
X55006204Y-64917996D01*
X55009804Y-64893727D01*
X55015765Y-64869929D01*
X55024030Y-64846829D01*
X55034520Y-64824651D01*
X55047133Y-64803607D01*
X55061747Y-64783902D01*
X55078223Y-64765723D01*
X55096402Y-64749247D01*
X55116107Y-64734633D01*
X55137151Y-64722020D01*
X55159329Y-64711530D01*
X55182429Y-64703265D01*
X55206227Y-64697304D01*
X55230496Y-64693704D01*
X55255000Y-64692500D01*
X56505000Y-64692500D01*
X56529504Y-64693704D01*
G37*
G36*
X56529504Y-61718704D02*
G01*
X56553773Y-61722304D01*
X56577571Y-61728265D01*
X56600671Y-61736530D01*
X56622849Y-61747020D01*
X56643893Y-61759633D01*
X56663598Y-61774247D01*
X56681777Y-61790723D01*
X56698253Y-61808902D01*
X56712867Y-61828607D01*
X56725480Y-61849651D01*
X56735970Y-61871829D01*
X56744235Y-61894929D01*
X56750196Y-61918727D01*
X56753796Y-61942996D01*
X56755000Y-61967500D01*
X56755000Y-62892500D01*
X56753796Y-62917004D01*
X56750196Y-62941273D01*
X56744235Y-62965071D01*
X56735970Y-62988171D01*
X56725480Y-63010349D01*
X56712867Y-63031393D01*
X56698253Y-63051098D01*
X56681777Y-63069277D01*
X56663598Y-63085753D01*
X56643893Y-63100367D01*
X56622849Y-63112980D01*
X56600671Y-63123470D01*
X56577571Y-63131735D01*
X56553773Y-63137696D01*
X56529504Y-63141296D01*
X56505000Y-63142500D01*
X55255000Y-63142500D01*
X55230496Y-63141296D01*
X55206227Y-63137696D01*
X55182429Y-63131735D01*
X55159329Y-63123470D01*
X55137151Y-63112980D01*
X55116107Y-63100367D01*
X55096402Y-63085753D01*
X55078223Y-63069277D01*
X55061747Y-63051098D01*
X55047133Y-63031393D01*
X55034520Y-63010349D01*
X55024030Y-62988171D01*
X55015765Y-62965071D01*
X55009804Y-62941273D01*
X55006204Y-62917004D01*
X55005000Y-62892500D01*
X55005000Y-61967500D01*
X55006204Y-61942996D01*
X55009804Y-61918727D01*
X55015765Y-61894929D01*
X55024030Y-61871829D01*
X55034520Y-61849651D01*
X55047133Y-61828607D01*
X55061747Y-61808902D01*
X55078223Y-61790723D01*
X55096402Y-61774247D01*
X55116107Y-61759633D01*
X55137151Y-61747020D01*
X55159329Y-61736530D01*
X55182429Y-61728265D01*
X55206227Y-61722304D01*
X55230496Y-61718704D01*
X55255000Y-61717500D01*
X56505000Y-61717500D01*
X56529504Y-61718704D01*
G37*
G36*
X68107004Y-82346204D02*
G01*
X68131273Y-82349804D01*
X68155071Y-82355765D01*
X68178171Y-82364030D01*
X68200349Y-82374520D01*
X68221393Y-82387133D01*
X68241098Y-82401747D01*
X68259277Y-82418223D01*
X68275753Y-82436402D01*
X68290367Y-82456107D01*
X68302980Y-82477151D01*
X68313470Y-82499329D01*
X68321735Y-82522429D01*
X68327696Y-82546227D01*
X68331296Y-82570496D01*
X68332500Y-82595000D01*
X68332500Y-83845000D01*
X68331296Y-83869504D01*
X68327696Y-83893773D01*
X68321735Y-83917571D01*
X68313470Y-83940671D01*
X68302980Y-83962849D01*
X68290367Y-83983893D01*
X68275753Y-84003598D01*
X68259277Y-84021777D01*
X68241098Y-84038253D01*
X68221393Y-84052867D01*
X68200349Y-84065480D01*
X68178171Y-84075970D01*
X68155071Y-84084235D01*
X68131273Y-84090196D01*
X68107004Y-84093796D01*
X68082500Y-84095000D01*
X67157500Y-84095000D01*
X67132996Y-84093796D01*
X67108727Y-84090196D01*
X67084929Y-84084235D01*
X67061829Y-84075970D01*
X67039651Y-84065480D01*
X67018607Y-84052867D01*
X66998902Y-84038253D01*
X66980723Y-84021777D01*
X66964247Y-84003598D01*
X66949633Y-83983893D01*
X66937020Y-83962849D01*
X66926530Y-83940671D01*
X66918265Y-83917571D01*
X66912304Y-83893773D01*
X66908704Y-83869504D01*
X66907500Y-83845000D01*
X66907500Y-82595000D01*
X66908704Y-82570496D01*
X66912304Y-82546227D01*
X66918265Y-82522429D01*
X66926530Y-82499329D01*
X66937020Y-82477151D01*
X66949633Y-82456107D01*
X66964247Y-82436402D01*
X66980723Y-82418223D01*
X66998902Y-82401747D01*
X67018607Y-82387133D01*
X67039651Y-82374520D01*
X67061829Y-82364030D01*
X67084929Y-82355765D01*
X67108727Y-82349804D01*
X67132996Y-82346204D01*
X67157500Y-82345000D01*
X68082500Y-82345000D01*
X68107004Y-82346204D01*
G37*
G36*
X65132004Y-82346204D02*
G01*
X65156273Y-82349804D01*
X65180071Y-82355765D01*
X65203171Y-82364030D01*
X65225349Y-82374520D01*
X65246393Y-82387133D01*
X65266098Y-82401747D01*
X65284277Y-82418223D01*
X65300753Y-82436402D01*
X65315367Y-82456107D01*
X65327980Y-82477151D01*
X65338470Y-82499329D01*
X65346735Y-82522429D01*
X65352696Y-82546227D01*
X65356296Y-82570496D01*
X65357500Y-82595000D01*
X65357500Y-83845000D01*
X65356296Y-83869504D01*
X65352696Y-83893773D01*
X65346735Y-83917571D01*
X65338470Y-83940671D01*
X65327980Y-83962849D01*
X65315367Y-83983893D01*
X65300753Y-84003598D01*
X65284277Y-84021777D01*
X65266098Y-84038253D01*
X65246393Y-84052867D01*
X65225349Y-84065480D01*
X65203171Y-84075970D01*
X65180071Y-84084235D01*
X65156273Y-84090196D01*
X65132004Y-84093796D01*
X65107500Y-84095000D01*
X64182500Y-84095000D01*
X64157996Y-84093796D01*
X64133727Y-84090196D01*
X64109929Y-84084235D01*
X64086829Y-84075970D01*
X64064651Y-84065480D01*
X64043607Y-84052867D01*
X64023902Y-84038253D01*
X64005723Y-84021777D01*
X63989247Y-84003598D01*
X63974633Y-83983893D01*
X63962020Y-83962849D01*
X63951530Y-83940671D01*
X63943265Y-83917571D01*
X63937304Y-83893773D01*
X63933704Y-83869504D01*
X63932500Y-83845000D01*
X63932500Y-82595000D01*
X63933704Y-82570496D01*
X63937304Y-82546227D01*
X63943265Y-82522429D01*
X63951530Y-82499329D01*
X63962020Y-82477151D01*
X63974633Y-82456107D01*
X63989247Y-82436402D01*
X64005723Y-82418223D01*
X64023902Y-82401747D01*
X64043607Y-82387133D01*
X64064651Y-82374520D01*
X64086829Y-82364030D01*
X64109929Y-82355765D01*
X64133727Y-82349804D01*
X64157996Y-82346204D01*
X64182500Y-82345000D01*
X65107500Y-82345000D01*
X65132004Y-82346204D01*
G37*
G36*
X76524504Y-74888704D02*
G01*
X76548773Y-74892304D01*
X76572571Y-74898265D01*
X76595671Y-74906530D01*
X76617849Y-74917020D01*
X76638893Y-74929633D01*
X76658598Y-74944247D01*
X76676777Y-74960723D01*
X76693253Y-74978902D01*
X76707867Y-74998607D01*
X76720480Y-75019651D01*
X76730970Y-75041829D01*
X76739235Y-75064929D01*
X76745196Y-75088727D01*
X76748796Y-75112996D01*
X76750000Y-75137500D01*
X76750000Y-76062500D01*
X76748796Y-76087004D01*
X76745196Y-76111273D01*
X76739235Y-76135071D01*
X76730970Y-76158171D01*
X76720480Y-76180349D01*
X76707867Y-76201393D01*
X76693253Y-76221098D01*
X76676777Y-76239277D01*
X76658598Y-76255753D01*
X76638893Y-76270367D01*
X76617849Y-76282980D01*
X76595671Y-76293470D01*
X76572571Y-76301735D01*
X76548773Y-76307696D01*
X76524504Y-76311296D01*
X76500000Y-76312500D01*
X75250000Y-76312500D01*
X75225496Y-76311296D01*
X75201227Y-76307696D01*
X75177429Y-76301735D01*
X75154329Y-76293470D01*
X75132151Y-76282980D01*
X75111107Y-76270367D01*
X75091402Y-76255753D01*
X75073223Y-76239277D01*
X75056747Y-76221098D01*
X75042133Y-76201393D01*
X75029520Y-76180349D01*
X75019030Y-76158171D01*
X75010765Y-76135071D01*
X75004804Y-76111273D01*
X75001204Y-76087004D01*
X75000000Y-76062500D01*
X75000000Y-75137500D01*
X75001204Y-75112996D01*
X75004804Y-75088727D01*
X75010765Y-75064929D01*
X75019030Y-75041829D01*
X75029520Y-75019651D01*
X75042133Y-74998607D01*
X75056747Y-74978902D01*
X75073223Y-74960723D01*
X75091402Y-74944247D01*
X75111107Y-74929633D01*
X75132151Y-74917020D01*
X75154329Y-74906530D01*
X75177429Y-74898265D01*
X75201227Y-74892304D01*
X75225496Y-74888704D01*
X75250000Y-74887500D01*
X76500000Y-74887500D01*
X76524504Y-74888704D01*
G37*
G36*
X76524504Y-71913704D02*
G01*
X76548773Y-71917304D01*
X76572571Y-71923265D01*
X76595671Y-71931530D01*
X76617849Y-71942020D01*
X76638893Y-71954633D01*
X76658598Y-71969247D01*
X76676777Y-71985723D01*
X76693253Y-72003902D01*
X76707867Y-72023607D01*
X76720480Y-72044651D01*
X76730970Y-72066829D01*
X76739235Y-72089929D01*
X76745196Y-72113727D01*
X76748796Y-72137996D01*
X76750000Y-72162500D01*
X76750000Y-73087500D01*
X76748796Y-73112004D01*
X76745196Y-73136273D01*
X76739235Y-73160071D01*
X76730970Y-73183171D01*
X76720480Y-73205349D01*
X76707867Y-73226393D01*
X76693253Y-73246098D01*
X76676777Y-73264277D01*
X76658598Y-73280753D01*
X76638893Y-73295367D01*
X76617849Y-73307980D01*
X76595671Y-73318470D01*
X76572571Y-73326735D01*
X76548773Y-73332696D01*
X76524504Y-73336296D01*
X76500000Y-73337500D01*
X75250000Y-73337500D01*
X75225496Y-73336296D01*
X75201227Y-73332696D01*
X75177429Y-73326735D01*
X75154329Y-73318470D01*
X75132151Y-73307980D01*
X75111107Y-73295367D01*
X75091402Y-73280753D01*
X75073223Y-73264277D01*
X75056747Y-73246098D01*
X75042133Y-73226393D01*
X75029520Y-73205349D01*
X75019030Y-73183171D01*
X75010765Y-73160071D01*
X75004804Y-73136273D01*
X75001204Y-73112004D01*
X75000000Y-73087500D01*
X75000000Y-72162500D01*
X75001204Y-72137996D01*
X75004804Y-72113727D01*
X75010765Y-72089929D01*
X75019030Y-72066829D01*
X75029520Y-72044651D01*
X75042133Y-72023607D01*
X75056747Y-72003902D01*
X75073223Y-71985723D01*
X75091402Y-71969247D01*
X75111107Y-71954633D01*
X75132151Y-71942020D01*
X75154329Y-71931530D01*
X75177429Y-71923265D01*
X75201227Y-71917304D01*
X75225496Y-71913704D01*
X75250000Y-71912500D01*
X76500000Y-71912500D01*
X76524504Y-71913704D01*
G37*
G36*
X50649504Y-78916204D02*
G01*
X50673773Y-78919804D01*
X50697571Y-78925765D01*
X50720671Y-78934030D01*
X50742849Y-78944520D01*
X50763893Y-78957133D01*
X50783598Y-78971747D01*
X50801777Y-78988223D01*
X50818253Y-79006402D01*
X50832867Y-79026107D01*
X50845480Y-79047151D01*
X50855970Y-79069329D01*
X50864235Y-79092429D01*
X50870196Y-79116227D01*
X50873796Y-79140496D01*
X50875000Y-79165000D01*
X50875000Y-80090000D01*
X50873796Y-80114504D01*
X50870196Y-80138773D01*
X50864235Y-80162571D01*
X50855970Y-80185671D01*
X50845480Y-80207849D01*
X50832867Y-80228893D01*
X50818253Y-80248598D01*
X50801777Y-80266777D01*
X50783598Y-80283253D01*
X50763893Y-80297867D01*
X50742849Y-80310480D01*
X50720671Y-80320970D01*
X50697571Y-80329235D01*
X50673773Y-80335196D01*
X50649504Y-80338796D01*
X50625000Y-80340000D01*
X49375000Y-80340000D01*
X49350496Y-80338796D01*
X49326227Y-80335196D01*
X49302429Y-80329235D01*
X49279329Y-80320970D01*
X49257151Y-80310480D01*
X49236107Y-80297867D01*
X49216402Y-80283253D01*
X49198223Y-80266777D01*
X49181747Y-80248598D01*
X49167133Y-80228893D01*
X49154520Y-80207849D01*
X49144030Y-80185671D01*
X49135765Y-80162571D01*
X49129804Y-80138773D01*
X49126204Y-80114504D01*
X49125000Y-80090000D01*
X49125000Y-79165000D01*
X49126204Y-79140496D01*
X49129804Y-79116227D01*
X49135765Y-79092429D01*
X49144030Y-79069329D01*
X49154520Y-79047151D01*
X49167133Y-79026107D01*
X49181747Y-79006402D01*
X49198223Y-78988223D01*
X49216402Y-78971747D01*
X49236107Y-78957133D01*
X49257151Y-78944520D01*
X49279329Y-78934030D01*
X49302429Y-78925765D01*
X49326227Y-78919804D01*
X49350496Y-78916204D01*
X49375000Y-78915000D01*
X50625000Y-78915000D01*
X50649504Y-78916204D01*
G37*
G36*
X50649504Y-75941204D02*
G01*
X50673773Y-75944804D01*
X50697571Y-75950765D01*
X50720671Y-75959030D01*
X50742849Y-75969520D01*
X50763893Y-75982133D01*
X50783598Y-75996747D01*
X50801777Y-76013223D01*
X50818253Y-76031402D01*
X50832867Y-76051107D01*
X50845480Y-76072151D01*
X50855970Y-76094329D01*
X50864235Y-76117429D01*
X50870196Y-76141227D01*
X50873796Y-76165496D01*
X50875000Y-76190000D01*
X50875000Y-77115000D01*
X50873796Y-77139504D01*
X50870196Y-77163773D01*
X50864235Y-77187571D01*
X50855970Y-77210671D01*
X50845480Y-77232849D01*
X50832867Y-77253893D01*
X50818253Y-77273598D01*
X50801777Y-77291777D01*
X50783598Y-77308253D01*
X50763893Y-77322867D01*
X50742849Y-77335480D01*
X50720671Y-77345970D01*
X50697571Y-77354235D01*
X50673773Y-77360196D01*
X50649504Y-77363796D01*
X50625000Y-77365000D01*
X49375000Y-77365000D01*
X49350496Y-77363796D01*
X49326227Y-77360196D01*
X49302429Y-77354235D01*
X49279329Y-77345970D01*
X49257151Y-77335480D01*
X49236107Y-77322867D01*
X49216402Y-77308253D01*
X49198223Y-77291777D01*
X49181747Y-77273598D01*
X49167133Y-77253893D01*
X49154520Y-77232849D01*
X49144030Y-77210671D01*
X49135765Y-77187571D01*
X49129804Y-77163773D01*
X49126204Y-77139504D01*
X49125000Y-77115000D01*
X49125000Y-76190000D01*
X49126204Y-76165496D01*
X49129804Y-76141227D01*
X49135765Y-76117429D01*
X49144030Y-76094329D01*
X49154520Y-76072151D01*
X49167133Y-76051107D01*
X49181747Y-76031402D01*
X49198223Y-76013223D01*
X49216402Y-75996747D01*
X49236107Y-75982133D01*
X49257151Y-75969520D01*
X49279329Y-75959030D01*
X49302429Y-75950765D01*
X49326227Y-75944804D01*
X49350496Y-75941204D01*
X49375000Y-75940000D01*
X50625000Y-75940000D01*
X50649504Y-75941204D01*
G37*
G36*
X50649504Y-68538704D02*
G01*
X50673773Y-68542304D01*
X50697571Y-68548265D01*
X50720671Y-68556530D01*
X50742849Y-68567020D01*
X50763893Y-68579633D01*
X50783598Y-68594247D01*
X50801777Y-68610723D01*
X50818253Y-68628902D01*
X50832867Y-68648607D01*
X50845480Y-68669651D01*
X50855970Y-68691829D01*
X50864235Y-68714929D01*
X50870196Y-68738727D01*
X50873796Y-68762996D01*
X50875000Y-68787500D01*
X50875000Y-69712500D01*
X50873796Y-69737004D01*
X50870196Y-69761273D01*
X50864235Y-69785071D01*
X50855970Y-69808171D01*
X50845480Y-69830349D01*
X50832867Y-69851393D01*
X50818253Y-69871098D01*
X50801777Y-69889277D01*
X50783598Y-69905753D01*
X50763893Y-69920367D01*
X50742849Y-69932980D01*
X50720671Y-69943470D01*
X50697571Y-69951735D01*
X50673773Y-69957696D01*
X50649504Y-69961296D01*
X50625000Y-69962500D01*
X49375000Y-69962500D01*
X49350496Y-69961296D01*
X49326227Y-69957696D01*
X49302429Y-69951735D01*
X49279329Y-69943470D01*
X49257151Y-69932980D01*
X49236107Y-69920367D01*
X49216402Y-69905753D01*
X49198223Y-69889277D01*
X49181747Y-69871098D01*
X49167133Y-69851393D01*
X49154520Y-69830349D01*
X49144030Y-69808171D01*
X49135765Y-69785071D01*
X49129804Y-69761273D01*
X49126204Y-69737004D01*
X49125000Y-69712500D01*
X49125000Y-68787500D01*
X49126204Y-68762996D01*
X49129804Y-68738727D01*
X49135765Y-68714929D01*
X49144030Y-68691829D01*
X49154520Y-68669651D01*
X49167133Y-68648607D01*
X49181747Y-68628902D01*
X49198223Y-68610723D01*
X49216402Y-68594247D01*
X49236107Y-68579633D01*
X49257151Y-68567020D01*
X49279329Y-68556530D01*
X49302429Y-68548265D01*
X49326227Y-68542304D01*
X49350496Y-68538704D01*
X49375000Y-68537500D01*
X50625000Y-68537500D01*
X50649504Y-68538704D01*
G37*
G36*
X50649504Y-71513704D02*
G01*
X50673773Y-71517304D01*
X50697571Y-71523265D01*
X50720671Y-71531530D01*
X50742849Y-71542020D01*
X50763893Y-71554633D01*
X50783598Y-71569247D01*
X50801777Y-71585723D01*
X50818253Y-71603902D01*
X50832867Y-71623607D01*
X50845480Y-71644651D01*
X50855970Y-71666829D01*
X50864235Y-71689929D01*
X50870196Y-71713727D01*
X50873796Y-71737996D01*
X50875000Y-71762500D01*
X50875000Y-72687500D01*
X50873796Y-72712004D01*
X50870196Y-72736273D01*
X50864235Y-72760071D01*
X50855970Y-72783171D01*
X50845480Y-72805349D01*
X50832867Y-72826393D01*
X50818253Y-72846098D01*
X50801777Y-72864277D01*
X50783598Y-72880753D01*
X50763893Y-72895367D01*
X50742849Y-72907980D01*
X50720671Y-72918470D01*
X50697571Y-72926735D01*
X50673773Y-72932696D01*
X50649504Y-72936296D01*
X50625000Y-72937500D01*
X49375000Y-72937500D01*
X49350496Y-72936296D01*
X49326227Y-72932696D01*
X49302429Y-72926735D01*
X49279329Y-72918470D01*
X49257151Y-72907980D01*
X49236107Y-72895367D01*
X49216402Y-72880753D01*
X49198223Y-72864277D01*
X49181747Y-72846098D01*
X49167133Y-72826393D01*
X49154520Y-72805349D01*
X49144030Y-72783171D01*
X49135765Y-72760071D01*
X49129804Y-72736273D01*
X49126204Y-72712004D01*
X49125000Y-72687500D01*
X49125000Y-71762500D01*
X49126204Y-71737996D01*
X49129804Y-71713727D01*
X49135765Y-71689929D01*
X49144030Y-71666829D01*
X49154520Y-71644651D01*
X49167133Y-71623607D01*
X49181747Y-71603902D01*
X49198223Y-71585723D01*
X49216402Y-71569247D01*
X49236107Y-71554633D01*
X49257151Y-71542020D01*
X49279329Y-71531530D01*
X49302429Y-71523265D01*
X49326227Y-71517304D01*
X49350496Y-71513704D01*
X49375000Y-71512500D01*
X50625000Y-71512500D01*
X50649504Y-71513704D01*
G37*
D14*
X71415000Y-75790000D03*
X71415000Y-74990000D03*
X71415000Y-74190000D03*
X71415000Y-73390000D03*
X71415000Y-72590000D03*
X71415000Y-71790000D03*
X71415000Y-70990000D03*
X71415000Y-70190000D03*
X71415000Y-69390000D03*
X71415000Y-68590000D03*
X71415000Y-67790000D03*
D15*
X69715000Y-66090000D03*
X68915000Y-66090000D03*
X68115000Y-66090000D03*
X67315000Y-66090000D03*
X66515000Y-66090000D03*
X65715000Y-66090000D03*
X64915000Y-66090000D03*
X64115000Y-66090000D03*
X63315000Y-66090000D03*
X62515000Y-66090000D03*
X61715000Y-66090000D03*
D14*
X60015000Y-67790000D03*
X60015000Y-68590000D03*
X60015000Y-69390000D03*
X60015000Y-70190000D03*
X60015000Y-70990000D03*
X60015000Y-71790000D03*
X60015000Y-72590000D03*
X60015000Y-73390000D03*
X60015000Y-74190000D03*
X60015000Y-74990000D03*
X60015000Y-75790000D03*
D15*
X61715000Y-77490000D03*
X62515000Y-77490000D03*
X63315000Y-77490000D03*
X64115000Y-77490000D03*
X64915000Y-77490000D03*
X65715000Y-77490000D03*
X66515000Y-77490000D03*
X67315000Y-77490000D03*
X68115000Y-77490000D03*
X68915000Y-77490000D03*
X69715000Y-77490000D03*
M02*
