G04 #@! TF.GenerationSoftware,KiCad,Pcbnew,(5.1.5)-2*
G04 #@! TF.CreationDate,2020-10-07T17:42:30-06:00*
G04 #@! TF.ProjectId,Pi-A3-Game-Console,50692d41-332d-4476-916d-652d436f6e73,rev?*
G04 #@! TF.SameCoordinates,Original*
G04 #@! TF.FileFunction,Copper,L1,Top*
G04 #@! TF.FilePolarity,Positive*
%FSLAX46Y46*%
G04 Gerber Fmt 4.6, Leading zero omitted, Abs format (unit mm)*
G04 Created by KiCad (PCBNEW (5.1.5)-2) date 2020-10-07 17:42:30*
%MOMM*%
%LPD*%
G04 APERTURE LIST*
%ADD10C,4.500000*%
%ADD11C,3.000000*%
%ADD12R,3.100000X2.300000*%
%ADD13R,1.100000X0.300000*%
%ADD14R,2.300000X3.100000*%
%ADD15R,0.300000X1.100000*%
%ADD16C,5.000000*%
%ADD17C,3.500000*%
%ADD18O,1.700000X1.700000*%
%ADD19R,1.700000X1.700000*%
%ADD20C,6.000000*%
%ADD21C,1.400000*%
%ADD22R,1.400000X1.400000*%
%ADD23C,2.100000*%
%ADD24C,1.750000*%
%ADD25C,0.100000*%
%ADD26C,2.000000*%
%ADD27C,1.500000*%
%ADD28C,0.800000*%
%ADD29C,0.250000*%
%ADD30C,1.000000*%
%ADD31C,0.254000*%
G04 APERTURE END LIST*
D10*
X74951980Y-60730000D03*
X169931900Y-93730000D03*
X169931900Y-60730000D03*
D11*
X200550000Y-65730000D03*
X219000000Y-82430000D03*
D12*
X190350000Y-57660000D03*
X190350000Y-63000000D03*
D13*
X188650000Y-59330000D03*
X188650000Y-59830000D03*
X188650000Y-60330000D03*
X188650000Y-60830000D03*
X188650000Y-61330000D03*
D11*
X57750000Y-83450000D03*
X74450000Y-65000000D03*
D14*
X49680000Y-93650000D03*
X55020000Y-93650000D03*
D15*
X51350000Y-95350000D03*
X51850000Y-95350000D03*
X52350000Y-95350000D03*
X52850000Y-95350000D03*
X53350000Y-95350000D03*
D16*
X84260000Y-113010000D03*
X186260000Y-113010000D03*
D17*
X186260000Y-58010000D03*
D16*
X84260000Y-58010000D03*
D18*
X83490000Y-102020000D03*
X83490000Y-99480000D03*
X83490000Y-96940000D03*
X83490000Y-94400000D03*
X83490000Y-91860000D03*
X83490000Y-89320000D03*
X83490000Y-86780000D03*
X83490000Y-84240000D03*
X83490000Y-81700000D03*
X83490000Y-79160000D03*
X83490000Y-76620000D03*
X83490000Y-74080000D03*
X83490000Y-71540000D03*
D19*
X83490000Y-69000000D03*
D18*
X55580000Y-102540000D03*
X55580000Y-100000000D03*
X53040000Y-102540000D03*
X53040000Y-100000000D03*
X50500000Y-102540000D03*
D19*
X50500000Y-100000000D03*
D20*
X51500000Y-56500000D03*
X51500000Y-114500000D03*
D21*
X90240000Y-116800000D03*
X92740000Y-116800000D03*
X95240000Y-116800000D03*
X90240000Y-113500000D03*
X92740000Y-113500000D03*
D22*
X95240000Y-113500000D03*
D23*
X219055000Y-58370000D03*
D24*
X217805000Y-55880000D03*
X213305000Y-55880000D03*
D23*
X212045000Y-58370000D03*
X64115000Y-58370000D03*
D24*
X62865000Y-55880000D03*
X58365000Y-55880000D03*
D23*
X57105000Y-58370000D03*
D16*
X224499900Y-56500001D03*
G04 #@! TA.AperFunction,ComponentPad*
D25*
G36*
X224133074Y-116972942D02*
G01*
X223892450Y-116925079D01*
X223657675Y-116853861D01*
X223431012Y-116759974D01*
X223214643Y-116644323D01*
X223010652Y-116508020D01*
X222821003Y-116352379D01*
X222647522Y-116178898D01*
X222491881Y-115989249D01*
X222355578Y-115785258D01*
X222239927Y-115568889D01*
X222146040Y-115342226D01*
X222074822Y-115107451D01*
X222026959Y-114866827D01*
X222002911Y-114622670D01*
X222002911Y-114377332D01*
X222026959Y-114133175D01*
X222074822Y-113892551D01*
X222146040Y-113657776D01*
X222239927Y-113431113D01*
X222355578Y-113214744D01*
X222491881Y-113010753D01*
X222647522Y-112821104D01*
X222821003Y-112647623D01*
X223010652Y-112491982D01*
X223214643Y-112355679D01*
X223431012Y-112240028D01*
X223657675Y-112146141D01*
X223892450Y-112074923D01*
X224133074Y-112027060D01*
X224377231Y-112003012D01*
X224622569Y-112003012D01*
X224866726Y-112027060D01*
X225107350Y-112074923D01*
X225342125Y-112146141D01*
X225568788Y-112240028D01*
X225785157Y-112355679D01*
X225989148Y-112491982D01*
X226178797Y-112647623D01*
X226352278Y-112821104D01*
X226507919Y-113010753D01*
X226644222Y-113214744D01*
X226759873Y-113431113D01*
X226853760Y-113657776D01*
X226924978Y-113892551D01*
X226972841Y-114133175D01*
X226996889Y-114377332D01*
X226996889Y-114622670D01*
X226972841Y-114866827D01*
X226924978Y-115107451D01*
X226853760Y-115342226D01*
X226759873Y-115568889D01*
X226644222Y-115785258D01*
X226507919Y-115989249D01*
X226352278Y-116178898D01*
X226178797Y-116352379D01*
X225989148Y-116508020D01*
X225785157Y-116644323D01*
X225568788Y-116759974D01*
X225342125Y-116853861D01*
X225107350Y-116925079D01*
X224866726Y-116972942D01*
X224622569Y-116996990D01*
X224377231Y-116996990D01*
X224133074Y-116972942D01*
G37*
G04 #@! TD.AperFunction*
D16*
X175499900Y-56500001D03*
X175499900Y-114500001D03*
D19*
X176769900Y-109630001D03*
D18*
X174229900Y-109630001D03*
X176769900Y-107090001D03*
X174229900Y-107090001D03*
X176769900Y-104550001D03*
X174229900Y-104550001D03*
X176769900Y-102010001D03*
X174229900Y-102010001D03*
X176769900Y-99470001D03*
X174229900Y-99470001D03*
X176769900Y-96930001D03*
X174229900Y-96930001D03*
X176769900Y-94390001D03*
X174229900Y-94390001D03*
X176769900Y-91850001D03*
X174229900Y-91850001D03*
X176769900Y-89310001D03*
X174229900Y-89310001D03*
X176769900Y-86770001D03*
X174229900Y-86770001D03*
X176769900Y-84230001D03*
X174229900Y-84230001D03*
X176769900Y-81690001D03*
X174229900Y-81690001D03*
X176769900Y-79150001D03*
X174229900Y-79150001D03*
X176769900Y-76610001D03*
X174229900Y-76610001D03*
X176769900Y-74070001D03*
X174229900Y-74070001D03*
X176769900Y-71530001D03*
X174229900Y-71530001D03*
X176769900Y-68990001D03*
X174229900Y-68990001D03*
X176769900Y-66450001D03*
X174229900Y-66450001D03*
X176769900Y-63910001D03*
X174229900Y-63910001D03*
X176769900Y-61370001D03*
X174229900Y-61370001D03*
D26*
X58000000Y-116500000D03*
X58000000Y-112000000D03*
X64500000Y-116500000D03*
X64500000Y-112000000D03*
D18*
X50165000Y-108585000D03*
X52705000Y-108585000D03*
X55245000Y-108585000D03*
X57785000Y-108585000D03*
X60325000Y-108585000D03*
X62865000Y-108585000D03*
D19*
X65405000Y-108585000D03*
D18*
X158090000Y-107750000D03*
X160630000Y-107750000D03*
X163170000Y-107750000D03*
X165710000Y-107750000D03*
D19*
X168250000Y-107750000D03*
D26*
X207920000Y-111680000D03*
X207920000Y-116180000D03*
X201420000Y-111680000D03*
X201420000Y-116180000D03*
D27*
X54285000Y-76670000D03*
X54285000Y-71790000D03*
D18*
X68000000Y-54610000D03*
D19*
X68000000Y-57150000D03*
D26*
X75500000Y-112000000D03*
X75500000Y-116500000D03*
X69000000Y-112000000D03*
X69000000Y-116500000D03*
X219350000Y-111680000D03*
X219350000Y-116180000D03*
X212850000Y-111680000D03*
X212850000Y-116180000D03*
X196920000Y-92800000D03*
X201420000Y-92800000D03*
X196920000Y-99300000D03*
X201420000Y-99300000D03*
X204540000Y-86450000D03*
X209040000Y-86450000D03*
X204540000Y-92950000D03*
X209040000Y-92950000D03*
X204540000Y-99150000D03*
X209040000Y-99150000D03*
X204540000Y-105650000D03*
X209040000Y-105650000D03*
X212160000Y-92800000D03*
X216660000Y-92800000D03*
X212160000Y-99300000D03*
X216660000Y-99300000D03*
X67055000Y-99150000D03*
X71555000Y-99150000D03*
X67055000Y-105650000D03*
X71555000Y-105650000D03*
X74675000Y-92800000D03*
X79175000Y-92800000D03*
X74675000Y-99300000D03*
X79175000Y-99300000D03*
X59435000Y-92800000D03*
X63935000Y-92800000D03*
X59435000Y-99300000D03*
X63935000Y-99300000D03*
X67055000Y-86450000D03*
X71555000Y-86450000D03*
X67055000Y-92950000D03*
X71555000Y-92950000D03*
D28*
X190024000Y-59474300D03*
X133041500Y-108151400D03*
X61224600Y-62670300D03*
X62218600Y-103479200D03*
X115800000Y-99400000D03*
X107000000Y-100600000D03*
X171217298Y-86217298D03*
X175527400Y-87761500D03*
X75061400Y-68271300D03*
X55520100Y-81500000D03*
X61307200Y-80281400D03*
X73257000Y-73390000D03*
X55117800Y-96984000D03*
X74017300Y-84905300D03*
X68939800Y-74218300D03*
X77313600Y-67570200D03*
X65315100Y-75362400D03*
X73646300Y-68948600D03*
X63193300Y-72720600D03*
X64025800Y-67806200D03*
X65035700Y-70128900D03*
X58490400Y-71195800D03*
X62292600Y-76131900D03*
X94914700Y-90982400D03*
X187179300Y-54202100D03*
X57306000Y-68972100D03*
X70701500Y-66663800D03*
X81912500Y-89864000D03*
X66598800Y-72747900D03*
X129414100Y-107177000D03*
X92738300Y-73227500D03*
X66312900Y-70447700D03*
X137129300Y-98052600D03*
X134600000Y-98800000D03*
X56524400Y-86933000D03*
X69687300Y-85718000D03*
X74300800Y-72756900D03*
X175704500Y-75173400D03*
X61828900Y-70992100D03*
X80767600Y-58384900D03*
X58584400Y-69716200D03*
D29*
X174229900Y-109630000D02*
X134520100Y-109630000D01*
X134520100Y-109630000D02*
X133041500Y-108151400D01*
X190024000Y-59474300D02*
X189879700Y-59330000D01*
X189879700Y-59330000D02*
X188650000Y-59330000D01*
X68000000Y-57150000D02*
X66824700Y-57150000D01*
X66824700Y-57150000D02*
X66824700Y-57664200D01*
X66824700Y-57664200D02*
X61818600Y-62670300D01*
X61818600Y-62670300D02*
X61224600Y-62670300D01*
X51664800Y-102540000D02*
X51664800Y-102827100D01*
X51664800Y-102827100D02*
X52613200Y-103775500D01*
X52613200Y-103775500D02*
X61922300Y-103775500D01*
X61922300Y-103775500D02*
X62218600Y-103479200D01*
X174229900Y-109630000D02*
X174229900Y-107090000D01*
X51350000Y-95350000D02*
X51350000Y-97519200D01*
X51350000Y-97519200D02*
X51675300Y-97844500D01*
X51675300Y-97844500D02*
X51675300Y-102529500D01*
X51675300Y-102529500D02*
X51664800Y-102540000D01*
X50500000Y-102540000D02*
X51664800Y-102540000D01*
D30*
X133441499Y-108551399D02*
X133041500Y-108151400D01*
X134666110Y-109776010D02*
X133441499Y-108551399D01*
X172881810Y-109776010D02*
X134666110Y-109776010D01*
X173027819Y-109630001D02*
X172881810Y-109776010D01*
X174229900Y-109630001D02*
X173027819Y-109630001D01*
D29*
X176769900Y-61370000D02*
X177945200Y-61370000D01*
X177945200Y-61370000D02*
X178485200Y-60830000D01*
X178485200Y-60830000D02*
X188650000Y-60830000D01*
X174229900Y-74070000D02*
X174229900Y-75245300D01*
X176769900Y-79150000D02*
X176769900Y-77974700D01*
X176769900Y-77974700D02*
X176402500Y-77974700D01*
X176402500Y-77974700D02*
X175594600Y-77166800D01*
X175594600Y-77166800D02*
X175594600Y-76312400D01*
X175594600Y-76312400D02*
X174527500Y-75245300D01*
X174527500Y-75245300D02*
X174229900Y-75245300D01*
X199582900Y-97462900D02*
X201420000Y-99300000D01*
X177969000Y-97462900D02*
X199582900Y-97462900D01*
X199582900Y-97462900D02*
X199582900Y-94637100D01*
X199582900Y-94637100D02*
X201420000Y-92800000D01*
X177969000Y-97462900D02*
X177969000Y-96451300D01*
X177969000Y-96451300D02*
X177083000Y-95565300D01*
X177083000Y-95565300D02*
X176213100Y-95565300D01*
X176213100Y-95565300D02*
X175405200Y-94757400D01*
X175405200Y-94757400D02*
X175405200Y-94390000D01*
X176769900Y-98294700D02*
X177137200Y-98294700D01*
X177137200Y-98294700D02*
X177969000Y-97462900D01*
X58365000Y-55880000D02*
X59635000Y-54610000D01*
X59635000Y-54610000D02*
X68000000Y-54610000D01*
X174229900Y-94390000D02*
X175405200Y-94390000D01*
X176769900Y-99470000D02*
X176769900Y-98294700D01*
X158090000Y-107750000D02*
X159265300Y-107750000D01*
X159265300Y-107750000D02*
X159265300Y-108117300D01*
X159265300Y-108117300D02*
X160099000Y-108951000D01*
X160099000Y-108951000D02*
X167049000Y-108951000D01*
X167049000Y-108951000D02*
X168250000Y-107750000D01*
X58000000Y-116500000D02*
X64500000Y-116500000D01*
X212850000Y-116180000D02*
X211477800Y-114807800D01*
X211477800Y-114807800D02*
X209292200Y-114807800D01*
X219350000Y-116180000D02*
X212850000Y-116180000D01*
X209292200Y-114807800D02*
X207920000Y-116180000D01*
X209040000Y-105650000D02*
X209292200Y-105902200D01*
X209292200Y-105902200D02*
X209292200Y-114807800D01*
X69000000Y-116500000D02*
X75500000Y-116500000D01*
X64500000Y-116500000D02*
X69000000Y-116500000D01*
X52850000Y-95350000D02*
X52850000Y-96225300D01*
X55580000Y-102540000D02*
X55580000Y-101364700D01*
X55580000Y-101364700D02*
X55212700Y-101364700D01*
X55212700Y-101364700D02*
X54296700Y-100448700D01*
X54296700Y-100448700D02*
X54296700Y-97672000D01*
X54296700Y-97672000D02*
X52850000Y-96225300D01*
X75500000Y-116500000D02*
X87037900Y-116500000D01*
X87037900Y-116500000D02*
X89012600Y-114525300D01*
X89012600Y-114525300D02*
X93189400Y-114525300D01*
X93189400Y-114525300D02*
X94214700Y-113500000D01*
X95240000Y-113500000D02*
X94214700Y-113500000D01*
X201420000Y-116180000D02*
X207920000Y-116180000D01*
X83490000Y-79160000D02*
X91330000Y-87000000D01*
X171459901Y-87000000D02*
X174229900Y-84230001D01*
X91330000Y-87000000D02*
X171459901Y-87000000D01*
X175594600Y-86770000D02*
X176769900Y-86770000D01*
X175594600Y-86402600D02*
X175594600Y-86770000D01*
X173666199Y-85594700D02*
X174786700Y-85594700D01*
X174786700Y-85594700D02*
X175594600Y-86402600D01*
X83490000Y-81700000D02*
X89290000Y-87500000D01*
X171733309Y-87527590D02*
X173666199Y-85594700D01*
X137349982Y-87500000D02*
X137377572Y-87527590D01*
X137377572Y-87527590D02*
X171733309Y-87527590D01*
X89290000Y-87500000D02*
X137349982Y-87500000D01*
X83490000Y-89320000D02*
X84665300Y-89320000D01*
X176769900Y-84230000D02*
X176769900Y-85405300D01*
X176769900Y-85405300D02*
X177137200Y-85405300D01*
X177137200Y-85405300D02*
X177971200Y-86239300D01*
X177971200Y-86239300D02*
X177971200Y-87231200D01*
X177971200Y-87231200D02*
X177162400Y-88040000D01*
X177162400Y-88040000D02*
X176326200Y-88040000D01*
X176326200Y-88040000D02*
X175499900Y-88866300D01*
X175499900Y-88866300D02*
X175499900Y-89704800D01*
X175499900Y-89704800D02*
X174709600Y-90495100D01*
X174709600Y-90495100D02*
X172524400Y-90495100D01*
X172524400Y-90495100D02*
X171789800Y-89760500D01*
X171789800Y-89760500D02*
X85105800Y-89760500D01*
X85105800Y-89760500D02*
X84665300Y-89320000D01*
X84870000Y-79870000D02*
X91549990Y-86549990D01*
X84870000Y-76620000D02*
X84870000Y-79870000D01*
X83490000Y-76620000D02*
X84870000Y-76620000D01*
X91549990Y-86549990D02*
X170884606Y-86549990D01*
X170884606Y-86549990D02*
X171217298Y-86217298D01*
X83490000Y-84240000D02*
X84665300Y-84240000D01*
X88402900Y-87977600D02*
X84665300Y-84240000D01*
X174961715Y-87761500D02*
X175527400Y-87761500D01*
X174745615Y-87977600D02*
X174961715Y-87761500D01*
X88402900Y-87977600D02*
X174745615Y-87977600D01*
X173054600Y-81690000D02*
X165444600Y-74080000D01*
X165444600Y-74080000D02*
X83490000Y-74080000D01*
X174229900Y-81690000D02*
X173054600Y-81690000D01*
X75061400Y-68271300D02*
X74213200Y-67423100D01*
X74213200Y-67423100D02*
X64710500Y-67423100D01*
X64710500Y-67423100D02*
X64368300Y-67080900D01*
X64368300Y-67080900D02*
X62286900Y-67080900D01*
X62286900Y-67080900D02*
X58915000Y-70452800D01*
X58915000Y-70452800D02*
X58207700Y-70452800D01*
X58207700Y-70452800D02*
X51850000Y-76810500D01*
X51850000Y-76810500D02*
X51850000Y-95350000D01*
X73257000Y-73390000D02*
X71377200Y-71510200D01*
X71377200Y-71510200D02*
X63378000Y-71510200D01*
X63378000Y-71510200D02*
X61068500Y-73819700D01*
X61068500Y-73819700D02*
X61068500Y-80042700D01*
X61068500Y-80042700D02*
X61307200Y-80281400D01*
X55520100Y-81500000D02*
X52350000Y-84670100D01*
X52350000Y-84670100D02*
X52350000Y-95350000D01*
X55117800Y-96984000D02*
X53483800Y-95350000D01*
X53483800Y-95350000D02*
X53350000Y-95350000D01*
X68939800Y-74218300D02*
X74017300Y-79295800D01*
X74017300Y-79295800D02*
X74017300Y-84905300D01*
X77313600Y-67570200D02*
X78485000Y-66398800D01*
X78485000Y-66398800D02*
X167905300Y-66398800D01*
X167905300Y-66398800D02*
X172621600Y-61682500D01*
X172621600Y-61682500D02*
X172621600Y-61310400D01*
X172621600Y-61310400D02*
X173846600Y-60085400D01*
X173846600Y-60085400D02*
X187172400Y-60085400D01*
X187172400Y-60085400D02*
X187427800Y-59830000D01*
X187427800Y-59830000D02*
X188650000Y-59830000D01*
X188650000Y-60330000D02*
X190884700Y-60330000D01*
X190884700Y-60330000D02*
X192225400Y-61670700D01*
X192225400Y-61670700D02*
X192225400Y-65423100D01*
X192225400Y-65423100D02*
X177133900Y-80514600D01*
X177133900Y-80514600D02*
X176244300Y-80514600D01*
X176244300Y-80514600D02*
X175499900Y-81259000D01*
X175499900Y-81259000D02*
X175499900Y-82084800D01*
X175499900Y-82084800D02*
X174711900Y-82872800D01*
X174711900Y-82872800D02*
X173192700Y-82872800D01*
X173192700Y-82872800D02*
X165514400Y-75194500D01*
X165514400Y-75194500D02*
X84971200Y-75194500D01*
X84971200Y-75194500D02*
X84893500Y-75272200D01*
X84893500Y-75272200D02*
X72204000Y-75272200D01*
X72204000Y-75272200D02*
X70378500Y-73446700D01*
X70378500Y-73446700D02*
X67230800Y-73446700D01*
X67230800Y-73446700D02*
X65315100Y-75362400D01*
X188650000Y-61330000D02*
X187774700Y-61330000D01*
X73646300Y-68948600D02*
X73723800Y-69026100D01*
X73723800Y-69026100D02*
X78337300Y-69026100D01*
X78337300Y-69026100D02*
X79594000Y-67769400D01*
X79594000Y-67769400D02*
X181335300Y-67769400D01*
X181335300Y-67769400D02*
X187774700Y-61330000D01*
X63193300Y-72720600D02*
X61521300Y-74392600D01*
X61521300Y-74392600D02*
X61521300Y-79342000D01*
X61521300Y-79342000D02*
X67055000Y-84875700D01*
X67055000Y-84875700D02*
X67055000Y-86450000D01*
X64025800Y-67806200D02*
X63885800Y-67806200D01*
X63885800Y-67806200D02*
X59575400Y-72116600D01*
X59575400Y-72116600D02*
X59575400Y-92659600D01*
X59575400Y-92659600D02*
X59435000Y-92800000D01*
X65035700Y-70128900D02*
X64122400Y-70128900D01*
X64122400Y-70128900D02*
X60576200Y-73675100D01*
X60576200Y-73675100D02*
X60576200Y-81862600D01*
X60576200Y-81862600D02*
X69753300Y-91039700D01*
X69753300Y-91039700D02*
X72914700Y-91039700D01*
X72914700Y-91039700D02*
X74675000Y-92800000D01*
X67055000Y-99150000D02*
X62030400Y-94125400D01*
X62030400Y-94125400D02*
X58859300Y-94125400D01*
X58859300Y-94125400D02*
X57249700Y-92515800D01*
X57249700Y-92515800D02*
X57249700Y-86632500D01*
X57249700Y-86632500D02*
X55914800Y-85297600D01*
X55914800Y-85297600D02*
X55914800Y-82350600D01*
X55914800Y-82350600D02*
X58490400Y-79775000D01*
X58490400Y-79775000D02*
X58490400Y-71195800D01*
X212160000Y-92800000D02*
X210798500Y-91438500D01*
X210798500Y-91438500D02*
X195564000Y-91438500D01*
X195564000Y-91438500D02*
X193958200Y-93044300D01*
X193958200Y-93044300D02*
X173004000Y-93044300D01*
X173004000Y-93044300D02*
X170216800Y-90257100D01*
X170216800Y-90257100D02*
X94614300Y-90257100D01*
X94614300Y-90257100D02*
X94282100Y-90589300D01*
X94282100Y-90589300D02*
X73532900Y-90589300D01*
X73532900Y-90589300D02*
X62292600Y-79349000D01*
X62292600Y-79349000D02*
X62292600Y-76131900D01*
X203034200Y-100655800D02*
X204540000Y-99150000D01*
X204540000Y-105650000D02*
X203034200Y-104144200D01*
X203034200Y-104144200D02*
X203034200Y-100655800D01*
X94914700Y-90982400D02*
X100237700Y-96305400D01*
X100237700Y-96305400D02*
X171174900Y-96305400D01*
X171174900Y-96305400D02*
X171786900Y-95693400D01*
X171786900Y-95693400D02*
X174726800Y-95693400D01*
X174726800Y-95693400D02*
X175594500Y-96561100D01*
X175594500Y-96561100D02*
X175594500Y-99995600D01*
X175594500Y-99995600D02*
X176254700Y-100655800D01*
X176254700Y-100655800D02*
X203034200Y-100655800D01*
X57306000Y-68972100D02*
X58771800Y-68972100D01*
X58771800Y-68972100D02*
X74077100Y-53666800D01*
X74077100Y-53666800D02*
X186644000Y-53666800D01*
X186644000Y-53666800D02*
X187179300Y-54202100D01*
X70701500Y-66663800D02*
X70882500Y-66844800D01*
X70882500Y-66844800D02*
X75379000Y-66844800D01*
X75379000Y-66844800D02*
X76705700Y-65518100D01*
X76705700Y-65518100D02*
X161012200Y-65518100D01*
X161012200Y-65518100D02*
X168447700Y-58082600D01*
X168447700Y-58082600D02*
X171264500Y-58082600D01*
X171264500Y-58082600D02*
X172530600Y-59348700D01*
X172530600Y-59348700D02*
X180118500Y-59348700D01*
X180118500Y-59348700D02*
X183538000Y-55929200D01*
X183538000Y-55929200D02*
X211549400Y-55929200D01*
X211549400Y-55929200D02*
X212716800Y-57096600D01*
X212716800Y-57096600D02*
X216588400Y-57096600D01*
X216588400Y-57096600D02*
X217805000Y-55880000D01*
X212850000Y-111680000D02*
X219350000Y-111680000D01*
X66598800Y-72747900D02*
X64589800Y-74756900D01*
X64589800Y-74756900D02*
X64589800Y-76503500D01*
X64589800Y-76503500D02*
X77950300Y-89864000D01*
X77950300Y-89864000D02*
X81912500Y-89864000D01*
X75500000Y-112000000D02*
X69000000Y-112000000D01*
X129414100Y-107177000D02*
X133066200Y-110829100D01*
X133066200Y-110829100D02*
X183529100Y-110829100D01*
X183529100Y-110829100D02*
X184239400Y-110118800D01*
X184239400Y-110118800D02*
X199858800Y-110118800D01*
X199858800Y-110118800D02*
X201420000Y-111680000D01*
X66312900Y-70447700D02*
X66792200Y-70927000D01*
X66792200Y-70927000D02*
X78704100Y-70927000D01*
X78704100Y-70927000D02*
X80681700Y-72904600D01*
X80681700Y-72904600D02*
X92415400Y-72904600D01*
X92415400Y-72904600D02*
X92738300Y-73227500D01*
X201420000Y-111680000D02*
X207920000Y-111680000D01*
X165710000Y-107750000D02*
X166885300Y-107750000D01*
X166885300Y-107750000D02*
X166885300Y-106942000D01*
X166885300Y-106942000D02*
X171817300Y-102010000D01*
X171817300Y-102010000D02*
X174229900Y-102010000D01*
X173054600Y-96930000D02*
X163532900Y-106451700D01*
X163532900Y-106451700D02*
X129113700Y-106451700D01*
X129113700Y-106451700D02*
X125805000Y-109760400D01*
X125805000Y-109760400D02*
X54688400Y-109760400D01*
X54688400Y-109760400D02*
X53880300Y-108952300D01*
X53880300Y-108952300D02*
X53880300Y-108585000D01*
X174229900Y-96930000D02*
X173054600Y-96930000D01*
X52705000Y-108585000D02*
X53880300Y-108585000D01*
X51340300Y-108585000D02*
X50165000Y-108585000D01*
X134250000Y-98052600D02*
X128000000Y-104250000D01*
X137129300Y-98052600D02*
X134250000Y-98052600D01*
X51340300Y-108217700D02*
X51340300Y-108585000D01*
X128000000Y-104250000D02*
X55233300Y-104324700D01*
X55233300Y-104324700D02*
X51340300Y-108217700D01*
X56420300Y-108585000D02*
X55245000Y-108585000D01*
X56420300Y-108217600D02*
X56420300Y-108585000D01*
X126137300Y-107409700D02*
X57228200Y-107409700D01*
X134600000Y-98800000D02*
X126137300Y-107409700D01*
X57228200Y-107409700D02*
X56420300Y-108217600D01*
X55580000Y-100000000D02*
X55580000Y-98824700D01*
X56524400Y-86933000D02*
X56524400Y-97880300D01*
X56524400Y-97880300D02*
X55580000Y-98824700D01*
X74300800Y-72756900D02*
X74300800Y-73391200D01*
X74300800Y-73391200D02*
X73558200Y-74133800D01*
X73558200Y-74133800D02*
X72751800Y-74133800D01*
X72751800Y-74133800D02*
X70626000Y-72008000D01*
X70626000Y-72008000D02*
X66304900Y-72008000D01*
X66304900Y-72008000D02*
X64139500Y-74173400D01*
X64139500Y-74173400D02*
X64139500Y-80170200D01*
X64139500Y-80170200D02*
X69687300Y-85718000D01*
X64500000Y-112000000D02*
X58000000Y-112000000D01*
X61828900Y-70992100D02*
X63435800Y-69385200D01*
X63435800Y-69385200D02*
X72515800Y-69385200D01*
X72515800Y-69385200D02*
X73306000Y-70175400D01*
X73306000Y-70175400D02*
X169514000Y-70175400D01*
X169514000Y-70175400D02*
X172233200Y-72894600D01*
X172233200Y-72894600D02*
X174786700Y-72894600D01*
X174786700Y-72894600D02*
X175405300Y-73513200D01*
X175405300Y-73513200D02*
X175405300Y-74874200D01*
X175405300Y-74874200D02*
X175704500Y-75173400D01*
X58584400Y-69716200D02*
X58664600Y-69716200D01*
X58664600Y-69716200D02*
X70226200Y-58154600D01*
X70226200Y-58154600D02*
X80537300Y-58154600D01*
X80537300Y-58154600D02*
X80767600Y-58384900D01*
D31*
G36*
X223014921Y-53721800D02*
G01*
X222501454Y-54064887D01*
X222064786Y-54501555D01*
X221721699Y-55015022D01*
X221485376Y-55585555D01*
X221364900Y-56191230D01*
X221364900Y-56808772D01*
X221485376Y-57414447D01*
X221721699Y-57984980D01*
X222064786Y-58498447D01*
X222501454Y-58935115D01*
X223014921Y-59278202D01*
X223585454Y-59514525D01*
X224191129Y-59635001D01*
X224808671Y-59635001D01*
X225414346Y-59514525D01*
X225984879Y-59278202D01*
X226498346Y-58935115D01*
X226935014Y-58498447D01*
X227278101Y-57984980D01*
X227304901Y-57920279D01*
X227304900Y-113103151D01*
X227294204Y-113077329D01*
X227235240Y-112967015D01*
X226962963Y-112559524D01*
X226883611Y-112462833D01*
X226537068Y-112116290D01*
X226440377Y-112036938D01*
X226032886Y-111764661D01*
X225922572Y-111705697D01*
X225469792Y-111518149D01*
X225350094Y-111481838D01*
X224869425Y-111386227D01*
X224744943Y-111373967D01*
X224254857Y-111373967D01*
X224130375Y-111386227D01*
X223649706Y-111481838D01*
X223530008Y-111518149D01*
X223077228Y-111705697D01*
X222966914Y-111764661D01*
X222559423Y-112036938D01*
X222462732Y-112116290D01*
X222116189Y-112462833D01*
X222036837Y-112559524D01*
X221764560Y-112967015D01*
X221705596Y-113077329D01*
X221518048Y-113530109D01*
X221481737Y-113649807D01*
X221386126Y-114130476D01*
X221373866Y-114254958D01*
X221373866Y-114745044D01*
X221386126Y-114869526D01*
X221481737Y-115350195D01*
X221518048Y-115469893D01*
X221705596Y-115922673D01*
X221764560Y-116032987D01*
X222036837Y-116440478D01*
X222116189Y-116537169D01*
X222462732Y-116883712D01*
X222559423Y-116963064D01*
X222966914Y-117235341D01*
X223077228Y-117294305D01*
X223103053Y-117305002D01*
X220537237Y-117305002D01*
X220619987Y-117222252D01*
X220798918Y-116954463D01*
X220922168Y-116656912D01*
X220985000Y-116341033D01*
X220985000Y-116018967D01*
X220922168Y-115703088D01*
X220798918Y-115405537D01*
X220619987Y-115137748D01*
X220392252Y-114910013D01*
X220124463Y-114731082D01*
X219826912Y-114607832D01*
X219511033Y-114545000D01*
X219188967Y-114545000D01*
X218873088Y-114607832D01*
X218575537Y-114731082D01*
X218307748Y-114910013D01*
X218080013Y-115137748D01*
X217901082Y-115405537D01*
X217895091Y-115420000D01*
X214304909Y-115420000D01*
X214298918Y-115405537D01*
X214119987Y-115137748D01*
X213892252Y-114910013D01*
X213624463Y-114731082D01*
X213326912Y-114607832D01*
X213011033Y-114545000D01*
X212688967Y-114545000D01*
X212373088Y-114607832D01*
X212358624Y-114613823D01*
X212041604Y-114296803D01*
X212017801Y-114267799D01*
X211902076Y-114172826D01*
X211770047Y-114102254D01*
X211626786Y-114058797D01*
X211515133Y-114047800D01*
X211515122Y-114047800D01*
X211477800Y-114044124D01*
X211440478Y-114047800D01*
X210052200Y-114047800D01*
X210052200Y-111518967D01*
X211215000Y-111518967D01*
X211215000Y-111841033D01*
X211277832Y-112156912D01*
X211401082Y-112454463D01*
X211580013Y-112722252D01*
X211807748Y-112949987D01*
X212075537Y-113128918D01*
X212373088Y-113252168D01*
X212688967Y-113315000D01*
X213011033Y-113315000D01*
X213326912Y-113252168D01*
X213624463Y-113128918D01*
X213892252Y-112949987D01*
X214119987Y-112722252D01*
X214298918Y-112454463D01*
X214304909Y-112440000D01*
X217895091Y-112440000D01*
X217901082Y-112454463D01*
X218080013Y-112722252D01*
X218307748Y-112949987D01*
X218575537Y-113128918D01*
X218873088Y-113252168D01*
X219188967Y-113315000D01*
X219511033Y-113315000D01*
X219826912Y-113252168D01*
X220124463Y-113128918D01*
X220392252Y-112949987D01*
X220619987Y-112722252D01*
X220798918Y-112454463D01*
X220922168Y-112156912D01*
X220985000Y-111841033D01*
X220985000Y-111518967D01*
X220922168Y-111203088D01*
X220798918Y-110905537D01*
X220619987Y-110637748D01*
X220392252Y-110410013D01*
X220124463Y-110231082D01*
X219826912Y-110107832D01*
X219511033Y-110045000D01*
X219188967Y-110045000D01*
X218873088Y-110107832D01*
X218575537Y-110231082D01*
X218307748Y-110410013D01*
X218080013Y-110637748D01*
X217901082Y-110905537D01*
X217895091Y-110920000D01*
X214304909Y-110920000D01*
X214298918Y-110905537D01*
X214119987Y-110637748D01*
X213892252Y-110410013D01*
X213624463Y-110231082D01*
X213326912Y-110107832D01*
X213011033Y-110045000D01*
X212688967Y-110045000D01*
X212373088Y-110107832D01*
X212075537Y-110231082D01*
X211807748Y-110410013D01*
X211580013Y-110637748D01*
X211401082Y-110905537D01*
X211277832Y-111203088D01*
X211215000Y-111518967D01*
X210052200Y-111518967D01*
X210052200Y-106940067D01*
X210082252Y-106919987D01*
X210309987Y-106692252D01*
X210488918Y-106424463D01*
X210612168Y-106126912D01*
X210675000Y-105811033D01*
X210675000Y-105488967D01*
X210612168Y-105173088D01*
X210488918Y-104875537D01*
X210309987Y-104607748D01*
X210082252Y-104380013D01*
X209814463Y-104201082D01*
X209516912Y-104077832D01*
X209201033Y-104015000D01*
X208878967Y-104015000D01*
X208563088Y-104077832D01*
X208265537Y-104201082D01*
X207997748Y-104380013D01*
X207770013Y-104607748D01*
X207591082Y-104875537D01*
X207467832Y-105173088D01*
X207405000Y-105488967D01*
X207405000Y-105811033D01*
X207467832Y-106126912D01*
X207591082Y-106424463D01*
X207770013Y-106692252D01*
X207997748Y-106919987D01*
X208265537Y-107098918D01*
X208532200Y-107209374D01*
X208532200Y-110163870D01*
X208396912Y-110107832D01*
X208081033Y-110045000D01*
X207758967Y-110045000D01*
X207443088Y-110107832D01*
X207145537Y-110231082D01*
X206877748Y-110410013D01*
X206650013Y-110637748D01*
X206471082Y-110905537D01*
X206465091Y-110920000D01*
X202874909Y-110920000D01*
X202868918Y-110905537D01*
X202689987Y-110637748D01*
X202462252Y-110410013D01*
X202194463Y-110231082D01*
X201896912Y-110107832D01*
X201581033Y-110045000D01*
X201258967Y-110045000D01*
X200943088Y-110107832D01*
X200928624Y-110113823D01*
X200422604Y-109607803D01*
X200398801Y-109578799D01*
X200283076Y-109483826D01*
X200151047Y-109413254D01*
X200007786Y-109369797D01*
X199896133Y-109358800D01*
X199896122Y-109358800D01*
X199858800Y-109355124D01*
X199821478Y-109358800D01*
X184276723Y-109358800D01*
X184239400Y-109355124D01*
X184202077Y-109358800D01*
X184202067Y-109358800D01*
X184090414Y-109369797D01*
X183947153Y-109413254D01*
X183815123Y-109483826D01*
X183777383Y-109514799D01*
X183699399Y-109578799D01*
X183675601Y-109607798D01*
X183214299Y-110069100D01*
X178257972Y-110069100D01*
X178257972Y-108780001D01*
X178245712Y-108655519D01*
X178209402Y-108535821D01*
X178150437Y-108425507D01*
X178071085Y-108328816D01*
X177974394Y-108249464D01*
X177864080Y-108190499D01*
X177791520Y-108168488D01*
X177923375Y-108036633D01*
X178085890Y-107793412D01*
X178197832Y-107523159D01*
X178254900Y-107236261D01*
X178254900Y-106943741D01*
X178197832Y-106656843D01*
X178085890Y-106386590D01*
X177923375Y-106143369D01*
X177716532Y-105936526D01*
X177542140Y-105820001D01*
X177716532Y-105703476D01*
X177923375Y-105496633D01*
X178085890Y-105253412D01*
X178197832Y-104983159D01*
X178254900Y-104696261D01*
X178254900Y-104403741D01*
X178197832Y-104116843D01*
X178085890Y-103846590D01*
X177923375Y-103603369D01*
X177716532Y-103396526D01*
X177542140Y-103280001D01*
X177716532Y-103163476D01*
X177923375Y-102956633D01*
X178085890Y-102713412D01*
X178197832Y-102443159D01*
X178254900Y-102156261D01*
X178254900Y-101863741D01*
X178197832Y-101576843D01*
X178131126Y-101415800D01*
X202274201Y-101415800D01*
X202274200Y-104106877D01*
X202270524Y-104144200D01*
X202274200Y-104181522D01*
X202274200Y-104181532D01*
X202285197Y-104293185D01*
X202311536Y-104380013D01*
X202328654Y-104436446D01*
X202399226Y-104568476D01*
X202431456Y-104607748D01*
X202494199Y-104684201D01*
X202523203Y-104708004D01*
X202973823Y-105158624D01*
X202967832Y-105173088D01*
X202905000Y-105488967D01*
X202905000Y-105811033D01*
X202967832Y-106126912D01*
X203091082Y-106424463D01*
X203270013Y-106692252D01*
X203497748Y-106919987D01*
X203765537Y-107098918D01*
X204063088Y-107222168D01*
X204378967Y-107285000D01*
X204701033Y-107285000D01*
X205016912Y-107222168D01*
X205314463Y-107098918D01*
X205582252Y-106919987D01*
X205809987Y-106692252D01*
X205988918Y-106424463D01*
X206112168Y-106126912D01*
X206175000Y-105811033D01*
X206175000Y-105488967D01*
X206112168Y-105173088D01*
X205988918Y-104875537D01*
X205809987Y-104607748D01*
X205582252Y-104380013D01*
X205314463Y-104201082D01*
X205016912Y-104077832D01*
X204701033Y-104015000D01*
X204378967Y-104015000D01*
X204063088Y-104077832D01*
X204048624Y-104083823D01*
X203794200Y-103829399D01*
X203794200Y-100970601D01*
X204048624Y-100716177D01*
X204063088Y-100722168D01*
X204378967Y-100785000D01*
X204701033Y-100785000D01*
X205016912Y-100722168D01*
X205314463Y-100598918D01*
X205582252Y-100419987D01*
X205809987Y-100192252D01*
X205988918Y-99924463D01*
X206112168Y-99626912D01*
X206175000Y-99311033D01*
X206175000Y-98988967D01*
X207405000Y-98988967D01*
X207405000Y-99311033D01*
X207467832Y-99626912D01*
X207591082Y-99924463D01*
X207770013Y-100192252D01*
X207997748Y-100419987D01*
X208265537Y-100598918D01*
X208563088Y-100722168D01*
X208878967Y-100785000D01*
X209201033Y-100785000D01*
X209516912Y-100722168D01*
X209814463Y-100598918D01*
X210082252Y-100419987D01*
X210309987Y-100192252D01*
X210488918Y-99924463D01*
X210575570Y-99715267D01*
X210587832Y-99776912D01*
X210711082Y-100074463D01*
X210890013Y-100342252D01*
X211117748Y-100569987D01*
X211385537Y-100748918D01*
X211683088Y-100872168D01*
X211998967Y-100935000D01*
X212321033Y-100935000D01*
X212636912Y-100872168D01*
X212934463Y-100748918D01*
X213202252Y-100569987D01*
X213429987Y-100342252D01*
X213608918Y-100074463D01*
X213732168Y-99776912D01*
X213795000Y-99461033D01*
X213795000Y-99138967D01*
X215025000Y-99138967D01*
X215025000Y-99461033D01*
X215087832Y-99776912D01*
X215211082Y-100074463D01*
X215390013Y-100342252D01*
X215617748Y-100569987D01*
X215885537Y-100748918D01*
X216183088Y-100872168D01*
X216498967Y-100935000D01*
X216821033Y-100935000D01*
X217136912Y-100872168D01*
X217434463Y-100748918D01*
X217702252Y-100569987D01*
X217929987Y-100342252D01*
X218108918Y-100074463D01*
X218232168Y-99776912D01*
X218295000Y-99461033D01*
X218295000Y-99138967D01*
X218232168Y-98823088D01*
X218108918Y-98525537D01*
X217929987Y-98257748D01*
X217702252Y-98030013D01*
X217434463Y-97851082D01*
X217136912Y-97727832D01*
X216821033Y-97665000D01*
X216498967Y-97665000D01*
X216183088Y-97727832D01*
X215885537Y-97851082D01*
X215617748Y-98030013D01*
X215390013Y-98257748D01*
X215211082Y-98525537D01*
X215087832Y-98823088D01*
X215025000Y-99138967D01*
X213795000Y-99138967D01*
X213732168Y-98823088D01*
X213608918Y-98525537D01*
X213429987Y-98257748D01*
X213202252Y-98030013D01*
X212934463Y-97851082D01*
X212636912Y-97727832D01*
X212321033Y-97665000D01*
X211998967Y-97665000D01*
X211683088Y-97727832D01*
X211385537Y-97851082D01*
X211117748Y-98030013D01*
X210890013Y-98257748D01*
X210711082Y-98525537D01*
X210624430Y-98734733D01*
X210612168Y-98673088D01*
X210488918Y-98375537D01*
X210309987Y-98107748D01*
X210082252Y-97880013D01*
X209814463Y-97701082D01*
X209516912Y-97577832D01*
X209201033Y-97515000D01*
X208878967Y-97515000D01*
X208563088Y-97577832D01*
X208265537Y-97701082D01*
X207997748Y-97880013D01*
X207770013Y-98107748D01*
X207591082Y-98375537D01*
X207467832Y-98673088D01*
X207405000Y-98988967D01*
X206175000Y-98988967D01*
X206112168Y-98673088D01*
X205988918Y-98375537D01*
X205809987Y-98107748D01*
X205582252Y-97880013D01*
X205314463Y-97701082D01*
X205016912Y-97577832D01*
X204701033Y-97515000D01*
X204378967Y-97515000D01*
X204063088Y-97577832D01*
X203765537Y-97701082D01*
X203497748Y-97880013D01*
X203270013Y-98107748D01*
X203091082Y-98375537D01*
X202967832Y-98673088D01*
X202955570Y-98734733D01*
X202868918Y-98525537D01*
X202689987Y-98257748D01*
X202462252Y-98030013D01*
X202194463Y-97851082D01*
X201896912Y-97727832D01*
X201581033Y-97665000D01*
X201258967Y-97665000D01*
X200943088Y-97727832D01*
X200928624Y-97733823D01*
X200342900Y-97148099D01*
X200342900Y-94951901D01*
X200928624Y-94366177D01*
X200943088Y-94372168D01*
X201258967Y-94435000D01*
X201581033Y-94435000D01*
X201896912Y-94372168D01*
X202194463Y-94248918D01*
X202462252Y-94069987D01*
X202689987Y-93842252D01*
X202868918Y-93574463D01*
X202955570Y-93365267D01*
X202967832Y-93426912D01*
X203091082Y-93724463D01*
X203270013Y-93992252D01*
X203497748Y-94219987D01*
X203765537Y-94398918D01*
X204063088Y-94522168D01*
X204378967Y-94585000D01*
X204701033Y-94585000D01*
X205016912Y-94522168D01*
X205314463Y-94398918D01*
X205582252Y-94219987D01*
X205809987Y-93992252D01*
X205988918Y-93724463D01*
X206112168Y-93426912D01*
X206175000Y-93111033D01*
X206175000Y-92788967D01*
X206112168Y-92473088D01*
X205998430Y-92198500D01*
X207581570Y-92198500D01*
X207467832Y-92473088D01*
X207405000Y-92788967D01*
X207405000Y-93111033D01*
X207467832Y-93426912D01*
X207591082Y-93724463D01*
X207770013Y-93992252D01*
X207997748Y-94219987D01*
X208265537Y-94398918D01*
X208563088Y-94522168D01*
X208878967Y-94585000D01*
X209201033Y-94585000D01*
X209516912Y-94522168D01*
X209814463Y-94398918D01*
X210082252Y-94219987D01*
X210309987Y-93992252D01*
X210488918Y-93724463D01*
X210612168Y-93426912D01*
X210624430Y-93365267D01*
X210711082Y-93574463D01*
X210890013Y-93842252D01*
X211117748Y-94069987D01*
X211385537Y-94248918D01*
X211683088Y-94372168D01*
X211998967Y-94435000D01*
X212321033Y-94435000D01*
X212636912Y-94372168D01*
X212934463Y-94248918D01*
X213202252Y-94069987D01*
X213429987Y-93842252D01*
X213608918Y-93574463D01*
X213732168Y-93276912D01*
X213795000Y-92961033D01*
X213795000Y-92638967D01*
X215025000Y-92638967D01*
X215025000Y-92961033D01*
X215087832Y-93276912D01*
X215211082Y-93574463D01*
X215390013Y-93842252D01*
X215617748Y-94069987D01*
X215885537Y-94248918D01*
X216183088Y-94372168D01*
X216498967Y-94435000D01*
X216821033Y-94435000D01*
X217136912Y-94372168D01*
X217434463Y-94248918D01*
X217702252Y-94069987D01*
X217929987Y-93842252D01*
X218108918Y-93574463D01*
X218232168Y-93276912D01*
X218295000Y-92961033D01*
X218295000Y-92638967D01*
X218232168Y-92323088D01*
X218108918Y-92025537D01*
X217929987Y-91757748D01*
X217702252Y-91530013D01*
X217434463Y-91351082D01*
X217136912Y-91227832D01*
X216821033Y-91165000D01*
X216498967Y-91165000D01*
X216183088Y-91227832D01*
X215885537Y-91351082D01*
X215617748Y-91530013D01*
X215390013Y-91757748D01*
X215211082Y-92025537D01*
X215087832Y-92323088D01*
X215025000Y-92638967D01*
X213795000Y-92638967D01*
X213732168Y-92323088D01*
X213608918Y-92025537D01*
X213429987Y-91757748D01*
X213202252Y-91530013D01*
X212934463Y-91351082D01*
X212636912Y-91227832D01*
X212321033Y-91165000D01*
X211998967Y-91165000D01*
X211683088Y-91227832D01*
X211668624Y-91233823D01*
X211362304Y-90927503D01*
X211338501Y-90898499D01*
X211222776Y-90803526D01*
X211090747Y-90732954D01*
X210947486Y-90689497D01*
X210835833Y-90678500D01*
X210835822Y-90678500D01*
X210798500Y-90674824D01*
X210761178Y-90678500D01*
X195601322Y-90678500D01*
X195563999Y-90674824D01*
X195526676Y-90678500D01*
X195526667Y-90678500D01*
X195415014Y-90689497D01*
X195271753Y-90732954D01*
X195139723Y-90803526D01*
X195071853Y-90859226D01*
X195023999Y-90898499D01*
X195000201Y-90927497D01*
X193643399Y-92284300D01*
X178197359Y-92284300D01*
X178197832Y-92283159D01*
X178254900Y-91996261D01*
X178254900Y-91703741D01*
X178197832Y-91416843D01*
X178085890Y-91146590D01*
X177923375Y-90903369D01*
X177716532Y-90696526D01*
X177542140Y-90580001D01*
X177716532Y-90463476D01*
X177923375Y-90256633D01*
X178085890Y-90013412D01*
X178197832Y-89743159D01*
X178254900Y-89456261D01*
X178254900Y-89163741D01*
X178197832Y-88876843D01*
X178085890Y-88606590D01*
X177923375Y-88363369D01*
X177918604Y-88358598D01*
X178482202Y-87794999D01*
X178511201Y-87771201D01*
X178565083Y-87705546D01*
X178606174Y-87655477D01*
X178676746Y-87523447D01*
X178686209Y-87492252D01*
X178720203Y-87380186D01*
X178731200Y-87268533D01*
X178731200Y-87268523D01*
X178734876Y-87231200D01*
X178731200Y-87193877D01*
X178731200Y-86288967D01*
X202905000Y-86288967D01*
X202905000Y-86611033D01*
X202967832Y-86926912D01*
X203091082Y-87224463D01*
X203270013Y-87492252D01*
X203497748Y-87719987D01*
X203765537Y-87898918D01*
X204063088Y-88022168D01*
X204378967Y-88085000D01*
X204701033Y-88085000D01*
X205016912Y-88022168D01*
X205314463Y-87898918D01*
X205582252Y-87719987D01*
X205809987Y-87492252D01*
X205988918Y-87224463D01*
X206112168Y-86926912D01*
X206175000Y-86611033D01*
X206175000Y-86288967D01*
X207405000Y-86288967D01*
X207405000Y-86611033D01*
X207467832Y-86926912D01*
X207591082Y-87224463D01*
X207770013Y-87492252D01*
X207997748Y-87719987D01*
X208265537Y-87898918D01*
X208563088Y-88022168D01*
X208878967Y-88085000D01*
X209201033Y-88085000D01*
X209516912Y-88022168D01*
X209814463Y-87898918D01*
X210082252Y-87719987D01*
X210309987Y-87492252D01*
X210488918Y-87224463D01*
X210612168Y-86926912D01*
X210675000Y-86611033D01*
X210675000Y-86288967D01*
X210612168Y-85973088D01*
X210488918Y-85675537D01*
X210309987Y-85407748D01*
X210082252Y-85180013D01*
X209814463Y-85001082D01*
X209516912Y-84877832D01*
X209201033Y-84815000D01*
X208878967Y-84815000D01*
X208563088Y-84877832D01*
X208265537Y-85001082D01*
X207997748Y-85180013D01*
X207770013Y-85407748D01*
X207591082Y-85675537D01*
X207467832Y-85973088D01*
X207405000Y-86288967D01*
X206175000Y-86288967D01*
X206112168Y-85973088D01*
X205988918Y-85675537D01*
X205809987Y-85407748D01*
X205582252Y-85180013D01*
X205314463Y-85001082D01*
X205016912Y-84877832D01*
X204701033Y-84815000D01*
X204378967Y-84815000D01*
X204063088Y-84877832D01*
X203765537Y-85001082D01*
X203497748Y-85180013D01*
X203270013Y-85407748D01*
X203091082Y-85675537D01*
X202967832Y-85973088D01*
X202905000Y-86288967D01*
X178731200Y-86288967D01*
X178731200Y-86276622D01*
X178734876Y-86239299D01*
X178731200Y-86201976D01*
X178731200Y-86201967D01*
X178720203Y-86090314D01*
X178676746Y-85947053D01*
X178659622Y-85915016D01*
X178606174Y-85815023D01*
X178534999Y-85728297D01*
X178511201Y-85699299D01*
X178482204Y-85675502D01*
X177947391Y-85140690D01*
X178085890Y-84933412D01*
X178197832Y-84663159D01*
X178254900Y-84376261D01*
X178254900Y-84083741D01*
X178197832Y-83796843D01*
X178085890Y-83526590D01*
X177923375Y-83283369D01*
X177716532Y-83076526D01*
X177542140Y-82960001D01*
X177716532Y-82843476D01*
X177923375Y-82636633D01*
X178085890Y-82393412D01*
X178157834Y-82219721D01*
X216865000Y-82219721D01*
X216865000Y-82640279D01*
X216947047Y-83052756D01*
X217107988Y-83441302D01*
X217341637Y-83790983D01*
X217639017Y-84088363D01*
X217988698Y-84322012D01*
X218377244Y-84482953D01*
X218789721Y-84565000D01*
X219210279Y-84565000D01*
X219622756Y-84482953D01*
X220011302Y-84322012D01*
X220360983Y-84088363D01*
X220658363Y-83790983D01*
X220892012Y-83441302D01*
X221052953Y-83052756D01*
X221135000Y-82640279D01*
X221135000Y-82219721D01*
X221052953Y-81807244D01*
X220892012Y-81418698D01*
X220658363Y-81069017D01*
X220360983Y-80771637D01*
X220011302Y-80537988D01*
X219622756Y-80377047D01*
X219210279Y-80295000D01*
X218789721Y-80295000D01*
X218377244Y-80377047D01*
X217988698Y-80537988D01*
X217639017Y-80771637D01*
X217341637Y-81069017D01*
X217107988Y-81418698D01*
X216947047Y-81807244D01*
X216865000Y-82219721D01*
X178157834Y-82219721D01*
X178197832Y-82123159D01*
X178254900Y-81836261D01*
X178254900Y-81543741D01*
X178197832Y-81256843D01*
X178085890Y-80986590D01*
X177946029Y-80777272D01*
X192736403Y-65986899D01*
X192765401Y-65963101D01*
X192827201Y-65887798D01*
X192860374Y-65847377D01*
X192930946Y-65715347D01*
X192945585Y-65667087D01*
X192974403Y-65572086D01*
X192979560Y-65519721D01*
X198415000Y-65519721D01*
X198415000Y-65940279D01*
X198497047Y-66352756D01*
X198657988Y-66741302D01*
X198891637Y-67090983D01*
X199189017Y-67388363D01*
X199538698Y-67622012D01*
X199927244Y-67782953D01*
X200339721Y-67865000D01*
X200760279Y-67865000D01*
X201172756Y-67782953D01*
X201561302Y-67622012D01*
X201910983Y-67388363D01*
X202208363Y-67090983D01*
X202442012Y-66741302D01*
X202602953Y-66352756D01*
X202685000Y-65940279D01*
X202685000Y-65519721D01*
X202602953Y-65107244D01*
X202442012Y-64718698D01*
X202208363Y-64369017D01*
X201910983Y-64071637D01*
X201561302Y-63837988D01*
X201172756Y-63677047D01*
X200760279Y-63595000D01*
X200339721Y-63595000D01*
X199927244Y-63677047D01*
X199538698Y-63837988D01*
X199189017Y-64071637D01*
X198891637Y-64369017D01*
X198657988Y-64718698D01*
X198497047Y-65107244D01*
X198415000Y-65519721D01*
X192979560Y-65519721D01*
X192985400Y-65460433D01*
X192985400Y-65460423D01*
X192989076Y-65423100D01*
X192985400Y-65385777D01*
X192985400Y-61708022D01*
X192989076Y-61670699D01*
X192985400Y-61633376D01*
X192985400Y-61633367D01*
X192974403Y-61521714D01*
X192930946Y-61378453D01*
X192899415Y-61319463D01*
X192860374Y-61246423D01*
X192789199Y-61159697D01*
X192765401Y-61130699D01*
X192736404Y-61106902D01*
X191448504Y-59819003D01*
X191424701Y-59789999D01*
X191308976Y-59695026D01*
X191176947Y-59624454D01*
X191033686Y-59580997D01*
X190922033Y-59570000D01*
X190922022Y-59570000D01*
X190884700Y-59566324D01*
X190847378Y-59570000D01*
X189828529Y-59570000D01*
X189835000Y-59511750D01*
X189802753Y-59479503D01*
X189795928Y-59457002D01*
X189835000Y-59457002D01*
X189835000Y-59448072D01*
X191900000Y-59448072D01*
X192024482Y-59435812D01*
X192144180Y-59399502D01*
X192254494Y-59340537D01*
X192351185Y-59261185D01*
X192430537Y-59164494D01*
X192489502Y-59054180D01*
X192525812Y-58934482D01*
X192538072Y-58810000D01*
X192538072Y-56689200D01*
X211234599Y-56689200D01*
X211370822Y-56825423D01*
X211246853Y-56876772D01*
X210970875Y-57061175D01*
X210736175Y-57295875D01*
X210551772Y-57571853D01*
X210424754Y-57878504D01*
X210360000Y-58204042D01*
X210360000Y-58535958D01*
X210424754Y-58861496D01*
X210551772Y-59168147D01*
X210736175Y-59444125D01*
X210970875Y-59678825D01*
X211246853Y-59863228D01*
X211553504Y-59990246D01*
X211879042Y-60055000D01*
X212210958Y-60055000D01*
X212536496Y-59990246D01*
X212843147Y-59863228D01*
X213119125Y-59678825D01*
X213353825Y-59444125D01*
X213538228Y-59168147D01*
X213665246Y-58861496D01*
X213730000Y-58535958D01*
X213730000Y-58204042D01*
X213665246Y-57878504D01*
X213656173Y-57856600D01*
X216551078Y-57856600D01*
X216588400Y-57860276D01*
X216625722Y-57856600D01*
X216625733Y-57856600D01*
X216737386Y-57845603D01*
X216880647Y-57802146D01*
X217012676Y-57731574D01*
X217128401Y-57636601D01*
X217152204Y-57607597D01*
X217417331Y-57342470D01*
X217656278Y-57390000D01*
X217683283Y-57390000D01*
X217561772Y-57571853D01*
X217434754Y-57878504D01*
X217370000Y-58204042D01*
X217370000Y-58535958D01*
X217434754Y-58861496D01*
X217561772Y-59168147D01*
X217746175Y-59444125D01*
X217980875Y-59678825D01*
X218256853Y-59863228D01*
X218563504Y-59990246D01*
X218889042Y-60055000D01*
X219220958Y-60055000D01*
X219546496Y-59990246D01*
X219853147Y-59863228D01*
X220129125Y-59678825D01*
X220363825Y-59444125D01*
X220548228Y-59168147D01*
X220675246Y-58861496D01*
X220740000Y-58535958D01*
X220740000Y-58204042D01*
X220675246Y-57878504D01*
X220548228Y-57571853D01*
X220363825Y-57295875D01*
X220129125Y-57061175D01*
X219853147Y-56876772D01*
X219546496Y-56749754D01*
X219220958Y-56685000D01*
X219083177Y-56685000D01*
X219143144Y-56595253D01*
X219256971Y-56320451D01*
X219315000Y-56028722D01*
X219315000Y-55731278D01*
X219256971Y-55439549D01*
X219143144Y-55164747D01*
X218977893Y-54917431D01*
X218767569Y-54707107D01*
X218520253Y-54541856D01*
X218245451Y-54428029D01*
X217953722Y-54370000D01*
X217656278Y-54370000D01*
X217364549Y-54428029D01*
X217089747Y-54541856D01*
X216842431Y-54707107D01*
X216632107Y-54917431D01*
X216466856Y-55164747D01*
X216353029Y-55439549D01*
X216295000Y-55731278D01*
X216295000Y-56028722D01*
X216342530Y-56267669D01*
X216273599Y-56336600D01*
X214750282Y-56336600D01*
X214756971Y-56320451D01*
X214815000Y-56028722D01*
X214815000Y-55731278D01*
X214756971Y-55439549D01*
X214643144Y-55164747D01*
X214477893Y-54917431D01*
X214267569Y-54707107D01*
X214020253Y-54541856D01*
X213745451Y-54428029D01*
X213453722Y-54370000D01*
X213156278Y-54370000D01*
X212864549Y-54428029D01*
X212589747Y-54541856D01*
X212342431Y-54707107D01*
X212132107Y-54917431D01*
X211966856Y-55164747D01*
X211924182Y-55267771D01*
X211841647Y-55223654D01*
X211698386Y-55180197D01*
X211586733Y-55169200D01*
X211586722Y-55169200D01*
X211549400Y-55165524D01*
X211512078Y-55169200D01*
X187549100Y-55169200D01*
X187669556Y-55119305D01*
X187839074Y-55006037D01*
X187983237Y-54861874D01*
X188096505Y-54692356D01*
X188174526Y-54503998D01*
X188214300Y-54304039D01*
X188214300Y-54100161D01*
X188174526Y-53900202D01*
X188096505Y-53711844D01*
X188085251Y-53695001D01*
X223079619Y-53695001D01*
X223014921Y-53721800D01*
G37*
X223014921Y-53721800D02*
X222501454Y-54064887D01*
X222064786Y-54501555D01*
X221721699Y-55015022D01*
X221485376Y-55585555D01*
X221364900Y-56191230D01*
X221364900Y-56808772D01*
X221485376Y-57414447D01*
X221721699Y-57984980D01*
X222064786Y-58498447D01*
X222501454Y-58935115D01*
X223014921Y-59278202D01*
X223585454Y-59514525D01*
X224191129Y-59635001D01*
X224808671Y-59635001D01*
X225414346Y-59514525D01*
X225984879Y-59278202D01*
X226498346Y-58935115D01*
X226935014Y-58498447D01*
X227278101Y-57984980D01*
X227304901Y-57920279D01*
X227304900Y-113103151D01*
X227294204Y-113077329D01*
X227235240Y-112967015D01*
X226962963Y-112559524D01*
X226883611Y-112462833D01*
X226537068Y-112116290D01*
X226440377Y-112036938D01*
X226032886Y-111764661D01*
X225922572Y-111705697D01*
X225469792Y-111518149D01*
X225350094Y-111481838D01*
X224869425Y-111386227D01*
X224744943Y-111373967D01*
X224254857Y-111373967D01*
X224130375Y-111386227D01*
X223649706Y-111481838D01*
X223530008Y-111518149D01*
X223077228Y-111705697D01*
X222966914Y-111764661D01*
X222559423Y-112036938D01*
X222462732Y-112116290D01*
X222116189Y-112462833D01*
X222036837Y-112559524D01*
X221764560Y-112967015D01*
X221705596Y-113077329D01*
X221518048Y-113530109D01*
X221481737Y-113649807D01*
X221386126Y-114130476D01*
X221373866Y-114254958D01*
X221373866Y-114745044D01*
X221386126Y-114869526D01*
X221481737Y-115350195D01*
X221518048Y-115469893D01*
X221705596Y-115922673D01*
X221764560Y-116032987D01*
X222036837Y-116440478D01*
X222116189Y-116537169D01*
X222462732Y-116883712D01*
X222559423Y-116963064D01*
X222966914Y-117235341D01*
X223077228Y-117294305D01*
X223103053Y-117305002D01*
X220537237Y-117305002D01*
X220619987Y-117222252D01*
X220798918Y-116954463D01*
X220922168Y-116656912D01*
X220985000Y-116341033D01*
X220985000Y-116018967D01*
X220922168Y-115703088D01*
X220798918Y-115405537D01*
X220619987Y-115137748D01*
X220392252Y-114910013D01*
X220124463Y-114731082D01*
X219826912Y-114607832D01*
X219511033Y-114545000D01*
X219188967Y-114545000D01*
X218873088Y-114607832D01*
X218575537Y-114731082D01*
X218307748Y-114910013D01*
X218080013Y-115137748D01*
X217901082Y-115405537D01*
X217895091Y-115420000D01*
X214304909Y-115420000D01*
X214298918Y-115405537D01*
X214119987Y-115137748D01*
X213892252Y-114910013D01*
X213624463Y-114731082D01*
X213326912Y-114607832D01*
X213011033Y-114545000D01*
X212688967Y-114545000D01*
X212373088Y-114607832D01*
X212358624Y-114613823D01*
X212041604Y-114296803D01*
X212017801Y-114267799D01*
X211902076Y-114172826D01*
X211770047Y-114102254D01*
X211626786Y-114058797D01*
X211515133Y-114047800D01*
X211515122Y-114047800D01*
X211477800Y-114044124D01*
X211440478Y-114047800D01*
X210052200Y-114047800D01*
X210052200Y-111518967D01*
X211215000Y-111518967D01*
X211215000Y-111841033D01*
X211277832Y-112156912D01*
X211401082Y-112454463D01*
X211580013Y-112722252D01*
X211807748Y-112949987D01*
X212075537Y-113128918D01*
X212373088Y-113252168D01*
X212688967Y-113315000D01*
X213011033Y-113315000D01*
X213326912Y-113252168D01*
X213624463Y-113128918D01*
X213892252Y-112949987D01*
X214119987Y-112722252D01*
X214298918Y-112454463D01*
X214304909Y-112440000D01*
X217895091Y-112440000D01*
X217901082Y-112454463D01*
X218080013Y-112722252D01*
X218307748Y-112949987D01*
X218575537Y-113128918D01*
X218873088Y-113252168D01*
X219188967Y-113315000D01*
X219511033Y-113315000D01*
X219826912Y-113252168D01*
X220124463Y-113128918D01*
X220392252Y-112949987D01*
X220619987Y-112722252D01*
X220798918Y-112454463D01*
X220922168Y-112156912D01*
X220985000Y-111841033D01*
X220985000Y-111518967D01*
X220922168Y-111203088D01*
X220798918Y-110905537D01*
X220619987Y-110637748D01*
X220392252Y-110410013D01*
X220124463Y-110231082D01*
X219826912Y-110107832D01*
X219511033Y-110045000D01*
X219188967Y-110045000D01*
X218873088Y-110107832D01*
X218575537Y-110231082D01*
X218307748Y-110410013D01*
X218080013Y-110637748D01*
X217901082Y-110905537D01*
X217895091Y-110920000D01*
X214304909Y-110920000D01*
X214298918Y-110905537D01*
X214119987Y-110637748D01*
X213892252Y-110410013D01*
X213624463Y-110231082D01*
X213326912Y-110107832D01*
X213011033Y-110045000D01*
X212688967Y-110045000D01*
X212373088Y-110107832D01*
X212075537Y-110231082D01*
X211807748Y-110410013D01*
X211580013Y-110637748D01*
X211401082Y-110905537D01*
X211277832Y-111203088D01*
X211215000Y-111518967D01*
X210052200Y-111518967D01*
X210052200Y-106940067D01*
X210082252Y-106919987D01*
X210309987Y-106692252D01*
X210488918Y-106424463D01*
X210612168Y-106126912D01*
X210675000Y-105811033D01*
X210675000Y-105488967D01*
X210612168Y-105173088D01*
X210488918Y-104875537D01*
X210309987Y-104607748D01*
X210082252Y-104380013D01*
X209814463Y-104201082D01*
X209516912Y-104077832D01*
X209201033Y-104015000D01*
X208878967Y-104015000D01*
X208563088Y-104077832D01*
X208265537Y-104201082D01*
X207997748Y-104380013D01*
X207770013Y-104607748D01*
X207591082Y-104875537D01*
X207467832Y-105173088D01*
X207405000Y-105488967D01*
X207405000Y-105811033D01*
X207467832Y-106126912D01*
X207591082Y-106424463D01*
X207770013Y-106692252D01*
X207997748Y-106919987D01*
X208265537Y-107098918D01*
X208532200Y-107209374D01*
X208532200Y-110163870D01*
X208396912Y-110107832D01*
X208081033Y-110045000D01*
X207758967Y-110045000D01*
X207443088Y-110107832D01*
X207145537Y-110231082D01*
X206877748Y-110410013D01*
X206650013Y-110637748D01*
X206471082Y-110905537D01*
X206465091Y-110920000D01*
X202874909Y-110920000D01*
X202868918Y-110905537D01*
X202689987Y-110637748D01*
X202462252Y-110410013D01*
X202194463Y-110231082D01*
X201896912Y-110107832D01*
X201581033Y-110045000D01*
X201258967Y-110045000D01*
X200943088Y-110107832D01*
X200928624Y-110113823D01*
X200422604Y-109607803D01*
X200398801Y-109578799D01*
X200283076Y-109483826D01*
X200151047Y-109413254D01*
X200007786Y-109369797D01*
X199896133Y-109358800D01*
X199896122Y-109358800D01*
X199858800Y-109355124D01*
X199821478Y-109358800D01*
X184276723Y-109358800D01*
X184239400Y-109355124D01*
X184202077Y-109358800D01*
X184202067Y-109358800D01*
X184090414Y-109369797D01*
X183947153Y-109413254D01*
X183815123Y-109483826D01*
X183777383Y-109514799D01*
X183699399Y-109578799D01*
X183675601Y-109607798D01*
X183214299Y-110069100D01*
X178257972Y-110069100D01*
X178257972Y-108780001D01*
X178245712Y-108655519D01*
X178209402Y-108535821D01*
X178150437Y-108425507D01*
X178071085Y-108328816D01*
X177974394Y-108249464D01*
X177864080Y-108190499D01*
X177791520Y-108168488D01*
X177923375Y-108036633D01*
X178085890Y-107793412D01*
X178197832Y-107523159D01*
X178254900Y-107236261D01*
X178254900Y-106943741D01*
X178197832Y-106656843D01*
X178085890Y-106386590D01*
X177923375Y-106143369D01*
X177716532Y-105936526D01*
X177542140Y-105820001D01*
X177716532Y-105703476D01*
X177923375Y-105496633D01*
X178085890Y-105253412D01*
X178197832Y-104983159D01*
X178254900Y-104696261D01*
X178254900Y-104403741D01*
X178197832Y-104116843D01*
X178085890Y-103846590D01*
X177923375Y-103603369D01*
X177716532Y-103396526D01*
X177542140Y-103280001D01*
X177716532Y-103163476D01*
X177923375Y-102956633D01*
X178085890Y-102713412D01*
X178197832Y-102443159D01*
X178254900Y-102156261D01*
X178254900Y-101863741D01*
X178197832Y-101576843D01*
X178131126Y-101415800D01*
X202274201Y-101415800D01*
X202274200Y-104106877D01*
X202270524Y-104144200D01*
X202274200Y-104181522D01*
X202274200Y-104181532D01*
X202285197Y-104293185D01*
X202311536Y-104380013D01*
X202328654Y-104436446D01*
X202399226Y-104568476D01*
X202431456Y-104607748D01*
X202494199Y-104684201D01*
X202523203Y-104708004D01*
X202973823Y-105158624D01*
X202967832Y-105173088D01*
X202905000Y-105488967D01*
X202905000Y-105811033D01*
X202967832Y-106126912D01*
X203091082Y-106424463D01*
X203270013Y-106692252D01*
X203497748Y-106919987D01*
X203765537Y-107098918D01*
X204063088Y-107222168D01*
X204378967Y-107285000D01*
X204701033Y-107285000D01*
X205016912Y-107222168D01*
X205314463Y-107098918D01*
X205582252Y-106919987D01*
X205809987Y-106692252D01*
X205988918Y-106424463D01*
X206112168Y-106126912D01*
X206175000Y-105811033D01*
X206175000Y-105488967D01*
X206112168Y-105173088D01*
X205988918Y-104875537D01*
X205809987Y-104607748D01*
X205582252Y-104380013D01*
X205314463Y-104201082D01*
X205016912Y-104077832D01*
X204701033Y-104015000D01*
X204378967Y-104015000D01*
X204063088Y-104077832D01*
X204048624Y-104083823D01*
X203794200Y-103829399D01*
X203794200Y-100970601D01*
X204048624Y-100716177D01*
X204063088Y-100722168D01*
X204378967Y-100785000D01*
X204701033Y-100785000D01*
X205016912Y-100722168D01*
X205314463Y-100598918D01*
X205582252Y-100419987D01*
X205809987Y-100192252D01*
X205988918Y-99924463D01*
X206112168Y-99626912D01*
X206175000Y-99311033D01*
X206175000Y-98988967D01*
X207405000Y-98988967D01*
X207405000Y-99311033D01*
X207467832Y-99626912D01*
X207591082Y-99924463D01*
X207770013Y-100192252D01*
X207997748Y-100419987D01*
X208265537Y-100598918D01*
X208563088Y-100722168D01*
X208878967Y-100785000D01*
X209201033Y-100785000D01*
X209516912Y-100722168D01*
X209814463Y-100598918D01*
X210082252Y-100419987D01*
X210309987Y-100192252D01*
X210488918Y-99924463D01*
X210575570Y-99715267D01*
X210587832Y-99776912D01*
X210711082Y-100074463D01*
X210890013Y-100342252D01*
X211117748Y-100569987D01*
X211385537Y-100748918D01*
X211683088Y-100872168D01*
X211998967Y-100935000D01*
X212321033Y-100935000D01*
X212636912Y-100872168D01*
X212934463Y-100748918D01*
X213202252Y-100569987D01*
X213429987Y-100342252D01*
X213608918Y-100074463D01*
X213732168Y-99776912D01*
X213795000Y-99461033D01*
X213795000Y-99138967D01*
X215025000Y-99138967D01*
X215025000Y-99461033D01*
X215087832Y-99776912D01*
X215211082Y-100074463D01*
X215390013Y-100342252D01*
X215617748Y-100569987D01*
X215885537Y-100748918D01*
X216183088Y-100872168D01*
X216498967Y-100935000D01*
X216821033Y-100935000D01*
X217136912Y-100872168D01*
X217434463Y-100748918D01*
X217702252Y-100569987D01*
X217929987Y-100342252D01*
X218108918Y-100074463D01*
X218232168Y-99776912D01*
X218295000Y-99461033D01*
X218295000Y-99138967D01*
X218232168Y-98823088D01*
X218108918Y-98525537D01*
X217929987Y-98257748D01*
X217702252Y-98030013D01*
X217434463Y-97851082D01*
X217136912Y-97727832D01*
X216821033Y-97665000D01*
X216498967Y-97665000D01*
X216183088Y-97727832D01*
X215885537Y-97851082D01*
X215617748Y-98030013D01*
X215390013Y-98257748D01*
X215211082Y-98525537D01*
X215087832Y-98823088D01*
X215025000Y-99138967D01*
X213795000Y-99138967D01*
X213732168Y-98823088D01*
X213608918Y-98525537D01*
X213429987Y-98257748D01*
X213202252Y-98030013D01*
X212934463Y-97851082D01*
X212636912Y-97727832D01*
X212321033Y-97665000D01*
X211998967Y-97665000D01*
X211683088Y-97727832D01*
X211385537Y-97851082D01*
X211117748Y-98030013D01*
X210890013Y-98257748D01*
X210711082Y-98525537D01*
X210624430Y-98734733D01*
X210612168Y-98673088D01*
X210488918Y-98375537D01*
X210309987Y-98107748D01*
X210082252Y-97880013D01*
X209814463Y-97701082D01*
X209516912Y-97577832D01*
X209201033Y-97515000D01*
X208878967Y-97515000D01*
X208563088Y-97577832D01*
X208265537Y-97701082D01*
X207997748Y-97880013D01*
X207770013Y-98107748D01*
X207591082Y-98375537D01*
X207467832Y-98673088D01*
X207405000Y-98988967D01*
X206175000Y-98988967D01*
X206112168Y-98673088D01*
X205988918Y-98375537D01*
X205809987Y-98107748D01*
X205582252Y-97880013D01*
X205314463Y-97701082D01*
X205016912Y-97577832D01*
X204701033Y-97515000D01*
X204378967Y-97515000D01*
X204063088Y-97577832D01*
X203765537Y-97701082D01*
X203497748Y-97880013D01*
X203270013Y-98107748D01*
X203091082Y-98375537D01*
X202967832Y-98673088D01*
X202955570Y-98734733D01*
X202868918Y-98525537D01*
X202689987Y-98257748D01*
X202462252Y-98030013D01*
X202194463Y-97851082D01*
X201896912Y-97727832D01*
X201581033Y-97665000D01*
X201258967Y-97665000D01*
X200943088Y-97727832D01*
X200928624Y-97733823D01*
X200342900Y-97148099D01*
X200342900Y-94951901D01*
X200928624Y-94366177D01*
X200943088Y-94372168D01*
X201258967Y-94435000D01*
X201581033Y-94435000D01*
X201896912Y-94372168D01*
X202194463Y-94248918D01*
X202462252Y-94069987D01*
X202689987Y-93842252D01*
X202868918Y-93574463D01*
X202955570Y-93365267D01*
X202967832Y-93426912D01*
X203091082Y-93724463D01*
X203270013Y-93992252D01*
X203497748Y-94219987D01*
X203765537Y-94398918D01*
X204063088Y-94522168D01*
X204378967Y-94585000D01*
X204701033Y-94585000D01*
X205016912Y-94522168D01*
X205314463Y-94398918D01*
X205582252Y-94219987D01*
X205809987Y-93992252D01*
X205988918Y-93724463D01*
X206112168Y-93426912D01*
X206175000Y-93111033D01*
X206175000Y-92788967D01*
X206112168Y-92473088D01*
X205998430Y-92198500D01*
X207581570Y-92198500D01*
X207467832Y-92473088D01*
X207405000Y-92788967D01*
X207405000Y-93111033D01*
X207467832Y-93426912D01*
X207591082Y-93724463D01*
X207770013Y-93992252D01*
X207997748Y-94219987D01*
X208265537Y-94398918D01*
X208563088Y-94522168D01*
X208878967Y-94585000D01*
X209201033Y-94585000D01*
X209516912Y-94522168D01*
X209814463Y-94398918D01*
X210082252Y-94219987D01*
X210309987Y-93992252D01*
X210488918Y-93724463D01*
X210612168Y-93426912D01*
X210624430Y-93365267D01*
X210711082Y-93574463D01*
X210890013Y-93842252D01*
X211117748Y-94069987D01*
X211385537Y-94248918D01*
X211683088Y-94372168D01*
X211998967Y-94435000D01*
X212321033Y-94435000D01*
X212636912Y-94372168D01*
X212934463Y-94248918D01*
X213202252Y-94069987D01*
X213429987Y-93842252D01*
X213608918Y-93574463D01*
X213732168Y-93276912D01*
X213795000Y-92961033D01*
X213795000Y-92638967D01*
X215025000Y-92638967D01*
X215025000Y-92961033D01*
X215087832Y-93276912D01*
X215211082Y-93574463D01*
X215390013Y-93842252D01*
X215617748Y-94069987D01*
X215885537Y-94248918D01*
X216183088Y-94372168D01*
X216498967Y-94435000D01*
X216821033Y-94435000D01*
X217136912Y-94372168D01*
X217434463Y-94248918D01*
X217702252Y-94069987D01*
X217929987Y-93842252D01*
X218108918Y-93574463D01*
X218232168Y-93276912D01*
X218295000Y-92961033D01*
X218295000Y-92638967D01*
X218232168Y-92323088D01*
X218108918Y-92025537D01*
X217929987Y-91757748D01*
X217702252Y-91530013D01*
X217434463Y-91351082D01*
X217136912Y-91227832D01*
X216821033Y-91165000D01*
X216498967Y-91165000D01*
X216183088Y-91227832D01*
X215885537Y-91351082D01*
X215617748Y-91530013D01*
X215390013Y-91757748D01*
X215211082Y-92025537D01*
X215087832Y-92323088D01*
X215025000Y-92638967D01*
X213795000Y-92638967D01*
X213732168Y-92323088D01*
X213608918Y-92025537D01*
X213429987Y-91757748D01*
X213202252Y-91530013D01*
X212934463Y-91351082D01*
X212636912Y-91227832D01*
X212321033Y-91165000D01*
X211998967Y-91165000D01*
X211683088Y-91227832D01*
X211668624Y-91233823D01*
X211362304Y-90927503D01*
X211338501Y-90898499D01*
X211222776Y-90803526D01*
X211090747Y-90732954D01*
X210947486Y-90689497D01*
X210835833Y-90678500D01*
X210835822Y-90678500D01*
X210798500Y-90674824D01*
X210761178Y-90678500D01*
X195601322Y-90678500D01*
X195563999Y-90674824D01*
X195526676Y-90678500D01*
X195526667Y-90678500D01*
X195415014Y-90689497D01*
X195271753Y-90732954D01*
X195139723Y-90803526D01*
X195071853Y-90859226D01*
X195023999Y-90898499D01*
X195000201Y-90927497D01*
X193643399Y-92284300D01*
X178197359Y-92284300D01*
X178197832Y-92283159D01*
X178254900Y-91996261D01*
X178254900Y-91703741D01*
X178197832Y-91416843D01*
X178085890Y-91146590D01*
X177923375Y-90903369D01*
X177716532Y-90696526D01*
X177542140Y-90580001D01*
X177716532Y-90463476D01*
X177923375Y-90256633D01*
X178085890Y-90013412D01*
X178197832Y-89743159D01*
X178254900Y-89456261D01*
X178254900Y-89163741D01*
X178197832Y-88876843D01*
X178085890Y-88606590D01*
X177923375Y-88363369D01*
X177918604Y-88358598D01*
X178482202Y-87794999D01*
X178511201Y-87771201D01*
X178565083Y-87705546D01*
X178606174Y-87655477D01*
X178676746Y-87523447D01*
X178686209Y-87492252D01*
X178720203Y-87380186D01*
X178731200Y-87268533D01*
X178731200Y-87268523D01*
X178734876Y-87231200D01*
X178731200Y-87193877D01*
X178731200Y-86288967D01*
X202905000Y-86288967D01*
X202905000Y-86611033D01*
X202967832Y-86926912D01*
X203091082Y-87224463D01*
X203270013Y-87492252D01*
X203497748Y-87719987D01*
X203765537Y-87898918D01*
X204063088Y-88022168D01*
X204378967Y-88085000D01*
X204701033Y-88085000D01*
X205016912Y-88022168D01*
X205314463Y-87898918D01*
X205582252Y-87719987D01*
X205809987Y-87492252D01*
X205988918Y-87224463D01*
X206112168Y-86926912D01*
X206175000Y-86611033D01*
X206175000Y-86288967D01*
X207405000Y-86288967D01*
X207405000Y-86611033D01*
X207467832Y-86926912D01*
X207591082Y-87224463D01*
X207770013Y-87492252D01*
X207997748Y-87719987D01*
X208265537Y-87898918D01*
X208563088Y-88022168D01*
X208878967Y-88085000D01*
X209201033Y-88085000D01*
X209516912Y-88022168D01*
X209814463Y-87898918D01*
X210082252Y-87719987D01*
X210309987Y-87492252D01*
X210488918Y-87224463D01*
X210612168Y-86926912D01*
X210675000Y-86611033D01*
X210675000Y-86288967D01*
X210612168Y-85973088D01*
X210488918Y-85675537D01*
X210309987Y-85407748D01*
X210082252Y-85180013D01*
X209814463Y-85001082D01*
X209516912Y-84877832D01*
X209201033Y-84815000D01*
X208878967Y-84815000D01*
X208563088Y-84877832D01*
X208265537Y-85001082D01*
X207997748Y-85180013D01*
X207770013Y-85407748D01*
X207591082Y-85675537D01*
X207467832Y-85973088D01*
X207405000Y-86288967D01*
X206175000Y-86288967D01*
X206112168Y-85973088D01*
X205988918Y-85675537D01*
X205809987Y-85407748D01*
X205582252Y-85180013D01*
X205314463Y-85001082D01*
X205016912Y-84877832D01*
X204701033Y-84815000D01*
X204378967Y-84815000D01*
X204063088Y-84877832D01*
X203765537Y-85001082D01*
X203497748Y-85180013D01*
X203270013Y-85407748D01*
X203091082Y-85675537D01*
X202967832Y-85973088D01*
X202905000Y-86288967D01*
X178731200Y-86288967D01*
X178731200Y-86276622D01*
X178734876Y-86239299D01*
X178731200Y-86201976D01*
X178731200Y-86201967D01*
X178720203Y-86090314D01*
X178676746Y-85947053D01*
X178659622Y-85915016D01*
X178606174Y-85815023D01*
X178534999Y-85728297D01*
X178511201Y-85699299D01*
X178482204Y-85675502D01*
X177947391Y-85140690D01*
X178085890Y-84933412D01*
X178197832Y-84663159D01*
X178254900Y-84376261D01*
X178254900Y-84083741D01*
X178197832Y-83796843D01*
X178085890Y-83526590D01*
X177923375Y-83283369D01*
X177716532Y-83076526D01*
X177542140Y-82960001D01*
X177716532Y-82843476D01*
X177923375Y-82636633D01*
X178085890Y-82393412D01*
X178157834Y-82219721D01*
X216865000Y-82219721D01*
X216865000Y-82640279D01*
X216947047Y-83052756D01*
X217107988Y-83441302D01*
X217341637Y-83790983D01*
X217639017Y-84088363D01*
X217988698Y-84322012D01*
X218377244Y-84482953D01*
X218789721Y-84565000D01*
X219210279Y-84565000D01*
X219622756Y-84482953D01*
X220011302Y-84322012D01*
X220360983Y-84088363D01*
X220658363Y-83790983D01*
X220892012Y-83441302D01*
X221052953Y-83052756D01*
X221135000Y-82640279D01*
X221135000Y-82219721D01*
X221052953Y-81807244D01*
X220892012Y-81418698D01*
X220658363Y-81069017D01*
X220360983Y-80771637D01*
X220011302Y-80537988D01*
X219622756Y-80377047D01*
X219210279Y-80295000D01*
X218789721Y-80295000D01*
X218377244Y-80377047D01*
X217988698Y-80537988D01*
X217639017Y-80771637D01*
X217341637Y-81069017D01*
X217107988Y-81418698D01*
X216947047Y-81807244D01*
X216865000Y-82219721D01*
X178157834Y-82219721D01*
X178197832Y-82123159D01*
X178254900Y-81836261D01*
X178254900Y-81543741D01*
X178197832Y-81256843D01*
X178085890Y-80986590D01*
X177946029Y-80777272D01*
X192736403Y-65986899D01*
X192765401Y-65963101D01*
X192827201Y-65887798D01*
X192860374Y-65847377D01*
X192930946Y-65715347D01*
X192945585Y-65667087D01*
X192974403Y-65572086D01*
X192979560Y-65519721D01*
X198415000Y-65519721D01*
X198415000Y-65940279D01*
X198497047Y-66352756D01*
X198657988Y-66741302D01*
X198891637Y-67090983D01*
X199189017Y-67388363D01*
X199538698Y-67622012D01*
X199927244Y-67782953D01*
X200339721Y-67865000D01*
X200760279Y-67865000D01*
X201172756Y-67782953D01*
X201561302Y-67622012D01*
X201910983Y-67388363D01*
X202208363Y-67090983D01*
X202442012Y-66741302D01*
X202602953Y-66352756D01*
X202685000Y-65940279D01*
X202685000Y-65519721D01*
X202602953Y-65107244D01*
X202442012Y-64718698D01*
X202208363Y-64369017D01*
X201910983Y-64071637D01*
X201561302Y-63837988D01*
X201172756Y-63677047D01*
X200760279Y-63595000D01*
X200339721Y-63595000D01*
X199927244Y-63677047D01*
X199538698Y-63837988D01*
X199189017Y-64071637D01*
X198891637Y-64369017D01*
X198657988Y-64718698D01*
X198497047Y-65107244D01*
X198415000Y-65519721D01*
X192979560Y-65519721D01*
X192985400Y-65460433D01*
X192985400Y-65460423D01*
X192989076Y-65423100D01*
X192985400Y-65385777D01*
X192985400Y-61708022D01*
X192989076Y-61670699D01*
X192985400Y-61633376D01*
X192985400Y-61633367D01*
X192974403Y-61521714D01*
X192930946Y-61378453D01*
X192899415Y-61319463D01*
X192860374Y-61246423D01*
X192789199Y-61159697D01*
X192765401Y-61130699D01*
X192736404Y-61106902D01*
X191448504Y-59819003D01*
X191424701Y-59789999D01*
X191308976Y-59695026D01*
X191176947Y-59624454D01*
X191033686Y-59580997D01*
X190922033Y-59570000D01*
X190922022Y-59570000D01*
X190884700Y-59566324D01*
X190847378Y-59570000D01*
X189828529Y-59570000D01*
X189835000Y-59511750D01*
X189802753Y-59479503D01*
X189795928Y-59457002D01*
X189835000Y-59457002D01*
X189835000Y-59448072D01*
X191900000Y-59448072D01*
X192024482Y-59435812D01*
X192144180Y-59399502D01*
X192254494Y-59340537D01*
X192351185Y-59261185D01*
X192430537Y-59164494D01*
X192489502Y-59054180D01*
X192525812Y-58934482D01*
X192538072Y-58810000D01*
X192538072Y-56689200D01*
X211234599Y-56689200D01*
X211370822Y-56825423D01*
X211246853Y-56876772D01*
X210970875Y-57061175D01*
X210736175Y-57295875D01*
X210551772Y-57571853D01*
X210424754Y-57878504D01*
X210360000Y-58204042D01*
X210360000Y-58535958D01*
X210424754Y-58861496D01*
X210551772Y-59168147D01*
X210736175Y-59444125D01*
X210970875Y-59678825D01*
X211246853Y-59863228D01*
X211553504Y-59990246D01*
X211879042Y-60055000D01*
X212210958Y-60055000D01*
X212536496Y-59990246D01*
X212843147Y-59863228D01*
X213119125Y-59678825D01*
X213353825Y-59444125D01*
X213538228Y-59168147D01*
X213665246Y-58861496D01*
X213730000Y-58535958D01*
X213730000Y-58204042D01*
X213665246Y-57878504D01*
X213656173Y-57856600D01*
X216551078Y-57856600D01*
X216588400Y-57860276D01*
X216625722Y-57856600D01*
X216625733Y-57856600D01*
X216737386Y-57845603D01*
X216880647Y-57802146D01*
X217012676Y-57731574D01*
X217128401Y-57636601D01*
X217152204Y-57607597D01*
X217417331Y-57342470D01*
X217656278Y-57390000D01*
X217683283Y-57390000D01*
X217561772Y-57571853D01*
X217434754Y-57878504D01*
X217370000Y-58204042D01*
X217370000Y-58535958D01*
X217434754Y-58861496D01*
X217561772Y-59168147D01*
X217746175Y-59444125D01*
X217980875Y-59678825D01*
X218256853Y-59863228D01*
X218563504Y-59990246D01*
X218889042Y-60055000D01*
X219220958Y-60055000D01*
X219546496Y-59990246D01*
X219853147Y-59863228D01*
X220129125Y-59678825D01*
X220363825Y-59444125D01*
X220548228Y-59168147D01*
X220675246Y-58861496D01*
X220740000Y-58535958D01*
X220740000Y-58204042D01*
X220675246Y-57878504D01*
X220548228Y-57571853D01*
X220363825Y-57295875D01*
X220129125Y-57061175D01*
X219853147Y-56876772D01*
X219546496Y-56749754D01*
X219220958Y-56685000D01*
X219083177Y-56685000D01*
X219143144Y-56595253D01*
X219256971Y-56320451D01*
X219315000Y-56028722D01*
X219315000Y-55731278D01*
X219256971Y-55439549D01*
X219143144Y-55164747D01*
X218977893Y-54917431D01*
X218767569Y-54707107D01*
X218520253Y-54541856D01*
X218245451Y-54428029D01*
X217953722Y-54370000D01*
X217656278Y-54370000D01*
X217364549Y-54428029D01*
X217089747Y-54541856D01*
X216842431Y-54707107D01*
X216632107Y-54917431D01*
X216466856Y-55164747D01*
X216353029Y-55439549D01*
X216295000Y-55731278D01*
X216295000Y-56028722D01*
X216342530Y-56267669D01*
X216273599Y-56336600D01*
X214750282Y-56336600D01*
X214756971Y-56320451D01*
X214815000Y-56028722D01*
X214815000Y-55731278D01*
X214756971Y-55439549D01*
X214643144Y-55164747D01*
X214477893Y-54917431D01*
X214267569Y-54707107D01*
X214020253Y-54541856D01*
X213745451Y-54428029D01*
X213453722Y-54370000D01*
X213156278Y-54370000D01*
X212864549Y-54428029D01*
X212589747Y-54541856D01*
X212342431Y-54707107D01*
X212132107Y-54917431D01*
X211966856Y-55164747D01*
X211924182Y-55267771D01*
X211841647Y-55223654D01*
X211698386Y-55180197D01*
X211586733Y-55169200D01*
X211586722Y-55169200D01*
X211549400Y-55165524D01*
X211512078Y-55169200D01*
X187549100Y-55169200D01*
X187669556Y-55119305D01*
X187839074Y-55006037D01*
X187983237Y-54861874D01*
X188096505Y-54692356D01*
X188174526Y-54503998D01*
X188214300Y-54304039D01*
X188214300Y-54100161D01*
X188174526Y-53900202D01*
X188096505Y-53711844D01*
X188085251Y-53695001D01*
X223079619Y-53695001D01*
X223014921Y-53721800D01*
G36*
X173076425Y-102956633D02*
G01*
X173283268Y-103163476D01*
X173457660Y-103280001D01*
X173283268Y-103396526D01*
X173076425Y-103603369D01*
X172913910Y-103846590D01*
X172801968Y-104116843D01*
X172744900Y-104403741D01*
X172744900Y-104696261D01*
X172801968Y-104983159D01*
X172913910Y-105253412D01*
X173076425Y-105496633D01*
X173283268Y-105703476D01*
X173465434Y-105825196D01*
X173348545Y-105894823D01*
X173132312Y-106089732D01*
X172958259Y-106323081D01*
X172833075Y-106585902D01*
X172788424Y-106733111D01*
X172909745Y-106963001D01*
X174102900Y-106963001D01*
X174102900Y-106943001D01*
X174356900Y-106943001D01*
X174356900Y-106963001D01*
X174376900Y-106963001D01*
X174376900Y-107217001D01*
X174356900Y-107217001D01*
X174356900Y-109503001D01*
X174376900Y-109503001D01*
X174376900Y-109757001D01*
X174356900Y-109757001D01*
X174356900Y-109777001D01*
X174102900Y-109777001D01*
X174102900Y-109757001D01*
X172909745Y-109757001D01*
X172788424Y-109986891D01*
X172813359Y-110069100D01*
X133381002Y-110069100D01*
X130523601Y-107211700D01*
X156705619Y-107211700D01*
X156662068Y-107316842D01*
X156605000Y-107603740D01*
X156605000Y-107896260D01*
X156662068Y-108183158D01*
X156774010Y-108453411D01*
X156936525Y-108696632D01*
X157143368Y-108903475D01*
X157386589Y-109065990D01*
X157656842Y-109177932D01*
X157943740Y-109235000D01*
X158236260Y-109235000D01*
X158523158Y-109177932D01*
X158793411Y-109065990D01*
X159000690Y-108927491D01*
X159535201Y-109462002D01*
X159558999Y-109491001D01*
X159674724Y-109585974D01*
X159806753Y-109656546D01*
X159950014Y-109700003D01*
X160061667Y-109711000D01*
X160061677Y-109711000D01*
X160099000Y-109714676D01*
X160136323Y-109711000D01*
X167011678Y-109711000D01*
X167049000Y-109714676D01*
X167086322Y-109711000D01*
X167086333Y-109711000D01*
X167197986Y-109700003D01*
X167341247Y-109656546D01*
X167473276Y-109585974D01*
X167589001Y-109491001D01*
X167612803Y-109461998D01*
X167836729Y-109238072D01*
X169100000Y-109238072D01*
X169224482Y-109225812D01*
X169344180Y-109189502D01*
X169454494Y-109130537D01*
X169551185Y-109051185D01*
X169630537Y-108954494D01*
X169689502Y-108844180D01*
X169725812Y-108724482D01*
X169738072Y-108600000D01*
X169738072Y-107446891D01*
X172788424Y-107446891D01*
X172833075Y-107594100D01*
X172958259Y-107856921D01*
X173132312Y-108090270D01*
X173348545Y-108285179D01*
X173474155Y-108360001D01*
X173348545Y-108434823D01*
X173132312Y-108629732D01*
X172958259Y-108863081D01*
X172833075Y-109125902D01*
X172788424Y-109273111D01*
X172909745Y-109503001D01*
X174102900Y-109503001D01*
X174102900Y-107217001D01*
X172909745Y-107217001D01*
X172788424Y-107446891D01*
X169738072Y-107446891D01*
X169738072Y-106900000D01*
X169725812Y-106775518D01*
X169689502Y-106655820D01*
X169630537Y-106545506D01*
X169551185Y-106448815D01*
X169454494Y-106369463D01*
X169344180Y-106310498D01*
X169224482Y-106274188D01*
X169100000Y-106261928D01*
X168640173Y-106261928D01*
X172132102Y-102770000D01*
X172951721Y-102770000D01*
X173076425Y-102956633D01*
G37*
X173076425Y-102956633D02*
X173283268Y-103163476D01*
X173457660Y-103280001D01*
X173283268Y-103396526D01*
X173076425Y-103603369D01*
X172913910Y-103846590D01*
X172801968Y-104116843D01*
X172744900Y-104403741D01*
X172744900Y-104696261D01*
X172801968Y-104983159D01*
X172913910Y-105253412D01*
X173076425Y-105496633D01*
X173283268Y-105703476D01*
X173465434Y-105825196D01*
X173348545Y-105894823D01*
X173132312Y-106089732D01*
X172958259Y-106323081D01*
X172833075Y-106585902D01*
X172788424Y-106733111D01*
X172909745Y-106963001D01*
X174102900Y-106963001D01*
X174102900Y-106943001D01*
X174356900Y-106943001D01*
X174356900Y-106963001D01*
X174376900Y-106963001D01*
X174376900Y-107217001D01*
X174356900Y-107217001D01*
X174356900Y-109503001D01*
X174376900Y-109503001D01*
X174376900Y-109757001D01*
X174356900Y-109757001D01*
X174356900Y-109777001D01*
X174102900Y-109777001D01*
X174102900Y-109757001D01*
X172909745Y-109757001D01*
X172788424Y-109986891D01*
X172813359Y-110069100D01*
X133381002Y-110069100D01*
X130523601Y-107211700D01*
X156705619Y-107211700D01*
X156662068Y-107316842D01*
X156605000Y-107603740D01*
X156605000Y-107896260D01*
X156662068Y-108183158D01*
X156774010Y-108453411D01*
X156936525Y-108696632D01*
X157143368Y-108903475D01*
X157386589Y-109065990D01*
X157656842Y-109177932D01*
X157943740Y-109235000D01*
X158236260Y-109235000D01*
X158523158Y-109177932D01*
X158793411Y-109065990D01*
X159000690Y-108927491D01*
X159535201Y-109462002D01*
X159558999Y-109491001D01*
X159674724Y-109585974D01*
X159806753Y-109656546D01*
X159950014Y-109700003D01*
X160061667Y-109711000D01*
X160061677Y-109711000D01*
X160099000Y-109714676D01*
X160136323Y-109711000D01*
X167011678Y-109711000D01*
X167049000Y-109714676D01*
X167086322Y-109711000D01*
X167086333Y-109711000D01*
X167197986Y-109700003D01*
X167341247Y-109656546D01*
X167473276Y-109585974D01*
X167589001Y-109491001D01*
X167612803Y-109461998D01*
X167836729Y-109238072D01*
X169100000Y-109238072D01*
X169224482Y-109225812D01*
X169344180Y-109189502D01*
X169454494Y-109130537D01*
X169551185Y-109051185D01*
X169630537Y-108954494D01*
X169689502Y-108844180D01*
X169725812Y-108724482D01*
X169738072Y-108600000D01*
X169738072Y-107446891D01*
X172788424Y-107446891D01*
X172833075Y-107594100D01*
X172958259Y-107856921D01*
X173132312Y-108090270D01*
X173348545Y-108285179D01*
X173474155Y-108360001D01*
X173348545Y-108434823D01*
X173132312Y-108629732D01*
X172958259Y-108863081D01*
X172833075Y-109125902D01*
X172788424Y-109273111D01*
X172909745Y-109503001D01*
X174102900Y-109503001D01*
X174102900Y-107217001D01*
X172909745Y-107217001D01*
X172788424Y-107446891D01*
X169738072Y-107446891D01*
X169738072Y-106900000D01*
X169725812Y-106775518D01*
X169689502Y-106655820D01*
X169630537Y-106545506D01*
X169551185Y-106448815D01*
X169454494Y-106369463D01*
X169344180Y-106310498D01*
X169224482Y-106274188D01*
X169100000Y-106261928D01*
X168640173Y-106261928D01*
X172132102Y-102770000D01*
X172951721Y-102770000D01*
X173076425Y-102956633D01*
G36*
X125490199Y-109000400D02*
G01*
X66890706Y-109000400D01*
X66890000Y-108870750D01*
X66731250Y-108712000D01*
X65532000Y-108712000D01*
X65532000Y-108732000D01*
X65278000Y-108732000D01*
X65278000Y-108712000D01*
X65258000Y-108712000D01*
X65258000Y-108458000D01*
X65278000Y-108458000D01*
X65278000Y-108438000D01*
X65532000Y-108438000D01*
X65532000Y-108458000D01*
X66731250Y-108458000D01*
X66890000Y-108299250D01*
X66890705Y-108169700D01*
X126103255Y-108169700D01*
X126143875Y-108173348D01*
X126214977Y-108165726D01*
X126286286Y-108158703D01*
X126289449Y-108157744D01*
X126292729Y-108157392D01*
X126351628Y-108138970D01*
X125490199Y-109000400D01*
G37*
X125490199Y-109000400D02*
X66890706Y-109000400D01*
X66890000Y-108870750D01*
X66731250Y-108712000D01*
X65532000Y-108712000D01*
X65532000Y-108732000D01*
X65278000Y-108732000D01*
X65278000Y-108712000D01*
X65258000Y-108712000D01*
X65258000Y-108458000D01*
X65278000Y-108458000D01*
X65278000Y-108438000D01*
X65532000Y-108438000D01*
X65532000Y-108458000D01*
X66731250Y-108458000D01*
X66890000Y-108299250D01*
X66890705Y-108169700D01*
X126103255Y-108169700D01*
X126143875Y-108173348D01*
X126214977Y-108165726D01*
X126286286Y-108158703D01*
X126289449Y-108157744D01*
X126292729Y-108157392D01*
X126351628Y-108138970D01*
X125490199Y-109000400D01*
G36*
X50562035Y-95888325D02*
G01*
X50572016Y-96013011D01*
X50606129Y-96133353D01*
X50663065Y-96244727D01*
X50740635Y-96342854D01*
X50835858Y-96423963D01*
X50945075Y-96484935D01*
X51064089Y-96523429D01*
X51168250Y-96535000D01*
X51305525Y-96397725D01*
X51345506Y-96430537D01*
X51455820Y-96489502D01*
X51499503Y-96502753D01*
X51531750Y-96535000D01*
X51596159Y-96527845D01*
X51700000Y-96538072D01*
X52000000Y-96538072D01*
X52100000Y-96528223D01*
X52152949Y-96533438D01*
X52215026Y-96649576D01*
X52280763Y-96729676D01*
X52310000Y-96765301D01*
X52338998Y-96789099D01*
X53536701Y-97986803D01*
X53536701Y-98598388D01*
X53473158Y-98572068D01*
X53186260Y-98515000D01*
X52893740Y-98515000D01*
X52606842Y-98572068D01*
X52336589Y-98684010D01*
X52093368Y-98846525D01*
X51961513Y-98978380D01*
X51939502Y-98905820D01*
X51880537Y-98795506D01*
X51801185Y-98698815D01*
X51704494Y-98619463D01*
X51594180Y-98560498D01*
X51474482Y-98524188D01*
X51350000Y-98511928D01*
X49650000Y-98511928D01*
X49525518Y-98524188D01*
X49405820Y-98560498D01*
X49295506Y-98619463D01*
X49198815Y-98698815D01*
X49119463Y-98795506D01*
X49060498Y-98905820D01*
X49024188Y-99025518D01*
X49011928Y-99150000D01*
X49011928Y-100850000D01*
X49024188Y-100974482D01*
X49060498Y-101094180D01*
X49119463Y-101204494D01*
X49198815Y-101301185D01*
X49295506Y-101380537D01*
X49405820Y-101439502D01*
X49481626Y-101462498D01*
X49304822Y-101658645D01*
X49155843Y-101908748D01*
X49058519Y-102183109D01*
X49179186Y-102413000D01*
X50373000Y-102413000D01*
X50373000Y-102393000D01*
X50627000Y-102393000D01*
X50627000Y-102413000D01*
X50647000Y-102413000D01*
X50647000Y-102667000D01*
X50627000Y-102667000D01*
X50627000Y-103860155D01*
X50856890Y-103981476D01*
X51004099Y-103936825D01*
X51266920Y-103811641D01*
X51500269Y-103637588D01*
X51695178Y-103421355D01*
X51764805Y-103304466D01*
X51886525Y-103486632D01*
X52093368Y-103693475D01*
X52336589Y-103855990D01*
X52606842Y-103967932D01*
X52893740Y-104025000D01*
X53186260Y-104025000D01*
X53473158Y-103967932D01*
X53743411Y-103855990D01*
X53986632Y-103693475D01*
X54193475Y-103486632D01*
X54310000Y-103312240D01*
X54426525Y-103486632D01*
X54633368Y-103693475D01*
X54727673Y-103756488D01*
X54722296Y-103760901D01*
X54722012Y-103761185D01*
X54692745Y-103785254D01*
X54669232Y-103813965D01*
X51075690Y-107407509D01*
X50868411Y-107269010D01*
X50598158Y-107157068D01*
X50311260Y-107100000D01*
X50018740Y-107100000D01*
X49731842Y-107157068D01*
X49461589Y-107269010D01*
X49218368Y-107431525D01*
X49011525Y-107638368D01*
X48849010Y-107881589D01*
X48737068Y-108151842D01*
X48695000Y-108363330D01*
X48695000Y-102896891D01*
X49058519Y-102896891D01*
X49155843Y-103171252D01*
X49304822Y-103421355D01*
X49499731Y-103637588D01*
X49733080Y-103811641D01*
X49995901Y-103936825D01*
X50143110Y-103981476D01*
X50373000Y-103860155D01*
X50373000Y-102667000D01*
X49179186Y-102667000D01*
X49058519Y-102896891D01*
X48695000Y-102896891D01*
X48695000Y-95838072D01*
X50562625Y-95838072D01*
X50562035Y-95888325D01*
G37*
X50562035Y-95888325D02*
X50572016Y-96013011D01*
X50606129Y-96133353D01*
X50663065Y-96244727D01*
X50740635Y-96342854D01*
X50835858Y-96423963D01*
X50945075Y-96484935D01*
X51064089Y-96523429D01*
X51168250Y-96535000D01*
X51305525Y-96397725D01*
X51345506Y-96430537D01*
X51455820Y-96489502D01*
X51499503Y-96502753D01*
X51531750Y-96535000D01*
X51596159Y-96527845D01*
X51700000Y-96538072D01*
X52000000Y-96538072D01*
X52100000Y-96528223D01*
X52152949Y-96533438D01*
X52215026Y-96649576D01*
X52280763Y-96729676D01*
X52310000Y-96765301D01*
X52338998Y-96789099D01*
X53536701Y-97986803D01*
X53536701Y-98598388D01*
X53473158Y-98572068D01*
X53186260Y-98515000D01*
X52893740Y-98515000D01*
X52606842Y-98572068D01*
X52336589Y-98684010D01*
X52093368Y-98846525D01*
X51961513Y-98978380D01*
X51939502Y-98905820D01*
X51880537Y-98795506D01*
X51801185Y-98698815D01*
X51704494Y-98619463D01*
X51594180Y-98560498D01*
X51474482Y-98524188D01*
X51350000Y-98511928D01*
X49650000Y-98511928D01*
X49525518Y-98524188D01*
X49405820Y-98560498D01*
X49295506Y-98619463D01*
X49198815Y-98698815D01*
X49119463Y-98795506D01*
X49060498Y-98905820D01*
X49024188Y-99025518D01*
X49011928Y-99150000D01*
X49011928Y-100850000D01*
X49024188Y-100974482D01*
X49060498Y-101094180D01*
X49119463Y-101204494D01*
X49198815Y-101301185D01*
X49295506Y-101380537D01*
X49405820Y-101439502D01*
X49481626Y-101462498D01*
X49304822Y-101658645D01*
X49155843Y-101908748D01*
X49058519Y-102183109D01*
X49179186Y-102413000D01*
X50373000Y-102413000D01*
X50373000Y-102393000D01*
X50627000Y-102393000D01*
X50627000Y-102413000D01*
X50647000Y-102413000D01*
X50647000Y-102667000D01*
X50627000Y-102667000D01*
X50627000Y-103860155D01*
X50856890Y-103981476D01*
X51004099Y-103936825D01*
X51266920Y-103811641D01*
X51500269Y-103637588D01*
X51695178Y-103421355D01*
X51764805Y-103304466D01*
X51886525Y-103486632D01*
X52093368Y-103693475D01*
X52336589Y-103855990D01*
X52606842Y-103967932D01*
X52893740Y-104025000D01*
X53186260Y-104025000D01*
X53473158Y-103967932D01*
X53743411Y-103855990D01*
X53986632Y-103693475D01*
X54193475Y-103486632D01*
X54310000Y-103312240D01*
X54426525Y-103486632D01*
X54633368Y-103693475D01*
X54727673Y-103756488D01*
X54722296Y-103760901D01*
X54722012Y-103761185D01*
X54692745Y-103785254D01*
X54669232Y-103813965D01*
X51075690Y-107407509D01*
X50868411Y-107269010D01*
X50598158Y-107157068D01*
X50311260Y-107100000D01*
X50018740Y-107100000D01*
X49731842Y-107157068D01*
X49461589Y-107269010D01*
X49218368Y-107431525D01*
X49011525Y-107638368D01*
X48849010Y-107881589D01*
X48737068Y-108151842D01*
X48695000Y-108363330D01*
X48695000Y-102896891D01*
X49058519Y-102896891D01*
X49155843Y-103171252D01*
X49304822Y-103421355D01*
X49499731Y-103637588D01*
X49733080Y-103811641D01*
X49995901Y-103936825D01*
X50143110Y-103981476D01*
X50373000Y-103860155D01*
X50373000Y-102667000D01*
X49179186Y-102667000D01*
X49058519Y-102896891D01*
X48695000Y-102896891D01*
X48695000Y-95838072D01*
X50562625Y-95838072D01*
X50562035Y-95888325D01*
G36*
X69189500Y-91550702D02*
G01*
X69213299Y-91579701D01*
X69329024Y-91674674D01*
X69461053Y-91745246D01*
X69604314Y-91788703D01*
X69715967Y-91799700D01*
X69715976Y-91799700D01*
X69753299Y-91803376D01*
X69790622Y-91799700D01*
X70393061Y-91799700D01*
X70285013Y-91907748D01*
X70106082Y-92175537D01*
X69982832Y-92473088D01*
X69920000Y-92788967D01*
X69920000Y-93111033D01*
X69982832Y-93426912D01*
X70106082Y-93724463D01*
X70285013Y-93992252D01*
X70512748Y-94219987D01*
X70780537Y-94398918D01*
X71078088Y-94522168D01*
X71393967Y-94585000D01*
X71716033Y-94585000D01*
X72031912Y-94522168D01*
X72329463Y-94398918D01*
X72597252Y-94219987D01*
X72824987Y-93992252D01*
X73003918Y-93724463D01*
X73127168Y-93426912D01*
X73139430Y-93365267D01*
X73226082Y-93574463D01*
X73405013Y-93842252D01*
X73632748Y-94069987D01*
X73900537Y-94248918D01*
X74198088Y-94372168D01*
X74513967Y-94435000D01*
X74836033Y-94435000D01*
X75151912Y-94372168D01*
X75449463Y-94248918D01*
X75717252Y-94069987D01*
X75944987Y-93842252D01*
X76123918Y-93574463D01*
X76247168Y-93276912D01*
X76310000Y-92961033D01*
X76310000Y-92638967D01*
X76247168Y-92323088D01*
X76123918Y-92025537D01*
X75944987Y-91757748D01*
X75717252Y-91530013D01*
X75449463Y-91351082D01*
X75445161Y-91349300D01*
X78404839Y-91349300D01*
X78400537Y-91351082D01*
X78132748Y-91530013D01*
X77905013Y-91757748D01*
X77726082Y-92025537D01*
X77602832Y-92323088D01*
X77540000Y-92638967D01*
X77540000Y-92961033D01*
X77602832Y-93276912D01*
X77726082Y-93574463D01*
X77905013Y-93842252D01*
X78132748Y-94069987D01*
X78400537Y-94248918D01*
X78698088Y-94372168D01*
X79013967Y-94435000D01*
X79336033Y-94435000D01*
X79651912Y-94372168D01*
X79949463Y-94248918D01*
X80217252Y-94069987D01*
X80444987Y-93842252D01*
X80623918Y-93574463D01*
X80747168Y-93276912D01*
X80810000Y-92961033D01*
X80810000Y-92638967D01*
X80747168Y-92323088D01*
X80623918Y-92025537D01*
X80444987Y-91757748D01*
X80217252Y-91530013D01*
X79949463Y-91351082D01*
X79945161Y-91349300D01*
X82094187Y-91349300D01*
X82062068Y-91426842D01*
X82005000Y-91713740D01*
X82005000Y-92006260D01*
X82062068Y-92293158D01*
X82174010Y-92563411D01*
X82336525Y-92806632D01*
X82543368Y-93013475D01*
X82717760Y-93130000D01*
X82543368Y-93246525D01*
X82336525Y-93453368D01*
X82174010Y-93696589D01*
X82062068Y-93966842D01*
X82005000Y-94253740D01*
X82005000Y-94546260D01*
X82062068Y-94833158D01*
X82174010Y-95103411D01*
X82336525Y-95346632D01*
X82543368Y-95553475D01*
X82717760Y-95670000D01*
X82543368Y-95786525D01*
X82336525Y-95993368D01*
X82174010Y-96236589D01*
X82062068Y-96506842D01*
X82005000Y-96793740D01*
X82005000Y-97086260D01*
X82062068Y-97373158D01*
X82174010Y-97643411D01*
X82336525Y-97886632D01*
X82543368Y-98093475D01*
X82717760Y-98210000D01*
X82543368Y-98326525D01*
X82336525Y-98533368D01*
X82174010Y-98776589D01*
X82062068Y-99046842D01*
X82005000Y-99333740D01*
X82005000Y-99626260D01*
X82062068Y-99913158D01*
X82174010Y-100183411D01*
X82336525Y-100426632D01*
X82543368Y-100633475D01*
X82717760Y-100750000D01*
X82543368Y-100866525D01*
X82336525Y-101073368D01*
X82174010Y-101316589D01*
X82062068Y-101586842D01*
X82005000Y-101873740D01*
X82005000Y-102166260D01*
X82062068Y-102453158D01*
X82174010Y-102723411D01*
X82336525Y-102966632D01*
X82543368Y-103173475D01*
X82786589Y-103335990D01*
X83056842Y-103447932D01*
X83343740Y-103505000D01*
X83636260Y-103505000D01*
X83923158Y-103447932D01*
X84193411Y-103335990D01*
X84436632Y-103173475D01*
X84643475Y-102966632D01*
X84805990Y-102723411D01*
X84917932Y-102453158D01*
X84975000Y-102166260D01*
X84975000Y-101873740D01*
X84917932Y-101586842D01*
X84805990Y-101316589D01*
X84643475Y-101073368D01*
X84436632Y-100866525D01*
X84262240Y-100750000D01*
X84436632Y-100633475D01*
X84643475Y-100426632D01*
X84805990Y-100183411D01*
X84917932Y-99913158D01*
X84975000Y-99626260D01*
X84975000Y-99333740D01*
X84917932Y-99046842D01*
X84805990Y-98776589D01*
X84643475Y-98533368D01*
X84436632Y-98326525D01*
X84262240Y-98210000D01*
X84436632Y-98093475D01*
X84643475Y-97886632D01*
X84805990Y-97643411D01*
X84917932Y-97373158D01*
X84975000Y-97086260D01*
X84975000Y-96793740D01*
X84917932Y-96506842D01*
X84805990Y-96236589D01*
X84643475Y-95993368D01*
X84436632Y-95786525D01*
X84262240Y-95670000D01*
X84436632Y-95553475D01*
X84643475Y-95346632D01*
X84805990Y-95103411D01*
X84917932Y-94833158D01*
X84975000Y-94546260D01*
X84975000Y-94253740D01*
X84917932Y-93966842D01*
X84805990Y-93696589D01*
X84643475Y-93453368D01*
X84436632Y-93246525D01*
X84262240Y-93130000D01*
X84436632Y-93013475D01*
X84643475Y-92806632D01*
X84805990Y-92563411D01*
X84917932Y-92293158D01*
X84975000Y-92006260D01*
X84975000Y-91713740D01*
X84917932Y-91426842D01*
X84885813Y-91349300D01*
X93946399Y-91349300D01*
X93997495Y-91472656D01*
X94110763Y-91642174D01*
X94254926Y-91786337D01*
X94424444Y-91899605D01*
X94612802Y-91977626D01*
X94812761Y-92017400D01*
X94874899Y-92017400D01*
X99673901Y-96816403D01*
X99697699Y-96845401D01*
X99813424Y-96940374D01*
X99945453Y-97010946D01*
X100088714Y-97054403D01*
X100200367Y-97065400D01*
X100200375Y-97065400D01*
X100237700Y-97069076D01*
X100275025Y-97065400D01*
X136808026Y-97065400D01*
X136639044Y-97135395D01*
X136469526Y-97248663D01*
X136425589Y-97292600D01*
X134288940Y-97292600D01*
X134253227Y-97288930D01*
X134214278Y-97292600D01*
X134212667Y-97292600D01*
X134177099Y-97296103D01*
X134104180Y-97302974D01*
X134102626Y-97303438D01*
X134101014Y-97303597D01*
X134030989Y-97324839D01*
X133960737Y-97345825D01*
X133959303Y-97346584D01*
X133957753Y-97347054D01*
X133893166Y-97381577D01*
X133828411Y-97415839D01*
X133827154Y-97416861D01*
X133825724Y-97417626D01*
X133769158Y-97464048D01*
X133741384Y-97486646D01*
X133740237Y-97487783D01*
X133709999Y-97512599D01*
X133687225Y-97540349D01*
X127686753Y-103490322D01*
X56656869Y-103563238D01*
X56733475Y-103486632D01*
X56895990Y-103243411D01*
X57007932Y-102973158D01*
X57065000Y-102686260D01*
X57065000Y-102393740D01*
X57007932Y-102106842D01*
X56895990Y-101836589D01*
X56733475Y-101593368D01*
X56526632Y-101386525D01*
X56352240Y-101270000D01*
X56526632Y-101153475D01*
X56733475Y-100946632D01*
X56895990Y-100703411D01*
X57007932Y-100433158D01*
X57065000Y-100146260D01*
X57065000Y-99853740D01*
X57007932Y-99566842D01*
X56895990Y-99296589D01*
X56790671Y-99138967D01*
X57800000Y-99138967D01*
X57800000Y-99461033D01*
X57862832Y-99776912D01*
X57986082Y-100074463D01*
X58165013Y-100342252D01*
X58392748Y-100569987D01*
X58660537Y-100748918D01*
X58958088Y-100872168D01*
X59273967Y-100935000D01*
X59596033Y-100935000D01*
X59911912Y-100872168D01*
X60209463Y-100748918D01*
X60477252Y-100569987D01*
X60704987Y-100342252D01*
X60883918Y-100074463D01*
X61007168Y-99776912D01*
X61070000Y-99461033D01*
X61070000Y-99138967D01*
X61007168Y-98823088D01*
X60883918Y-98525537D01*
X60704987Y-98257748D01*
X60477252Y-98030013D01*
X60209463Y-97851082D01*
X59911912Y-97727832D01*
X59596033Y-97665000D01*
X59273967Y-97665000D01*
X58958088Y-97727832D01*
X58660537Y-97851082D01*
X58392748Y-98030013D01*
X58165013Y-98257748D01*
X57986082Y-98525537D01*
X57862832Y-98823088D01*
X57800000Y-99138967D01*
X56790671Y-99138967D01*
X56733475Y-99053368D01*
X56579804Y-98899697D01*
X57035403Y-98444099D01*
X57064401Y-98420301D01*
X57159374Y-98304576D01*
X57229946Y-98172547D01*
X57273403Y-98029286D01*
X57284400Y-97917633D01*
X57284400Y-97917624D01*
X57288076Y-97880301D01*
X57284400Y-97842978D01*
X57284400Y-93625301D01*
X58295500Y-94636402D01*
X58319299Y-94665401D01*
X58348297Y-94689199D01*
X58435023Y-94760374D01*
X58483125Y-94786085D01*
X58567053Y-94830946D01*
X58710314Y-94874403D01*
X58821967Y-94885400D01*
X58821976Y-94885400D01*
X58859299Y-94889076D01*
X58896622Y-94885400D01*
X61715599Y-94885400D01*
X64661351Y-97831153D01*
X64411912Y-97727832D01*
X64096033Y-97665000D01*
X63773967Y-97665000D01*
X63458088Y-97727832D01*
X63160537Y-97851082D01*
X62892748Y-98030013D01*
X62665013Y-98257748D01*
X62486082Y-98525537D01*
X62362832Y-98823088D01*
X62300000Y-99138967D01*
X62300000Y-99461033D01*
X62362832Y-99776912D01*
X62486082Y-100074463D01*
X62665013Y-100342252D01*
X62892748Y-100569987D01*
X63160537Y-100748918D01*
X63458088Y-100872168D01*
X63773967Y-100935000D01*
X64096033Y-100935000D01*
X64411912Y-100872168D01*
X64709463Y-100748918D01*
X64977252Y-100569987D01*
X65204987Y-100342252D01*
X65383918Y-100074463D01*
X65507168Y-99776912D01*
X65519430Y-99715267D01*
X65606082Y-99924463D01*
X65785013Y-100192252D01*
X66012748Y-100419987D01*
X66280537Y-100598918D01*
X66578088Y-100722168D01*
X66893967Y-100785000D01*
X67216033Y-100785000D01*
X67531912Y-100722168D01*
X67829463Y-100598918D01*
X68097252Y-100419987D01*
X68324987Y-100192252D01*
X68503918Y-99924463D01*
X68627168Y-99626912D01*
X68690000Y-99311033D01*
X68690000Y-98988967D01*
X69920000Y-98988967D01*
X69920000Y-99311033D01*
X69982832Y-99626912D01*
X70106082Y-99924463D01*
X70285013Y-100192252D01*
X70512748Y-100419987D01*
X70780537Y-100598918D01*
X71078088Y-100722168D01*
X71393967Y-100785000D01*
X71716033Y-100785000D01*
X72031912Y-100722168D01*
X72329463Y-100598918D01*
X72597252Y-100419987D01*
X72824987Y-100192252D01*
X73003918Y-99924463D01*
X73090570Y-99715267D01*
X73102832Y-99776912D01*
X73226082Y-100074463D01*
X73405013Y-100342252D01*
X73632748Y-100569987D01*
X73900537Y-100748918D01*
X74198088Y-100872168D01*
X74513967Y-100935000D01*
X74836033Y-100935000D01*
X75151912Y-100872168D01*
X75449463Y-100748918D01*
X75717252Y-100569987D01*
X75944987Y-100342252D01*
X76123918Y-100074463D01*
X76247168Y-99776912D01*
X76310000Y-99461033D01*
X76310000Y-99138967D01*
X77540000Y-99138967D01*
X77540000Y-99461033D01*
X77602832Y-99776912D01*
X77726082Y-100074463D01*
X77905013Y-100342252D01*
X78132748Y-100569987D01*
X78400537Y-100748918D01*
X78698088Y-100872168D01*
X79013967Y-100935000D01*
X79336033Y-100935000D01*
X79651912Y-100872168D01*
X79949463Y-100748918D01*
X80217252Y-100569987D01*
X80444987Y-100342252D01*
X80623918Y-100074463D01*
X80747168Y-99776912D01*
X80810000Y-99461033D01*
X80810000Y-99138967D01*
X80747168Y-98823088D01*
X80623918Y-98525537D01*
X80444987Y-98257748D01*
X80217252Y-98030013D01*
X79949463Y-97851082D01*
X79651912Y-97727832D01*
X79336033Y-97665000D01*
X79013967Y-97665000D01*
X78698088Y-97727832D01*
X78400537Y-97851082D01*
X78132748Y-98030013D01*
X77905013Y-98257748D01*
X77726082Y-98525537D01*
X77602832Y-98823088D01*
X77540000Y-99138967D01*
X76310000Y-99138967D01*
X76247168Y-98823088D01*
X76123918Y-98525537D01*
X75944987Y-98257748D01*
X75717252Y-98030013D01*
X75449463Y-97851082D01*
X75151912Y-97727832D01*
X74836033Y-97665000D01*
X74513967Y-97665000D01*
X74198088Y-97727832D01*
X73900537Y-97851082D01*
X73632748Y-98030013D01*
X73405013Y-98257748D01*
X73226082Y-98525537D01*
X73139430Y-98734733D01*
X73127168Y-98673088D01*
X73003918Y-98375537D01*
X72824987Y-98107748D01*
X72597252Y-97880013D01*
X72329463Y-97701082D01*
X72031912Y-97577832D01*
X71716033Y-97515000D01*
X71393967Y-97515000D01*
X71078088Y-97577832D01*
X70780537Y-97701082D01*
X70512748Y-97880013D01*
X70285013Y-98107748D01*
X70106082Y-98375537D01*
X69982832Y-98673088D01*
X69920000Y-98988967D01*
X68690000Y-98988967D01*
X68627168Y-98673088D01*
X68503918Y-98375537D01*
X68324987Y-98107748D01*
X68097252Y-97880013D01*
X67829463Y-97701082D01*
X67531912Y-97577832D01*
X67216033Y-97515000D01*
X66893967Y-97515000D01*
X66578088Y-97577832D01*
X66563625Y-97583823D01*
X63276932Y-94297130D01*
X63458088Y-94372168D01*
X63773967Y-94435000D01*
X64096033Y-94435000D01*
X64411912Y-94372168D01*
X64709463Y-94248918D01*
X64977252Y-94069987D01*
X65204987Y-93842252D01*
X65383918Y-93574463D01*
X65470570Y-93365267D01*
X65482832Y-93426912D01*
X65606082Y-93724463D01*
X65785013Y-93992252D01*
X66012748Y-94219987D01*
X66280537Y-94398918D01*
X66578088Y-94522168D01*
X66893967Y-94585000D01*
X67216033Y-94585000D01*
X67531912Y-94522168D01*
X67829463Y-94398918D01*
X68097252Y-94219987D01*
X68324987Y-93992252D01*
X68503918Y-93724463D01*
X68627168Y-93426912D01*
X68690000Y-93111033D01*
X68690000Y-92788967D01*
X68627168Y-92473088D01*
X68503918Y-92175537D01*
X68324987Y-91907748D01*
X68097252Y-91680013D01*
X67829463Y-91501082D01*
X67531912Y-91377832D01*
X67216033Y-91315000D01*
X66893967Y-91315000D01*
X66578088Y-91377832D01*
X66280537Y-91501082D01*
X66012748Y-91680013D01*
X65785013Y-91907748D01*
X65606082Y-92175537D01*
X65519430Y-92384733D01*
X65507168Y-92323088D01*
X65383918Y-92025537D01*
X65204987Y-91757748D01*
X64977252Y-91530013D01*
X64709463Y-91351082D01*
X64411912Y-91227832D01*
X64096033Y-91165000D01*
X63773967Y-91165000D01*
X63458088Y-91227832D01*
X63160537Y-91351082D01*
X62892748Y-91530013D01*
X62665013Y-91757748D01*
X62486082Y-92025537D01*
X62362832Y-92323088D01*
X62300000Y-92638967D01*
X62300000Y-92961033D01*
X62362832Y-93276912D01*
X62450305Y-93488090D01*
X62322647Y-93419854D01*
X62179386Y-93376397D01*
X62067733Y-93365400D01*
X62067722Y-93365400D01*
X62030400Y-93361724D01*
X61993078Y-93365400D01*
X60970515Y-93365400D01*
X61007168Y-93276912D01*
X61070000Y-92961033D01*
X61070000Y-92638967D01*
X61007168Y-92323088D01*
X60883918Y-92025537D01*
X60704987Y-91757748D01*
X60477252Y-91530013D01*
X60335400Y-91435230D01*
X60335400Y-82696601D01*
X69189500Y-91550702D01*
G37*
X69189500Y-91550702D02*
X69213299Y-91579701D01*
X69329024Y-91674674D01*
X69461053Y-91745246D01*
X69604314Y-91788703D01*
X69715967Y-91799700D01*
X69715976Y-91799700D01*
X69753299Y-91803376D01*
X69790622Y-91799700D01*
X70393061Y-91799700D01*
X70285013Y-91907748D01*
X70106082Y-92175537D01*
X69982832Y-92473088D01*
X69920000Y-92788967D01*
X69920000Y-93111033D01*
X69982832Y-93426912D01*
X70106082Y-93724463D01*
X70285013Y-93992252D01*
X70512748Y-94219987D01*
X70780537Y-94398918D01*
X71078088Y-94522168D01*
X71393967Y-94585000D01*
X71716033Y-94585000D01*
X72031912Y-94522168D01*
X72329463Y-94398918D01*
X72597252Y-94219987D01*
X72824987Y-93992252D01*
X73003918Y-93724463D01*
X73127168Y-93426912D01*
X73139430Y-93365267D01*
X73226082Y-93574463D01*
X73405013Y-93842252D01*
X73632748Y-94069987D01*
X73900537Y-94248918D01*
X74198088Y-94372168D01*
X74513967Y-94435000D01*
X74836033Y-94435000D01*
X75151912Y-94372168D01*
X75449463Y-94248918D01*
X75717252Y-94069987D01*
X75944987Y-93842252D01*
X76123918Y-93574463D01*
X76247168Y-93276912D01*
X76310000Y-92961033D01*
X76310000Y-92638967D01*
X76247168Y-92323088D01*
X76123918Y-92025537D01*
X75944987Y-91757748D01*
X75717252Y-91530013D01*
X75449463Y-91351082D01*
X75445161Y-91349300D01*
X78404839Y-91349300D01*
X78400537Y-91351082D01*
X78132748Y-91530013D01*
X77905013Y-91757748D01*
X77726082Y-92025537D01*
X77602832Y-92323088D01*
X77540000Y-92638967D01*
X77540000Y-92961033D01*
X77602832Y-93276912D01*
X77726082Y-93574463D01*
X77905013Y-93842252D01*
X78132748Y-94069987D01*
X78400537Y-94248918D01*
X78698088Y-94372168D01*
X79013967Y-94435000D01*
X79336033Y-94435000D01*
X79651912Y-94372168D01*
X79949463Y-94248918D01*
X80217252Y-94069987D01*
X80444987Y-93842252D01*
X80623918Y-93574463D01*
X80747168Y-93276912D01*
X80810000Y-92961033D01*
X80810000Y-92638967D01*
X80747168Y-92323088D01*
X80623918Y-92025537D01*
X80444987Y-91757748D01*
X80217252Y-91530013D01*
X79949463Y-91351082D01*
X79945161Y-91349300D01*
X82094187Y-91349300D01*
X82062068Y-91426842D01*
X82005000Y-91713740D01*
X82005000Y-92006260D01*
X82062068Y-92293158D01*
X82174010Y-92563411D01*
X82336525Y-92806632D01*
X82543368Y-93013475D01*
X82717760Y-93130000D01*
X82543368Y-93246525D01*
X82336525Y-93453368D01*
X82174010Y-93696589D01*
X82062068Y-93966842D01*
X82005000Y-94253740D01*
X82005000Y-94546260D01*
X82062068Y-94833158D01*
X82174010Y-95103411D01*
X82336525Y-95346632D01*
X82543368Y-95553475D01*
X82717760Y-95670000D01*
X82543368Y-95786525D01*
X82336525Y-95993368D01*
X82174010Y-96236589D01*
X82062068Y-96506842D01*
X82005000Y-96793740D01*
X82005000Y-97086260D01*
X82062068Y-97373158D01*
X82174010Y-97643411D01*
X82336525Y-97886632D01*
X82543368Y-98093475D01*
X82717760Y-98210000D01*
X82543368Y-98326525D01*
X82336525Y-98533368D01*
X82174010Y-98776589D01*
X82062068Y-99046842D01*
X82005000Y-99333740D01*
X82005000Y-99626260D01*
X82062068Y-99913158D01*
X82174010Y-100183411D01*
X82336525Y-100426632D01*
X82543368Y-100633475D01*
X82717760Y-100750000D01*
X82543368Y-100866525D01*
X82336525Y-101073368D01*
X82174010Y-101316589D01*
X82062068Y-101586842D01*
X82005000Y-101873740D01*
X82005000Y-102166260D01*
X82062068Y-102453158D01*
X82174010Y-102723411D01*
X82336525Y-102966632D01*
X82543368Y-103173475D01*
X82786589Y-103335990D01*
X83056842Y-103447932D01*
X83343740Y-103505000D01*
X83636260Y-103505000D01*
X83923158Y-103447932D01*
X84193411Y-103335990D01*
X84436632Y-103173475D01*
X84643475Y-102966632D01*
X84805990Y-102723411D01*
X84917932Y-102453158D01*
X84975000Y-102166260D01*
X84975000Y-101873740D01*
X84917932Y-101586842D01*
X84805990Y-101316589D01*
X84643475Y-101073368D01*
X84436632Y-100866525D01*
X84262240Y-100750000D01*
X84436632Y-100633475D01*
X84643475Y-100426632D01*
X84805990Y-100183411D01*
X84917932Y-99913158D01*
X84975000Y-99626260D01*
X84975000Y-99333740D01*
X84917932Y-99046842D01*
X84805990Y-98776589D01*
X84643475Y-98533368D01*
X84436632Y-98326525D01*
X84262240Y-98210000D01*
X84436632Y-98093475D01*
X84643475Y-97886632D01*
X84805990Y-97643411D01*
X84917932Y-97373158D01*
X84975000Y-97086260D01*
X84975000Y-96793740D01*
X84917932Y-96506842D01*
X84805990Y-96236589D01*
X84643475Y-95993368D01*
X84436632Y-95786525D01*
X84262240Y-95670000D01*
X84436632Y-95553475D01*
X84643475Y-95346632D01*
X84805990Y-95103411D01*
X84917932Y-94833158D01*
X84975000Y-94546260D01*
X84975000Y-94253740D01*
X84917932Y-93966842D01*
X84805990Y-93696589D01*
X84643475Y-93453368D01*
X84436632Y-93246525D01*
X84262240Y-93130000D01*
X84436632Y-93013475D01*
X84643475Y-92806632D01*
X84805990Y-92563411D01*
X84917932Y-92293158D01*
X84975000Y-92006260D01*
X84975000Y-91713740D01*
X84917932Y-91426842D01*
X84885813Y-91349300D01*
X93946399Y-91349300D01*
X93997495Y-91472656D01*
X94110763Y-91642174D01*
X94254926Y-91786337D01*
X94424444Y-91899605D01*
X94612802Y-91977626D01*
X94812761Y-92017400D01*
X94874899Y-92017400D01*
X99673901Y-96816403D01*
X99697699Y-96845401D01*
X99813424Y-96940374D01*
X99945453Y-97010946D01*
X100088714Y-97054403D01*
X100200367Y-97065400D01*
X100200375Y-97065400D01*
X100237700Y-97069076D01*
X100275025Y-97065400D01*
X136808026Y-97065400D01*
X136639044Y-97135395D01*
X136469526Y-97248663D01*
X136425589Y-97292600D01*
X134288940Y-97292600D01*
X134253227Y-97288930D01*
X134214278Y-97292600D01*
X134212667Y-97292600D01*
X134177099Y-97296103D01*
X134104180Y-97302974D01*
X134102626Y-97303438D01*
X134101014Y-97303597D01*
X134030989Y-97324839D01*
X133960737Y-97345825D01*
X133959303Y-97346584D01*
X133957753Y-97347054D01*
X133893166Y-97381577D01*
X133828411Y-97415839D01*
X133827154Y-97416861D01*
X133825724Y-97417626D01*
X133769158Y-97464048D01*
X133741384Y-97486646D01*
X133740237Y-97487783D01*
X133709999Y-97512599D01*
X133687225Y-97540349D01*
X127686753Y-103490322D01*
X56656869Y-103563238D01*
X56733475Y-103486632D01*
X56895990Y-103243411D01*
X57007932Y-102973158D01*
X57065000Y-102686260D01*
X57065000Y-102393740D01*
X57007932Y-102106842D01*
X56895990Y-101836589D01*
X56733475Y-101593368D01*
X56526632Y-101386525D01*
X56352240Y-101270000D01*
X56526632Y-101153475D01*
X56733475Y-100946632D01*
X56895990Y-100703411D01*
X57007932Y-100433158D01*
X57065000Y-100146260D01*
X57065000Y-99853740D01*
X57007932Y-99566842D01*
X56895990Y-99296589D01*
X56790671Y-99138967D01*
X57800000Y-99138967D01*
X57800000Y-99461033D01*
X57862832Y-99776912D01*
X57986082Y-100074463D01*
X58165013Y-100342252D01*
X58392748Y-100569987D01*
X58660537Y-100748918D01*
X58958088Y-100872168D01*
X59273967Y-100935000D01*
X59596033Y-100935000D01*
X59911912Y-100872168D01*
X60209463Y-100748918D01*
X60477252Y-100569987D01*
X60704987Y-100342252D01*
X60883918Y-100074463D01*
X61007168Y-99776912D01*
X61070000Y-99461033D01*
X61070000Y-99138967D01*
X61007168Y-98823088D01*
X60883918Y-98525537D01*
X60704987Y-98257748D01*
X60477252Y-98030013D01*
X60209463Y-97851082D01*
X59911912Y-97727832D01*
X59596033Y-97665000D01*
X59273967Y-97665000D01*
X58958088Y-97727832D01*
X58660537Y-97851082D01*
X58392748Y-98030013D01*
X58165013Y-98257748D01*
X57986082Y-98525537D01*
X57862832Y-98823088D01*
X57800000Y-99138967D01*
X56790671Y-99138967D01*
X56733475Y-99053368D01*
X56579804Y-98899697D01*
X57035403Y-98444099D01*
X57064401Y-98420301D01*
X57159374Y-98304576D01*
X57229946Y-98172547D01*
X57273403Y-98029286D01*
X57284400Y-97917633D01*
X57284400Y-97917624D01*
X57288076Y-97880301D01*
X57284400Y-97842978D01*
X57284400Y-93625301D01*
X58295500Y-94636402D01*
X58319299Y-94665401D01*
X58348297Y-94689199D01*
X58435023Y-94760374D01*
X58483125Y-94786085D01*
X58567053Y-94830946D01*
X58710314Y-94874403D01*
X58821967Y-94885400D01*
X58821976Y-94885400D01*
X58859299Y-94889076D01*
X58896622Y-94885400D01*
X61715599Y-94885400D01*
X64661351Y-97831153D01*
X64411912Y-97727832D01*
X64096033Y-97665000D01*
X63773967Y-97665000D01*
X63458088Y-97727832D01*
X63160537Y-97851082D01*
X62892748Y-98030013D01*
X62665013Y-98257748D01*
X62486082Y-98525537D01*
X62362832Y-98823088D01*
X62300000Y-99138967D01*
X62300000Y-99461033D01*
X62362832Y-99776912D01*
X62486082Y-100074463D01*
X62665013Y-100342252D01*
X62892748Y-100569987D01*
X63160537Y-100748918D01*
X63458088Y-100872168D01*
X63773967Y-100935000D01*
X64096033Y-100935000D01*
X64411912Y-100872168D01*
X64709463Y-100748918D01*
X64977252Y-100569987D01*
X65204987Y-100342252D01*
X65383918Y-100074463D01*
X65507168Y-99776912D01*
X65519430Y-99715267D01*
X65606082Y-99924463D01*
X65785013Y-100192252D01*
X66012748Y-100419987D01*
X66280537Y-100598918D01*
X66578088Y-100722168D01*
X66893967Y-100785000D01*
X67216033Y-100785000D01*
X67531912Y-100722168D01*
X67829463Y-100598918D01*
X68097252Y-100419987D01*
X68324987Y-100192252D01*
X68503918Y-99924463D01*
X68627168Y-99626912D01*
X68690000Y-99311033D01*
X68690000Y-98988967D01*
X69920000Y-98988967D01*
X69920000Y-99311033D01*
X69982832Y-99626912D01*
X70106082Y-99924463D01*
X70285013Y-100192252D01*
X70512748Y-100419987D01*
X70780537Y-100598918D01*
X71078088Y-100722168D01*
X71393967Y-100785000D01*
X71716033Y-100785000D01*
X72031912Y-100722168D01*
X72329463Y-100598918D01*
X72597252Y-100419987D01*
X72824987Y-100192252D01*
X73003918Y-99924463D01*
X73090570Y-99715267D01*
X73102832Y-99776912D01*
X73226082Y-100074463D01*
X73405013Y-100342252D01*
X73632748Y-100569987D01*
X73900537Y-100748918D01*
X74198088Y-100872168D01*
X74513967Y-100935000D01*
X74836033Y-100935000D01*
X75151912Y-100872168D01*
X75449463Y-100748918D01*
X75717252Y-100569987D01*
X75944987Y-100342252D01*
X76123918Y-100074463D01*
X76247168Y-99776912D01*
X76310000Y-99461033D01*
X76310000Y-99138967D01*
X77540000Y-99138967D01*
X77540000Y-99461033D01*
X77602832Y-99776912D01*
X77726082Y-100074463D01*
X77905013Y-100342252D01*
X78132748Y-100569987D01*
X78400537Y-100748918D01*
X78698088Y-100872168D01*
X79013967Y-100935000D01*
X79336033Y-100935000D01*
X79651912Y-100872168D01*
X79949463Y-100748918D01*
X80217252Y-100569987D01*
X80444987Y-100342252D01*
X80623918Y-100074463D01*
X80747168Y-99776912D01*
X80810000Y-99461033D01*
X80810000Y-99138967D01*
X80747168Y-98823088D01*
X80623918Y-98525537D01*
X80444987Y-98257748D01*
X80217252Y-98030013D01*
X79949463Y-97851082D01*
X79651912Y-97727832D01*
X79336033Y-97665000D01*
X79013967Y-97665000D01*
X78698088Y-97727832D01*
X78400537Y-97851082D01*
X78132748Y-98030013D01*
X77905013Y-98257748D01*
X77726082Y-98525537D01*
X77602832Y-98823088D01*
X77540000Y-99138967D01*
X76310000Y-99138967D01*
X76247168Y-98823088D01*
X76123918Y-98525537D01*
X75944987Y-98257748D01*
X75717252Y-98030013D01*
X75449463Y-97851082D01*
X75151912Y-97727832D01*
X74836033Y-97665000D01*
X74513967Y-97665000D01*
X74198088Y-97727832D01*
X73900537Y-97851082D01*
X73632748Y-98030013D01*
X73405013Y-98257748D01*
X73226082Y-98525537D01*
X73139430Y-98734733D01*
X73127168Y-98673088D01*
X73003918Y-98375537D01*
X72824987Y-98107748D01*
X72597252Y-97880013D01*
X72329463Y-97701082D01*
X72031912Y-97577832D01*
X71716033Y-97515000D01*
X71393967Y-97515000D01*
X71078088Y-97577832D01*
X70780537Y-97701082D01*
X70512748Y-97880013D01*
X70285013Y-98107748D01*
X70106082Y-98375537D01*
X69982832Y-98673088D01*
X69920000Y-98988967D01*
X68690000Y-98988967D01*
X68627168Y-98673088D01*
X68503918Y-98375537D01*
X68324987Y-98107748D01*
X68097252Y-97880013D01*
X67829463Y-97701082D01*
X67531912Y-97577832D01*
X67216033Y-97515000D01*
X66893967Y-97515000D01*
X66578088Y-97577832D01*
X66563625Y-97583823D01*
X63276932Y-94297130D01*
X63458088Y-94372168D01*
X63773967Y-94435000D01*
X64096033Y-94435000D01*
X64411912Y-94372168D01*
X64709463Y-94248918D01*
X64977252Y-94069987D01*
X65204987Y-93842252D01*
X65383918Y-93574463D01*
X65470570Y-93365267D01*
X65482832Y-93426912D01*
X65606082Y-93724463D01*
X65785013Y-93992252D01*
X66012748Y-94219987D01*
X66280537Y-94398918D01*
X66578088Y-94522168D01*
X66893967Y-94585000D01*
X67216033Y-94585000D01*
X67531912Y-94522168D01*
X67829463Y-94398918D01*
X68097252Y-94219987D01*
X68324987Y-93992252D01*
X68503918Y-93724463D01*
X68627168Y-93426912D01*
X68690000Y-93111033D01*
X68690000Y-92788967D01*
X68627168Y-92473088D01*
X68503918Y-92175537D01*
X68324987Y-91907748D01*
X68097252Y-91680013D01*
X67829463Y-91501082D01*
X67531912Y-91377832D01*
X67216033Y-91315000D01*
X66893967Y-91315000D01*
X66578088Y-91377832D01*
X66280537Y-91501082D01*
X66012748Y-91680013D01*
X65785013Y-91907748D01*
X65606082Y-92175537D01*
X65519430Y-92384733D01*
X65507168Y-92323088D01*
X65383918Y-92025537D01*
X65204987Y-91757748D01*
X64977252Y-91530013D01*
X64709463Y-91351082D01*
X64411912Y-91227832D01*
X64096033Y-91165000D01*
X63773967Y-91165000D01*
X63458088Y-91227832D01*
X63160537Y-91351082D01*
X62892748Y-91530013D01*
X62665013Y-91757748D01*
X62486082Y-92025537D01*
X62362832Y-92323088D01*
X62300000Y-92638967D01*
X62300000Y-92961033D01*
X62362832Y-93276912D01*
X62450305Y-93488090D01*
X62322647Y-93419854D01*
X62179386Y-93376397D01*
X62067733Y-93365400D01*
X62067722Y-93365400D01*
X62030400Y-93361724D01*
X61993078Y-93365400D01*
X60970515Y-93365400D01*
X61007168Y-93276912D01*
X61070000Y-92961033D01*
X61070000Y-92638967D01*
X61007168Y-92323088D01*
X60883918Y-92025537D01*
X60704987Y-91757748D01*
X60477252Y-91530013D01*
X60335400Y-91435230D01*
X60335400Y-82696601D01*
X69189500Y-91550702D01*
G36*
X66721822Y-53850000D02*
G01*
X59672322Y-53850000D01*
X59634999Y-53846324D01*
X59597676Y-53850000D01*
X59597667Y-53850000D01*
X59486014Y-53860997D01*
X59342753Y-53904454D01*
X59210724Y-53975026D01*
X59094999Y-54069999D01*
X59071201Y-54098997D01*
X58752668Y-54417530D01*
X58513722Y-54370000D01*
X58216278Y-54370000D01*
X57924549Y-54428029D01*
X57649747Y-54541856D01*
X57402431Y-54707107D01*
X57192107Y-54917431D01*
X57026856Y-55164747D01*
X56913029Y-55439549D01*
X56855000Y-55731278D01*
X56855000Y-56028722D01*
X56913029Y-56320451D01*
X57026856Y-56595253D01*
X57086823Y-56685000D01*
X56939042Y-56685000D01*
X56613504Y-56749754D01*
X56306853Y-56876772D01*
X56030875Y-57061175D01*
X55796175Y-57295875D01*
X55611772Y-57571853D01*
X55484754Y-57878504D01*
X55420000Y-58204042D01*
X55420000Y-58535958D01*
X55484754Y-58861496D01*
X55611772Y-59168147D01*
X55796175Y-59444125D01*
X56030875Y-59678825D01*
X56306853Y-59863228D01*
X56613504Y-59990246D01*
X56939042Y-60055000D01*
X57270958Y-60055000D01*
X57596496Y-59990246D01*
X57903147Y-59863228D01*
X58179125Y-59678825D01*
X58413825Y-59444125D01*
X58598228Y-59168147D01*
X58725246Y-58861496D01*
X58790000Y-58535958D01*
X58790000Y-58204042D01*
X58725246Y-57878504D01*
X58598228Y-57571853D01*
X58476717Y-57390000D01*
X58513722Y-57390000D01*
X58805451Y-57331971D01*
X59080253Y-57218144D01*
X59327569Y-57052893D01*
X59537893Y-56842569D01*
X59703144Y-56595253D01*
X59816971Y-56320451D01*
X59875000Y-56028722D01*
X59875000Y-55731278D01*
X59827470Y-55492332D01*
X59949802Y-55370000D01*
X61441837Y-55370000D01*
X61413029Y-55439549D01*
X61355000Y-55731278D01*
X61355000Y-56028722D01*
X61413029Y-56320451D01*
X61526856Y-56595253D01*
X61692107Y-56842569D01*
X61902431Y-57052893D01*
X62149747Y-57218144D01*
X62424549Y-57331971D01*
X62716278Y-57390000D01*
X62743283Y-57390000D01*
X62621772Y-57571853D01*
X62494754Y-57878504D01*
X62430000Y-58204042D01*
X62430000Y-58535958D01*
X62494754Y-58861496D01*
X62621772Y-59168147D01*
X62806175Y-59444125D01*
X63040875Y-59678825D01*
X63316853Y-59863228D01*
X63623504Y-59990246D01*
X63949042Y-60055000D01*
X64280958Y-60055000D01*
X64606496Y-59990246D01*
X64913147Y-59863228D01*
X65189125Y-59678825D01*
X65423825Y-59444125D01*
X65608228Y-59168147D01*
X65735246Y-58861496D01*
X65800000Y-58535958D01*
X65800000Y-58204042D01*
X65759414Y-58000000D01*
X66511928Y-58000000D01*
X66524188Y-58124482D01*
X66560498Y-58244180D01*
X66619463Y-58354494D01*
X66698815Y-58451185D01*
X66795506Y-58530537D01*
X66905820Y-58589502D01*
X67025518Y-58625812D01*
X67150000Y-58638072D01*
X67714250Y-58635000D01*
X67873000Y-58476250D01*
X67873000Y-57277000D01*
X66673750Y-57277000D01*
X66515000Y-57435750D01*
X66511928Y-58000000D01*
X65759414Y-58000000D01*
X65735246Y-57878504D01*
X65608228Y-57571853D01*
X65423825Y-57295875D01*
X65189125Y-57061175D01*
X64913147Y-56876772D01*
X64606496Y-56749754D01*
X64280958Y-56685000D01*
X64143177Y-56685000D01*
X64203144Y-56595253D01*
X64316971Y-56320451D01*
X64375000Y-56028722D01*
X64375000Y-55731278D01*
X64316971Y-55439549D01*
X64288163Y-55370000D01*
X66721822Y-55370000D01*
X66846525Y-55556632D01*
X66978380Y-55688487D01*
X66905820Y-55710498D01*
X66795506Y-55769463D01*
X66698815Y-55848815D01*
X66619463Y-55945506D01*
X66560498Y-56055820D01*
X66524188Y-56175518D01*
X66511928Y-56300000D01*
X66515000Y-56864250D01*
X66673750Y-57023000D01*
X67873000Y-57023000D01*
X67873000Y-57003000D01*
X68127000Y-57003000D01*
X68127000Y-57023000D01*
X69326250Y-57023000D01*
X69485000Y-56864250D01*
X69488072Y-56300000D01*
X69475812Y-56175518D01*
X69439502Y-56055820D01*
X69380537Y-55945506D01*
X69301185Y-55848815D01*
X69204494Y-55769463D01*
X69094180Y-55710498D01*
X69021620Y-55688487D01*
X69153475Y-55556632D01*
X69315990Y-55313411D01*
X69427932Y-55043158D01*
X69485000Y-54756260D01*
X69485000Y-54463740D01*
X69427932Y-54176842D01*
X69315990Y-53906589D01*
X69174610Y-53694999D01*
X72974099Y-53694999D01*
X69359174Y-57309924D01*
X69326250Y-57277000D01*
X68127000Y-57277000D01*
X68127000Y-58476250D01*
X68159924Y-58509174D01*
X58456999Y-68212100D01*
X58009711Y-68212100D01*
X57965774Y-68168163D01*
X57796256Y-68054895D01*
X57607898Y-67976874D01*
X57407939Y-67937100D01*
X57204061Y-67937100D01*
X57004102Y-67976874D01*
X56815744Y-68054895D01*
X56646226Y-68168163D01*
X56502063Y-68312326D01*
X56388795Y-68481844D01*
X56310774Y-68670202D01*
X56271000Y-68870161D01*
X56271000Y-69074039D01*
X56310774Y-69273998D01*
X56388795Y-69462356D01*
X56502063Y-69631874D01*
X56646226Y-69776037D01*
X56815744Y-69889305D01*
X57004102Y-69967326D01*
X57204061Y-70007100D01*
X57407939Y-70007100D01*
X57580172Y-69972841D01*
X57585595Y-70000103D01*
X55670000Y-71915698D01*
X55670000Y-71653589D01*
X55616775Y-71386011D01*
X55512371Y-71133957D01*
X55360799Y-70907114D01*
X55167886Y-70714201D01*
X54941043Y-70562629D01*
X54688989Y-70458225D01*
X54421411Y-70405000D01*
X54148589Y-70405000D01*
X53881011Y-70458225D01*
X53628957Y-70562629D01*
X53402114Y-70714201D01*
X53209201Y-70907114D01*
X53057629Y-71133957D01*
X52953225Y-71386011D01*
X52900000Y-71653589D01*
X52900000Y-71926411D01*
X52953225Y-72193989D01*
X53057629Y-72446043D01*
X53209201Y-72672886D01*
X53402114Y-72865799D01*
X53628957Y-73017371D01*
X53881011Y-73121775D01*
X54148589Y-73175000D01*
X54410699Y-73175000D01*
X51339003Y-76246696D01*
X51309999Y-76270499D01*
X51254871Y-76337674D01*
X51215026Y-76386224D01*
X51161314Y-76486711D01*
X51144454Y-76518254D01*
X51100997Y-76661515D01*
X51090000Y-76773168D01*
X51090000Y-76773178D01*
X51086324Y-76810500D01*
X51090000Y-76847822D01*
X51090001Y-91518955D01*
X51074180Y-91510498D01*
X50954482Y-91474188D01*
X50830000Y-91461928D01*
X48695000Y-91461928D01*
X48695000Y-58835666D01*
X49182823Y-59323489D01*
X49778182Y-59721295D01*
X50439710Y-59995309D01*
X51141984Y-60135000D01*
X51858016Y-60135000D01*
X52560290Y-59995309D01*
X53221818Y-59721295D01*
X53817177Y-59323489D01*
X54323489Y-58817177D01*
X54721295Y-58221818D01*
X54995309Y-57560290D01*
X55135000Y-56858016D01*
X55135000Y-56141984D01*
X54995309Y-55439710D01*
X54721295Y-54778182D01*
X54323489Y-54182823D01*
X53835665Y-53694999D01*
X66825390Y-53694999D01*
X66721822Y-53850000D01*
G37*
X66721822Y-53850000D02*
X59672322Y-53850000D01*
X59634999Y-53846324D01*
X59597676Y-53850000D01*
X59597667Y-53850000D01*
X59486014Y-53860997D01*
X59342753Y-53904454D01*
X59210724Y-53975026D01*
X59094999Y-54069999D01*
X59071201Y-54098997D01*
X58752668Y-54417530D01*
X58513722Y-54370000D01*
X58216278Y-54370000D01*
X57924549Y-54428029D01*
X57649747Y-54541856D01*
X57402431Y-54707107D01*
X57192107Y-54917431D01*
X57026856Y-55164747D01*
X56913029Y-55439549D01*
X56855000Y-55731278D01*
X56855000Y-56028722D01*
X56913029Y-56320451D01*
X57026856Y-56595253D01*
X57086823Y-56685000D01*
X56939042Y-56685000D01*
X56613504Y-56749754D01*
X56306853Y-56876772D01*
X56030875Y-57061175D01*
X55796175Y-57295875D01*
X55611772Y-57571853D01*
X55484754Y-57878504D01*
X55420000Y-58204042D01*
X55420000Y-58535958D01*
X55484754Y-58861496D01*
X55611772Y-59168147D01*
X55796175Y-59444125D01*
X56030875Y-59678825D01*
X56306853Y-59863228D01*
X56613504Y-59990246D01*
X56939042Y-60055000D01*
X57270958Y-60055000D01*
X57596496Y-59990246D01*
X57903147Y-59863228D01*
X58179125Y-59678825D01*
X58413825Y-59444125D01*
X58598228Y-59168147D01*
X58725246Y-58861496D01*
X58790000Y-58535958D01*
X58790000Y-58204042D01*
X58725246Y-57878504D01*
X58598228Y-57571853D01*
X58476717Y-57390000D01*
X58513722Y-57390000D01*
X58805451Y-57331971D01*
X59080253Y-57218144D01*
X59327569Y-57052893D01*
X59537893Y-56842569D01*
X59703144Y-56595253D01*
X59816971Y-56320451D01*
X59875000Y-56028722D01*
X59875000Y-55731278D01*
X59827470Y-55492332D01*
X59949802Y-55370000D01*
X61441837Y-55370000D01*
X61413029Y-55439549D01*
X61355000Y-55731278D01*
X61355000Y-56028722D01*
X61413029Y-56320451D01*
X61526856Y-56595253D01*
X61692107Y-56842569D01*
X61902431Y-57052893D01*
X62149747Y-57218144D01*
X62424549Y-57331971D01*
X62716278Y-57390000D01*
X62743283Y-57390000D01*
X62621772Y-57571853D01*
X62494754Y-57878504D01*
X62430000Y-58204042D01*
X62430000Y-58535958D01*
X62494754Y-58861496D01*
X62621772Y-59168147D01*
X62806175Y-59444125D01*
X63040875Y-59678825D01*
X63316853Y-59863228D01*
X63623504Y-59990246D01*
X63949042Y-60055000D01*
X64280958Y-60055000D01*
X64606496Y-59990246D01*
X64913147Y-59863228D01*
X65189125Y-59678825D01*
X65423825Y-59444125D01*
X65608228Y-59168147D01*
X65735246Y-58861496D01*
X65800000Y-58535958D01*
X65800000Y-58204042D01*
X65759414Y-58000000D01*
X66511928Y-58000000D01*
X66524188Y-58124482D01*
X66560498Y-58244180D01*
X66619463Y-58354494D01*
X66698815Y-58451185D01*
X66795506Y-58530537D01*
X66905820Y-58589502D01*
X67025518Y-58625812D01*
X67150000Y-58638072D01*
X67714250Y-58635000D01*
X67873000Y-58476250D01*
X67873000Y-57277000D01*
X66673750Y-57277000D01*
X66515000Y-57435750D01*
X66511928Y-58000000D01*
X65759414Y-58000000D01*
X65735246Y-57878504D01*
X65608228Y-57571853D01*
X65423825Y-57295875D01*
X65189125Y-57061175D01*
X64913147Y-56876772D01*
X64606496Y-56749754D01*
X64280958Y-56685000D01*
X64143177Y-56685000D01*
X64203144Y-56595253D01*
X64316971Y-56320451D01*
X64375000Y-56028722D01*
X64375000Y-55731278D01*
X64316971Y-55439549D01*
X64288163Y-55370000D01*
X66721822Y-55370000D01*
X66846525Y-55556632D01*
X66978380Y-55688487D01*
X66905820Y-55710498D01*
X66795506Y-55769463D01*
X66698815Y-55848815D01*
X66619463Y-55945506D01*
X66560498Y-56055820D01*
X66524188Y-56175518D01*
X66511928Y-56300000D01*
X66515000Y-56864250D01*
X66673750Y-57023000D01*
X67873000Y-57023000D01*
X67873000Y-57003000D01*
X68127000Y-57003000D01*
X68127000Y-57023000D01*
X69326250Y-57023000D01*
X69485000Y-56864250D01*
X69488072Y-56300000D01*
X69475812Y-56175518D01*
X69439502Y-56055820D01*
X69380537Y-55945506D01*
X69301185Y-55848815D01*
X69204494Y-55769463D01*
X69094180Y-55710498D01*
X69021620Y-55688487D01*
X69153475Y-55556632D01*
X69315990Y-55313411D01*
X69427932Y-55043158D01*
X69485000Y-54756260D01*
X69485000Y-54463740D01*
X69427932Y-54176842D01*
X69315990Y-53906589D01*
X69174610Y-53694999D01*
X72974099Y-53694999D01*
X69359174Y-57309924D01*
X69326250Y-57277000D01*
X68127000Y-57277000D01*
X68127000Y-58476250D01*
X68159924Y-58509174D01*
X58456999Y-68212100D01*
X58009711Y-68212100D01*
X57965774Y-68168163D01*
X57796256Y-68054895D01*
X57607898Y-67976874D01*
X57407939Y-67937100D01*
X57204061Y-67937100D01*
X57004102Y-67976874D01*
X56815744Y-68054895D01*
X56646226Y-68168163D01*
X56502063Y-68312326D01*
X56388795Y-68481844D01*
X56310774Y-68670202D01*
X56271000Y-68870161D01*
X56271000Y-69074039D01*
X56310774Y-69273998D01*
X56388795Y-69462356D01*
X56502063Y-69631874D01*
X56646226Y-69776037D01*
X56815744Y-69889305D01*
X57004102Y-69967326D01*
X57204061Y-70007100D01*
X57407939Y-70007100D01*
X57580172Y-69972841D01*
X57585595Y-70000103D01*
X55670000Y-71915698D01*
X55670000Y-71653589D01*
X55616775Y-71386011D01*
X55512371Y-71133957D01*
X55360799Y-70907114D01*
X55167886Y-70714201D01*
X54941043Y-70562629D01*
X54688989Y-70458225D01*
X54421411Y-70405000D01*
X54148589Y-70405000D01*
X53881011Y-70458225D01*
X53628957Y-70562629D01*
X53402114Y-70714201D01*
X53209201Y-70907114D01*
X53057629Y-71133957D01*
X52953225Y-71386011D01*
X52900000Y-71653589D01*
X52900000Y-71926411D01*
X52953225Y-72193989D01*
X53057629Y-72446043D01*
X53209201Y-72672886D01*
X53402114Y-72865799D01*
X53628957Y-73017371D01*
X53881011Y-73121775D01*
X54148589Y-73175000D01*
X54410699Y-73175000D01*
X51339003Y-76246696D01*
X51309999Y-76270499D01*
X51254871Y-76337674D01*
X51215026Y-76386224D01*
X51161314Y-76486711D01*
X51144454Y-76518254D01*
X51100997Y-76661515D01*
X51090000Y-76773168D01*
X51090000Y-76773178D01*
X51086324Y-76810500D01*
X51090000Y-76847822D01*
X51090001Y-91518955D01*
X51074180Y-91510498D01*
X50954482Y-91474188D01*
X50830000Y-91461928D01*
X48695000Y-91461928D01*
X48695000Y-58835666D01*
X49182823Y-59323489D01*
X49778182Y-59721295D01*
X50439710Y-59995309D01*
X51141984Y-60135000D01*
X51858016Y-60135000D01*
X52560290Y-59995309D01*
X53221818Y-59721295D01*
X53817177Y-59323489D01*
X54323489Y-58817177D01*
X54721295Y-58221818D01*
X54995309Y-57560290D01*
X55135000Y-56858016D01*
X55135000Y-56141984D01*
X54995309Y-55439710D01*
X54721295Y-54778182D01*
X54323489Y-54182823D01*
X53835665Y-53694999D01*
X66825390Y-53694999D01*
X66721822Y-53850000D01*
G36*
X82005000Y-68714250D02*
G01*
X82163750Y-68873000D01*
X83363000Y-68873000D01*
X83363000Y-68853000D01*
X83617000Y-68853000D01*
X83617000Y-68873000D01*
X84816250Y-68873000D01*
X84975000Y-68714250D01*
X84976006Y-68529400D01*
X172813335Y-68529400D01*
X172801968Y-68556843D01*
X172744900Y-68843741D01*
X172744900Y-69136261D01*
X172801968Y-69423159D01*
X172913910Y-69693412D01*
X173076425Y-69936633D01*
X173283268Y-70143476D01*
X173457660Y-70260001D01*
X173283268Y-70376526D01*
X173076425Y-70583369D01*
X172913910Y-70826590D01*
X172801968Y-71096843D01*
X172744900Y-71383741D01*
X172744900Y-71676261D01*
X172801968Y-71963159D01*
X172872981Y-72134600D01*
X172548002Y-72134600D01*
X170077804Y-69664403D01*
X170054001Y-69635399D01*
X169938276Y-69540426D01*
X169806247Y-69469854D01*
X169662986Y-69426397D01*
X169551333Y-69415400D01*
X169551322Y-69415400D01*
X169514000Y-69411724D01*
X169476678Y-69415400D01*
X84975706Y-69415400D01*
X84975000Y-69285750D01*
X84816250Y-69127000D01*
X83617000Y-69127000D01*
X83617000Y-69147000D01*
X83363000Y-69147000D01*
X83363000Y-69127000D01*
X82163750Y-69127000D01*
X82005000Y-69285750D01*
X82004294Y-69415400D01*
X79022801Y-69415400D01*
X79908802Y-68529400D01*
X82003994Y-68529400D01*
X82005000Y-68714250D01*
G37*
X82005000Y-68714250D02*
X82163750Y-68873000D01*
X83363000Y-68873000D01*
X83363000Y-68853000D01*
X83617000Y-68853000D01*
X83617000Y-68873000D01*
X84816250Y-68873000D01*
X84975000Y-68714250D01*
X84976006Y-68529400D01*
X172813335Y-68529400D01*
X172801968Y-68556843D01*
X172744900Y-68843741D01*
X172744900Y-69136261D01*
X172801968Y-69423159D01*
X172913910Y-69693412D01*
X173076425Y-69936633D01*
X173283268Y-70143476D01*
X173457660Y-70260001D01*
X173283268Y-70376526D01*
X173076425Y-70583369D01*
X172913910Y-70826590D01*
X172801968Y-71096843D01*
X172744900Y-71383741D01*
X172744900Y-71676261D01*
X172801968Y-71963159D01*
X172872981Y-72134600D01*
X172548002Y-72134600D01*
X170077804Y-69664403D01*
X170054001Y-69635399D01*
X169938276Y-69540426D01*
X169806247Y-69469854D01*
X169662986Y-69426397D01*
X169551333Y-69415400D01*
X169551322Y-69415400D01*
X169514000Y-69411724D01*
X169476678Y-69415400D01*
X84975706Y-69415400D01*
X84975000Y-69285750D01*
X84816250Y-69127000D01*
X83617000Y-69127000D01*
X83617000Y-69147000D01*
X83363000Y-69147000D01*
X83363000Y-69127000D01*
X82163750Y-69127000D01*
X82005000Y-69285750D01*
X82004294Y-69415400D01*
X79022801Y-69415400D01*
X79908802Y-68529400D01*
X82003994Y-68529400D01*
X82005000Y-68714250D01*
M02*
