G04 #@! TF.GenerationSoftware,KiCad,Pcbnew,(5.1.5)-2*
G04 #@! TF.CreationDate,2020-09-18T11:59:30-06:00*
G04 #@! TF.ProjectId,Pi-A3-Game-Console,50692d41-332d-4476-916d-652d436f6e73,rev?*
G04 #@! TF.SameCoordinates,Original*
G04 #@! TF.FileFunction,Legend,Top*
G04 #@! TF.FilePolarity,Positive*
%FSLAX46Y46*%
G04 Gerber Fmt 4.6, Leading zero omitted, Abs format (unit mm)*
G04 Created by KiCad (PCBNEW (5.1.5)-2) date 2020-09-18 11:59:30*
%MOMM*%
%LPD*%
G04 APERTURE LIST*
%ADD10C,0.120000*%
%ADD11C,0.100000*%
%ADD12C,0.200000*%
%ADD13C,0.150000*%
G04 APERTURE END LIST*
D10*
X201000000Y-86500000D02*
X201000000Y-88250000D01*
X198000000Y-88250000D02*
X198000000Y-86500000D01*
X198000000Y-83500000D02*
G75*
G02X201000000Y-86500000I0J-3000000D01*
G01*
D11*
X215000000Y-96750000D02*
G75*
G03X215000000Y-96750000I-7500000J0D01*
G01*
X209250000Y-96750000D02*
G75*
G03X209250000Y-96750000I-1750000J0D01*
G01*
X209250000Y-96750000D02*
G75*
G03X209250000Y-96750000I-1750000J0D01*
G01*
X217000000Y-105250000D02*
X217000000Y-88250000D01*
X217000000Y-88250000D02*
X198000000Y-88250000D01*
X216500000Y-105250000D02*
X216500000Y-107100000D01*
X198000000Y-105250000D02*
X217000000Y-105250000D01*
X198000000Y-88250000D02*
X198000000Y-105250000D01*
X212699998Y-107100000D02*
G75*
G02X216500000Y-107100000I1900001J0D01*
G01*
X198000000Y-88250000D02*
X217000000Y-88250000D01*
X197025000Y-90400000D02*
G75*
G03X197025000Y-90400000I-875000J0D01*
G01*
X198000000Y-88500000D02*
X198000000Y-92300000D01*
X212699999Y-105250000D02*
X216500000Y-105250000D01*
X198000000Y-88250000D02*
X217000000Y-88250000D01*
X185150001Y-86500000D02*
X185150001Y-83500000D01*
X216499999Y-107100000D02*
G75*
G03X216499999Y-107100000I-1900000J0D01*
G01*
X198000000Y-105250000D02*
X198000000Y-88250000D01*
X201000000Y-88250000D02*
X198000000Y-88250000D01*
X196150000Y-88500000D02*
X198000000Y-88500000D01*
X198000000Y-86500000D02*
X185150001Y-86500000D01*
X198000000Y-92300000D02*
X196150000Y-92300000D01*
X215474999Y-107100000D02*
G75*
G03X215474999Y-107100000I-875000J0D01*
G01*
X198000000Y-105250000D02*
X217000000Y-105250000D01*
X217000000Y-105250000D02*
X198000000Y-105250000D01*
X212699999Y-105250000D02*
X198000000Y-105250000D01*
X212700000Y-107100000D02*
X212699999Y-105250000D01*
X217000000Y-88250000D02*
X217000000Y-105250000D01*
X198000000Y-88250000D02*
X198000000Y-105250000D01*
X215474999Y-107100000D02*
G75*
G03X215474999Y-107100000I-875000J0D01*
G01*
X217000000Y-88250000D02*
X217000000Y-105250000D01*
X198000000Y-105250000D02*
X198000000Y-92300000D01*
X198050000Y-90400000D02*
G75*
G03X198050000Y-90400000I-1900000J0D01*
G01*
X217000000Y-88250000D02*
X198000000Y-88250000D01*
X185150001Y-83500000D02*
X198000000Y-83500000D01*
X196150000Y-92300000D02*
G75*
G02X196150000Y-88500000I0J1900000D01*
G01*
X197025000Y-90400000D02*
G75*
G03X197025000Y-90400000I-875000J0D01*
G01*
X217000000Y-105250000D02*
X216500000Y-105250000D01*
X198000000Y-88500000D02*
X198000000Y-88250000D01*
X210500000Y-96750000D02*
G75*
G03X210500000Y-96750000I-3000000J0D01*
G01*
X217000000Y-105250000D02*
X217000000Y-88250000D01*
D10*
X184450000Y-85800000D02*
X184450000Y-86200000D01*
X184850000Y-86000000D02*
X184450000Y-85800000D01*
X184450000Y-86200000D02*
X184850000Y-86000000D01*
X187040000Y-80925000D02*
X187640000Y-80925000D01*
X187040000Y-81035000D02*
X187040000Y-80925000D01*
X187040000Y-89075000D02*
X187640000Y-89075000D01*
X187040000Y-88965000D02*
X187040000Y-89075000D01*
X54500000Y-78000000D02*
X56250000Y-78000000D01*
X56250000Y-81000000D02*
X54500000Y-81000000D01*
X51500000Y-81000000D02*
G75*
G02X54500000Y-78000000I3000000J0D01*
G01*
D11*
X72250000Y-71500000D02*
G75*
G03X72250000Y-71500000I-7500000J0D01*
G01*
X66500000Y-71500000D02*
G75*
G03X66500000Y-71500000I-1750000J0D01*
G01*
X66500000Y-71500000D02*
G75*
G03X66500000Y-71500000I-1750000J0D01*
G01*
X73250000Y-62000000D02*
X56250000Y-62000000D01*
X56250000Y-62000000D02*
X56250000Y-81000000D01*
X73250000Y-62500000D02*
X75100000Y-62500000D01*
X73250000Y-81000000D02*
X73250000Y-62000000D01*
X56250000Y-81000000D02*
X73250000Y-81000000D01*
X75100000Y-66300002D02*
G75*
G02X75100000Y-62500000I0J1900001D01*
G01*
X56250000Y-81000000D02*
X56250000Y-62000000D01*
X59275000Y-82850000D02*
G75*
G03X59275000Y-82850000I-875000J0D01*
G01*
X56500000Y-81000000D02*
X60300000Y-81000000D01*
X73250000Y-66300001D02*
X73250000Y-62500000D01*
X56250000Y-81000000D02*
X56250000Y-62000000D01*
X54500000Y-93849999D02*
X51500000Y-93849999D01*
X77000000Y-64400001D02*
G75*
G03X77000000Y-64400001I-1900000J0D01*
G01*
X73250000Y-81000000D02*
X56250000Y-81000000D01*
X56250000Y-78000000D02*
X56250000Y-81000000D01*
X56500000Y-82850000D02*
X56500000Y-81000000D01*
X54500000Y-81000000D02*
X54500000Y-93849999D01*
X60300000Y-81000000D02*
X60300000Y-82850000D01*
X75975000Y-64400001D02*
G75*
G03X75975000Y-64400001I-875000J0D01*
G01*
X73250000Y-81000000D02*
X73250000Y-62000000D01*
X73250000Y-62000000D02*
X73250000Y-81000000D01*
X73250000Y-66300001D02*
X73250000Y-81000000D01*
X75100000Y-66300000D02*
X73250000Y-66300001D01*
X56250000Y-62000000D02*
X73250000Y-62000000D01*
X56250000Y-81000000D02*
X73250000Y-81000000D01*
X75975000Y-64400001D02*
G75*
G03X75975000Y-64400001I-875000J0D01*
G01*
X56250000Y-62000000D02*
X73250000Y-62000000D01*
X73250000Y-81000000D02*
X60300000Y-81000000D01*
X60300000Y-82850000D02*
G75*
G03X60300000Y-82850000I-1900000J0D01*
G01*
X56250000Y-62000000D02*
X56250000Y-81000000D01*
X51500000Y-93849999D02*
X51500000Y-81000000D01*
X60300000Y-82850000D02*
G75*
G02X56500000Y-82850000I-1900000J0D01*
G01*
X59275000Y-82850000D02*
G75*
G03X59275000Y-82850000I-875000J0D01*
G01*
X73250000Y-62000000D02*
X73250000Y-62500000D01*
X56500000Y-81000000D02*
X56250000Y-81000000D01*
X67750000Y-71500000D02*
G75*
G03X67750000Y-71500000I-3000000J0D01*
G01*
X73250000Y-62000000D02*
X56250000Y-62000000D01*
D10*
X53800000Y-94550000D02*
X54200000Y-94550000D01*
X54000000Y-94150000D02*
X53800000Y-94550000D01*
X54200000Y-94550000D02*
X54000000Y-94150000D01*
X48925000Y-91960000D02*
X48925000Y-91360000D01*
X49035000Y-91960000D02*
X48925000Y-91960000D01*
X57075000Y-91960000D02*
X57075000Y-91360000D01*
X56965000Y-91960000D02*
X57075000Y-91960000D01*
D12*
X189040000Y-54640000D02*
X81000000Y-54640000D01*
X182520000Y-113350000D02*
X99000000Y-113350000D01*
X81000000Y-54640000D02*
X81000000Y-116380000D01*
X99000000Y-57669999D02*
X182520000Y-57669999D01*
X99000000Y-113350000D02*
X99000000Y-57669999D01*
X81000000Y-54640000D02*
X81000000Y-116380000D01*
X189040000Y-116380000D02*
X189040000Y-54640000D01*
X81000000Y-116380000D02*
X189040000Y-116380000D01*
X99000000Y-113350000D02*
X99000000Y-57669999D01*
X189040000Y-116380000D02*
X189040000Y-54640000D01*
X182520000Y-113350000D02*
X99000000Y-113350000D01*
X182520000Y-57669999D02*
X182520000Y-113350000D01*
X81000000Y-54640000D02*
X81000000Y-116380000D01*
X99000000Y-57669999D02*
X182520000Y-57669999D01*
X99000000Y-57669999D02*
X99000000Y-113350000D01*
X81000000Y-116380000D02*
X189040000Y-116380000D01*
X99000000Y-113350000D02*
X182520000Y-113350000D01*
X182520000Y-57670000D02*
X99000000Y-57669999D01*
X81000000Y-116380000D02*
X189040000Y-116380000D01*
X182520000Y-113350000D02*
X182520000Y-57669999D01*
X81000000Y-54640000D02*
X81000000Y-116380000D01*
X189040000Y-116380000D02*
X189040000Y-54640000D01*
X81000000Y-116380000D02*
X189040000Y-116380000D01*
X189040000Y-54640000D02*
X81000000Y-54640000D01*
X189040000Y-54640000D02*
X81000000Y-54640000D01*
X189040000Y-54640000D02*
X81000000Y-54640000D01*
X182520000Y-57669999D02*
X182520000Y-113350000D01*
X189040000Y-116380000D02*
X189040000Y-54640000D01*
D10*
X81670000Y-67670000D02*
X83000000Y-67670000D01*
X81670000Y-69000000D02*
X81670000Y-67670000D01*
X81670000Y-70270000D02*
X84330000Y-70270000D01*
X84330000Y-70270000D02*
X84330000Y-103350000D01*
X81670000Y-70270000D02*
X81670000Y-103350000D01*
X81670000Y-103350000D02*
X84330000Y-103350000D01*
X203935000Y-53145000D02*
X203935000Y-55095000D01*
X203935000Y-57315000D02*
X203935000Y-60545000D01*
X203215000Y-62465000D02*
X202135000Y-62465000D01*
X197915000Y-62465000D02*
X196835000Y-62465000D01*
X196115000Y-57315000D02*
X196115000Y-60545000D01*
X196115000Y-53145000D02*
X196115000Y-55095000D01*
X202135000Y-62465000D02*
X202135000Y-62895000D01*
X196115000Y-53145000D02*
X203935000Y-53145000D01*
X178099900Y-60040001D02*
X172899900Y-60040001D01*
X178099900Y-108360001D02*
X178099900Y-60040001D01*
X172899900Y-110960001D02*
X172899900Y-60040001D01*
X178099900Y-108360001D02*
X175499900Y-108360001D01*
X175499900Y-108360001D02*
X175499900Y-110960001D01*
X175499900Y-110960001D02*
X172899900Y-110960001D01*
X178099900Y-109630001D02*
X178099900Y-110960001D01*
X178099900Y-110960001D02*
X176769900Y-110960001D01*
D11*
X227999900Y-115000001D02*
G75*
G02X224999900Y-118000001I-3000000J0D01*
G01*
X172899901Y-110960000D02*
X172899901Y-60040001D01*
X171999900Y-56000000D02*
G75*
G02X174999901Y-53000001I3000000J-1D01*
G01*
X178099900Y-108360002D02*
X175499901Y-108360002D01*
X175499901Y-110960000D02*
X175499901Y-108360002D01*
X171999901Y-56000001D02*
X171999900Y-115000000D01*
X174999901Y-118000000D02*
X224999900Y-118000001D01*
X172899901Y-60040001D02*
X178099900Y-60040001D01*
X227999900Y-115000001D02*
X227999900Y-56000002D01*
X175499901Y-110960000D02*
X172899901Y-110960000D01*
X178099900Y-60040001D02*
X178099900Y-108360002D01*
X224999900Y-53000001D02*
X174999901Y-53000001D01*
X174999901Y-118000001D02*
G75*
G02X171999900Y-115000000I0J3000001D01*
G01*
X224999900Y-53000002D02*
G75*
G02X227999900Y-56000002I0J-3000000D01*
G01*
D10*
X59000000Y-117500000D02*
X63500000Y-117500000D01*
X57750000Y-113500000D02*
X57750000Y-115000000D01*
X63500000Y-111000000D02*
X59000000Y-111000000D01*
X64750000Y-115000000D02*
X64750000Y-113500000D01*
X208170000Y-114680000D02*
X208170000Y-113180000D01*
X206920000Y-110680000D02*
X202420000Y-110680000D01*
X201170000Y-113180000D02*
X201170000Y-114680000D01*
X202420000Y-117180000D02*
X206920000Y-117180000D01*
X75750000Y-115000000D02*
X75750000Y-113500000D01*
X74500000Y-111000000D02*
X70000000Y-111000000D01*
X68750000Y-113500000D02*
X68750000Y-115000000D01*
X70000000Y-117500000D02*
X74500000Y-117500000D01*
X219600000Y-114680000D02*
X219600000Y-113180000D01*
X218350000Y-110680000D02*
X213850000Y-110680000D01*
X212600000Y-113180000D02*
X212600000Y-114680000D01*
X213850000Y-117180000D02*
X218350000Y-117180000D01*
X204420000Y-69800000D02*
X202920000Y-69800000D01*
X200420000Y-71050000D02*
X200420000Y-75550000D01*
X202920000Y-76800000D02*
X204420000Y-76800000D01*
X206920000Y-75550000D02*
X206920000Y-71050000D01*
X212040000Y-63450000D02*
X210540000Y-63450000D01*
X208040000Y-64700000D02*
X208040000Y-69200000D01*
X210540000Y-70450000D02*
X212040000Y-70450000D01*
X214540000Y-69200000D02*
X214540000Y-64700000D01*
X212040000Y-76150000D02*
X210540000Y-76150000D01*
X208040000Y-77400000D02*
X208040000Y-81900000D01*
X210540000Y-83150000D02*
X212040000Y-83150000D01*
X214540000Y-81900000D02*
X214540000Y-77400000D01*
X219660000Y-69800000D02*
X218160000Y-69800000D01*
X215660000Y-71050000D02*
X215660000Y-75550000D01*
X218160000Y-76800000D02*
X219660000Y-76800000D01*
X222160000Y-75550000D02*
X222160000Y-71050000D01*
X70055000Y-99010000D02*
X68555000Y-99010000D01*
X66055000Y-100260000D02*
X66055000Y-104760000D01*
X68555000Y-106010000D02*
X70055000Y-106010000D01*
X72555000Y-104760000D02*
X72555000Y-100260000D01*
X77675000Y-92660000D02*
X76175000Y-92660000D01*
X73675000Y-93910000D02*
X73675000Y-98410000D01*
X76175000Y-99660000D02*
X77675000Y-99660000D01*
X80175000Y-98410000D02*
X80175000Y-93910000D01*
X62435000Y-92660000D02*
X60935000Y-92660000D01*
X58435000Y-93910000D02*
X58435000Y-98410000D01*
X60935000Y-99660000D02*
X62435000Y-99660000D01*
X64935000Y-98410000D02*
X64935000Y-93910000D01*
X70055000Y-86310000D02*
X68555000Y-86310000D01*
X66055000Y-87560000D02*
X66055000Y-92060000D01*
X68555000Y-93310000D02*
X70055000Y-93310000D01*
X72555000Y-92060000D02*
X72555000Y-87560000D01*
D13*
X181352380Y-85333333D02*
X182066666Y-85333333D01*
X182209523Y-85380952D01*
X182304761Y-85476190D01*
X182352380Y-85619047D01*
X182352380Y-85714285D01*
X181685714Y-84428571D02*
X182352380Y-84428571D01*
X181304761Y-84666666D02*
X182019047Y-84904761D01*
X182019047Y-84285714D01*
X52666666Y-96552380D02*
X52666666Y-97266666D01*
X52619047Y-97409523D01*
X52523809Y-97504761D01*
X52380952Y-97552380D01*
X52285714Y-97552380D01*
X53047619Y-96552380D02*
X53666666Y-96552380D01*
X53333333Y-96933333D01*
X53476190Y-96933333D01*
X53571428Y-96980952D01*
X53619047Y-97028571D01*
X53666666Y-97123809D01*
X53666666Y-97361904D01*
X53619047Y-97457142D01*
X53571428Y-97504761D01*
X53476190Y-97552380D01*
X53190476Y-97552380D01*
X53095238Y-97504761D01*
X53047619Y-97457142D01*
X82666666Y-66122380D02*
X82666666Y-66836666D01*
X82619047Y-66979523D01*
X82523809Y-67074761D01*
X82380952Y-67122380D01*
X82285714Y-67122380D01*
X83095238Y-66217619D02*
X83142857Y-66170000D01*
X83238095Y-66122380D01*
X83476190Y-66122380D01*
X83571428Y-66170000D01*
X83619047Y-66217619D01*
X83666666Y-66312857D01*
X83666666Y-66408095D01*
X83619047Y-66550952D01*
X83047619Y-67122380D01*
X83666666Y-67122380D01*
X50738095Y-60952380D02*
X50738095Y-59952380D01*
X50738095Y-60428571D02*
X51309523Y-60428571D01*
X51309523Y-60952380D02*
X51309523Y-59952380D01*
X51738095Y-60047619D02*
X51785714Y-60000000D01*
X51880952Y-59952380D01*
X52119047Y-59952380D01*
X52214285Y-60000000D01*
X52261904Y-60047619D01*
X52309523Y-60142857D01*
X52309523Y-60238095D01*
X52261904Y-60380952D01*
X51690476Y-60952380D01*
X52309523Y-60952380D01*
X50738095Y-110952380D02*
X50738095Y-109952380D01*
X50738095Y-110428571D02*
X51309523Y-110428571D01*
X51309523Y-110952380D02*
X51309523Y-109952380D01*
X52309523Y-110952380D02*
X51738095Y-110952380D01*
X52023809Y-110952380D02*
X52023809Y-109952380D01*
X51928571Y-110095238D01*
X51833333Y-110190476D01*
X51738095Y-110238095D01*
X199691666Y-63507380D02*
X199691666Y-64221666D01*
X199644047Y-64364523D01*
X199548809Y-64459761D01*
X199405952Y-64507380D01*
X199310714Y-64507380D01*
X200310714Y-63935952D02*
X200215476Y-63888333D01*
X200167857Y-63840714D01*
X200120238Y-63745476D01*
X200120238Y-63697857D01*
X200167857Y-63602619D01*
X200215476Y-63555000D01*
X200310714Y-63507380D01*
X200501190Y-63507380D01*
X200596428Y-63555000D01*
X200644047Y-63602619D01*
X200691666Y-63697857D01*
X200691666Y-63745476D01*
X200644047Y-63840714D01*
X200596428Y-63888333D01*
X200501190Y-63935952D01*
X200310714Y-63935952D01*
X200215476Y-63983571D01*
X200167857Y-64031190D01*
X200120238Y-64126428D01*
X200120238Y-64316904D01*
X200167857Y-64412142D01*
X200215476Y-64459761D01*
X200310714Y-64507380D01*
X200501190Y-64507380D01*
X200596428Y-64459761D01*
X200644047Y-64412142D01*
X200691666Y-64316904D01*
X200691666Y-64126428D01*
X200644047Y-64031190D01*
X200596428Y-63983571D01*
X200501190Y-63935952D01*
X180936566Y-110082381D02*
X180936566Y-110796667D01*
X180888947Y-110939524D01*
X180793709Y-111034762D01*
X180650852Y-111082381D01*
X180555614Y-111082381D01*
X181936566Y-111082381D02*
X181365138Y-111082381D01*
X181650852Y-111082381D02*
X181650852Y-110082381D01*
X181555614Y-110225239D01*
X181460376Y-110320477D01*
X181365138Y-110368096D01*
X59440476Y-110404761D02*
X59583333Y-110452380D01*
X59821428Y-110452380D01*
X59916666Y-110404761D01*
X59964285Y-110357142D01*
X60011904Y-110261904D01*
X60011904Y-110166666D01*
X59964285Y-110071428D01*
X59916666Y-110023809D01*
X59821428Y-109976190D01*
X59630952Y-109928571D01*
X59535714Y-109880952D01*
X59488095Y-109833333D01*
X59440476Y-109738095D01*
X59440476Y-109642857D01*
X59488095Y-109547619D01*
X59535714Y-109500000D01*
X59630952Y-109452380D01*
X59869047Y-109452380D01*
X60011904Y-109500000D01*
X60345238Y-109452380D02*
X60583333Y-110452380D01*
X60773809Y-109738095D01*
X60964285Y-110452380D01*
X61202380Y-109452380D01*
X62107142Y-110452380D02*
X61535714Y-110452380D01*
X61821428Y-110452380D02*
X61821428Y-109452380D01*
X61726190Y-109595238D01*
X61630952Y-109690476D01*
X61535714Y-109738095D01*
X63011904Y-109452380D02*
X62535714Y-109452380D01*
X62488095Y-109928571D01*
X62535714Y-109880952D01*
X62630952Y-109833333D01*
X62869047Y-109833333D01*
X62964285Y-109880952D01*
X63011904Y-109928571D01*
X63059523Y-110023809D01*
X63059523Y-110261904D01*
X63011904Y-110357142D01*
X62964285Y-110404761D01*
X62869047Y-110452380D01*
X62630952Y-110452380D01*
X62535714Y-110404761D01*
X62488095Y-110357142D01*
X202860476Y-110084761D02*
X203003333Y-110132380D01*
X203241428Y-110132380D01*
X203336666Y-110084761D01*
X203384285Y-110037142D01*
X203431904Y-109941904D01*
X203431904Y-109846666D01*
X203384285Y-109751428D01*
X203336666Y-109703809D01*
X203241428Y-109656190D01*
X203050952Y-109608571D01*
X202955714Y-109560952D01*
X202908095Y-109513333D01*
X202860476Y-109418095D01*
X202860476Y-109322857D01*
X202908095Y-109227619D01*
X202955714Y-109180000D01*
X203050952Y-109132380D01*
X203289047Y-109132380D01*
X203431904Y-109180000D01*
X203765238Y-109132380D02*
X204003333Y-110132380D01*
X204193809Y-109418095D01*
X204384285Y-110132380D01*
X204622380Y-109132380D01*
X205527142Y-110132380D02*
X204955714Y-110132380D01*
X205241428Y-110132380D02*
X205241428Y-109132380D01*
X205146190Y-109275238D01*
X205050952Y-109370476D01*
X204955714Y-109418095D01*
X205860476Y-109132380D02*
X206479523Y-109132380D01*
X206146190Y-109513333D01*
X206289047Y-109513333D01*
X206384285Y-109560952D01*
X206431904Y-109608571D01*
X206479523Y-109703809D01*
X206479523Y-109941904D01*
X206431904Y-110037142D01*
X206384285Y-110084761D01*
X206289047Y-110132380D01*
X206003333Y-110132380D01*
X205908095Y-110084761D01*
X205860476Y-110037142D01*
X70440476Y-110404761D02*
X70583333Y-110452380D01*
X70821428Y-110452380D01*
X70916666Y-110404761D01*
X70964285Y-110357142D01*
X71011904Y-110261904D01*
X71011904Y-110166666D01*
X70964285Y-110071428D01*
X70916666Y-110023809D01*
X70821428Y-109976190D01*
X70630952Y-109928571D01*
X70535714Y-109880952D01*
X70488095Y-109833333D01*
X70440476Y-109738095D01*
X70440476Y-109642857D01*
X70488095Y-109547619D01*
X70535714Y-109500000D01*
X70630952Y-109452380D01*
X70869047Y-109452380D01*
X71011904Y-109500000D01*
X71345238Y-109452380D02*
X71583333Y-110452380D01*
X71773809Y-109738095D01*
X71964285Y-110452380D01*
X72202380Y-109452380D01*
X73107142Y-110452380D02*
X72535714Y-110452380D01*
X72821428Y-110452380D02*
X72821428Y-109452380D01*
X72726190Y-109595238D01*
X72630952Y-109690476D01*
X72535714Y-109738095D01*
X73488095Y-109547619D02*
X73535714Y-109500000D01*
X73630952Y-109452380D01*
X73869047Y-109452380D01*
X73964285Y-109500000D01*
X74011904Y-109547619D01*
X74059523Y-109642857D01*
X74059523Y-109738095D01*
X74011904Y-109880952D01*
X73440476Y-110452380D01*
X74059523Y-110452380D01*
X214290476Y-110084761D02*
X214433333Y-110132380D01*
X214671428Y-110132380D01*
X214766666Y-110084761D01*
X214814285Y-110037142D01*
X214861904Y-109941904D01*
X214861904Y-109846666D01*
X214814285Y-109751428D01*
X214766666Y-109703809D01*
X214671428Y-109656190D01*
X214480952Y-109608571D01*
X214385714Y-109560952D01*
X214338095Y-109513333D01*
X214290476Y-109418095D01*
X214290476Y-109322857D01*
X214338095Y-109227619D01*
X214385714Y-109180000D01*
X214480952Y-109132380D01*
X214719047Y-109132380D01*
X214861904Y-109180000D01*
X215195238Y-109132380D02*
X215433333Y-110132380D01*
X215623809Y-109418095D01*
X215814285Y-110132380D01*
X216052380Y-109132380D01*
X216957142Y-110132380D02*
X216385714Y-110132380D01*
X216671428Y-110132380D02*
X216671428Y-109132380D01*
X216576190Y-109275238D01*
X216480952Y-109370476D01*
X216385714Y-109418095D01*
X217909523Y-110132380D02*
X217338095Y-110132380D01*
X217623809Y-110132380D02*
X217623809Y-109132380D01*
X217528571Y-109275238D01*
X217433333Y-109370476D01*
X217338095Y-109418095D01*
X199824761Y-74633333D02*
X199872380Y-74490476D01*
X199872380Y-74252380D01*
X199824761Y-74157142D01*
X199777142Y-74109523D01*
X199681904Y-74061904D01*
X199586666Y-74061904D01*
X199491428Y-74109523D01*
X199443809Y-74157142D01*
X199396190Y-74252380D01*
X199348571Y-74442857D01*
X199300952Y-74538095D01*
X199253333Y-74585714D01*
X199158095Y-74633333D01*
X199062857Y-74633333D01*
X198967619Y-74585714D01*
X198920000Y-74538095D01*
X198872380Y-74442857D01*
X198872380Y-74204761D01*
X198920000Y-74061904D01*
X198872380Y-73728571D02*
X199872380Y-73490476D01*
X199158095Y-73300000D01*
X199872380Y-73109523D01*
X198872380Y-72871428D01*
X199300952Y-72347619D02*
X199253333Y-72442857D01*
X199205714Y-72490476D01*
X199110476Y-72538095D01*
X199062857Y-72538095D01*
X198967619Y-72490476D01*
X198920000Y-72442857D01*
X198872380Y-72347619D01*
X198872380Y-72157142D01*
X198920000Y-72061904D01*
X198967619Y-72014285D01*
X199062857Y-71966666D01*
X199110476Y-71966666D01*
X199205714Y-72014285D01*
X199253333Y-72061904D01*
X199300952Y-72157142D01*
X199300952Y-72347619D01*
X199348571Y-72442857D01*
X199396190Y-72490476D01*
X199491428Y-72538095D01*
X199681904Y-72538095D01*
X199777142Y-72490476D01*
X199824761Y-72442857D01*
X199872380Y-72347619D01*
X199872380Y-72157142D01*
X199824761Y-72061904D01*
X199777142Y-72014285D01*
X199681904Y-71966666D01*
X199491428Y-71966666D01*
X199396190Y-72014285D01*
X199348571Y-72061904D01*
X199300952Y-72157142D01*
X207444761Y-68283333D02*
X207492380Y-68140476D01*
X207492380Y-67902380D01*
X207444761Y-67807142D01*
X207397142Y-67759523D01*
X207301904Y-67711904D01*
X207206666Y-67711904D01*
X207111428Y-67759523D01*
X207063809Y-67807142D01*
X207016190Y-67902380D01*
X206968571Y-68092857D01*
X206920952Y-68188095D01*
X206873333Y-68235714D01*
X206778095Y-68283333D01*
X206682857Y-68283333D01*
X206587619Y-68235714D01*
X206540000Y-68188095D01*
X206492380Y-68092857D01*
X206492380Y-67854761D01*
X206540000Y-67711904D01*
X206492380Y-67378571D02*
X207492380Y-67140476D01*
X206778095Y-66950000D01*
X207492380Y-66759523D01*
X206492380Y-66521428D01*
X206492380Y-66235714D02*
X206492380Y-65569047D01*
X207492380Y-65997619D01*
X207444761Y-80983333D02*
X207492380Y-80840476D01*
X207492380Y-80602380D01*
X207444761Y-80507142D01*
X207397142Y-80459523D01*
X207301904Y-80411904D01*
X207206666Y-80411904D01*
X207111428Y-80459523D01*
X207063809Y-80507142D01*
X207016190Y-80602380D01*
X206968571Y-80792857D01*
X206920952Y-80888095D01*
X206873333Y-80935714D01*
X206778095Y-80983333D01*
X206682857Y-80983333D01*
X206587619Y-80935714D01*
X206540000Y-80888095D01*
X206492380Y-80792857D01*
X206492380Y-80554761D01*
X206540000Y-80411904D01*
X206492380Y-80078571D02*
X207492380Y-79840476D01*
X206778095Y-79650000D01*
X207492380Y-79459523D01*
X206492380Y-79221428D01*
X206492380Y-78411904D02*
X206492380Y-78602380D01*
X206540000Y-78697619D01*
X206587619Y-78745238D01*
X206730476Y-78840476D01*
X206920952Y-78888095D01*
X207301904Y-78888095D01*
X207397142Y-78840476D01*
X207444761Y-78792857D01*
X207492380Y-78697619D01*
X207492380Y-78507142D01*
X207444761Y-78411904D01*
X207397142Y-78364285D01*
X207301904Y-78316666D01*
X207063809Y-78316666D01*
X206968571Y-78364285D01*
X206920952Y-78411904D01*
X206873333Y-78507142D01*
X206873333Y-78697619D01*
X206920952Y-78792857D01*
X206968571Y-78840476D01*
X207063809Y-78888095D01*
X215064761Y-74633333D02*
X215112380Y-74490476D01*
X215112380Y-74252380D01*
X215064761Y-74157142D01*
X215017142Y-74109523D01*
X214921904Y-74061904D01*
X214826666Y-74061904D01*
X214731428Y-74109523D01*
X214683809Y-74157142D01*
X214636190Y-74252380D01*
X214588571Y-74442857D01*
X214540952Y-74538095D01*
X214493333Y-74585714D01*
X214398095Y-74633333D01*
X214302857Y-74633333D01*
X214207619Y-74585714D01*
X214160000Y-74538095D01*
X214112380Y-74442857D01*
X214112380Y-74204761D01*
X214160000Y-74061904D01*
X214112380Y-73728571D02*
X215112380Y-73490476D01*
X214398095Y-73300000D01*
X215112380Y-73109523D01*
X214112380Y-72871428D01*
X214112380Y-72014285D02*
X214112380Y-72490476D01*
X214588571Y-72538095D01*
X214540952Y-72490476D01*
X214493333Y-72395238D01*
X214493333Y-72157142D01*
X214540952Y-72061904D01*
X214588571Y-72014285D01*
X214683809Y-71966666D01*
X214921904Y-71966666D01*
X215017142Y-72014285D01*
X215064761Y-72061904D01*
X215112380Y-72157142D01*
X215112380Y-72395238D01*
X215064761Y-72490476D01*
X215017142Y-72538095D01*
X65459761Y-103843333D02*
X65507380Y-103700476D01*
X65507380Y-103462380D01*
X65459761Y-103367142D01*
X65412142Y-103319523D01*
X65316904Y-103271904D01*
X65221666Y-103271904D01*
X65126428Y-103319523D01*
X65078809Y-103367142D01*
X65031190Y-103462380D01*
X64983571Y-103652857D01*
X64935952Y-103748095D01*
X64888333Y-103795714D01*
X64793095Y-103843333D01*
X64697857Y-103843333D01*
X64602619Y-103795714D01*
X64555000Y-103748095D01*
X64507380Y-103652857D01*
X64507380Y-103414761D01*
X64555000Y-103271904D01*
X64507380Y-102938571D02*
X65507380Y-102700476D01*
X64793095Y-102510000D01*
X65507380Y-102319523D01*
X64507380Y-102081428D01*
X64840714Y-101271904D02*
X65507380Y-101271904D01*
X64459761Y-101510000D02*
X65174047Y-101748095D01*
X65174047Y-101129047D01*
X73079761Y-97493333D02*
X73127380Y-97350476D01*
X73127380Y-97112380D01*
X73079761Y-97017142D01*
X73032142Y-96969523D01*
X72936904Y-96921904D01*
X72841666Y-96921904D01*
X72746428Y-96969523D01*
X72698809Y-97017142D01*
X72651190Y-97112380D01*
X72603571Y-97302857D01*
X72555952Y-97398095D01*
X72508333Y-97445714D01*
X72413095Y-97493333D01*
X72317857Y-97493333D01*
X72222619Y-97445714D01*
X72175000Y-97398095D01*
X72127380Y-97302857D01*
X72127380Y-97064761D01*
X72175000Y-96921904D01*
X72127380Y-96588571D02*
X73127380Y-96350476D01*
X72413095Y-96160000D01*
X73127380Y-95969523D01*
X72127380Y-95731428D01*
X72127380Y-95445714D02*
X72127380Y-94826666D01*
X72508333Y-95160000D01*
X72508333Y-95017142D01*
X72555952Y-94921904D01*
X72603571Y-94874285D01*
X72698809Y-94826666D01*
X72936904Y-94826666D01*
X73032142Y-94874285D01*
X73079761Y-94921904D01*
X73127380Y-95017142D01*
X73127380Y-95302857D01*
X73079761Y-95398095D01*
X73032142Y-95445714D01*
X57839761Y-97493333D02*
X57887380Y-97350476D01*
X57887380Y-97112380D01*
X57839761Y-97017142D01*
X57792142Y-96969523D01*
X57696904Y-96921904D01*
X57601666Y-96921904D01*
X57506428Y-96969523D01*
X57458809Y-97017142D01*
X57411190Y-97112380D01*
X57363571Y-97302857D01*
X57315952Y-97398095D01*
X57268333Y-97445714D01*
X57173095Y-97493333D01*
X57077857Y-97493333D01*
X56982619Y-97445714D01*
X56935000Y-97398095D01*
X56887380Y-97302857D01*
X56887380Y-97064761D01*
X56935000Y-96921904D01*
X56887380Y-96588571D02*
X57887380Y-96350476D01*
X57173095Y-96160000D01*
X57887380Y-95969523D01*
X56887380Y-95731428D01*
X56982619Y-95398095D02*
X56935000Y-95350476D01*
X56887380Y-95255238D01*
X56887380Y-95017142D01*
X56935000Y-94921904D01*
X56982619Y-94874285D01*
X57077857Y-94826666D01*
X57173095Y-94826666D01*
X57315952Y-94874285D01*
X57887380Y-95445714D01*
X57887380Y-94826666D01*
X65459761Y-91143333D02*
X65507380Y-91000476D01*
X65507380Y-90762380D01*
X65459761Y-90667142D01*
X65412142Y-90619523D01*
X65316904Y-90571904D01*
X65221666Y-90571904D01*
X65126428Y-90619523D01*
X65078809Y-90667142D01*
X65031190Y-90762380D01*
X64983571Y-90952857D01*
X64935952Y-91048095D01*
X64888333Y-91095714D01*
X64793095Y-91143333D01*
X64697857Y-91143333D01*
X64602619Y-91095714D01*
X64555000Y-91048095D01*
X64507380Y-90952857D01*
X64507380Y-90714761D01*
X64555000Y-90571904D01*
X64507380Y-90238571D02*
X65507380Y-90000476D01*
X64793095Y-89810000D01*
X65507380Y-89619523D01*
X64507380Y-89381428D01*
X65507380Y-88476666D02*
X65507380Y-89048095D01*
X65507380Y-88762380D02*
X64507380Y-88762380D01*
X64650238Y-88857619D01*
X64745476Y-88952857D01*
X64793095Y-89048095D01*
M02*
