G04 #@! TF.GenerationSoftware,KiCad,Pcbnew,(5.1.5)-2*
G04 #@! TF.CreationDate,2020-09-18T11:59:31-06:00*
G04 #@! TF.ProjectId,Pi-A3-Game-Console,50692d41-332d-4476-916d-652d436f6e73,rev?*
G04 #@! TF.SameCoordinates,Original*
G04 #@! TF.FileFunction,Legend,Bot*
G04 #@! TF.FilePolarity,Positive*
%FSLAX46Y46*%
G04 Gerber Fmt 4.6, Leading zero omitted, Abs format (unit mm)*
G04 Created by KiCad (PCBNEW (5.1.5)-2) date 2020-09-18 11:59:31*
%MOMM*%
%LPD*%
G04 APERTURE LIST*
%ADD10C,0.300000*%
%ADD11C,0.120000*%
%ADD12C,0.150000*%
G04 APERTURE END LIST*
D10*
X163255714Y-59594523D02*
X163255714Y-55594523D01*
X162255714Y-58451666D01*
X161255714Y-55594523D01*
X161255714Y-59594523D01*
X159827142Y-59594523D02*
X159827142Y-56927857D01*
X159827142Y-55594523D02*
X159970000Y-55785000D01*
X159827142Y-55975476D01*
X159684285Y-55785000D01*
X159827142Y-55594523D01*
X159827142Y-55975476D01*
X158398571Y-59594523D02*
X158398571Y-55594523D01*
X158112857Y-58070714D02*
X157255714Y-59594523D01*
X157255714Y-56927857D02*
X158398571Y-58451666D01*
X154827142Y-59404047D02*
X155112857Y-59594523D01*
X155684285Y-59594523D01*
X155970000Y-59404047D01*
X156112857Y-59023095D01*
X156112857Y-57499285D01*
X155970000Y-57118333D01*
X155684285Y-56927857D01*
X155112857Y-56927857D01*
X154827142Y-57118333D01*
X154684285Y-57499285D01*
X154684285Y-57880238D01*
X156112857Y-58261190D01*
X151255714Y-58451666D02*
X149827142Y-58451666D01*
X151541428Y-59594523D02*
X150541428Y-55594523D01*
X149541428Y-59594523D01*
X148541428Y-59594523D02*
X148541428Y-55594523D01*
X148541428Y-57118333D02*
X148255714Y-56927857D01*
X147684285Y-56927857D01*
X147398571Y-57118333D01*
X147255714Y-57308809D01*
X147112857Y-57689761D01*
X147112857Y-58832619D01*
X147255714Y-59213571D01*
X147398571Y-59404047D01*
X147684285Y-59594523D01*
X148255714Y-59594523D01*
X148541428Y-59404047D01*
X145827142Y-59594523D02*
X145827142Y-55594523D01*
X145827142Y-57118333D02*
X145541428Y-56927857D01*
X144970000Y-56927857D01*
X144684285Y-57118333D01*
X144541428Y-57308809D01*
X144398571Y-57689761D01*
X144398571Y-58832619D01*
X144541428Y-59213571D01*
X144684285Y-59404047D01*
X144970000Y-59594523D01*
X145541428Y-59594523D01*
X145827142Y-59404047D01*
X142684285Y-59594523D02*
X142970000Y-59404047D01*
X143112857Y-59213571D01*
X143255714Y-58832619D01*
X143255714Y-57689761D01*
X143112857Y-57308809D01*
X142970000Y-57118333D01*
X142684285Y-56927857D01*
X142255714Y-56927857D01*
X141970000Y-57118333D01*
X141827142Y-57308809D01*
X141684285Y-57689761D01*
X141684285Y-58832619D01*
X141827142Y-59213571D01*
X141970000Y-59404047D01*
X142255714Y-59594523D01*
X142684285Y-59594523D01*
X140827142Y-56927857D02*
X139684285Y-56927857D01*
X140398571Y-55594523D02*
X140398571Y-59023095D01*
X140255714Y-59404047D01*
X139970000Y-59594523D01*
X139684285Y-59594523D01*
X139112857Y-56927857D02*
X137970000Y-56927857D01*
X138684285Y-55594523D02*
X138684285Y-59023095D01*
X138541428Y-59404047D01*
X138255714Y-59594523D01*
X137970000Y-59594523D01*
X134684285Y-58070714D02*
X132398571Y-58070714D01*
X128827142Y-55975476D02*
X128684285Y-55785000D01*
X128398571Y-55594523D01*
X127684285Y-55594523D01*
X127398571Y-55785000D01*
X127255714Y-55975476D01*
X127112857Y-56356428D01*
X127112857Y-56737380D01*
X127255714Y-57308809D01*
X128970000Y-59594523D01*
X127112857Y-59594523D01*
X125255714Y-55594523D02*
X124970000Y-55594523D01*
X124684285Y-55785000D01*
X124541428Y-55975476D01*
X124398571Y-56356428D01*
X124255714Y-57118333D01*
X124255714Y-58070714D01*
X124398571Y-58832619D01*
X124541428Y-59213571D01*
X124684285Y-59404047D01*
X124970000Y-59594523D01*
X125255714Y-59594523D01*
X125541428Y-59404047D01*
X125684285Y-59213571D01*
X125827142Y-58832619D01*
X125970000Y-58070714D01*
X125970000Y-57118333D01*
X125827142Y-56356428D01*
X125684285Y-55975476D01*
X125541428Y-55785000D01*
X125255714Y-55594523D01*
X123112857Y-55975476D02*
X122970000Y-55785000D01*
X122684285Y-55594523D01*
X121970000Y-55594523D01*
X121684285Y-55785000D01*
X121541428Y-55975476D01*
X121398571Y-56356428D01*
X121398571Y-56737380D01*
X121541428Y-57308809D01*
X123255714Y-59594523D01*
X121398571Y-59594523D01*
X119541428Y-55594523D02*
X119255714Y-55594523D01*
X118970000Y-55785000D01*
X118827142Y-55975476D01*
X118684285Y-56356428D01*
X118541428Y-57118333D01*
X118541428Y-58070714D01*
X118684285Y-58832619D01*
X118827142Y-59213571D01*
X118970000Y-59404047D01*
X119255714Y-59594523D01*
X119541428Y-59594523D01*
X119827142Y-59404047D01*
X119970000Y-59213571D01*
X120112857Y-58832619D01*
X120255714Y-58070714D01*
X120255714Y-57118333D01*
X120112857Y-56356428D01*
X119970000Y-55975476D01*
X119827142Y-55785000D01*
X119541428Y-55594523D01*
D11*
X71695000Y-53280000D02*
X71695000Y-54610000D01*
X73025000Y-53280000D02*
X71695000Y-53280000D01*
X71695000Y-55880000D02*
X71695000Y-58480000D01*
X74295000Y-55880000D02*
X71695000Y-55880000D01*
X74295000Y-53280000D02*
X74295000Y-55880000D01*
X71695000Y-58480000D02*
X79435000Y-58480000D01*
X74295000Y-53280000D02*
X79435000Y-53280000D01*
X79435000Y-53280000D02*
X79435000Y-58480000D01*
X90190000Y-79730000D02*
X85830000Y-79730000D01*
X90190000Y-65850000D02*
X90190000Y-72850000D01*
X167470000Y-65850000D02*
X90190000Y-65850000D01*
X167470000Y-72850000D02*
X167470000Y-65850000D01*
X90190000Y-86730000D02*
X90190000Y-79730000D01*
X167470000Y-86730000D02*
X90190000Y-86730000D01*
X167470000Y-79730000D02*
X167470000Y-86710000D01*
X172580000Y-82290000D02*
X170080000Y-82290000D01*
X85080000Y-82290000D02*
X87580000Y-82290000D01*
X86330000Y-81040000D02*
X86330000Y-83540000D01*
X90190000Y-102440000D02*
X85830000Y-102440000D01*
X90190000Y-88560000D02*
X90190000Y-95560000D01*
X167470000Y-88560000D02*
X90190000Y-88560000D01*
X167470000Y-95560000D02*
X167470000Y-88560000D01*
X90190000Y-109440000D02*
X90190000Y-102440000D01*
X167470000Y-109440000D02*
X90190000Y-109440000D01*
X167470000Y-102440000D02*
X167470000Y-109420000D01*
X172580000Y-105000000D02*
X170080000Y-105000000D01*
X85080000Y-105000000D02*
X87580000Y-105000000D01*
X86330000Y-103750000D02*
X86330000Y-106250000D01*
X89270000Y-58235000D02*
X88070000Y-58235000D01*
X88070000Y-58235000D02*
X88070000Y-54035000D01*
X88070000Y-54035000D02*
X89270000Y-54035000D01*
X96070000Y-58235000D02*
X97270000Y-58235000D01*
X97270000Y-58235000D02*
X97270000Y-54035000D01*
X97270000Y-54035000D02*
X96070000Y-54035000D01*
X88970000Y-58535000D02*
X87770000Y-58535000D01*
X87770000Y-58535000D02*
X87770000Y-57335000D01*
X217255000Y-56850000D02*
X213855000Y-56850000D01*
X218895000Y-56850000D02*
X218355000Y-56850000D01*
X211695000Y-59680000D02*
X211695000Y-60190000D01*
X212215000Y-60190000D02*
X211695000Y-60190000D01*
X212215000Y-59680000D02*
X212215000Y-60190000D01*
X212755000Y-56850000D02*
X212215000Y-56850000D01*
X219415000Y-59680000D02*
X219415000Y-60190000D01*
X218895000Y-59680000D02*
X218895000Y-60190000D01*
X212215000Y-56850000D02*
X212215000Y-57080000D01*
X219415000Y-53180000D02*
X219415000Y-57080000D01*
X219415000Y-60190000D02*
X218895000Y-60190000D01*
X211695000Y-53180000D02*
X211695000Y-57080000D01*
X219415000Y-53180000D02*
X211695000Y-53180000D01*
X218895000Y-56850000D02*
X218895000Y-57080000D01*
X62315000Y-56850000D02*
X58915000Y-56850000D01*
X63955000Y-56850000D02*
X63415000Y-56850000D01*
X56755000Y-59680000D02*
X56755000Y-60190000D01*
X57275000Y-60190000D02*
X56755000Y-60190000D01*
X57275000Y-59680000D02*
X57275000Y-60190000D01*
X57815000Y-56850000D02*
X57275000Y-56850000D01*
X64475000Y-59680000D02*
X64475000Y-60190000D01*
X63955000Y-59680000D02*
X63955000Y-60190000D01*
X57275000Y-56850000D02*
X57275000Y-57080000D01*
X64475000Y-53180000D02*
X64475000Y-57080000D01*
X64475000Y-60190000D02*
X63955000Y-60190000D01*
X56755000Y-53180000D02*
X56755000Y-57080000D01*
X64475000Y-53180000D02*
X56755000Y-53180000D01*
X63955000Y-56850000D02*
X63955000Y-57080000D01*
X66735000Y-109915000D02*
X66735000Y-108585000D01*
X65405000Y-109915000D02*
X66735000Y-109915000D01*
X64135000Y-109915000D02*
X64135000Y-107255000D01*
X64135000Y-107255000D02*
X48835000Y-107255000D01*
X64135000Y-109915000D02*
X48835000Y-109915000D01*
X48835000Y-109915000D02*
X48835000Y-107255000D01*
X98485000Y-52910000D02*
X98485000Y-61540000D01*
X98603095Y-52910000D02*
X98603095Y-61540000D01*
X98721190Y-52910000D02*
X98721190Y-61540000D01*
X98839285Y-52910000D02*
X98839285Y-61540000D01*
X98957380Y-52910000D02*
X98957380Y-61540000D01*
X99075475Y-52910000D02*
X99075475Y-61540000D01*
X99193570Y-52910000D02*
X99193570Y-61540000D01*
X99311665Y-52910000D02*
X99311665Y-61540000D01*
X99429760Y-52910000D02*
X99429760Y-61540000D01*
X99547855Y-52910000D02*
X99547855Y-61540000D01*
X99665950Y-52910000D02*
X99665950Y-61540000D01*
X99784045Y-52910000D02*
X99784045Y-61540000D01*
X99902140Y-52910000D02*
X99902140Y-61540000D01*
X100020235Y-52910000D02*
X100020235Y-61540000D01*
X100138330Y-52910000D02*
X100138330Y-61540000D01*
X100256425Y-52910000D02*
X100256425Y-61540000D01*
X100374520Y-52910000D02*
X100374520Y-61540000D01*
X100492615Y-52910000D02*
X100492615Y-61540000D01*
X100610710Y-52910000D02*
X100610710Y-61540000D01*
X100728805Y-52910000D02*
X100728805Y-61540000D01*
X100846900Y-52910000D02*
X100846900Y-61540000D01*
X99335000Y-61540000D02*
X99335000Y-61890000D01*
X100055000Y-61540000D02*
X100055000Y-61890000D01*
X101875000Y-61540000D02*
X101875000Y-61950000D01*
X102595000Y-61540000D02*
X102595000Y-61950000D01*
X104415000Y-61540000D02*
X104415000Y-61950000D01*
X105135000Y-61540000D02*
X105135000Y-61950000D01*
X106955000Y-61540000D02*
X106955000Y-61950000D01*
X107675000Y-61540000D02*
X107675000Y-61950000D01*
X109495000Y-61540000D02*
X109495000Y-61950000D01*
X110215000Y-61540000D02*
X110215000Y-61950000D01*
X100965000Y-52910000D02*
X100965000Y-61540000D01*
X103505000Y-52910000D02*
X103505000Y-61540000D01*
X106045000Y-52910000D02*
X106045000Y-61540000D01*
X108585000Y-52910000D02*
X108585000Y-61540000D01*
X98365000Y-52910000D02*
X98365000Y-61540000D01*
X98365000Y-61540000D02*
X111185000Y-61540000D01*
X111185000Y-52910000D02*
X111185000Y-61540000D01*
X98365000Y-52910000D02*
X111185000Y-52910000D01*
X98365000Y-64110000D02*
X99695000Y-64110000D01*
X98365000Y-63000000D02*
X98365000Y-64110000D01*
X62832064Y-106320000D02*
X61627936Y-106320000D01*
X62832064Y-104500000D02*
X61627936Y-104500000D01*
X56810000Y-77430000D02*
G75*
G02X51760000Y-77430000I-2525000J0D01*
G01*
X56810000Y-71030000D02*
G75*
G03X51760000Y-71030000I-2525000J0D01*
G01*
X56810000Y-71030000D02*
X56810000Y-77430000D01*
X51760000Y-71030000D02*
X51760000Y-77430000D01*
X58455000Y-82769564D02*
X58455000Y-81565436D01*
X60275000Y-82769564D02*
X60275000Y-81565436D01*
X66670000Y-58480000D02*
X68000000Y-58480000D01*
X66670000Y-57150000D02*
X66670000Y-58480000D01*
X66670000Y-55880000D02*
X69330000Y-55880000D01*
X69330000Y-55880000D02*
X69330000Y-53280000D01*
X66670000Y-55880000D02*
X66670000Y-53280000D01*
X66670000Y-53280000D02*
X69330000Y-53280000D01*
X56790000Y-63315436D02*
X56790000Y-64519564D01*
X54970000Y-63315436D02*
X54970000Y-64519564D01*
X65530436Y-82310000D02*
X66734564Y-82310000D01*
X65530436Y-84130000D02*
X66734564Y-84130000D01*
X76785000Y-73510436D02*
X76785000Y-74714564D01*
X74965000Y-73510436D02*
X74965000Y-74714564D01*
X50910000Y-77537936D02*
X50910000Y-78742064D01*
X49090000Y-77537936D02*
X49090000Y-78742064D01*
X49090000Y-71339564D02*
X49090000Y-70135436D01*
X50910000Y-71339564D02*
X50910000Y-70135436D01*
D12*
X70315000Y-76965000D02*
X70315000Y-78240000D01*
X70890000Y-66615000D02*
X70890000Y-67290000D01*
X60540000Y-66615000D02*
X60540000Y-67290000D01*
X60540000Y-76965000D02*
X60540000Y-76290000D01*
X70890000Y-76965000D02*
X70890000Y-76290000D01*
X60540000Y-76965000D02*
X61215000Y-76965000D01*
X60540000Y-66615000D02*
X61215000Y-66615000D01*
X70890000Y-66615000D02*
X70215000Y-66615000D01*
X70890000Y-76965000D02*
X70315000Y-76965000D01*
X70147380Y-55546666D02*
X70861666Y-55546666D01*
X71004523Y-55499047D01*
X71099761Y-55403809D01*
X71147380Y-55260952D01*
X71147380Y-55165714D01*
X70147380Y-55927619D02*
X70147380Y-56594285D01*
X71147380Y-56165714D01*
X129615714Y-87718571D02*
X129472857Y-87766190D01*
X129425238Y-87813809D01*
X129377619Y-87909047D01*
X129377619Y-88051904D01*
X129425238Y-88147142D01*
X129472857Y-88194761D01*
X129568095Y-88242380D01*
X129949047Y-88242380D01*
X129949047Y-87242380D01*
X129615714Y-87242380D01*
X129520476Y-87290000D01*
X129472857Y-87337619D01*
X129425238Y-87432857D01*
X129425238Y-87528095D01*
X129472857Y-87623333D01*
X129520476Y-87670952D01*
X129615714Y-87718571D01*
X129949047Y-87718571D01*
X129091904Y-87242380D02*
X128520476Y-87242380D01*
X128806190Y-88242380D02*
X128806190Y-87242380D01*
X128234761Y-87337619D02*
X128187142Y-87290000D01*
X128091904Y-87242380D01*
X127853809Y-87242380D01*
X127758571Y-87290000D01*
X127710952Y-87337619D01*
X127663333Y-87432857D01*
X127663333Y-87528095D01*
X127710952Y-87670952D01*
X128282380Y-88242380D01*
X127663333Y-88242380D01*
X129615714Y-110428571D02*
X129472857Y-110476190D01*
X129425238Y-110523809D01*
X129377619Y-110619047D01*
X129377619Y-110761904D01*
X129425238Y-110857142D01*
X129472857Y-110904761D01*
X129568095Y-110952380D01*
X129949047Y-110952380D01*
X129949047Y-109952380D01*
X129615714Y-109952380D01*
X129520476Y-110000000D01*
X129472857Y-110047619D01*
X129425238Y-110142857D01*
X129425238Y-110238095D01*
X129472857Y-110333333D01*
X129520476Y-110380952D01*
X129615714Y-110428571D01*
X129949047Y-110428571D01*
X129091904Y-109952380D02*
X128520476Y-109952380D01*
X128806190Y-110952380D02*
X128806190Y-109952380D01*
X127663333Y-110952380D02*
X128234761Y-110952380D01*
X127949047Y-110952380D02*
X127949047Y-109952380D01*
X128044285Y-110095238D01*
X128139523Y-110190476D01*
X128234761Y-110238095D01*
X91979523Y-60189761D02*
X91836666Y-60237380D01*
X91598571Y-60237380D01*
X91503333Y-60189761D01*
X91455714Y-60142142D01*
X91408095Y-60046904D01*
X91408095Y-59951666D01*
X91455714Y-59856428D01*
X91503333Y-59808809D01*
X91598571Y-59761190D01*
X91789047Y-59713571D01*
X91884285Y-59665952D01*
X91931904Y-59618333D01*
X91979523Y-59523095D01*
X91979523Y-59427857D01*
X91931904Y-59332619D01*
X91884285Y-59285000D01*
X91789047Y-59237380D01*
X91550952Y-59237380D01*
X91408095Y-59285000D01*
X91074761Y-59237380D02*
X90836666Y-60237380D01*
X90646190Y-59523095D01*
X90455714Y-60237380D01*
X90217619Y-59237380D01*
X89312857Y-60237380D02*
X89884285Y-60237380D01*
X89598571Y-60237380D02*
X89598571Y-59237380D01*
X89693809Y-59380238D01*
X89789047Y-59475476D01*
X89884285Y-59523095D01*
X88455714Y-59570714D02*
X88455714Y-60237380D01*
X88693809Y-59189761D02*
X88931904Y-59904047D01*
X88312857Y-59904047D01*
X217364523Y-57964761D02*
X217221666Y-58012380D01*
X216983571Y-58012380D01*
X216888333Y-57964761D01*
X216840714Y-57917142D01*
X216793095Y-57821904D01*
X216793095Y-57726666D01*
X216840714Y-57631428D01*
X216888333Y-57583809D01*
X216983571Y-57536190D01*
X217174047Y-57488571D01*
X217269285Y-57440952D01*
X217316904Y-57393333D01*
X217364523Y-57298095D01*
X217364523Y-57202857D01*
X217316904Y-57107619D01*
X217269285Y-57060000D01*
X217174047Y-57012380D01*
X216935952Y-57012380D01*
X216793095Y-57060000D01*
X216459761Y-57012380D02*
X216221666Y-58012380D01*
X216031190Y-57298095D01*
X215840714Y-58012380D01*
X215602619Y-57012380D01*
X214697857Y-58012380D02*
X215269285Y-58012380D01*
X214983571Y-58012380D02*
X214983571Y-57012380D01*
X215078809Y-57155238D01*
X215174047Y-57250476D01*
X215269285Y-57298095D01*
X214078809Y-57012380D02*
X213983571Y-57012380D01*
X213888333Y-57060000D01*
X213840714Y-57107619D01*
X213793095Y-57202857D01*
X213745476Y-57393333D01*
X213745476Y-57631428D01*
X213793095Y-57821904D01*
X213840714Y-57917142D01*
X213888333Y-57964761D01*
X213983571Y-58012380D01*
X214078809Y-58012380D01*
X214174047Y-57964761D01*
X214221666Y-57917142D01*
X214269285Y-57821904D01*
X214316904Y-57631428D01*
X214316904Y-57393333D01*
X214269285Y-57202857D01*
X214221666Y-57107619D01*
X214174047Y-57060000D01*
X214078809Y-57012380D01*
X61948333Y-57964761D02*
X61805476Y-58012380D01*
X61567380Y-58012380D01*
X61472142Y-57964761D01*
X61424523Y-57917142D01*
X61376904Y-57821904D01*
X61376904Y-57726666D01*
X61424523Y-57631428D01*
X61472142Y-57583809D01*
X61567380Y-57536190D01*
X61757857Y-57488571D01*
X61853095Y-57440952D01*
X61900714Y-57393333D01*
X61948333Y-57298095D01*
X61948333Y-57202857D01*
X61900714Y-57107619D01*
X61853095Y-57060000D01*
X61757857Y-57012380D01*
X61519761Y-57012380D01*
X61376904Y-57060000D01*
X61043571Y-57012380D02*
X60805476Y-58012380D01*
X60615000Y-57298095D01*
X60424523Y-58012380D01*
X60186428Y-57012380D01*
X59757857Y-58012380D02*
X59567380Y-58012380D01*
X59472142Y-57964761D01*
X59424523Y-57917142D01*
X59329285Y-57774285D01*
X59281666Y-57583809D01*
X59281666Y-57202857D01*
X59329285Y-57107619D01*
X59376904Y-57060000D01*
X59472142Y-57012380D01*
X59662619Y-57012380D01*
X59757857Y-57060000D01*
X59805476Y-57107619D01*
X59853095Y-57202857D01*
X59853095Y-57440952D01*
X59805476Y-57536190D01*
X59757857Y-57583809D01*
X59662619Y-57631428D01*
X59472142Y-57631428D01*
X59376904Y-57583809D01*
X59329285Y-57536190D01*
X59281666Y-57440952D01*
X67187380Y-107823095D02*
X67996904Y-107823095D01*
X68092142Y-107870714D01*
X68139761Y-107918333D01*
X68187380Y-108013571D01*
X68187380Y-108204047D01*
X68139761Y-108299285D01*
X68092142Y-108346904D01*
X67996904Y-108394523D01*
X67187380Y-108394523D01*
X67282619Y-108823095D02*
X67235000Y-108870714D01*
X67187380Y-108965952D01*
X67187380Y-109204047D01*
X67235000Y-109299285D01*
X67282619Y-109346904D01*
X67377857Y-109394523D01*
X67473095Y-109394523D01*
X67615952Y-109346904D01*
X68187380Y-108775476D01*
X68187380Y-109394523D01*
X96377380Y-58286666D02*
X97091666Y-58286666D01*
X97234523Y-58239047D01*
X97329761Y-58143809D01*
X97377380Y-58000952D01*
X97377380Y-57905714D01*
X96377380Y-59191428D02*
X96377380Y-59000952D01*
X96425000Y-58905714D01*
X96472619Y-58858095D01*
X96615476Y-58762857D01*
X96805952Y-58715238D01*
X97186904Y-58715238D01*
X97282142Y-58762857D01*
X97329761Y-58810476D01*
X97377380Y-58905714D01*
X97377380Y-59096190D01*
X97329761Y-59191428D01*
X97282142Y-59239047D01*
X97186904Y-59286666D01*
X96948809Y-59286666D01*
X96853571Y-59239047D01*
X96805952Y-59191428D01*
X96758333Y-59096190D01*
X96758333Y-58905714D01*
X96805952Y-58810476D01*
X96853571Y-58762857D01*
X96948809Y-58715238D01*
X62396666Y-103947142D02*
X62444285Y-103994761D01*
X62587142Y-104042380D01*
X62682380Y-104042380D01*
X62825238Y-103994761D01*
X62920476Y-103899523D01*
X62968095Y-103804285D01*
X63015714Y-103613809D01*
X63015714Y-103470952D01*
X62968095Y-103280476D01*
X62920476Y-103185238D01*
X62825238Y-103090000D01*
X62682380Y-103042380D01*
X62587142Y-103042380D01*
X62444285Y-103090000D01*
X62396666Y-103137619D01*
X61539523Y-103042380D02*
X61730000Y-103042380D01*
X61825238Y-103090000D01*
X61872857Y-103137619D01*
X61968095Y-103280476D01*
X62015714Y-103470952D01*
X62015714Y-103851904D01*
X61968095Y-103947142D01*
X61920476Y-103994761D01*
X61825238Y-104042380D01*
X61634761Y-104042380D01*
X61539523Y-103994761D01*
X61491904Y-103947142D01*
X61444285Y-103851904D01*
X61444285Y-103613809D01*
X61491904Y-103518571D01*
X61539523Y-103470952D01*
X61634761Y-103423333D01*
X61825238Y-103423333D01*
X61920476Y-103470952D01*
X61968095Y-103518571D01*
X62015714Y-103613809D01*
X50736190Y-73753809D02*
X51212380Y-73753809D01*
X50212380Y-73420476D02*
X50736190Y-73753809D01*
X50212380Y-74087142D01*
X51212380Y-74944285D02*
X51212380Y-74372857D01*
X51212380Y-74658571D02*
X50212380Y-74658571D01*
X50355238Y-74563333D01*
X50450476Y-74468095D01*
X50498095Y-74372857D01*
X61637380Y-82000833D02*
X61161190Y-81667500D01*
X61637380Y-81429404D02*
X60637380Y-81429404D01*
X60637380Y-81810357D01*
X60685000Y-81905595D01*
X60732619Y-81953214D01*
X60827857Y-82000833D01*
X60970714Y-82000833D01*
X61065952Y-81953214D01*
X61113571Y-81905595D01*
X61161190Y-81810357D01*
X61161190Y-81429404D01*
X61637380Y-82953214D02*
X61637380Y-82381785D01*
X61637380Y-82667500D02*
X60637380Y-82667500D01*
X60780238Y-82572261D01*
X60875476Y-82477023D01*
X60923095Y-82381785D01*
X68333333Y-58932380D02*
X68333333Y-59646666D01*
X68380952Y-59789523D01*
X68476190Y-59884761D01*
X68619047Y-59932380D01*
X68714285Y-59932380D01*
X67380952Y-58932380D02*
X67857142Y-58932380D01*
X67904761Y-59408571D01*
X67857142Y-59360952D01*
X67761904Y-59313333D01*
X67523809Y-59313333D01*
X67428571Y-59360952D01*
X67380952Y-59408571D01*
X67333333Y-59503809D01*
X67333333Y-59741904D01*
X67380952Y-59837142D01*
X67428571Y-59884761D01*
X67523809Y-59932380D01*
X67761904Y-59932380D01*
X67857142Y-59884761D01*
X67904761Y-59837142D01*
X54417142Y-63750833D02*
X54464761Y-63703214D01*
X54512380Y-63560357D01*
X54512380Y-63465119D01*
X54464761Y-63322261D01*
X54369523Y-63227023D01*
X54274285Y-63179404D01*
X54083809Y-63131785D01*
X53940952Y-63131785D01*
X53750476Y-63179404D01*
X53655238Y-63227023D01*
X53560000Y-63322261D01*
X53512380Y-63465119D01*
X53512380Y-63560357D01*
X53560000Y-63703214D01*
X53607619Y-63750833D01*
X53512380Y-64655595D02*
X53512380Y-64179404D01*
X53988571Y-64131785D01*
X53940952Y-64179404D01*
X53893333Y-64274642D01*
X53893333Y-64512738D01*
X53940952Y-64607976D01*
X53988571Y-64655595D01*
X54083809Y-64703214D01*
X54321904Y-64703214D01*
X54417142Y-64655595D01*
X54464761Y-64607976D01*
X54512380Y-64512738D01*
X54512380Y-64274642D01*
X54464761Y-64179404D01*
X54417142Y-64131785D01*
X66299166Y-85397142D02*
X66346785Y-85444761D01*
X66489642Y-85492380D01*
X66584880Y-85492380D01*
X66727738Y-85444761D01*
X66822976Y-85349523D01*
X66870595Y-85254285D01*
X66918214Y-85063809D01*
X66918214Y-84920952D01*
X66870595Y-84730476D01*
X66822976Y-84635238D01*
X66727738Y-84540000D01*
X66584880Y-84492380D01*
X66489642Y-84492380D01*
X66346785Y-84540000D01*
X66299166Y-84587619D01*
X65442023Y-84825714D02*
X65442023Y-85492380D01*
X65680119Y-84444761D02*
X65918214Y-85159047D01*
X65299166Y-85159047D01*
X74412142Y-73945833D02*
X74459761Y-73898214D01*
X74507380Y-73755357D01*
X74507380Y-73660119D01*
X74459761Y-73517261D01*
X74364523Y-73422023D01*
X74269285Y-73374404D01*
X74078809Y-73326785D01*
X73935952Y-73326785D01*
X73745476Y-73374404D01*
X73650238Y-73422023D01*
X73555000Y-73517261D01*
X73507380Y-73660119D01*
X73507380Y-73755357D01*
X73555000Y-73898214D01*
X73602619Y-73945833D01*
X73507380Y-74279166D02*
X73507380Y-74898214D01*
X73888333Y-74564880D01*
X73888333Y-74707738D01*
X73935952Y-74802976D01*
X73983571Y-74850595D01*
X74078809Y-74898214D01*
X74316904Y-74898214D01*
X74412142Y-74850595D01*
X74459761Y-74802976D01*
X74507380Y-74707738D01*
X74507380Y-74422023D01*
X74459761Y-74326785D01*
X74412142Y-74279166D01*
X48537142Y-77973333D02*
X48584761Y-77925714D01*
X48632380Y-77782857D01*
X48632380Y-77687619D01*
X48584761Y-77544761D01*
X48489523Y-77449523D01*
X48394285Y-77401904D01*
X48203809Y-77354285D01*
X48060952Y-77354285D01*
X47870476Y-77401904D01*
X47775238Y-77449523D01*
X47680000Y-77544761D01*
X47632380Y-77687619D01*
X47632380Y-77782857D01*
X47680000Y-77925714D01*
X47727619Y-77973333D01*
X47727619Y-78354285D02*
X47680000Y-78401904D01*
X47632380Y-78497142D01*
X47632380Y-78735238D01*
X47680000Y-78830476D01*
X47727619Y-78878095D01*
X47822857Y-78925714D01*
X47918095Y-78925714D01*
X48060952Y-78878095D01*
X48632380Y-78306666D01*
X48632380Y-78925714D01*
X52177142Y-70570833D02*
X52224761Y-70523214D01*
X52272380Y-70380357D01*
X52272380Y-70285119D01*
X52224761Y-70142261D01*
X52129523Y-70047023D01*
X52034285Y-69999404D01*
X51843809Y-69951785D01*
X51700952Y-69951785D01*
X51510476Y-69999404D01*
X51415238Y-70047023D01*
X51320000Y-70142261D01*
X51272380Y-70285119D01*
X51272380Y-70380357D01*
X51320000Y-70523214D01*
X51367619Y-70570833D01*
X52272380Y-71523214D02*
X52272380Y-70951785D01*
X52272380Y-71237500D02*
X51272380Y-71237500D01*
X51415238Y-71142261D01*
X51510476Y-71047023D01*
X51558095Y-70951785D01*
X72617380Y-71028095D02*
X73426904Y-71028095D01*
X73522142Y-71075714D01*
X73569761Y-71123333D01*
X73617380Y-71218571D01*
X73617380Y-71409047D01*
X73569761Y-71504285D01*
X73522142Y-71551904D01*
X73426904Y-71599523D01*
X72617380Y-71599523D01*
X73617380Y-72599523D02*
X73617380Y-72028095D01*
X73617380Y-72313809D02*
X72617380Y-72313809D01*
X72760238Y-72218571D01*
X72855476Y-72123333D01*
X72903095Y-72028095D01*
M02*
