M48
; DRILL file {KiCad (5.1.5)-2} date 09/18/20 11:59:27
; FORMAT={-:-/ absolute / inch / decimal}
; #@! TF.CreationDate,2020-09-18T11:59:27-06:00
; #@! TF.GenerationSoftware,Kicad,Pcbnew,(5.1.5)-2
FMAT,2
INCH
T1C0.0157
T2C0.0315
T3C0.0354
T4C0.0390
T5C0.0394
T6C0.0433
T7C0.0512
T8C0.1181
T9C0.0394
T10C0.0941
T11C0.1358
%
G90
G05
T1
X2.0572Y-3.7065
X2.2205Y-3.0236
X2.2373Y-2.8057
X2.2717Y-2.6732
X2.295Y-2.9589
X2.3501Y-3.0977
X2.3518Y-3.0185
X2.4291Y-2.8501
X2.4301Y-2.7087
X2.4322Y-2.7624
X2.4436Y-2.9274
X2.5071Y-2.9558
X2.5737Y-3.1228
X2.6095Y-2.6555
X2.62Y-2.868
X2.6491Y-3.1044
X2.655Y-2.5337
X2.7114Y-2.9794
X2.7548Y-2.7806
X2.755Y-2.8216
X2.7605Y-3.5901
X2.7834Y-3.0468
X2.8808Y-2.9602
X2.9759Y-3.4017
X3.1636Y-2.8118
X3.312Y-3.262
X3.5668Y-3.4005
X3.7152Y-2.604
X3.855Y-2.5596
X4.3958Y-2.5884
X5.4882Y-3.8848
X5.5642Y-3.8431
X5.5976Y-3.7169
X6.6344Y-3.3217
X6.7029Y-3.3482
X7.3609Y-2.6112
X7.3609Y-3.3485
T2
X2.1372Y-2.8264
X2.1372Y-3.0185
T3
X3.55Y-2.1451
X3.55Y-2.275
X3.6484Y-2.1451
X3.6484Y-2.275
X3.7469Y-2.1451
X3.7469Y-2.275
T4
X2.2978Y-2.2
X2.475Y-2.2
X8.3978Y-2.2
X8.575Y-2.2
T5
X3.2677Y-2.7165
X3.2677Y-2.8165
X3.2677Y-2.9165
X3.2677Y-3.0165
X3.2677Y-3.1165
X3.2677Y-3.2165
X3.2677Y-3.3165
X3.2677Y-3.4165
X3.2677Y-3.5165
X3.2677Y-3.6165
X3.2677Y-3.7165
X3.2677Y-3.8165
X3.2677Y-3.9165
X3.2677Y-4.0165
X6.8594Y-2.4161
X6.8594Y-2.5161
X6.8594Y-2.6161
X6.8594Y-2.7161
X6.8594Y-2.8161
X6.8594Y-2.9161
X6.8594Y-3.0161
X6.8594Y-3.1161
X6.8594Y-3.2161
X6.8594Y-3.3161
X6.8594Y-3.4161
X6.8594Y-3.5161
X6.8594Y-3.6161
X6.8594Y-3.7161
X6.8594Y-3.8161
X6.8594Y-3.9161
X6.8594Y-4.0161
X6.8594Y-4.1161
X6.8594Y-4.2161
X6.8594Y-4.3161
X6.9594Y-2.4161
X6.9594Y-2.5161
X6.9594Y-2.6161
X6.9594Y-2.7161
X6.9594Y-2.8161
X6.9594Y-2.9161
X6.9594Y-3.0161
X6.9594Y-3.1161
X6.9594Y-3.2161
X6.9594Y-3.3161
X6.9594Y-3.4161
X6.9594Y-3.5161
X6.9594Y-3.6161
X6.9594Y-3.7161
X6.9594Y-3.8161
X6.9594Y-3.9161
X6.9594Y-4.0161
X6.9594Y-4.1161
X6.9594Y-4.2161
X6.9594Y-4.3161
X3.925Y-2.4803
X4.025Y-2.4803
X4.125Y-2.4803
X4.225Y-2.4803
X4.325Y-2.4803
X2.875Y-2.15
X2.875Y-2.25
X2.975Y-2.15
X2.975Y-2.25
X3.075Y-2.15
X3.075Y-2.25
X2.6772Y-2.15
X2.6772Y-2.25
X1.975Y-4.275
X2.075Y-4.275
X2.175Y-4.275
X2.275Y-4.275
X2.375Y-4.275
X2.475Y-4.275
X2.575Y-4.275
T6
X2.7165Y-4.4094
X2.7165Y-4.5866
X2.9724Y-4.4094
X2.9724Y-4.5866
X2.2835Y-4.4094
X2.2835Y-4.5866
X2.5394Y-4.4094
X2.5394Y-4.5866
X8.2299Y-3.0079
X8.2299Y-3.2638
X8.4071Y-3.0079
X8.4071Y-3.2638
X7.9299Y-4.3969
X7.9299Y-4.574
X8.1858Y-4.3969
X8.1858Y-4.574
X8.2299Y-2.5079
X8.2299Y-2.7638
X8.4071Y-2.5079
X8.4071Y-2.7638
X2.64Y-3.4079
X2.64Y-3.6638
X2.8171Y-3.4079
X2.8171Y-3.6638
X8.3799Y-4.3969
X8.3799Y-4.574
X8.6358Y-4.3969
X8.6358Y-4.574
X2.34Y-3.6579
X2.34Y-3.9138
X2.5171Y-3.6579
X2.5171Y-3.9138
X2.94Y-3.6579
X2.94Y-3.9138
X3.1171Y-3.6579
X3.1171Y-3.9138
X2.64Y-3.9079
X2.64Y-4.1638
X2.8171Y-3.9079
X2.8171Y-4.1638
X7.9299Y-2.7579
X7.9299Y-3.0138
X8.1071Y-2.7579
X8.1071Y-3.0138
X8.5299Y-2.7579
X8.5299Y-3.0138
X8.7071Y-2.7579
X8.7071Y-3.0138
T7
X2.2482Y-2.298
X2.5242Y-2.298
X8.3482Y-2.298
X8.6242Y-2.298
T8
X3.2874Y-2.2835
X3.2874Y-4.4488
X7.3433Y-2.2835
X7.3433Y-4.4488
X2.0276Y-2.2244
X6.9094Y-2.2244
X6.9094Y-4.5079
X8.8386Y-2.2244
X8.8386Y-4.5079
X2.0276Y-4.5079
T9
X7.7884Y-2.325
X7.9616Y-2.325
T10
X3.6575Y-3.3185
X3.6575Y-4.2126
T11
X3.9854Y-2.6886
X6.1587Y-3.3185
X3.9854Y-3.5827
X6.1587Y-4.2126
T0
M30
