M48
; DRILL file {KiCad (5.1.5)-2} date 10/7/2020 5:42:41 PM
; FORMAT={-:-/ absolute / inch / decimal}
; #@! TF.CreationDate,2020-10-07T17:42:41-06:00
; #@! TF.GenerationSoftware,Kicad,Pcbnew,(5.1.5)-2
FMAT,2
INCH
T1C0.0157
T2C0.0315
T3C0.0354
T4C0.0390
T5C0.0394
T6C0.0433
T7C0.0512
T8C0.0689
T9C0.1181
T10C0.0394
%
G90
G05
T1
X2.17Y-3.8183
X2.1858Y-3.2087
X2.2254Y-3.4226
X2.2561Y-2.7154
X2.3028Y-2.803
X2.3065Y-2.7447
X2.4104Y-2.4673
X2.4137Y-3.1607
X2.4342Y-2.795
X2.4496Y-4.074
X2.4525Y-2.9973
X2.4879Y-2.863
X2.5207Y-2.6695
X2.5605Y-2.761
X2.5715Y-2.967
X2.6107Y-2.7735
X2.622Y-2.8641
X2.7142Y-2.922
X2.7436Y-3.3747
X2.7835Y-2.6246
X2.8841Y-2.8894
X2.8995Y-2.7145
X2.9141Y-3.3427
X2.9252Y-2.8644
X2.9552Y-2.6878
X3.0438Y-2.6602
X3.1798Y-2.2986
X3.2249Y-3.538
X3.6511Y-2.883
X3.7368Y-3.582
X4.2126Y-3.9606
X4.5591Y-3.9134
X5.095Y-4.2196
X5.2379Y-4.2579
X5.2992Y-3.8898
X5.3988Y-3.8603
X6.7408Y-3.3944
X6.9105Y-3.4552
X6.9175Y-2.9596
X7.3693Y-2.1339
X7.4813Y-2.3415
T2
X2.1372Y-2.8264
X2.1372Y-3.0185
T3
X3.5528Y-4.4685
X3.5528Y-4.5984
X3.6512Y-4.4685
X3.6512Y-4.5984
X3.7496Y-4.4685
X3.7496Y-4.5984
T4
X2.2978Y-2.2
X2.475Y-2.2
X8.3978Y-2.2
X8.575Y-2.2
T5
X2.6772Y-2.15
X2.6772Y-2.25
X6.8594Y-2.4161
X6.8594Y-2.5161
X6.8594Y-2.6161
X6.8594Y-2.7161
X6.8594Y-2.8161
X6.8594Y-2.9161
X6.8594Y-3.0161
X6.8594Y-3.1161
X6.8594Y-3.2161
X6.8594Y-3.3161
X6.8594Y-3.4161
X6.8594Y-3.5161
X6.8594Y-3.6161
X6.8594Y-3.7161
X6.8594Y-3.8161
X6.8594Y-3.9161
X6.8594Y-4.0161
X6.8594Y-4.1161
X6.8594Y-4.2161
X6.8594Y-4.3161
X6.9594Y-2.4161
X6.9594Y-2.5161
X6.9594Y-2.6161
X6.9594Y-2.7161
X6.9594Y-2.8161
X6.9594Y-2.9161
X6.9594Y-3.0161
X6.9594Y-3.1161
X6.9594Y-3.2161
X6.9594Y-3.3161
X6.9594Y-3.4161
X6.9594Y-3.5161
X6.9594Y-3.6161
X6.9594Y-3.7161
X6.9594Y-3.8161
X6.9594Y-3.9161
X6.9594Y-4.0161
X6.9594Y-4.1161
X6.9594Y-4.2161
X6.9594Y-4.3161
X1.9882Y-3.937
X1.9882Y-4.037
X2.0882Y-3.937
X2.0882Y-4.037
X2.1882Y-3.937
X2.1882Y-4.037
X1.975Y-4.275
X2.075Y-4.275
X2.175Y-4.275
X2.275Y-4.275
X2.375Y-4.275
X2.475Y-4.275
X2.575Y-4.275
X6.224Y-4.2421
X6.324Y-4.2421
X6.424Y-4.2421
X6.524Y-4.2421
X6.624Y-4.2421
X3.287Y-2.7165
X3.287Y-2.8165
X3.287Y-2.9165
X3.287Y-3.0165
X3.287Y-3.1165
X3.287Y-3.2165
X3.287Y-3.3165
X3.287Y-3.4165
X3.287Y-3.5165
X3.287Y-3.6165
X3.287Y-3.7165
X3.287Y-3.8165
X3.287Y-3.9165
X3.287Y-4.0165
T6
X7.9299Y-4.3969
X7.9299Y-4.574
X8.1858Y-4.3969
X8.1858Y-4.574
X2.2835Y-4.4094
X2.2835Y-4.5866
X2.5394Y-4.4094
X2.5394Y-4.5866
X2.7165Y-4.4094
X2.7165Y-4.5866
X2.9724Y-4.4094
X2.9724Y-4.5866
X2.64Y-3.9035
X2.64Y-4.1594
X2.8171Y-3.9035
X2.8171Y-4.1594
X2.94Y-3.6535
X2.94Y-3.9094
X3.1171Y-3.6535
X3.1171Y-3.9094
X8.3528Y-3.6535
X8.3528Y-3.9094
X8.5299Y-3.6535
X8.5299Y-3.9094
X8.0528Y-3.9035
X8.0528Y-4.1594
X8.2299Y-3.9035
X8.2299Y-4.1594
X2.64Y-3.4035
X2.64Y-3.6594
X2.8171Y-3.4035
X2.8171Y-3.6594
X8.0528Y-3.4035
X8.0528Y-3.6594
X8.2299Y-3.4035
X8.2299Y-3.6594
X2.34Y-3.6535
X2.34Y-3.9094
X2.5171Y-3.6535
X2.5171Y-3.9094
X7.7528Y-3.6535
X7.7528Y-3.9094
X7.9299Y-3.6535
X7.9299Y-3.9094
X8.3799Y-4.3969
X8.3799Y-4.574
X8.6358Y-4.3969
X8.6358Y-4.574
T7
X2.2482Y-2.298
X2.5242Y-2.298
X8.3482Y-2.298
X8.6242Y-2.298
T8
X2.2736Y-3.2854
X2.9311Y-2.5591
X7.8957Y-2.5878
X8.622Y-3.2453
T9
X6.9094Y-2.2244
X6.9094Y-4.5079
X8.8386Y-2.2244
X8.8386Y-4.5079
X2.9509Y-2.3909
X6.6902Y-2.3909
X6.6902Y-3.6902
X2.0276Y-2.2244
X3.3173Y-2.2839
X3.3173Y-4.4492
X7.3331Y-2.2839
X7.3331Y-4.4492
X2.0276Y-4.5079
T10
X4.0173Y-4.3996
X4.1906Y-4.3996
T0
M30
