G04 #@! TF.GenerationSoftware,KiCad,Pcbnew,(5.1.5)-2*
G04 #@! TF.CreationDate,2020-09-18T11:59:30-06:00*
G04 #@! TF.ProjectId,Pi-A3-Game-Console,50692d41-332d-4476-916d-652d436f6e73,rev?*
G04 #@! TF.SameCoordinates,Original*
G04 #@! TF.FileFunction,Paste,Bot*
G04 #@! TF.FilePolarity,Positive*
%FSLAX46Y46*%
G04 Gerber Fmt 4.6, Leading zero omitted, Abs format (unit mm)*
G04 Created by KiCad (PCBNEW (5.1.5)-2) date 2020-09-18 11:59:30*
%MOMM*%
%LPD*%
G04 APERTURE LIST*
%ADD10R,7.340000X6.350000*%
%ADD11C,0.100000*%
%ADD12R,1.500000X0.550000*%
%ADD13R,0.550000X1.500000*%
G04 APERTURE END LIST*
D10*
X89500000Y-76290000D03*
X168160000Y-76290000D03*
X89500000Y-99000000D03*
X168160000Y-99000000D03*
D11*
G36*
X61229504Y-104536204D02*
G01*
X61253773Y-104539804D01*
X61277571Y-104545765D01*
X61300671Y-104554030D01*
X61322849Y-104564520D01*
X61343893Y-104577133D01*
X61363598Y-104591747D01*
X61381777Y-104608223D01*
X61398253Y-104626402D01*
X61412867Y-104646107D01*
X61425480Y-104667151D01*
X61435970Y-104689329D01*
X61444235Y-104712429D01*
X61450196Y-104736227D01*
X61453796Y-104760496D01*
X61455000Y-104785000D01*
X61455000Y-106035000D01*
X61453796Y-106059504D01*
X61450196Y-106083773D01*
X61444235Y-106107571D01*
X61435970Y-106130671D01*
X61425480Y-106152849D01*
X61412867Y-106173893D01*
X61398253Y-106193598D01*
X61381777Y-106211777D01*
X61363598Y-106228253D01*
X61343893Y-106242867D01*
X61322849Y-106255480D01*
X61300671Y-106265970D01*
X61277571Y-106274235D01*
X61253773Y-106280196D01*
X61229504Y-106283796D01*
X61205000Y-106285000D01*
X60280000Y-106285000D01*
X60255496Y-106283796D01*
X60231227Y-106280196D01*
X60207429Y-106274235D01*
X60184329Y-106265970D01*
X60162151Y-106255480D01*
X60141107Y-106242867D01*
X60121402Y-106228253D01*
X60103223Y-106211777D01*
X60086747Y-106193598D01*
X60072133Y-106173893D01*
X60059520Y-106152849D01*
X60049030Y-106130671D01*
X60040765Y-106107571D01*
X60034804Y-106083773D01*
X60031204Y-106059504D01*
X60030000Y-106035000D01*
X60030000Y-104785000D01*
X60031204Y-104760496D01*
X60034804Y-104736227D01*
X60040765Y-104712429D01*
X60049030Y-104689329D01*
X60059520Y-104667151D01*
X60072133Y-104646107D01*
X60086747Y-104626402D01*
X60103223Y-104608223D01*
X60121402Y-104591747D01*
X60141107Y-104577133D01*
X60162151Y-104564520D01*
X60184329Y-104554030D01*
X60207429Y-104545765D01*
X60231227Y-104539804D01*
X60255496Y-104536204D01*
X60280000Y-104535000D01*
X61205000Y-104535000D01*
X61229504Y-104536204D01*
G37*
G36*
X64204504Y-104536204D02*
G01*
X64228773Y-104539804D01*
X64252571Y-104545765D01*
X64275671Y-104554030D01*
X64297849Y-104564520D01*
X64318893Y-104577133D01*
X64338598Y-104591747D01*
X64356777Y-104608223D01*
X64373253Y-104626402D01*
X64387867Y-104646107D01*
X64400480Y-104667151D01*
X64410970Y-104689329D01*
X64419235Y-104712429D01*
X64425196Y-104736227D01*
X64428796Y-104760496D01*
X64430000Y-104785000D01*
X64430000Y-106035000D01*
X64428796Y-106059504D01*
X64425196Y-106083773D01*
X64419235Y-106107571D01*
X64410970Y-106130671D01*
X64400480Y-106152849D01*
X64387867Y-106173893D01*
X64373253Y-106193598D01*
X64356777Y-106211777D01*
X64338598Y-106228253D01*
X64318893Y-106242867D01*
X64297849Y-106255480D01*
X64275671Y-106265970D01*
X64252571Y-106274235D01*
X64228773Y-106280196D01*
X64204504Y-106283796D01*
X64180000Y-106285000D01*
X63255000Y-106285000D01*
X63230496Y-106283796D01*
X63206227Y-106280196D01*
X63182429Y-106274235D01*
X63159329Y-106265970D01*
X63137151Y-106255480D01*
X63116107Y-106242867D01*
X63096402Y-106228253D01*
X63078223Y-106211777D01*
X63061747Y-106193598D01*
X63047133Y-106173893D01*
X63034520Y-106152849D01*
X63024030Y-106130671D01*
X63015765Y-106107571D01*
X63009804Y-106083773D01*
X63006204Y-106059504D01*
X63005000Y-106035000D01*
X63005000Y-104785000D01*
X63006204Y-104760496D01*
X63009804Y-104736227D01*
X63015765Y-104712429D01*
X63024030Y-104689329D01*
X63034520Y-104667151D01*
X63047133Y-104646107D01*
X63061747Y-104626402D01*
X63078223Y-104608223D01*
X63096402Y-104591747D01*
X63116107Y-104577133D01*
X63137151Y-104564520D01*
X63159329Y-104554030D01*
X63182429Y-104545765D01*
X63206227Y-104539804D01*
X63230496Y-104536204D01*
X63255000Y-104535000D01*
X64180000Y-104535000D01*
X64204504Y-104536204D01*
G37*
G36*
X60014504Y-79968704D02*
G01*
X60038773Y-79972304D01*
X60062571Y-79978265D01*
X60085671Y-79986530D01*
X60107849Y-79997020D01*
X60128893Y-80009633D01*
X60148598Y-80024247D01*
X60166777Y-80040723D01*
X60183253Y-80058902D01*
X60197867Y-80078607D01*
X60210480Y-80099651D01*
X60220970Y-80121829D01*
X60229235Y-80144929D01*
X60235196Y-80168727D01*
X60238796Y-80192996D01*
X60240000Y-80217500D01*
X60240000Y-81142500D01*
X60238796Y-81167004D01*
X60235196Y-81191273D01*
X60229235Y-81215071D01*
X60220970Y-81238171D01*
X60210480Y-81260349D01*
X60197867Y-81281393D01*
X60183253Y-81301098D01*
X60166777Y-81319277D01*
X60148598Y-81335753D01*
X60128893Y-81350367D01*
X60107849Y-81362980D01*
X60085671Y-81373470D01*
X60062571Y-81381735D01*
X60038773Y-81387696D01*
X60014504Y-81391296D01*
X59990000Y-81392500D01*
X58740000Y-81392500D01*
X58715496Y-81391296D01*
X58691227Y-81387696D01*
X58667429Y-81381735D01*
X58644329Y-81373470D01*
X58622151Y-81362980D01*
X58601107Y-81350367D01*
X58581402Y-81335753D01*
X58563223Y-81319277D01*
X58546747Y-81301098D01*
X58532133Y-81281393D01*
X58519520Y-81260349D01*
X58509030Y-81238171D01*
X58500765Y-81215071D01*
X58494804Y-81191273D01*
X58491204Y-81167004D01*
X58490000Y-81142500D01*
X58490000Y-80217500D01*
X58491204Y-80192996D01*
X58494804Y-80168727D01*
X58500765Y-80144929D01*
X58509030Y-80121829D01*
X58519520Y-80099651D01*
X58532133Y-80078607D01*
X58546747Y-80058902D01*
X58563223Y-80040723D01*
X58581402Y-80024247D01*
X58601107Y-80009633D01*
X58622151Y-79997020D01*
X58644329Y-79986530D01*
X58667429Y-79978265D01*
X58691227Y-79972304D01*
X58715496Y-79968704D01*
X58740000Y-79967500D01*
X59990000Y-79967500D01*
X60014504Y-79968704D01*
G37*
G36*
X60014504Y-82943704D02*
G01*
X60038773Y-82947304D01*
X60062571Y-82953265D01*
X60085671Y-82961530D01*
X60107849Y-82972020D01*
X60128893Y-82984633D01*
X60148598Y-82999247D01*
X60166777Y-83015723D01*
X60183253Y-83033902D01*
X60197867Y-83053607D01*
X60210480Y-83074651D01*
X60220970Y-83096829D01*
X60229235Y-83119929D01*
X60235196Y-83143727D01*
X60238796Y-83167996D01*
X60240000Y-83192500D01*
X60240000Y-84117500D01*
X60238796Y-84142004D01*
X60235196Y-84166273D01*
X60229235Y-84190071D01*
X60220970Y-84213171D01*
X60210480Y-84235349D01*
X60197867Y-84256393D01*
X60183253Y-84276098D01*
X60166777Y-84294277D01*
X60148598Y-84310753D01*
X60128893Y-84325367D01*
X60107849Y-84337980D01*
X60085671Y-84348470D01*
X60062571Y-84356735D01*
X60038773Y-84362696D01*
X60014504Y-84366296D01*
X59990000Y-84367500D01*
X58740000Y-84367500D01*
X58715496Y-84366296D01*
X58691227Y-84362696D01*
X58667429Y-84356735D01*
X58644329Y-84348470D01*
X58622151Y-84337980D01*
X58601107Y-84325367D01*
X58581402Y-84310753D01*
X58563223Y-84294277D01*
X58546747Y-84276098D01*
X58532133Y-84256393D01*
X58519520Y-84235349D01*
X58509030Y-84213171D01*
X58500765Y-84190071D01*
X58494804Y-84166273D01*
X58491204Y-84142004D01*
X58490000Y-84117500D01*
X58490000Y-83192500D01*
X58491204Y-83167996D01*
X58494804Y-83143727D01*
X58500765Y-83119929D01*
X58509030Y-83096829D01*
X58519520Y-83074651D01*
X58532133Y-83053607D01*
X58546747Y-83033902D01*
X58563223Y-83015723D01*
X58581402Y-82999247D01*
X58601107Y-82984633D01*
X58622151Y-82972020D01*
X58644329Y-82961530D01*
X58667429Y-82953265D01*
X58691227Y-82947304D01*
X58715496Y-82943704D01*
X58740000Y-82942500D01*
X59990000Y-82942500D01*
X60014504Y-82943704D01*
G37*
G36*
X56529504Y-64693704D02*
G01*
X56553773Y-64697304D01*
X56577571Y-64703265D01*
X56600671Y-64711530D01*
X56622849Y-64722020D01*
X56643893Y-64734633D01*
X56663598Y-64749247D01*
X56681777Y-64765723D01*
X56698253Y-64783902D01*
X56712867Y-64803607D01*
X56725480Y-64824651D01*
X56735970Y-64846829D01*
X56744235Y-64869929D01*
X56750196Y-64893727D01*
X56753796Y-64917996D01*
X56755000Y-64942500D01*
X56755000Y-65867500D01*
X56753796Y-65892004D01*
X56750196Y-65916273D01*
X56744235Y-65940071D01*
X56735970Y-65963171D01*
X56725480Y-65985349D01*
X56712867Y-66006393D01*
X56698253Y-66026098D01*
X56681777Y-66044277D01*
X56663598Y-66060753D01*
X56643893Y-66075367D01*
X56622849Y-66087980D01*
X56600671Y-66098470D01*
X56577571Y-66106735D01*
X56553773Y-66112696D01*
X56529504Y-66116296D01*
X56505000Y-66117500D01*
X55255000Y-66117500D01*
X55230496Y-66116296D01*
X55206227Y-66112696D01*
X55182429Y-66106735D01*
X55159329Y-66098470D01*
X55137151Y-66087980D01*
X55116107Y-66075367D01*
X55096402Y-66060753D01*
X55078223Y-66044277D01*
X55061747Y-66026098D01*
X55047133Y-66006393D01*
X55034520Y-65985349D01*
X55024030Y-65963171D01*
X55015765Y-65940071D01*
X55009804Y-65916273D01*
X55006204Y-65892004D01*
X55005000Y-65867500D01*
X55005000Y-64942500D01*
X55006204Y-64917996D01*
X55009804Y-64893727D01*
X55015765Y-64869929D01*
X55024030Y-64846829D01*
X55034520Y-64824651D01*
X55047133Y-64803607D01*
X55061747Y-64783902D01*
X55078223Y-64765723D01*
X55096402Y-64749247D01*
X55116107Y-64734633D01*
X55137151Y-64722020D01*
X55159329Y-64711530D01*
X55182429Y-64703265D01*
X55206227Y-64697304D01*
X55230496Y-64693704D01*
X55255000Y-64692500D01*
X56505000Y-64692500D01*
X56529504Y-64693704D01*
G37*
G36*
X56529504Y-61718704D02*
G01*
X56553773Y-61722304D01*
X56577571Y-61728265D01*
X56600671Y-61736530D01*
X56622849Y-61747020D01*
X56643893Y-61759633D01*
X56663598Y-61774247D01*
X56681777Y-61790723D01*
X56698253Y-61808902D01*
X56712867Y-61828607D01*
X56725480Y-61849651D01*
X56735970Y-61871829D01*
X56744235Y-61894929D01*
X56750196Y-61918727D01*
X56753796Y-61942996D01*
X56755000Y-61967500D01*
X56755000Y-62892500D01*
X56753796Y-62917004D01*
X56750196Y-62941273D01*
X56744235Y-62965071D01*
X56735970Y-62988171D01*
X56725480Y-63010349D01*
X56712867Y-63031393D01*
X56698253Y-63051098D01*
X56681777Y-63069277D01*
X56663598Y-63085753D01*
X56643893Y-63100367D01*
X56622849Y-63112980D01*
X56600671Y-63123470D01*
X56577571Y-63131735D01*
X56553773Y-63137696D01*
X56529504Y-63141296D01*
X56505000Y-63142500D01*
X55255000Y-63142500D01*
X55230496Y-63141296D01*
X55206227Y-63137696D01*
X55182429Y-63131735D01*
X55159329Y-63123470D01*
X55137151Y-63112980D01*
X55116107Y-63100367D01*
X55096402Y-63085753D01*
X55078223Y-63069277D01*
X55061747Y-63051098D01*
X55047133Y-63031393D01*
X55034520Y-63010349D01*
X55024030Y-62988171D01*
X55015765Y-62965071D01*
X55009804Y-62941273D01*
X55006204Y-62917004D01*
X55005000Y-62892500D01*
X55005000Y-61967500D01*
X55006204Y-61942996D01*
X55009804Y-61918727D01*
X55015765Y-61894929D01*
X55024030Y-61871829D01*
X55034520Y-61849651D01*
X55047133Y-61828607D01*
X55061747Y-61808902D01*
X55078223Y-61790723D01*
X55096402Y-61774247D01*
X55116107Y-61759633D01*
X55137151Y-61747020D01*
X55159329Y-61736530D01*
X55182429Y-61728265D01*
X55206227Y-61722304D01*
X55230496Y-61718704D01*
X55255000Y-61717500D01*
X56505000Y-61717500D01*
X56529504Y-61718704D01*
G37*
G36*
X68107004Y-82346204D02*
G01*
X68131273Y-82349804D01*
X68155071Y-82355765D01*
X68178171Y-82364030D01*
X68200349Y-82374520D01*
X68221393Y-82387133D01*
X68241098Y-82401747D01*
X68259277Y-82418223D01*
X68275753Y-82436402D01*
X68290367Y-82456107D01*
X68302980Y-82477151D01*
X68313470Y-82499329D01*
X68321735Y-82522429D01*
X68327696Y-82546227D01*
X68331296Y-82570496D01*
X68332500Y-82595000D01*
X68332500Y-83845000D01*
X68331296Y-83869504D01*
X68327696Y-83893773D01*
X68321735Y-83917571D01*
X68313470Y-83940671D01*
X68302980Y-83962849D01*
X68290367Y-83983893D01*
X68275753Y-84003598D01*
X68259277Y-84021777D01*
X68241098Y-84038253D01*
X68221393Y-84052867D01*
X68200349Y-84065480D01*
X68178171Y-84075970D01*
X68155071Y-84084235D01*
X68131273Y-84090196D01*
X68107004Y-84093796D01*
X68082500Y-84095000D01*
X67157500Y-84095000D01*
X67132996Y-84093796D01*
X67108727Y-84090196D01*
X67084929Y-84084235D01*
X67061829Y-84075970D01*
X67039651Y-84065480D01*
X67018607Y-84052867D01*
X66998902Y-84038253D01*
X66980723Y-84021777D01*
X66964247Y-84003598D01*
X66949633Y-83983893D01*
X66937020Y-83962849D01*
X66926530Y-83940671D01*
X66918265Y-83917571D01*
X66912304Y-83893773D01*
X66908704Y-83869504D01*
X66907500Y-83845000D01*
X66907500Y-82595000D01*
X66908704Y-82570496D01*
X66912304Y-82546227D01*
X66918265Y-82522429D01*
X66926530Y-82499329D01*
X66937020Y-82477151D01*
X66949633Y-82456107D01*
X66964247Y-82436402D01*
X66980723Y-82418223D01*
X66998902Y-82401747D01*
X67018607Y-82387133D01*
X67039651Y-82374520D01*
X67061829Y-82364030D01*
X67084929Y-82355765D01*
X67108727Y-82349804D01*
X67132996Y-82346204D01*
X67157500Y-82345000D01*
X68082500Y-82345000D01*
X68107004Y-82346204D01*
G37*
G36*
X65132004Y-82346204D02*
G01*
X65156273Y-82349804D01*
X65180071Y-82355765D01*
X65203171Y-82364030D01*
X65225349Y-82374520D01*
X65246393Y-82387133D01*
X65266098Y-82401747D01*
X65284277Y-82418223D01*
X65300753Y-82436402D01*
X65315367Y-82456107D01*
X65327980Y-82477151D01*
X65338470Y-82499329D01*
X65346735Y-82522429D01*
X65352696Y-82546227D01*
X65356296Y-82570496D01*
X65357500Y-82595000D01*
X65357500Y-83845000D01*
X65356296Y-83869504D01*
X65352696Y-83893773D01*
X65346735Y-83917571D01*
X65338470Y-83940671D01*
X65327980Y-83962849D01*
X65315367Y-83983893D01*
X65300753Y-84003598D01*
X65284277Y-84021777D01*
X65266098Y-84038253D01*
X65246393Y-84052867D01*
X65225349Y-84065480D01*
X65203171Y-84075970D01*
X65180071Y-84084235D01*
X65156273Y-84090196D01*
X65132004Y-84093796D01*
X65107500Y-84095000D01*
X64182500Y-84095000D01*
X64157996Y-84093796D01*
X64133727Y-84090196D01*
X64109929Y-84084235D01*
X64086829Y-84075970D01*
X64064651Y-84065480D01*
X64043607Y-84052867D01*
X64023902Y-84038253D01*
X64005723Y-84021777D01*
X63989247Y-84003598D01*
X63974633Y-83983893D01*
X63962020Y-83962849D01*
X63951530Y-83940671D01*
X63943265Y-83917571D01*
X63937304Y-83893773D01*
X63933704Y-83869504D01*
X63932500Y-83845000D01*
X63932500Y-82595000D01*
X63933704Y-82570496D01*
X63937304Y-82546227D01*
X63943265Y-82522429D01*
X63951530Y-82499329D01*
X63962020Y-82477151D01*
X63974633Y-82456107D01*
X63989247Y-82436402D01*
X64005723Y-82418223D01*
X64023902Y-82401747D01*
X64043607Y-82387133D01*
X64064651Y-82374520D01*
X64086829Y-82364030D01*
X64109929Y-82355765D01*
X64133727Y-82349804D01*
X64157996Y-82346204D01*
X64182500Y-82345000D01*
X65107500Y-82345000D01*
X65132004Y-82346204D01*
G37*
G36*
X76524504Y-74888704D02*
G01*
X76548773Y-74892304D01*
X76572571Y-74898265D01*
X76595671Y-74906530D01*
X76617849Y-74917020D01*
X76638893Y-74929633D01*
X76658598Y-74944247D01*
X76676777Y-74960723D01*
X76693253Y-74978902D01*
X76707867Y-74998607D01*
X76720480Y-75019651D01*
X76730970Y-75041829D01*
X76739235Y-75064929D01*
X76745196Y-75088727D01*
X76748796Y-75112996D01*
X76750000Y-75137500D01*
X76750000Y-76062500D01*
X76748796Y-76087004D01*
X76745196Y-76111273D01*
X76739235Y-76135071D01*
X76730970Y-76158171D01*
X76720480Y-76180349D01*
X76707867Y-76201393D01*
X76693253Y-76221098D01*
X76676777Y-76239277D01*
X76658598Y-76255753D01*
X76638893Y-76270367D01*
X76617849Y-76282980D01*
X76595671Y-76293470D01*
X76572571Y-76301735D01*
X76548773Y-76307696D01*
X76524504Y-76311296D01*
X76500000Y-76312500D01*
X75250000Y-76312500D01*
X75225496Y-76311296D01*
X75201227Y-76307696D01*
X75177429Y-76301735D01*
X75154329Y-76293470D01*
X75132151Y-76282980D01*
X75111107Y-76270367D01*
X75091402Y-76255753D01*
X75073223Y-76239277D01*
X75056747Y-76221098D01*
X75042133Y-76201393D01*
X75029520Y-76180349D01*
X75019030Y-76158171D01*
X75010765Y-76135071D01*
X75004804Y-76111273D01*
X75001204Y-76087004D01*
X75000000Y-76062500D01*
X75000000Y-75137500D01*
X75001204Y-75112996D01*
X75004804Y-75088727D01*
X75010765Y-75064929D01*
X75019030Y-75041829D01*
X75029520Y-75019651D01*
X75042133Y-74998607D01*
X75056747Y-74978902D01*
X75073223Y-74960723D01*
X75091402Y-74944247D01*
X75111107Y-74929633D01*
X75132151Y-74917020D01*
X75154329Y-74906530D01*
X75177429Y-74898265D01*
X75201227Y-74892304D01*
X75225496Y-74888704D01*
X75250000Y-74887500D01*
X76500000Y-74887500D01*
X76524504Y-74888704D01*
G37*
G36*
X76524504Y-71913704D02*
G01*
X76548773Y-71917304D01*
X76572571Y-71923265D01*
X76595671Y-71931530D01*
X76617849Y-71942020D01*
X76638893Y-71954633D01*
X76658598Y-71969247D01*
X76676777Y-71985723D01*
X76693253Y-72003902D01*
X76707867Y-72023607D01*
X76720480Y-72044651D01*
X76730970Y-72066829D01*
X76739235Y-72089929D01*
X76745196Y-72113727D01*
X76748796Y-72137996D01*
X76750000Y-72162500D01*
X76750000Y-73087500D01*
X76748796Y-73112004D01*
X76745196Y-73136273D01*
X76739235Y-73160071D01*
X76730970Y-73183171D01*
X76720480Y-73205349D01*
X76707867Y-73226393D01*
X76693253Y-73246098D01*
X76676777Y-73264277D01*
X76658598Y-73280753D01*
X76638893Y-73295367D01*
X76617849Y-73307980D01*
X76595671Y-73318470D01*
X76572571Y-73326735D01*
X76548773Y-73332696D01*
X76524504Y-73336296D01*
X76500000Y-73337500D01*
X75250000Y-73337500D01*
X75225496Y-73336296D01*
X75201227Y-73332696D01*
X75177429Y-73326735D01*
X75154329Y-73318470D01*
X75132151Y-73307980D01*
X75111107Y-73295367D01*
X75091402Y-73280753D01*
X75073223Y-73264277D01*
X75056747Y-73246098D01*
X75042133Y-73226393D01*
X75029520Y-73205349D01*
X75019030Y-73183171D01*
X75010765Y-73160071D01*
X75004804Y-73136273D01*
X75001204Y-73112004D01*
X75000000Y-73087500D01*
X75000000Y-72162500D01*
X75001204Y-72137996D01*
X75004804Y-72113727D01*
X75010765Y-72089929D01*
X75019030Y-72066829D01*
X75029520Y-72044651D01*
X75042133Y-72023607D01*
X75056747Y-72003902D01*
X75073223Y-71985723D01*
X75091402Y-71969247D01*
X75111107Y-71954633D01*
X75132151Y-71942020D01*
X75154329Y-71931530D01*
X75177429Y-71923265D01*
X75201227Y-71917304D01*
X75225496Y-71913704D01*
X75250000Y-71912500D01*
X76500000Y-71912500D01*
X76524504Y-71913704D01*
G37*
G36*
X50649504Y-78916204D02*
G01*
X50673773Y-78919804D01*
X50697571Y-78925765D01*
X50720671Y-78934030D01*
X50742849Y-78944520D01*
X50763893Y-78957133D01*
X50783598Y-78971747D01*
X50801777Y-78988223D01*
X50818253Y-79006402D01*
X50832867Y-79026107D01*
X50845480Y-79047151D01*
X50855970Y-79069329D01*
X50864235Y-79092429D01*
X50870196Y-79116227D01*
X50873796Y-79140496D01*
X50875000Y-79165000D01*
X50875000Y-80090000D01*
X50873796Y-80114504D01*
X50870196Y-80138773D01*
X50864235Y-80162571D01*
X50855970Y-80185671D01*
X50845480Y-80207849D01*
X50832867Y-80228893D01*
X50818253Y-80248598D01*
X50801777Y-80266777D01*
X50783598Y-80283253D01*
X50763893Y-80297867D01*
X50742849Y-80310480D01*
X50720671Y-80320970D01*
X50697571Y-80329235D01*
X50673773Y-80335196D01*
X50649504Y-80338796D01*
X50625000Y-80340000D01*
X49375000Y-80340000D01*
X49350496Y-80338796D01*
X49326227Y-80335196D01*
X49302429Y-80329235D01*
X49279329Y-80320970D01*
X49257151Y-80310480D01*
X49236107Y-80297867D01*
X49216402Y-80283253D01*
X49198223Y-80266777D01*
X49181747Y-80248598D01*
X49167133Y-80228893D01*
X49154520Y-80207849D01*
X49144030Y-80185671D01*
X49135765Y-80162571D01*
X49129804Y-80138773D01*
X49126204Y-80114504D01*
X49125000Y-80090000D01*
X49125000Y-79165000D01*
X49126204Y-79140496D01*
X49129804Y-79116227D01*
X49135765Y-79092429D01*
X49144030Y-79069329D01*
X49154520Y-79047151D01*
X49167133Y-79026107D01*
X49181747Y-79006402D01*
X49198223Y-78988223D01*
X49216402Y-78971747D01*
X49236107Y-78957133D01*
X49257151Y-78944520D01*
X49279329Y-78934030D01*
X49302429Y-78925765D01*
X49326227Y-78919804D01*
X49350496Y-78916204D01*
X49375000Y-78915000D01*
X50625000Y-78915000D01*
X50649504Y-78916204D01*
G37*
G36*
X50649504Y-75941204D02*
G01*
X50673773Y-75944804D01*
X50697571Y-75950765D01*
X50720671Y-75959030D01*
X50742849Y-75969520D01*
X50763893Y-75982133D01*
X50783598Y-75996747D01*
X50801777Y-76013223D01*
X50818253Y-76031402D01*
X50832867Y-76051107D01*
X50845480Y-76072151D01*
X50855970Y-76094329D01*
X50864235Y-76117429D01*
X50870196Y-76141227D01*
X50873796Y-76165496D01*
X50875000Y-76190000D01*
X50875000Y-77115000D01*
X50873796Y-77139504D01*
X50870196Y-77163773D01*
X50864235Y-77187571D01*
X50855970Y-77210671D01*
X50845480Y-77232849D01*
X50832867Y-77253893D01*
X50818253Y-77273598D01*
X50801777Y-77291777D01*
X50783598Y-77308253D01*
X50763893Y-77322867D01*
X50742849Y-77335480D01*
X50720671Y-77345970D01*
X50697571Y-77354235D01*
X50673773Y-77360196D01*
X50649504Y-77363796D01*
X50625000Y-77365000D01*
X49375000Y-77365000D01*
X49350496Y-77363796D01*
X49326227Y-77360196D01*
X49302429Y-77354235D01*
X49279329Y-77345970D01*
X49257151Y-77335480D01*
X49236107Y-77322867D01*
X49216402Y-77308253D01*
X49198223Y-77291777D01*
X49181747Y-77273598D01*
X49167133Y-77253893D01*
X49154520Y-77232849D01*
X49144030Y-77210671D01*
X49135765Y-77187571D01*
X49129804Y-77163773D01*
X49126204Y-77139504D01*
X49125000Y-77115000D01*
X49125000Y-76190000D01*
X49126204Y-76165496D01*
X49129804Y-76141227D01*
X49135765Y-76117429D01*
X49144030Y-76094329D01*
X49154520Y-76072151D01*
X49167133Y-76051107D01*
X49181747Y-76031402D01*
X49198223Y-76013223D01*
X49216402Y-75996747D01*
X49236107Y-75982133D01*
X49257151Y-75969520D01*
X49279329Y-75959030D01*
X49302429Y-75950765D01*
X49326227Y-75944804D01*
X49350496Y-75941204D01*
X49375000Y-75940000D01*
X50625000Y-75940000D01*
X50649504Y-75941204D01*
G37*
G36*
X50649504Y-68538704D02*
G01*
X50673773Y-68542304D01*
X50697571Y-68548265D01*
X50720671Y-68556530D01*
X50742849Y-68567020D01*
X50763893Y-68579633D01*
X50783598Y-68594247D01*
X50801777Y-68610723D01*
X50818253Y-68628902D01*
X50832867Y-68648607D01*
X50845480Y-68669651D01*
X50855970Y-68691829D01*
X50864235Y-68714929D01*
X50870196Y-68738727D01*
X50873796Y-68762996D01*
X50875000Y-68787500D01*
X50875000Y-69712500D01*
X50873796Y-69737004D01*
X50870196Y-69761273D01*
X50864235Y-69785071D01*
X50855970Y-69808171D01*
X50845480Y-69830349D01*
X50832867Y-69851393D01*
X50818253Y-69871098D01*
X50801777Y-69889277D01*
X50783598Y-69905753D01*
X50763893Y-69920367D01*
X50742849Y-69932980D01*
X50720671Y-69943470D01*
X50697571Y-69951735D01*
X50673773Y-69957696D01*
X50649504Y-69961296D01*
X50625000Y-69962500D01*
X49375000Y-69962500D01*
X49350496Y-69961296D01*
X49326227Y-69957696D01*
X49302429Y-69951735D01*
X49279329Y-69943470D01*
X49257151Y-69932980D01*
X49236107Y-69920367D01*
X49216402Y-69905753D01*
X49198223Y-69889277D01*
X49181747Y-69871098D01*
X49167133Y-69851393D01*
X49154520Y-69830349D01*
X49144030Y-69808171D01*
X49135765Y-69785071D01*
X49129804Y-69761273D01*
X49126204Y-69737004D01*
X49125000Y-69712500D01*
X49125000Y-68787500D01*
X49126204Y-68762996D01*
X49129804Y-68738727D01*
X49135765Y-68714929D01*
X49144030Y-68691829D01*
X49154520Y-68669651D01*
X49167133Y-68648607D01*
X49181747Y-68628902D01*
X49198223Y-68610723D01*
X49216402Y-68594247D01*
X49236107Y-68579633D01*
X49257151Y-68567020D01*
X49279329Y-68556530D01*
X49302429Y-68548265D01*
X49326227Y-68542304D01*
X49350496Y-68538704D01*
X49375000Y-68537500D01*
X50625000Y-68537500D01*
X50649504Y-68538704D01*
G37*
G36*
X50649504Y-71513704D02*
G01*
X50673773Y-71517304D01*
X50697571Y-71523265D01*
X50720671Y-71531530D01*
X50742849Y-71542020D01*
X50763893Y-71554633D01*
X50783598Y-71569247D01*
X50801777Y-71585723D01*
X50818253Y-71603902D01*
X50832867Y-71623607D01*
X50845480Y-71644651D01*
X50855970Y-71666829D01*
X50864235Y-71689929D01*
X50870196Y-71713727D01*
X50873796Y-71737996D01*
X50875000Y-71762500D01*
X50875000Y-72687500D01*
X50873796Y-72712004D01*
X50870196Y-72736273D01*
X50864235Y-72760071D01*
X50855970Y-72783171D01*
X50845480Y-72805349D01*
X50832867Y-72826393D01*
X50818253Y-72846098D01*
X50801777Y-72864277D01*
X50783598Y-72880753D01*
X50763893Y-72895367D01*
X50742849Y-72907980D01*
X50720671Y-72918470D01*
X50697571Y-72926735D01*
X50673773Y-72932696D01*
X50649504Y-72936296D01*
X50625000Y-72937500D01*
X49375000Y-72937500D01*
X49350496Y-72936296D01*
X49326227Y-72932696D01*
X49302429Y-72926735D01*
X49279329Y-72918470D01*
X49257151Y-72907980D01*
X49236107Y-72895367D01*
X49216402Y-72880753D01*
X49198223Y-72864277D01*
X49181747Y-72846098D01*
X49167133Y-72826393D01*
X49154520Y-72805349D01*
X49144030Y-72783171D01*
X49135765Y-72760071D01*
X49129804Y-72736273D01*
X49126204Y-72712004D01*
X49125000Y-72687500D01*
X49125000Y-71762500D01*
X49126204Y-71737996D01*
X49129804Y-71713727D01*
X49135765Y-71689929D01*
X49144030Y-71666829D01*
X49154520Y-71644651D01*
X49167133Y-71623607D01*
X49181747Y-71603902D01*
X49198223Y-71585723D01*
X49216402Y-71569247D01*
X49236107Y-71554633D01*
X49257151Y-71542020D01*
X49279329Y-71531530D01*
X49302429Y-71523265D01*
X49326227Y-71517304D01*
X49350496Y-71513704D01*
X49375000Y-71512500D01*
X50625000Y-71512500D01*
X50649504Y-71513704D01*
G37*
D12*
X71415000Y-75790000D03*
X71415000Y-74990000D03*
X71415000Y-74190000D03*
X71415000Y-73390000D03*
X71415000Y-72590000D03*
X71415000Y-71790000D03*
X71415000Y-70990000D03*
X71415000Y-70190000D03*
X71415000Y-69390000D03*
X71415000Y-68590000D03*
X71415000Y-67790000D03*
D13*
X69715000Y-66090000D03*
X68915000Y-66090000D03*
X68115000Y-66090000D03*
X67315000Y-66090000D03*
X66515000Y-66090000D03*
X65715000Y-66090000D03*
X64915000Y-66090000D03*
X64115000Y-66090000D03*
X63315000Y-66090000D03*
X62515000Y-66090000D03*
X61715000Y-66090000D03*
D12*
X60015000Y-67790000D03*
X60015000Y-68590000D03*
X60015000Y-69390000D03*
X60015000Y-70190000D03*
X60015000Y-70990000D03*
X60015000Y-71790000D03*
X60015000Y-72590000D03*
X60015000Y-73390000D03*
X60015000Y-74190000D03*
X60015000Y-74990000D03*
X60015000Y-75790000D03*
D13*
X61715000Y-77490000D03*
X62515000Y-77490000D03*
X63315000Y-77490000D03*
X64115000Y-77490000D03*
X64915000Y-77490000D03*
X65715000Y-77490000D03*
X66515000Y-77490000D03*
X67315000Y-77490000D03*
X68115000Y-77490000D03*
X68915000Y-77490000D03*
X69715000Y-77490000D03*
M02*
