M48
; DRILL file {KiCad (5.1.5)-2} date 10/20/2020 3:30:25 PM
; FORMAT={-:-/ absolute / inch / decimal}
; #@! TF.CreationDate,2020-10-20T15:30:25-06:00
; #@! TF.GenerationSoftware,Kicad,Pcbnew,(5.1.5)-2
FMAT,2
INCH
T1C0.0157
T2C0.0315
T3C0.0354
T4C0.0390
T5C0.0394
T6C0.0433
T7C0.0512
T8C0.0689
T9C0.1181
T10C0.0394
%
G90
G05
T1
X2.1132Y-3.3807
X2.2811Y-2.667
X2.2886Y-2.7144
X2.3048Y-2.7938
X2.3742Y-3.1019
X2.3816Y-3.2385
X2.3839Y-2.5936
X2.4167Y-2.4683
X2.4819Y-3.3415
X2.5016Y-2.9041
X2.5054Y-2.9462
X2.5406Y-3.11
X2.5567Y-2.93
X2.5987Y-2.9183
X2.6149Y-2.6836
X2.619Y-2.8807
X2.656Y-2.8173
X2.6792Y-3.1408
X2.7207Y-2.9452
X2.7348Y-2.2658
X2.8618Y-2.6157
X2.8817Y-2.7912
X2.9465Y-2.7476
X3.0315Y-2.6142
X3.4944Y-3.58
X5.378Y-3.9055
X5.5179Y-3.8655
X5.5227Y-3.4326
X6.2835Y-2.6299
X6.7796Y-2.4632
X7.0463Y-3.2512
X7.0811Y-2.5995
X7.184Y-2.5789
X7.5145Y-3.0648
T2
X3.3465Y-4.2627
X3.5433Y-4.2913
X3.5591Y-2.8189
X4.5276Y-4.126
X4.5276Y-4.2441
X4.5984Y-3.9528
X2.1372Y-2.8264
X2.1372Y-3.0185
T3
X3.5528Y-4.4685
X3.5528Y-4.5984
X3.6512Y-4.4685
X3.6512Y-4.5984
X3.7496Y-4.4685
X3.7496Y-4.5984
T4
X8.3978Y-2.2
X8.575Y-2.2
X2.2978Y-2.2
X2.475Y-2.2
T5
X3.287Y-2.7165
X3.287Y-2.8165
X3.287Y-2.9165
X3.287Y-3.0165
X3.287Y-3.1165
X3.287Y-3.2165
X3.287Y-3.3165
X3.287Y-3.4165
X3.287Y-3.5165
X3.287Y-3.6165
X3.287Y-3.7165
X3.287Y-3.8165
X3.287Y-3.9165
X3.287Y-4.0165
X6.8594Y-2.4161
X6.8594Y-2.5161
X6.8594Y-2.6161
X6.8594Y-2.7161
X6.8594Y-2.8161
X6.8594Y-2.9161
X6.8594Y-3.0161
X6.8594Y-3.1161
X6.8594Y-3.2161
X6.8594Y-3.3161
X6.8594Y-3.4161
X6.8594Y-3.5161
X6.8594Y-3.6161
X6.8594Y-3.7161
X6.8594Y-3.8161
X6.8594Y-3.9161
X6.8594Y-4.0161
X6.8594Y-4.1161
X6.8594Y-4.2161
X6.8594Y-4.3161
X6.9594Y-2.4161
X6.9594Y-2.5161
X6.9594Y-2.6161
X6.9594Y-2.7161
X6.9594Y-2.8161
X6.9594Y-2.9161
X6.9594Y-3.0161
X6.9594Y-3.1161
X6.9594Y-3.2161
X6.9594Y-3.3161
X6.9594Y-3.4161
X6.9594Y-3.5161
X6.9594Y-3.6161
X6.9594Y-3.7161
X6.9594Y-3.8161
X6.9594Y-3.9161
X6.9594Y-4.0161
X6.9594Y-4.1161
X6.9594Y-4.2161
X6.9594Y-4.3161
X6.224Y-4.2421
X6.324Y-4.2421
X6.424Y-4.2421
X6.524Y-4.2421
X6.624Y-4.2421
X2.9685Y-4.0598
X2.9685Y-4.1598
X2.9685Y-4.2598
X3.0685Y-4.0598
X3.0685Y-4.1598
X3.0685Y-4.2598
X2.6772Y-2.15
X2.6772Y-2.25
X1.9921Y-4.2835
X2.0921Y-4.2835
X2.1921Y-4.2835
X2.2921Y-4.2835
X2.3921Y-4.2835
X2.4921Y-4.2835
X2.5921Y-4.2835
T6
X2.64Y-3.9035
X2.64Y-4.1594
X2.8171Y-3.9035
X2.8171Y-4.1594
X2.7165Y-4.4094
X2.7165Y-4.5866
X2.9724Y-4.4094
X2.9724Y-4.5866
X7.9299Y-4.3969
X7.9299Y-4.574
X8.1858Y-4.3969
X8.1858Y-4.574
X2.2835Y-4.4094
X2.2835Y-4.5866
X2.5394Y-4.4094
X2.5394Y-4.5866
X8.0528Y-3.4035
X8.0528Y-3.6594
X8.2299Y-3.4035
X8.2299Y-3.6594
X8.3799Y-4.3969
X8.3799Y-4.574
X8.6358Y-4.3969
X8.6358Y-4.574
X2.94Y-3.6535
X2.94Y-3.9094
X3.1171Y-3.6535
X3.1171Y-3.9094
X2.64Y-3.4035
X2.64Y-3.6594
X2.8171Y-3.4035
X2.8171Y-3.6594
X7.7528Y-3.6535
X7.7528Y-3.9094
X7.9299Y-3.6535
X7.9299Y-3.9094
X2.34Y-3.6535
X2.34Y-3.9094
X2.5171Y-3.6535
X2.5171Y-3.9094
X8.0528Y-3.9035
X8.0528Y-4.1594
X8.2299Y-3.9035
X8.2299Y-4.1594
X8.3528Y-3.6535
X8.3528Y-3.9094
X8.5299Y-3.6535
X8.5299Y-3.9094
T7
X8.3482Y-2.298
X8.6242Y-2.298
X2.2482Y-2.298
X2.5242Y-2.298
T8
X2.2736Y-3.2854
X2.9311Y-2.5591
X7.8563Y-2.5492
X8.5827Y-3.2067
T9
X6.9094Y-2.2244
X6.9094Y-4.5079
X8.8386Y-2.2244
X8.8386Y-4.5079
X2.0276Y-2.2244
X2.9509Y-2.3909
X6.6902Y-2.3909
X6.6902Y-3.6902
X2.0276Y-4.5079
X3.3173Y-2.2839
X3.3173Y-4.4492
X7.3331Y-4.4492
T10
X4.0173Y-4.3996
X4.1906Y-4.3996
T0
M30
